  0
SECTION
  2
HEADER
  9
$ACADVER
  1
AC1024
  9
$ACADMAINTVER
 90
4
  9
$DWGCODEPAGE
  3
ANSI_1252
  9
$LASTSAVEDBY
  1
ezdxf
  9
$INSBASE
 10
0.0
 20
0.0
 30
0.0
  9
$EXTMIN
 10
-100
 20
-100
 30
-100
  9
$EXTMAX
 10
100
 20
100
 30
100
  9
$LIMMIN
 10
0.0
 20
0.0
  9
$LIMMAX
 10
420.0
 20
297.0
  9
$ORTHOMODE
 70
0
  9
$REGENMODE
 70
1
  9
$FILLMODE
 70
1
  9
$QTEXTMODE
 70
0
  9
$MIRRTEXT
 70
1
  9
$LTSCALE
 40
1.0
  9
$ATTMODE
 70
1
  9
$TEXTSIZE
 40
2.5
  9
$TRACEWID
 40
1.0
  9
$TEXTSTYLE
  7
Standard
  9
$CLAYER
  8
0
  9
$CELTYPE
  6
ByLayer
  9
$CECOLOR
 62
256
  9
$CELTSCALE
 40
1.0
  9
$DISPSILH
 70
0
  9
$DIMSCALE
 40
1.0
  9
$DIMASZ
 40
2.5
  9
$DIMEXO
 40
0.625
  9
$DIMDLI
 40
3.75
  9
$DIMRND
 40
0.0
  9
$DIMDLE
 40
0.0
  9
$DIMEXE
 40
1.25
  9
$DIMTP
 40
0.0
  9
$DIMTM
 40
0.0
  9
$DIMTXT
 40
2.5
  9
$DIMCEN
 40
2.5
  9
$DIMTSZ
 40
0.0
  9
$DIMTOL
 70
0
  9
$DIMLIM
 70
0
  9
$DIMTIH
 70
0
  9
$DIMTOH
 70
0
  9
$DIMSE1
 70
0
  9
$DIMSE2
 70
0
  9
$DIMTAD
 70
1
  9
$DIMZIN
 70
8
  9
$DIMBLK
  1

  9
$DIMASO
 70
1
  9
$DIMSHO
 70
1
  9
$DIMPOST
  1

  9
$DIMAPOST
  1

  9
$DIMALT
 70
0
  9
$DIMALTD
 70
3
  9
$DIMALTF
 40
0.03937007874
  9
$DIMLFAC
 40
1.0
  9
$DIMTOFL
 70
1
  9
$DIMTVP
 40
0.0
  9
$DIMTIX
 70
0
  9
$DIMSOXD
 70
0
  9
$DIMSAH
 70
0
  9
$DIMBLK1
  1

  9
$DIMBLK2
  1

  9
$DIMSTYLE
  2
ISO-25
  9
$DIMCLRD
 70
0
  9
$DIMCLRE
 70
0
  9
$DIMCLRT
 70
0
  9
$DIMTFAC
 40
1.0
  9
$DIMGAP
 40
0.625
  9
$DIMJUST
 70
0
  9
$DIMSD1
 70
0
  9
$DIMSD2
 70
0
  9
$DIMTOLJ
 70
0
  9
$DIMTZIN
 70
8
  9
$DIMALTZ
 70
0
  9
$DIMALTTZ
 70
0
  9
$DIMUPT
 70
0
  9
$DIMDEC
 70
2
  9
$DIMTDEC
 70
2
  9
$DIMALTU
 70
2
  9
$DIMALTTD
 70
3
  9
$DIMTXSTY
  7
Standard
  9
$DIMAUNIT
 70
0
  9
$DIMADEC
 70
0
  9
$DIMALTRND
 40
0.0
  9
$DIMAZIN
 70
0
  9
$DIMDSEP
 70
44
  9
$DIMATFIT
 70
3
  9
$DIMFRAC
 70
0
  9
$DIMLDRBLK
  1

  9
$DIMLUNIT
 70
2
  9
$DIMLWD
 70
-2
  9
$DIMLWE
 70
-2
  9
$DIMTMOVE
 70
0
  9
$DIMFXL
 40
1.0
  9
$DIMFXLON
 70
0
  9
$DIMJOGANG
 40
0.785398163397
  9
$DIMTFILL
 70
0
  9
$DIMTFILLCLR
 70
0
  9
$DIMARCSYM
 70
0
  9
$DIMLTYPE
  6

  9
$DIMLTEX1
  6

  9
$DIMLTEX2
  6

  9
$DIMTXTDIRECTION
 70
0
  9
$LUNITS
 70
2
  9
$LUPREC
 70
4
  9
$SKETCHINC
 40
1.0
  9
$FILLETRAD
 40
10.0
  9
$AUNITS
 70
0
  9
$AUPREC
 70
2
  9
$MENU
  1
.
  9
$ELEVATION
 40
0.0
  9
$PELEVATION
 40
0.0
  9
$THICKNESS
 40
0.0
  9
$LIMCHECK
 70
0
  9
$CHAMFERA
 40
0.0
  9
$CHAMFERB
 40
0.0
  9
$CHAMFERC
 40
0.0
  9
$CHAMFERD
 40
0.0
  9
$SKPOLY
 70
0
  9
$TDCREATE
 40
2458921.831087963
  9
$TDUCREATE
 40
2458532.153996898
  9
$TDUPDATE
 40
2458921.831087963
  9
$TDUUPDATE
 40
2458532.1544311
  9
$TDINDWG
 40
0.0
  9
$TDUSRTIMER
 40
0.0
  9
$USRTIMER
 70
1
  9
$ANGBASE
 50
0.0
  9
$ANGDIR
 70
0
  9
$PDMODE
 70
0
  9
$PDSIZE
 40
0.0
  9
$PLINEWID
 40
0.0
  9
$SPLFRAME
 70
0
  9
$SPLINETYPE
 70
6
  9
$SPLINESEGS
 70
8
  9
$HANDSEED
  5
1D6
  9
$SURFTAB1
 70
6
  9
$SURFTAB2
 70
6
  9
$SURFTYPE
 70
6
  9
$SURFU
 70
6
  9
$SURFV
 70
6
  9
$UCSBASE
  2

  9
$UCSNAME
  2

  9
$UCSORG
 10
0.0
 20
0.0
 30
0.0
  9
$UCSXDIR
 10
1.0
 20
0.0
 30
0.0
  9
$UCSYDIR
 10
0.0
 20
1.0
 30
0.0
  9
$UCSORTHOREF
  2

  9
$UCSORTHOVIEW
 70
0
  9
$UCSORGTOP
 10
0.0
 20
0.0
 30
0.0
  9
$UCSORGBOTTOM
 10
0.0
 20
0.0
 30
0.0
  9
$UCSORGLEFT
 10
0.0
 20
0.0
 30
0.0
  9
$UCSORGRIGHT
 10
0.0
 20
0.0
 30
0.0
  9
$UCSORGFRONT
 10
0.0
 20
0.0
 30
0.0
  9
$UCSORGBACK
 10
0.0
 20
0.0
 30
0.0
  9
$PUCSBASE
  2

  9
$PUCSNAME
  2

  9
$PUCSORG
 10
0.0
 20
0.0
 30
0.0
  9
$PUCSXDIR
 10
1.0
 20
0.0
 30
0.0
  9
$PUCSYDIR
 10
0.0
 20
1.0
 30
0.0
  9
$PUCSORTHOREF
  2

  9
$PUCSORTHOVIEW
 70
0
  9
$PUCSORGTOP
 10
0.0
 20
0.0
 30
0.0
  9
$PUCSORGBOTTOM
 10
0.0
 20
0.0
 30
0.0
  9
$PUCSORGLEFT
 10
0.0
 20
0.0
 30
0.0
  9
$PUCSORGRIGHT
 10
0.0
 20
0.0
 30
0.0
  9
$PUCSORGFRONT
 10
0.0
 20
0.0
 30
0.0
  9
$PUCSORGBACK
 10
0.0
 20
0.0
 30
0.0
  9
$USERI1
 70
0
  9
$USERI2
 70
0
  9
$USERI3
 70
0
  9
$USERI4
 70
0
  9
$USERI5
 70
0
  9
$USERR1
 40
0.0
  9
$USERR2
 40
0.0
  9
$USERR3
 40
0.0
  9
$USERR4
 40
0.0
  9
$USERR5
 40
0.0
  9
$WORLDVIEW
 70
1
  9
$SHADEDGE
 70
3
  9
$SHADEDIF
 70
70
  9
$TILEMODE
 70
1
  9
$MAXACTVP
 70
64
  9
$PINSBASE
 10
0.0
 20
0.0
 30
0.0
  9
$PLIMCHECK
 70
0
  9
$PEXTMIN
 10
1e+20
 20
1e+20
 30
1e+20
  9
$PEXTMAX
 10
-1e+20
 20
-1e+20
 30
-1e+20
  9
$PLIMMIN
 10
0.0
 20
0.0
  9
$PLIMMAX
 10
420.0
 20
297.0
  9
$UNITMODE
 70
0
  9
$VISRETAIN
 70
1
  9
$PLINEGEN
 70
0
  9
$PSLTSCALE
 70
1
  9
$TREEDEPTH
 70
3020
  9
$CMLSTYLE
  2
Standard
  9
$CMLJUST
 70
0
  9
$CMLSCALE
 40
20.0
  9
$PROXYGRAPHICS
 70
1
  9
$MEASUREMENT
 70
1
  9
$CELWEIGHT
370
-1
  9
$ENDCAPS
280
0
  9
$JOINSTYLE
280
0
  9
$LWDISPLAY
290
0
  9
$INSUNITS
 70
4
  9
$HYPERLINKBASE
  1

  9
$STYLESHEET
  1

  9
$XEDIT
290
1
  9
$CEPSNTYPE
380
0
  9
$PSTYLEMODE
290
1
  9
$FINGERPRINTGUID
  2
389F2ABA-6493-11EA-A70D-58946B7B6068
  9
$VERSIONGUID
  2
389F2ABC-6493-11EA-A70D-58946B7B6068
  9
$EXTNAMES
290
1
  9
$PSVPSCALE
 40
0.0
  9
$OLESTARTUP
290
0
  9
$SORTENTS
280
127
  9
$INDEXCTL
280
0
  9
$HIDETEXT
280
1
  9
$XCLIPFRAME
280
2
  9
$HALOGAP
280
0
  9
$OBSCOLOR
 70
257
  9
$OBSLTYPE
280
0
  9
$INTERSECTIONDISPLAY
280
0
  9
$INTERSECTIONCOLOR
 70
257
  9
$DIMASSOC
280
2
  9
$PROJECTNAME
  1

  9
$CAMERADISPLAY
290
0
  9
$LENSLENGTH
 40
50.0
  9
$CAMERAHEIGHT
 40
0.0
  9
$STEPSPERSEC
 40
24.0
  9
$STEPSIZE
 40
100.0
  9
$3DDWFPREC
 40
2.0
  9
$PSOLWIDTH
 40
0.005
  9
$PSOLHEIGHT
 40
0.08
  9
$LOFTANG1
 40
1.570796326795
  9
$LOFTANG2
 40
1.570796326795
  9
$LOFTMAG1
 40
0.0
  9
$LOFTMAG2
 40
0.0
  9
$LOFTPARAM
 70
7
  9
$LOFTNORMALS
280
1
  9
$LATITUDE
 40
37.795
  9
$LONGITUDE
 40
-122.394
  9
$NORTHDIRECTION
 40
0.0
  9
$TIMEZONE
 70
-8000
  9
$LIGHTGLYPHDISPLAY
280
1
  9
$TILEMODELIGHTSYNCH
280
1
  9
$CMATERIAL
347
45
  9
$SOLIDHIST
280
0
  9
$SHOWHIST
280
1
  9
$DWFFRAME
280
2
  9
$DGNFRAME
280
2
  9
$REALWORLDSCALE
290
1
  9
$INTERFERECOLOR
 62
256
  9
$CSHADOW
280
0
  9
$SHADOWPLANELOCATION
 40
0.0
  0
ENDSEC
  0
SECTION
  2
CLASSES
  0
CLASS
  1
ACDBDICTIONARYWDFLT
  2
AcDbDictionaryWithDefault
  3
ObjectDBX Classes
 90
0
 91
0
280
0
281
0
  0
CLASS
  1
SUN
  2
AcDbSun
  3
SCENEOE
 90
1153
 91
0
280
0
281
0
  0
CLASS
  1
VISUALSTYLE
  2
AcDbVisualStyle
  3
ObjectDBX Classes
 90
4095
 91
0
280
0
281
0
  0
CLASS
  1
MATERIAL
  2
AcDbMaterial
  3
ObjectDBX Classes
 90
1153
 91
0
280
0
281
0
  0
CLASS
  1
SCALE
  2
AcDbScale
  3
ObjectDBX Classes
 90
1153
 91
0
280
0
281
0
  0
CLASS
  1
TABLESTYLE
  2
AcDbTableStyle
  3
ObjectDBX Classes
 90
4095
 91
0
280
0
281
0
  0
CLASS
  1
MLEADERSTYLE
  2
AcDbMLeaderStyle
  3
ACDB_MLEADERSTYLE_CLASS
 90
4095
 91
0
280
0
281
0
  0
CLASS
  1
DICTIONARYVAR
  2
AcDbDictionaryVar
  3
ObjectDBX Classes
 90
0
 91
0
280
0
281
0
  0
CLASS
  1
CELLSTYLEMAP
  2
AcDbCellStyleMap
  3
ObjectDBX Classes
 90
1152
 91
0
280
0
281
0
  0
CLASS
  1
MENTALRAYRENDERSETTINGS
  2
AcDbMentalRayRenderSettings
  3
SCENEOE
 90
1024
 91
0
280
0
281
0
  0
CLASS
  1
ACDBDETAILVIEWSTYLE
  2
AcDbDetailViewStyle
  3
ObjectDBX Classes
 90
1025
 91
0
280
0
281
0
  0
CLASS
  1
ACDBSECTIONVIEWSTYLE
  2
AcDbSectionViewStyle
  3
ObjectDBX Classes
 90
1025
 91
0
280
0
281
0
  0
CLASS
  1
RASTERVARIABLES
  2
AcDbRasterVariables
  3
ISM
 90
0
 91
0
280
0
281
0
  0
CLASS
  1
LAYOUT
  2
AcDbLayout
  3
ObjectDBX Classes
 90
0
 91
0
280
0
281
0
  0
CLASS
  1
ACDBPLACEHOLDER
  2
AcDbPlaceHolder
  3
ObjectDBX Classes
 90
0
 91
0
280
0
281
0
  0
ENDSEC
  0
SECTION
  2
TABLES
  0
TABLE
  2
VPORT
  5
4
330
0
100
AcDbSymbolTable
 70
1
  0
VPORT
  5
23
330
4
100
AcDbSymbolTableRecord
100
AcDbViewportTableRecord
  2
*Active
 70
0
 10
0.0
 20
0.0
 11
1.0
 21
1.0
 12
70.0
 22
50.0
 13
0.0
 23
0.0
 14
0.5
 24
0.5
 15
0.5
 25
0.5
 16
0.0
 26
0.0
 36
1.0
 17
0.0
 27
0.0
 37
0.0
 40
1.0
 41
1.34
 42
50.0
 43
0.0
 44
0.0
 50
0.0
 51
0.0
 71
0
 72
1000
 73
1
 74
3
 75
0
 76
0
 77
0
 78
0
281
0
 65
0
146
0.0
  0
ENDTAB
  0
TABLE
  2
LTYPE
  5
3
330
0
100
AcDbSymbolTable
 70
4
  0
LTYPE
  5
24
330
3
100
AcDbSymbolTableRecord
100
AcDbLinetypeTableRecord
  2
ByBlock
 70
0
  3

 72
65
 73
0
 40
0.0
  0
LTYPE
  5
25
330
3
100
AcDbSymbolTableRecord
100
AcDbLinetypeTableRecord
  2
ByLayer
 70
0
  3

 72
65
 73
0
 40
0.0
  0
LTYPE
  5
26
330
3
100
AcDbSymbolTableRecord
100
AcDbLinetypeTableRecord
  2
Continuous
 70
0
  3

 72
65
 73
0
 40
0.0
  0
LTYPE
  5
39
330
3
100
AcDbSymbolTableRecord
100
AcDbLinetypeTableRecord
  2
DASHED
 70
0
  3
Dashed - - - - - - - - - - - - - - - - - - - - - - -
 72
65
 73
2
 40
8.0
 49
-3.0
 74
0
 49
8.0
 74
0
  0
ENDTAB
  0
TABLE
  2
LAYER
  5
6
330
0
100
AcDbSymbolTable
 70
14
  0
LAYER
  5
27
330
6
100
AcDbSymbolTableRecord
100
AcDbLayerTableRecord
  2
0
 70
0
 62
7
  6
Continuous
370
-3
390
13
347
21
  0
LAYER
  5
28
330
6
100
AcDbSymbolTableRecord
100
AcDbLayerTableRecord
  2
Defpoints
 70
0
 62
7
  6
Continuous
290
0
370
-3
390
13
347
21
  0
LAYER
  5
2D
330
6
100
AcDbSymbolTableRecord
100
AcDbLayerTableRecord
  2
SAIL
 70
0
 62
0
  6
Continuous
370
50
390
13
347
21
  0
LAYER
  5
2E
330
6
100
AcDbSymbolTableRecord
100
AcDbLayerTableRecord
  2
TUBE
 70
0
 62
0
  6
Continuous
370
50
390
13
347
21
  0
LAYER
  5
2F
330
6
100
AcDbSymbolTableRecord
100
AcDbLayerTableRecord
  2
BLADDER
 70
0
 62
0
  6
Continuous
370
50
390
13
347
21
  0
LAYER
  5
30
330
6
100
AcDbSymbolTableRecord
100
AcDbLayerTableRecord
  2
PEN
 70
0
 62
5
  6
Continuous
370
-3
390
13
347
21
  0
LAYER
  5
31
330
6
100
AcDbSymbolTableRecord
100
AcDbLayerTableRecord
  2
SEAM
 70
0
 62
1
  6
DASHED
370
35
390
13
347
21
  0
LAYER
  5
32
330
6
100
AcDbSymbolTableRecord
100
AcDbLayerTableRecord
  2
MARKER
 70
0
 62
8
  6
Continuous
370
-3
390
13
347
21
  0
LAYER
  5
33
330
6
100
AcDbSymbolTableRecord
100
AcDbLayerTableRecord
  2
TEXT
 70
0
 62
3
  6
Continuous
370
-3
390
13
347
21
  0
LAYER
  5
34
330
6
100
AcDbSymbolTableRecord
100
AcDbLayerTableRecord
  2
REINFORCEMENT
 70
0
 62
4
  6
Continuous
370
50
390
13
347
21
  0
LAYER
  5
35
330
6
100
AcDbSymbolTableRecord
100
AcDbLayerTableRecord
  2
PROTECTION
 70
0
 62
6
  6
Continuous
370
50
390
13
347
21
  0
LAYER
  5
36
330
6
100
AcDbSymbolTableRecord
100
AcDbLayerTableRecord
  2
WEBBING
 70
0
 62
2
  6
Continuous
370
35
390
13
347
21
  0
LAYER
  5
37
330
6
100
AcDbSymbolTableRecord
100
AcDbLayerTableRecord
  2
CUT
 70
0
 62
6
  6
Continuous
370
50
390
13
347
21
  0
LAYER
  5
38
330
6
100
AcDbSymbolTableRecord
100
AcDbLayerTableRecord
  2
DRILL
 70
0
 62
2
  6
Continuous
370
35
390
13
347
21
  0
ENDTAB
  0
TABLE
  2
STYLE
  5
7
330
0
100
AcDbSymbolTable
 70
1
  0
STYLE
  5
29
330
7
100
AcDbSymbolTableRecord
100
AcDbTextStyleTableRecord
  2
Standard
 70
0
 40
0.0
 41
1.0
 50
0.0
 71
0
 42
2.5
  3
txt
  4

  0
ENDTAB
  0
TABLE
  2
VIEW
  5
9
330
0
100
AcDbSymbolTable
 70
0
  0
ENDTAB
  0
TABLE
  2
UCS
  5
5
330
0
100
AcDbSymbolTable
 70
0
  0
ENDTAB
  0
TABLE
  2
APPID
  5
8
330
0
100
AcDbSymbolTable
 70
1
  0
APPID
  5
2A
330
8
100
AcDbSymbolTableRecord
100
AcDbRegAppTableRecord
  2
ACAD
 70
0
  0
ENDTAB
  0
TABLE
  2
DIMSTYLE
  5
2
330
0
100
AcDbSymbolTable
 70
1
100
AcDbDimStyleTable
  0
DIMSTYLE
105
2B
330
2
100
AcDbSymbolTableRecord
100
AcDbDimStyleTableRecord
  2
Standard
 70
0
 40
1.0
 41
2.5
 42
0.625
 43
3.75
 44
1.25
 45
0.0
 46
0.0
 47
0.0
 48
0.0
 49
2.5
140
2.5
141
2.5
142
0.0
143
0.03937007874
144
1.0
145
0.0
146
1.0
147
0.625
148
0.0
 69
0
 70
0
 71
0
 72
0
 73
0
 74
0
 75
0
 76
0
 77
1
 78
8
 79
0
170
0
171
3
172
1
173
0
174
0
175
0
176
0
177
0
178
0
179
0
271
0
272
2
273
2
274
3
275
0
276
0
277
2
278
44
279
0
280
0
281
0
282
0
283
0
284
8
285
0
286
0
288
0
289
3
290
0
371
-2
372
-2
  0
ENDTAB
  0
TABLE
  2
BLOCK_RECORD
  5
1
330
0
100
AcDbSymbolTable
 70
35
  0
BLOCK_RECORD
  5
17
330
1
100
AcDbSymbolTableRecord
100
AcDbBlockTableRecord
  2
*Model_Space
340
1A
 70
0
280
1
281
1
  0
BLOCK_RECORD
  5
1B
330
1
100
AcDbSymbolTableRecord
100
AcDbBlockTableRecord
  2
*Paper_Space
340
1E
 70
0
280
1
281
1
  0
BLOCK_RECORD
  5
3A
330
1
100
AcDbSymbolTableRecord
100
AcDbBlockTableRecord
  2
ripstop UV-SAIL-1_(0)
340
0
 70
0
280
1
281
1
  0
BLOCK_RECORD
  5
59
330
1
100
AcDbSymbolTableRecord
100
AcDbBlockTableRecord
  2
ripstop UV-SAIL-2_(1)
340
0
 70
0
280
1
281
1
  0
BLOCK_RECORD
  5
6C
330
1
100
AcDbSymbolTableRecord
100
AcDbBlockTableRecord
  2
ripstop UV-SAIL-3_(2)
340
0
 70
0
280
1
281
1
  0
BLOCK_RECORD
  5
7F
330
1
100
AcDbSymbolTableRecord
100
AcDbBlockTableRecord
  2
ripstop UV-SAIL-4_(3)
340
0
 70
0
280
1
281
1
  0
BLOCK_RECORD
  5
92
330
1
100
AcDbSymbolTableRecord
100
AcDbBlockTableRecord
  2
ripstop UV-SAIL-5_(4)
340
0
 70
0
280
1
281
1
  0
BLOCK_RECORD
  5
AB
330
1
100
AcDbSymbolTableRecord
100
AcDbBlockTableRecord
  2
ripstop UV-SAIL-6_(5)
340
0
 70
0
280
1
281
1
  0
BLOCK_RECORD
  5
BE
330
1
100
AcDbSymbolTableRecord
100
AcDbBlockTableRecord
  2
ripstop UV-SAIL-7_(6)
340
0
 70
0
280
1
281
1
  0
BLOCK_RECORD
  5
CF
330
1
100
AcDbSymbolTableRecord
100
AcDbBlockTableRecord
  2
ripstop UV-SAIL-1.left_(7)
340
0
 70
0
280
1
281
1
  0
BLOCK_RECORD
  5
EE
330
1
100
AcDbSymbolTableRecord
100
AcDbBlockTableRecord
  2
ripstop UV-SAIL-1.te_patch_(8)
340
0
 70
0
280
1
281
1
  0
BLOCK_RECORD
  5
F4
330
1
100
AcDbSymbolTableRecord
100
AcDbBlockTableRecord
  2
ripstop UV-SAIL-1.te_patch.left_(9)
340
0
 70
0
280
1
281
1
  0
BLOCK_RECORD
  5
FA
330
1
100
AcDbSymbolTableRecord
100
AcDbBlockTableRecord
  2
ripstop UV-SAIL-1.patch.strut.center_(10)
340
0
 70
0
280
1
281
1
  0
BLOCK_RECORD
  5
100
330
1
100
AcDbSymbolTableRecord
100
AcDbBlockTableRecord
  2
ripstop UV-SAIL-1.patch.strut.center.left_(11)
340
0
 70
0
280
1
281
1
  0
BLOCK_RECORD
  5
106
330
1
100
AcDbSymbolTableRecord
100
AcDbBlockTableRecord
  2
ripstop UV-SAIL-2.left_(12)
340
0
 70
0
280
1
281
1
  0
BLOCK_RECORD
  5
119
330
1
100
AcDbSymbolTableRecord
100
AcDbBlockTableRecord
  2
ripstop UV-SAIL-2.te_patch_(13)
340
0
 70
0
280
1
281
1
  0
BLOCK_RECORD
  5
11F
330
1
100
AcDbSymbolTableRecord
100
AcDbBlockTableRecord
  2
ripstop UV-SAIL-2.te_patch.left_(14)
340
0
 70
0
280
1
281
1
  0
BLOCK_RECORD
  5
125
330
1
100
AcDbSymbolTableRecord
100
AcDbBlockTableRecord
  2
ripstop UV-SAIL-3.left_(15)
340
0
 70
0
280
1
281
1
  0
BLOCK_RECORD
  5
138
330
1
100
AcDbSymbolTableRecord
100
AcDbBlockTableRecord
  2
ripstop UV-SAIL-3.te_patch_(16)
340
0
 70
0
280
1
281
1
  0
BLOCK_RECORD
  5
13E
330
1
100
AcDbSymbolTableRecord
100
AcDbBlockTableRecord
  2
ripstop UV-SAIL-3.te_patch.left_(17)
340
0
 70
0
280
1
281
1
  0
BLOCK_RECORD
  5
144
330
1
100
AcDbSymbolTableRecord
100
AcDbBlockTableRecord
  2
ripstop UV-SAIL-4.left_(18)
340
0
 70
0
280
1
281
1
  0
BLOCK_RECORD
  5
157
330
1
100
AcDbSymbolTableRecord
100
AcDbBlockTableRecord
  2
ripstop UV-SAIL-4.te_patch_(19)
340
0
 70
0
280
1
281
1
  0
BLOCK_RECORD
  5
15D
330
1
100
AcDbSymbolTableRecord
100
AcDbBlockTableRecord
  2
ripstop UV-SAIL-4.te_patch.left_(20)
340
0
 70
0
280
1
281
1
  0
BLOCK_RECORD
  5
163
330
1
100
AcDbSymbolTableRecord
100
AcDbBlockTableRecord
  2
ripstop UV-SAIL-4.patch.strut.outside_(21)
340
0
 70
0
280
1
281
1
  0
BLOCK_RECORD
  5
169
330
1
100
AcDbSymbolTableRecord
100
AcDbBlockTableRecord
  2
ripstop UV-SAIL-4.patch.strut.outside.left_(22)
340
0
 70
0
280
1
281
1
  0
BLOCK_RECORD
  5
16F
330
1
100
AcDbSymbolTableRecord
100
AcDbBlockTableRecord
  2
ripstop UV-SAIL-5.left_(23)
340
0
 70
0
280
1
281
1
  0
BLOCK_RECORD
  5
188
330
1
100
AcDbSymbolTableRecord
100
AcDbBlockTableRecord
  2
ripstop UV-SAIL-5.te_patch_(24)
340
0
 70
0
280
1
281
1
  0
BLOCK_RECORD
  5
18E
330
1
100
AcDbSymbolTableRecord
100
AcDbBlockTableRecord
  2
ripstop UV-SAIL-5.te_patch.left_(25)
340
0
 70
0
280
1
281
1
  0
BLOCK_RECORD
  5
194
330
1
100
AcDbSymbolTableRecord
100
AcDbBlockTableRecord
  2
ripstop UV-SAIL-5.patch.strut.center_(26)
340
0
 70
0
280
1
281
1
  0
BLOCK_RECORD
  5
19A
330
1
100
AcDbSymbolTableRecord
100
AcDbBlockTableRecord
  2
ripstop UV-SAIL-5.patch.strut.center.left_(27)
340
0
 70
0
280
1
281
1
  0
BLOCK_RECORD
  5
1A0
330
1
100
AcDbSymbolTableRecord
100
AcDbBlockTableRecord
  2
ripstop UV-SAIL-6.left_(28)
340
0
 70
0
280
1
281
1
  0
BLOCK_RECORD
  5
1B3
330
1
100
AcDbSymbolTableRecord
100
AcDbBlockTableRecord
  2
ripstop UV-SAIL-7.left_(29)
340
0
 70
0
280
1
281
1
  0
BLOCK_RECORD
  5
1C4
330
1
100
AcDbSymbolTableRecord
100
AcDbBlockTableRecord
  2
ripstop UV-LE-10.tab_inside_(30)
340
0
 70
0
280
1
281
1
  0
BLOCK_RECORD
  5
1CA
330
1
100
AcDbSymbolTableRecord
100
AcDbBlockTableRecord
  2
ripstop UV-LE-10.tab_inside_left_(31)
340
0
 70
0
280
1
281
1
  0
BLOCK_RECORD
  5
1D0
330
1
100
AcDbSymbolTableRecord
100
AcDbBlockTableRecord
  2
Copyright_(131)
340
0
 70
0
280
1
281
1
  0
ENDTAB
  0
ENDSEC
  0
SECTION
  2
BLOCKS
  0
BLOCK
  5
18
330
17
100
AcDbEntity
  8
0
100
AcDbBlockBegin
  2
*Model_Space
 70
0
 10
0.0
 20
0.0
 30
0.0
  3
*Model_Space
  1

  0
ENDBLK
  5
19
330
17
100
AcDbEntity
  8
0
100
AcDbBlockEnd
  0
BLOCK
  5
1C
330
1B
100
AcDbEntity
  8
0
100
AcDbBlockBegin
  2
*Paper_Space
 70
0
 10
0.0
 20
0.0
 30
0.0
  3
*Paper_Space
  1

  0
ENDBLK
  5
1D
330
1B
100
AcDbEntity
  8
0
100
AcDbBlockEnd
  0
BLOCK
  5
3B
330
3A
100
AcDbEntity
  8
0
100
AcDbBlockBegin
  2
ripstop UV-SAIL-1_(0)
 70
0
 10
0.0
 20
0.0
 30
0.0
  3
ripstop UV-SAIL-1_(0)
  1

  0
LINE
  5
3D
330
3A
100
AcDbEntity
  8
PEN
100
AcDbLine
 10
-29.255722045898438
 20
-1593.3714599609375
 30
0.0
 11
-39.255706787109375
 21
-1593.3714599609375
 31
0.0
  0
LINE
  5
3E
330
3A
100
AcDbEntity
  8
PEN
100
AcDbLine
 10
-34.255706787109375
 20
-1588.3714599609375
 30
0.0
 11
-34.255706787109375
 21
-1598.3714599609375
 31
0.0
  0
LINE
  5
3F
330
3A
100
AcDbEntity
  8
PEN
100
AcDbLine
 10
-534.59521484375
 20
-1549.133544921875
 30
0.0
 11
-544.59521484375
 21
-1549.133544921875
 31
0.0
  0
LINE
  5
40
330
3A
100
AcDbEntity
  8
PEN
100
AcDbLine
 10
-539.59521484375
 20
-1544.133544921875
 30
0.0
 11
-539.59521484375
 21
-1554.133544921875
 31
0.0
  0
LWPOLYLINE
  5
41
330
3A
100
AcDbEntity
  8
CUT
100
AcDbPolyline
 90
93
 70
0
 43
0.0
 10
0.0
 20
0.0
 10
0.1292266845703125
 20
-8.00390625
 10
1.5210723876953125
 20
-94.25146484375
 10
2.86480712890625
 20
-176.902587890625
 10
4.1578521728515625
 20
-255.95458984375
 10
5.402252197265625
 20
-331.709228515625
 10
6.59808349609375
 20
-404.349365234375
 10
7.7379608154296875
 20
-473.6104736328125
 10
8.826629638671875
 20
-539.979248046875
 10
9.856048583984375
 20
-603.14501953125
 10
10.8275146484375
 20
-663.394775390625
 10
11.73968505859375
 20
-720.8341064453125
 10
12.59088134765625
 20
-775.55322265625
 10
13.378402709960938
 20
-827.6025390625
 10
14.100082397460938
 20
-877.0498046875
 10
14.754440307617188
 20
-924.0184326171875
 10
15.339797973632812
 20
-968.6162109375
 10
15.853485107421875
 20
-1010.892333984375
 10
16.293792724609375
 20
-1050.962890625
 10
16.658660888671875
 20
-1088.915283203125
 10
16.945755004882812
 20
-1124.8424072265625
 10
17.152847290039062
 20
-1158.8414306640625
 10
17.277694702148438
 20
-1190.992431640625
 10
17.3179931640625
 20
-1221.4031982421875
 10
17.271133422851562
 20
-1250.1846923828125
 10
17.134750366210938
 20
-1277.41748046875
 10
16.90594482421875
 20
-1303.213134765625
 10
16.582015991210938
 20
-1327.682861328125
 10
16.159820556640625
 20
-1350.9267578125
 10
15.63616943359375
 20
-1373.0673828125
 10
15.0078125
 20
-1394.21240234375
 10
14.2711181640625
 20
-1414.487060546875
 10
13.422271728515625
 20
-1434.0093994140625
 10
12.457504272460938
 20
-1452.9091796875
 10
11.372879028320312
 20
-1471.3067626953125
 10
10.1641845703125
 20
-1489.3338623046875
 10
8.82769775390625
 20
-1507.112060546875
 10
7.3594207763671875
 20
-1524.7679443359375
 10
5.7556915283203125
 20
-1542.421142578125
 10
4.0136566162109375
 20
-1560.184814453125
 10
2.1294097900390625
 20
-1578.177490234375
 10
0.1026763916015625
 20
-1596.48291015625
 10
-0.9867095947265625
 20
-1606.3221435546875
 10
-0.9867095947265625
 20
-1606.3221435546875
 10
-5.2420806884765625
 20
-1605.9495849609375
 10
-573.0119018554688
 20
-1556.24658203125
 10
-573.0119018554688
 20
-1556.24658203125
 10
-573.9577026367188
 20
-1546.9739990234375
 10
-575.7171020507812
 20
-1529.725341796875
 10
-577.3482666015625
 20
-1512.744140625
 10
-578.8512573242188
 20
-1495.9163818359375
 10
-580.2227172851562
 20
-1479.162841796875
 10
-581.4623413085938
 20
-1462.361572265625
 10
-582.5694580078125
 20
-1445.3865966796875
 10
-583.540771484375
 20
-1428.147705078125
 10
-584.3756103515625
 20
-1410.5059814453125
 10
-585.0718383789062
 20
-1392.3568115234375
 10
-585.6282348632812
 20
-1373.572265625
 10
-586.0432739257812
 20
-1354.0364990234375
 10
-586.3153076171875
 20
-1333.6558837890625
 10
-586.4434814453125
 20
-1312.2965087890625
 10
-586.4269409179688
 20
-1289.84765625
 10
-586.2647094726562
 20
-1266.23046875
 10
-585.9560546875
 20
-1241.3250732421875
 10
-585.500244140625
 20
-1215.013671875
 10
-584.8975219726562
 20
-1187.2342529296875
 10
-584.1467895507812
 20
-1157.8668212890625
 10
-583.2483520507812
 20
-1126.8250732421875
 10
-582.2011108398438
 20
-1093.9986572265625
 10
-581.00634765625
 20
-1059.3348388671875
 10
-579.6636352539062
 20
-1022.7308349609375
 10
-578.1699829101562
 20
-984.0155029296875
 10
-576.5326538085938
 20
-943.28515625
 10
-574.7415161132812
 20
-900.2064208984375
 10
-572.8065185546875
 20
-854.923583984375
 10
-570.7243041992188
 20
-807.2606201171875
 10
-568.4905395507812
 20
-757.03271484375
 10
-566.11376953125
 20
-704.33642578125
 10
-563.5841064453125
 20
-648.865234375
 10
-560.914306640625
 20
-590.796142578125
 10
-558.10009765625
 20
-529.947509765625
 10
-555.1184692382812
 20
-465.720947265625
 10
-552.0205688476562
 20
-399.118896484375
 10
-548.7569580078125
 20
-328.98291015625
 10
-545.359130859375
 20
-255.877685546875
 10
-541.8362426757812
 20
-179.912109375
 10
-538.1498413085938
 20
-100.14208984375
 10
-534.3232421875
 20
-16.9638671875
 10
-533.9678955078125
 20
-9.241455078125
 10
-533.9678955078125
 20
-9.241455078125
 10
-529.9664306640625
 20
-9.171875
 10
-4.5086212158203125
 20
-0.077880859375
 10
0.0
 20
0.0
  0
LINE
  5
42
330
3A
100
AcDbEntity
  8
PEN
100
AcDbLine
 10
0.6298065185546875
 20
-8.07666015625
 30
0.0
 11
-9.370193481445312
 21
-8.07666015625
 31
0.0
  0
LINE
  5
43
330
3A
100
AcDbEntity
  8
PEN
100
AcDbLine
 10
-4.3701934814453125
 20
-3.07666015625
 30
0.0
 11
-4.3701934814453125
 21
-13.076904296875
 31
0.0
  0
LINE
  5
44
330
3A
100
AcDbEntity
  8
PEN
100
AcDbLine
 10
0.6299896240234375
 20
-1595.98779296875
 30
0.0
 11
-9.3699951171875
 21
-1595.98779296875
 31
0.0
  0
LINE
  5
45
330
3A
100
AcDbEntity
  8
PEN
100
AcDbLine
 10
-4.3699951171875
 20
-1590.98779296875
 30
0.0
 11
-4.3699951171875
 21
-1600.9876708984375
 31
0.0
  0
LINE
  5
46
330
3A
100
AcDbEntity
  8
PEN
100
AcDbLine
 10
-524.8279418945312
 20
-17.170654296875
 30
0.0
 11
-534.8279418945312
 21
-17.170654296875
 31
0.0
  0
LINE
  5
47
330
3A
100
AcDbEntity
  8
PEN
100
AcDbLine
 10
-529.8279418945312
 20
-12.170654296875
 30
0.0
 11
-529.8279418945312
 21
-22.1708984375
 31
0.0
  0
LINE
  5
48
330
3A
100
AcDbEntity
  8
PEN
100
AcDbLine
 10
-564.4808959960938
 20
-1546.517333984375
 30
0.0
 11
-574.4808959960938
 21
-1546.517333984375
 31
0.0
  0
LINE
  5
49
330
3A
100
AcDbEntity
  8
PEN
100
AcDbLine
 10
-569.4808959960938
 20
-1541.517333984375
 30
0.0
 11
-569.4808959960938
 21
-1551.517333984375
 31
0.0
  0
TEXT
  5
4A
330
3A
100
AcDbEntity
  8
TEXT
100
AcDbText
 10
-524.8279418945312
 20
-17.170654296875
 30
0.0
 40
3.0
  1
SAIL-1 R
 11
-524.8279418945312
 21
-17.170654296875
 31
0.0
100
AcDbText
  0
LINE
  5
4B
330
3A
100
AcDbEntity
  8
PEN
100
AcDbLine
 10
13.927200317382812
 20
-1433.7982177734375
 30
0.0
 11
3.9272003173828125
 21
-1433.7982177734375
 31
0.0
  0
LINE
  5
4C
330
3A
100
AcDbEntity
  8
PEN
100
AcDbLine
 10
8.927200317382812
 20
-1428.7982177734375
 30
0.0
 11
8.927200317382812
 21
-1438.7982177734375
 31
0.0
  0
TEXT
  5
4D
330
3A
100
AcDbEntity
  8
text
100
AcDbText
 10
-40.07279968261719
 20
-1435.7982177734375
 30
0.0
 40
3.0
  1
strut-seam
 11
-40.07279968261719
 21
-1435.7982177734375
 31
0.0
100
AcDbText
  0
LINE
  5
4E
330
3A
100
AcDbEntity
  8
PEN
100
AcDbLine
 10
17.634841918945312
 20
-1277.3858642578125
 30
0.0
 11
7.634857177734375
 21
-1277.3858642578125
 31
0.0
  0
LINE
  5
4F
330
3A
100
AcDbEntity
  8
PEN
100
AcDbLine
 10
12.634841918945312
 20
-1272.3858642578125
 30
0.0
 11
12.634841918945312
 21
-1282.3858642578125
 31
0.0
  0
TEXT
  5
50
330
3A
100
AcDbEntity
  8
text
100
AcDbText
 10
-36.365142822265625
 20
-1279.3858642578125
 30
0.0
 40
3.0
  1
strut-seam
 11
-36.365142822265625
 21
-1279.3858642578125
 31
0.0
100
AcDbText
  0
LINE
  5
51
330
3A
100
AcDbEntity
  8
PEN
100
AcDbLine
 10
16.353790283203125
 20
-1010.9453125
 30
0.0
 11
6.3538055419921875
 21
-1010.9453125
 31
0.0
  0
LINE
  5
52
330
3A
100
AcDbEntity
  8
PEN
100
AcDbLine
 10
11.353790283203125
 20
-1005.9453125
 30
0.0
 11
11.353790283203125
 21
-1015.9453125
 31
0.0
  0
TEXT
  5
53
330
3A
100
AcDbEntity
  8
text
100
AcDbText
 10
-37.64619445800781
 20
-1012.9453125
 30
0.0
 40
3.0
  1
strut-seam
 11
-37.64619445800781
 21
-1012.9453125
 31
0.0
100
AcDbText
  0
LINE
  5
54
330
3A
100
AcDbEntity
  8
PEN
100
AcDbLine
 10
10.3563232421875
 20
-603.19873046875
 30
0.0
 11
0.3563385009765625
 21
-603.19873046875
 31
0.0
  0
LINE
  5
55
330
3A
100
AcDbEntity
  8
PEN
100
AcDbLine
 10
5.3563232421875
 20
-598.1988525390625
 30
0.0
 11
5.3563232421875
 21
-608.19873046875
 31
0.0
  0
TEXT
  5
56
330
3A
100
AcDbEntity
  8
text
100
AcDbText
 10
-43.64366149902344
 20
-605.19873046875
 30
0.0
 40
3.0
  1
strut-seam
 11
-43.64366149902344
 21
-605.19873046875
 31
0.0
100
AcDbText
  0
ENDBLK
  5
3C
330
3A
100
AcDbEntity
  8
0
100
AcDbBlockEnd
  0
BLOCK
  5
5A
330
59
100
AcDbEntity
  8
0
100
AcDbBlockBegin
  2
ripstop UV-SAIL-2_(1)
 70
0
 10
0.0
 20
0.0
 30
0.0
  3
ripstop UV-SAIL-2_(1)
  1

  0
LINE
  5
5C
330
59
100
AcDbEntity
  8
PEN
100
AcDbLine
 10
-28.93145751953125
 20
-1533.06884765625
 30
0.0
 11
-38.93145751953125
 21
-1533.06884765625
 31
0.0
  0
LINE
  5
5D
330
59
100
AcDbEntity
  8
PEN
100
AcDbLine
 10
-33.93145751953125
 20
-1528.06884765625
 30
0.0
 11
-33.93145751953125
 21
-1538.06884765625
 31
0.0
  0
LINE
  5
5E
330
59
100
AcDbEntity
  8
PEN
100
AcDbLine
 10
-474.1043701171875
 20
-1457.426025390625
 30
0.0
 11
-484.1043701171875
 21
-1457.426025390625
 31
0.0
  0
LINE
  5
5F
330
59
100
AcDbEntity
  8
PEN
100
AcDbLine
 10
-479.1043701171875
 20
-1452.426025390625
 30
0.0
 11
-479.1043701171875
 21
-1462.426025390625
 31
0.0
  0
LWPOLYLINE
  5
60
330
59
100
AcDbEntity
  8
CUT
100
AcDbPolyline
 90
93
 70
0
 43
0.0
 10
0.0
 20
0.0
 10
0.14385986328125
 20
-8.0263671875
 10
1.633544921875
 20
-91.10400390625
 10
3.07415771484375
 20
-170.872802734375
 10
4.462158203125
 20
-247.310302734375
 10
5.7945556640625
 20
-320.41064453125
 10
7.068603515625
 20
-390.18017578125
 10
8.29486083984375
 20
-457.378662109375
 10
9.45709228515625
 20
-521.29248046875
 10
10.5589599609375
 20
-582.2896728515625
 10
11.60308837890625
 20
-640.697265625
 10
12.57550048828125
 20
-695.91259765625
 10
13.48895263671875
 20
-748.83935546875
 10
14.3323974609375
 20
-799.0350341796875
 10
15.10546875
 20
-846.678466796875
 10
15.81072998046875
 20
-892.096923828125
 10
16.441650390625
 20
-935.1329345703125
 10
16.9986572265625
 20
-975.9947509765625
 10
17.4775390625
 20
-1014.6351318359375
 10
17.87835693359375
 20
-1051.2806396484375
 10
18.19805908203125
 20
-1086.0030517578125
 10
18.4339599609375
 20
-1118.8072509765625
 10
18.58416748046875
 20
-1149.8470458984375
 10
18.64599609375
 20
-1179.2342529296875
 10
18.61663818359375
 20
-1207.03955078125
 10
18.4931640625
 20
-1233.314453125
 10
18.2723388671875
 20
-1258.223388671875
 10
17.9503173828125
 20
-1281.8619384765625
 10
17.52374267578125
 20
-1304.287109375
 10
16.9881591796875
 20
-1325.632080078125
 10
16.33868408203125
 20
-1346.0152587890625
 10
15.5706787109375
 20
-1365.5308837890625
 10
14.67828369140625
 20
-1384.3048095703125
 10
13.65655517578125
 20
-1402.4405517578125
 10
12.49853515625
 20
-1420.0677490234375
 10
11.19921875
 20
-1437.2918701171875
 10
9.75189208984375
 20
-1454.2366943359375
 10
8.15008544921875
 20
-1471.0244140625
 10
6.389404296875
 20
-1487.7525634765625
 10
4.46429443359375
 20
-1504.540771484375
 10
2.37066650390625
 20
-1521.48583984375
 10
0.1060791015625
 20
-1538.681884765625
 10
-1.22247314453125
 20
-1548.77001953125
 10
-1.22247314453125
 20
-1548.77001953125
 10
-6.03057861328125
 20
-1547.952880859375
 10
-512.5711669921875
 20
-1461.8826904296875
 10
-512.5711669921875
 20
-1461.8826904296875
 10
-513.1708984375
 20
-1452.6934814453125
 10
-514.206787109375
 20
-1436.820068359375
 10
-515.1746826171875
 20
-1421.19580078125
 10
-516.077880859375
 20
-1405.62353515625
 10
-516.9058837890625
 20
-1390.1556396484375
 10
-517.66259765625
 20
-1374.55078125
 10
-518.339599609375
 20
-1358.80224609375
 10
-518.9351806640625
 20
-1342.7579345703125
 10
-519.4449462890625
 20
-1326.3333740234375
 10
-519.8660888671875
 20
-1309.3831787109375
 10
-520.194091796875
 20
-1291.8211669921875
 10
-520.4256591796875
 20
-1273.562744140625
 10
-520.5584716796875
 20
-1254.4677734375
 10
-520.5894775390625
 20
-1234.4552001953125
 10
-520.5162353515625
 20
-1213.45166015625
 10
-520.3363037109375
 20
-1191.2559814453125
 10
-520.04931640625
 20
-1167.9066162109375
 10
-519.6529541015625
 20
-1143.224609375
 10
-519.146728515625
 20
-1117.189208984375
 10
-518.52783203125
 20
-1089.59033203125
 10
-517.7978515625
 20
-1060.4627685546875
 10
-516.956787109375
 20
-1029.73583984375
 10
-515.9993896484375
 20
-997.15283203125
 10
-514.9276123046875
 20
-962.7200927734375
 10
-513.7471923828125
 20
-926.5426025390625
 10
-512.4466552734375
 20
-888.1817626953125
 10
-511.0391845703125
 20
-847.98095703125
 10
-509.5086669921875
 20
-805.3597412109375
 10
-507.861083984375
 20
-760.4364013671875
 10
-506.1141357421875
 20
-713.595703125
 10
-504.2459716796875
 20
-664.1732177734375
 10
-502.2493896484375
 20
-611.908203125
 10
-500.1708984375
 20
-557.9185791015625
 10
-497.9346923828125
 20
-500.16015625
 10
-495.60986328125
 20
-440.32958984375
 10
-493.1494140625
 20
-377.130615234375
 10
-490.6085205078125
 20
-311.8916015625
 10
-487.9412841796875
 20
-243.338623046875
 10
-485.2008056640625
 20
-172.7529296875
 10
-482.2979736328125
 20
-97.744873046875
 10
-479.271728515625
 20
-19.2177734375
 10
-478.9739990234375
 20
-11.489501953125
 10
-478.9739990234375
 20
-11.489501953125
 10
-474.966796875
 20
-11.3935546875
 10
-4.5472412109375
 20
-0.109130859375
 10
0.0
 20
0.0
  0
LINE
  5
61
330
59
100
AcDbEntity
  8
PEN
100
AcDbLine
 10
0.64459228515625
 20
-8.10693359375
 30
0.0
 11
-9.35540771484375
 21
-8.10693359375
 31
0.0
  0
LINE
  5
62
330
59
100
AcDbEntity
  8
PEN
100
AcDbLine
 10
-4.35540771484375
 20
-3.106689453125
 30
0.0
 11
-4.35540771484375
 21
-13.10693359375
 31
0.0
  0
LINE
  5
63
330
59
100
AcDbEntity
  8
PEN
100
AcDbLine
 10
0.64459228515625
 20
-1538.09423828125
 30
0.0
 11
-9.35540771484375
 21
-1538.09423828125
 31
0.0
  0
LINE
  5
64
330
59
100
AcDbEntity
  8
PEN
100
AcDbLine
 10
-4.35540771484375
 20
-1533.09423828125
 30
0.0
 11
-4.35540771484375
 21
-1543.09423828125
 31
0.0
  0
LINE
  5
65
330
59
100
AcDbEntity
  8
PEN
100
AcDbLine
 10
-469.7750244140625
 20
-19.39111328125
 30
0.0
 11
-479.7750244140625
 21
-19.39111328125
 31
0.0
  0
LINE
  5
66
330
59
100
AcDbEntity
  8
PEN
100
AcDbLine
 10
-474.7750244140625
 20
-14.39111328125
 30
0.0
 11
-474.7750244140625
 21
-24.391357421875
 31
0.0
  0
LINE
  5
67
330
59
100
AcDbEntity
  8
PEN
100
AcDbLine
 10
-503.680419921875
 20
-1452.4005126953125
 30
0.0
 11
-513.680419921875
 21
-1452.4005126953125
 31
0.0
  0
LINE
  5
68
330
59
100
AcDbEntity
  8
PEN
100
AcDbLine
 10
-508.680419921875
 20
-1447.4005126953125
 30
0.0
 11
-508.680419921875
 21
-1457.4005126953125
 31
0.0
  0
TEXT
  5
69
330
59
100
AcDbEntity
  8
TEXT
100
AcDbText
 10
-469.7750244140625
 20
-19.39111328125
 30
0.0
 40
3.0
  1
SAIL-2 R
 11
-469.7750244140625
 21
-19.39111328125
 31
0.0
100
AcDbText
  0
ENDBLK
  5
5B
330
59
100
AcDbEntity
  8
0
100
AcDbBlockEnd
  0
BLOCK
  5
6D
330
6C
100
AcDbEntity
  8
0
100
AcDbBlockBegin
  2
ripstop UV-SAIL-3_(2)
 70
0
 10
0.0
 20
0.0
 30
0.0
  3
ripstop UV-SAIL-3_(2)
  1

  0
LINE
  5
6F
330
6C
100
AcDbEntity
  8
PEN
100
AcDbLine
 10
-28.420654296875
 20
-1434.0341796875
 30
0.0
 11
-38.420654296875
 21
-1434.0341796875
 31
0.0
  0
LINE
  5
70
330
6C
100
AcDbEntity
  8
PEN
100
AcDbLine
 10
-33.420654296875
 20
-1429.0341796875
 30
0.0
 11
-33.420654296875
 21
-1439.0341796875
 31
0.0
  0
LINE
  5
71
330
6C
100
AcDbEntity
  8
PEN
100
AcDbLine
 10
-406.9852294921875
 20
-1334.523681640625
 30
0.0
 11
-416.9853515625
 21
-1334.523681640625
 31
0.0
  0
LINE
  5
72
330
6C
100
AcDbEntity
  8
PEN
100
AcDbLine
 10
-411.9853515625
 20
-1329.523681640625
 30
0.0
 11
-411.9853515625
 21
-1339.523681640625
 31
0.0
  0
LWPOLYLINE
  5
73
330
6C
100
AcDbEntity
  8
CUT
100
AcDbPolyline
 90
93
 70
0
 43
0.0
 10
0.0
 20
0.0
 10
0.0933837890625
 20
-8.09814453125
 10
0.991455078125
 20
-86.03173828125
 10
1.8587646484375
 20
-160.8681640625
 10
2.6939697265625
 20
-232.591552734375
 10
3.4942626953125
 20
-301.088134765625
 10
4.26416015625
 20
-366.86279296875
 10
4.9970703125
 20
-429.51611328125
 10
5.6976318359375
 20
-489.525634765625
 10
6.362060546875
 20
-546.7457275390625
 10
6.9906005859375
 20
-601.3126220703125
 10
7.5826416015625
 20
-653.31298828125
 10
8.1373291015625
 20
-702.828857421875
 10
8.6583251953125
 20
-750.335205078125
 10
9.1317138671875
 20
-794.718505859375
 10
9.5693359375
 20
-837.26123046875
 10
9.966552734375
 20
-877.6376953125
 10
10.3218994140625
 20
-915.93359375
 10
10.6353759765625
 20
-952.38134765625
 10
10.9027099609375
 20
-986.6124267578125
 10
11.1256103515625
 20
-1019.1629638671875
 10
11.302001953125
 20
-1049.9666748046875
 10
11.43017578125
 20
-1079.18310546875
 10
11.5076904296875
 20
-1106.6728515625
 10
11.532958984375
 20
-1132.752197265625
 10
11.50390625
 20
-1157.38623046875
 10
11.4171142578125
 20
-1180.807861328125
 10
11.2705078125
 20
-1202.9342041015625
 10
11.0599365234375
 20
-1223.9521484375
 10
10.78125
 20
-1243.956787109375
 10
10.4296875
 20
-1263.0474853515625
 10
10.0003662109375
 20
-1281.3250732421875
 10
9.48828125
 20
-1298.852783203125
 10
8.8861083984375
 20
-1315.8004150390625
 10
8.1881103515625
 20
-1332.2325439453125
 10
7.38720703125
 20
-1348.273193359375
 10
6.476806640625
 20
-1364.0286865234375
 10
5.4503173828125
 20
-1379.598876953125
 10
4.3001708984375
 20
-1395.112548828125
 10
3.0244140625
 20
-1410.6219482421875
 10
1.6160888671875
 20
-1426.2584228515625
 10
0.072509765625
 20
-1442.097412109375
 10
-0.9803466796875
 20
-1452.901123046875
 10
-0.9803466796875
 20
-1452.901123046875
 10
-6.9486083984375
 20
-1451.3323974609375
 10
-445.10888671875
 20
-1336.156494140625
 10
-445.10888671875
 20
-1336.156494140625
 10
-445.49560546875
 20
-1327.088623046875
 10
-446.1025390625
 20
-1312.85107421875
 10
-446.683349609375
 20
-1298.8736572265625
 10
-447.2451171875
 20
-1284.8330078125
 10
-447.7734375
 20
-1270.9266357421875
 10
-448.267822265625
 20
-1256.9754638671875
 10
-448.7314453125
 20
-1242.670166015625
 10
-449.1513671875
 20
-1228.1484375
 10
-449.525390625
 20
-1213.2401123046875
 10
-449.849609375
 20
-1197.853759765625
 10
-450.11669921875
 20
-1181.9434814453125
 10
-450.32568359375
 20
-1165.3092041015625
 10
-450.470703125
 20
-1147.9744873046875
 10
-450.55078125
 20
-1129.7340087890625
 10
-450.561767578125
 20
-1110.554931640625
 10
-450.501220703125
 20
-1090.3504638671875
 10
-450.367919921875
 20
-1069.036376953125
 10
-450.160400390625
 20
-1046.61767578125
 10
-449.876953125
 20
-1022.8443603515625
 10
-449.5146484375
 20
-997.607421875
 10
-449.079345703125
 20
-971.16357421875
 10
-448.561767578125
 20
-942.94873046875
 10
-447.971435546875
 20
-913.4404296875
 10
-447.296142578125
 20
-881.9295654296875
 10
-446.551025390625
 20
-849.0667724609375
 10
-445.717041015625
 20
-813.939697265625
 10
-444.817626953125
 20
-777.4525146484375
 10
-443.82470703125
 20
-738.373046875
 10
-442.761474609375
 20
-697.565185546875
 10
-441.6357421875
 20
-655.1826171875
 10
-440.403076171875
 20
-609.5213623046875
 10
-439.10888671875
 20
-562.1435546875
 10
-437.737548828125
 20
-512.4090576171875
 10
-436.29150390625
 20
-460.2998046875
 10
-434.768798828125
 20
-405.678466796875
 10
-433.174560546875
 20
-348.609130859375
 10
-431.5029296875
 20
-288.796875
 10
-429.75244140625
 20
-226.081298828125
 10
-427.936767578125
 20
-160.865234375
 10
-426.047119140625
 20
-92.725830078125
 10
-424.088623046875
 20
-21.744384765625
 10
-423.875
 20
-14.005615234375
 10
-423.875
 20
-14.005615234375
 10
-419.8544921875
 20
-13.872802734375
 10
-4.6705322265625
 20
-0.154296875
 10
0.0
 20
0.0
  0
LINE
  5
74
330
6C
100
AcDbEntity
  8
PEN
100
AcDbLine
 10
0.5936279296875
 20
-8.14990234375
 30
0.0
 11
-9.4063720703125
 21
-8.14990234375
 31
0.0
  0
LINE
  5
75
330
6C
100
AcDbEntity
  8
PEN
100
AcDbLine
 10
-4.4063720703125
 20
-3.14990234375
 30
0.0
 11
-4.4063720703125
 21
-13.14990234375
 31
0.0
  0
LINE
  5
76
330
6C
100
AcDbEntity
  8
PEN
100
AcDbLine
 10
0.5936279296875
 20
-1441.660888671875
 30
0.0
 11
-9.4063720703125
 21
-1441.660888671875
 31
0.0
  0
LINE
  5
77
330
6C
100
AcDbEntity
  8
PEN
100
AcDbLine
 10
-4.4063720703125
 20
-1436.660888671875
 30
0.0
 11
-4.4063720703125
 21
-1446.660888671875
 31
0.0
  0
LINE
  5
78
330
6C
100
AcDbEntity
  8
PEN
100
AcDbLine
 10
-414.59033203125
 20
-21.868408203125
 30
0.0
 11
-424.590576171875
 21
-21.868408203125
 31
0.0
  0
LINE
  5
79
330
6C
100
AcDbEntity
  8
PEN
100
AcDbLine
 10
-419.59033203125
 20
-16.868408203125
 30
0.0
 11
-419.59033203125
 21
-26.86865234375
 31
0.0
  0
LINE
  5
7A
330
6C
100
AcDbEntity
  8
PEN
100
AcDbLine
 10
-435.99951171875
 20
-1326.89697265625
 30
0.0
 11
-445.999755859375
 21
-1326.89697265625
 31
0.0
  0
LINE
  5
7B
330
6C
100
AcDbEntity
  8
PEN
100
AcDbLine
 10
-440.999755859375
 20
-1321.89697265625
 30
0.0
 11
-440.999755859375
 21
-1331.89697265625
 31
0.0
  0
TEXT
  5
7C
330
6C
100
AcDbEntity
  8
TEXT
100
AcDbText
 10
-414.59033203125
 20
-21.868408203125
 30
0.0
 40
3.0
  1
SAIL-3 R
 11
-414.59033203125
 21
-21.868408203125
 31
0.0
100
AcDbText
  0
ENDBLK
  5
6E
330
6C
100
AcDbEntity
  8
0
100
AcDbBlockEnd
  0
BLOCK
  5
80
330
7F
100
AcDbEntity
  8
0
100
AcDbBlockBegin
  2
ripstop UV-SAIL-4_(3)
 70
0
 10
0.0
 20
0.0
 30
0.0
  3
ripstop UV-SAIL-4_(3)
  1

  0
LINE
  5
82
330
7F
100
AcDbEntity
  8
PEN
100
AcDbLine
 10
-28.12451171875
 20
-1304.62158203125
 30
0.0
 11
-38.124755859375
 21
-1304.62158203125
 31
0.0
  0
LINE
  5
83
330
7F
100
AcDbEntity
  8
PEN
100
AcDbLine
 10
-33.12451171875
 20
-1299.62158203125
 30
0.0
 11
-33.12451171875
 21
-1309.6214599609375
 31
0.0
  0
LINE
  5
84
330
7F
100
AcDbEntity
  8
PEN
100
AcDbLine
 10
-352.436767578125
 20
-1205.7620849609375
 30
0.0
 11
-362.43701171875
 21
-1205.7620849609375
 31
0.0
  0
LINE
  5
85
330
7F
100
AcDbEntity
  8
PEN
100
AcDbLine
 10
-357.436767578125
 20
-1200.7620849609375
 30
0.0
 11
-357.436767578125
 21
-1210.7620849609375
 31
0.0
  0
LWPOLYLINE
  5
86
330
7F
100
AcDbEntity
  8
CUT
100
AcDbPolyline
 90
93
 70
0
 43
0.0
 10
0.0
 20
0.0
 10
0.071533203125
 20
-8.11669921875
 10
0.69775390625
 20
-79.1728515625
 10
1.30126953125
 20
-147.34130859375
 10
1.882568359375
 20
-212.72265625
 10
2.43994140625
 20
-275.264404296875
 10
2.9716796875
 20
-334.89453125
 10
3.4833984375
 20
-392.20068359375
 10
3.970458984375
 20
-446.8687744140625
 10
4.433349609375
 20
-499.038818359375
 10
4.871337890625
 20
-548.782470703125
 10
5.28515625
 20
-596.1865234375
 10
5.67333984375
 20
-641.3082275390625
 10
6.0361328125
 20
-684.25048828125
 10
6.373046875
 20
-725.06396484375
 10
6.68359375
 20
-763.8443603515625
 10
6.967041015625
 20
-800.6458740234375
 10
7.223388671875
 20
-835.5565185546875
 10
7.450927734375
 20
-868.6439208984375
 10
7.64990234375
 20
-899.987060546875
 10
7.819091796875
 20
-929.6611328125
 10
7.95751953125
 20
-957.7435302734375
 10
8.06396484375
 20
-984.310546875
 10
8.136474609375
 20
-1009.4410400390625
 10
8.1748046875
 20
-1033.2158203125
 10
8.176025390625
 20
-1055.714111328125
 10
8.137939453125
 20
-1077.0185546875
 10
8.05859375
 20
-1097.213134765625
 10
7.933837890625
 20
-1116.3836669921875
 10
7.76171875
 20
-1134.549560546875
 10
7.536376953125
 20
-1151.9459228515625
 10
7.255126953125
 20
-1168.5360107421875
 10
6.91015625
 20
-1184.516845703125
 10
6.499755859375
 20
-1199.8480224609375
 10
6.01318359375
 20
-1214.7928466796875
 10
5.44775390625
 20
-1229.322265625
 10
4.7978515625
 20
-1243.5391845703125
 10
4.05419921875
 20
-1257.599609375
 10
3.212890625
 20
-1271.559326171875
 10
2.26708984375
 20
-1285.5362548828125
 10
1.217041015625
 20
-1299.5550537109375
 10
0.056884765625
 20
-1313.7359619140625
 10
-0.857421875
 20
-1324.9117431640625
 10
-0.857421875
 20
-1324.9117431640625
 10
-7.34423828125
 20
-1322.9344482421875
 10
-390.463134765625
 20
-1206.1490478515625
 10
-390.463134765625
 20
-1206.1490478515625
 10
-390.63232421875
 20
-1197.0987548828125
 10
-390.86669921875
 20
-1184.568115234375
 10
-391.108154296875
 20
-1172.0921630859375
 10
-391.3544921875
 20
-1159.57958984375
 10
-391.59765625
 20
-1147.2239990234375
 10
-391.838623046875
 20
-1134.6640625
 10
-392.07470703125
 20
-1121.743408203125
 10
-392.2919921875
 20
-1108.8997802734375
 10
-392.496826171875
 20
-1095.401611328125
 10
-392.67626953125
 20
-1081.69140625
 10
-392.832275390625
 20
-1067.2401123046875
 10
-392.95556640625
 20
-1052.367431640625
 10
-393.046630859375
 20
-1036.7056884765625
 10
-393.10009765625
 20
-1020.2703857421875
 10
-393.114501953125
 20
-1002.9827880859375
 10
-393.08740234375
 20
-984.7647705078125
 10
-393.016357421875
 20
-965.5421142578125
 10
-392.900146484375
 20
-945.2401123046875
 10
-392.737548828125
 20
-923.784423828125
 10
-392.52880859375
 20
-901.2669677734375
 10
-392.27001953125
 20
-877.13134765625
 10
-391.9638671875
 20
-851.791259765625
 10
-391.6123046875
 20
-825.247314453125
 10
-391.205322265625
 20
-796.7366943359375
 10
-390.7529296875
 20
-766.885009765625
 10
-390.251708984375
 20
-735.3924560546875
 10
-389.701416015625
 20
-702.19482421875
 10
-389.111328125
 20
-667.7349853515625
 10
-388.454833984375
 20
-630.4005126953125
 10
-387.759033203125
 20
-591.6671142578125
 10
-387.015380859375
 20
-550.975830078125
 10
-386.22412109375
 20
-508.2110595703125
 10
-385.385986328125
 20
-463.3782958984375
 10
-384.499755859375
 20
-416.316650390625
 10
-383.567138671875
 20
-367.029052734375
 10
-382.59130859375
 20
-315.55615234375
 10
-381.564697265625
 20
-261.42626953125
 10
-380.49951171875
 20
-205.193603515625
 10
-379.384521484375
 20
-146.16650390625
 10
-378.22802734375
 20
-84.714111328125
 10
-377.030029296875
 20
-20.671142578125
 10
-376.884521484375
 20
-12.899658203125
 10
-376.884521484375
 20
-12.899658203125
 10
-372.804443359375
 20
-12.760009765625
 10
-4.701904296875
 20
-0.160888671875
 10
0.0
 20
0.0
  0
LINE
  5
87
330
7F
100
AcDbEntity
  8
PEN
100
AcDbLine
 10
0.57177734375
 20
-8.15625
 30
0.0
 11
-9.428466796875
 21
-8.15625
 31
0.0
  0
LINE
  5
88
330
7F
100
AcDbEntity
  8
PEN
100
AcDbLine
 10
-4.42822265625
 20
-3.15625
 30
0.0
 11
-4.42822265625
 21
-13.156494140625
 31
0.0
  0
LINE
  5
89
330
7F
100
AcDbEntity
  8
PEN
100
AcDbLine
 10
0.57177734375
 20
-1313.3690185546875
 30
0.0
 11
-9.428466796875
 21
-1313.3690185546875
 31
0.0
  0
LINE
  5
8A
330
7F
100
AcDbEntity
  8
PEN
100
AcDbLine
 10
-4.42822265625
 20
-1308.3690185546875
 30
0.0
 11
-4.42822265625
 21
-1318.3690185546875
 31
0.0
  0
LINE
  5
8B
330
7F
100
AcDbEntity
  8
PEN
100
AcDbLine
 10
-367.53076171875
 20
-20.75537109375
 30
0.0
 11
-377.531005859375
 21
-20.75537109375
 31
0.0
  0
LINE
  5
8C
330
7F
100
AcDbEntity
  8
PEN
100
AcDbLine
 10
-372.53076171875
 20
-15.755126953125
 30
0.0
 11
-372.53076171875
 21
-25.75537109375
 31
0.0
  0
LINE
  5
8D
330
7F
100
AcDbEntity
  8
PEN
100
AcDbLine
 10
-381.133056640625
 20
-1197.0146484375
 30
0.0
 11
-391.13330078125
 21
-1197.0146484375
 31
0.0
  0
LINE
  5
8E
330
7F
100
AcDbEntity
  8
PEN
100
AcDbLine
 10
-386.133056640625
 20
-1192.0146484375
 30
0.0
 11
-386.133056640625
 21
-1202.0146484375
 31
0.0
  0
TEXT
  5
8F
330
7F
100
AcDbEntity
  8
TEXT
100
AcDbText
 10
-367.53076171875
 20
-20.75537109375
 30
0.0
 40
3.0
  1
SAIL-4 R
 11
-367.53076171875
 21
-20.75537109375
 31
0.0
100
AcDbText
  0
ENDBLK
  5
81
330
7F
100
AcDbEntity
  8
0
100
AcDbBlockEnd
  0
BLOCK
  5
93
330
92
100
AcDbEntity
  8
0
100
AcDbBlockBegin
  2
ripstop UV-SAIL-5_(4)
 70
0
 10
0.0
 20
0.0
 30
0.0
  3
ripstop UV-SAIL-5_(4)
  1

  0
LINE
  5
95
330
92
100
AcDbEntity
  8
PEN
100
AcDbLine
 10
-27.81494140625
 20
-1174.487548828125
 30
0.0
 11
-37.815185546875
 21
-1174.487548828125
 31
0.0
  0
LINE
  5
96
330
92
100
AcDbEntity
  8
PEN
100
AcDbLine
 10
-32.81494140625
 20
-1169.487548828125
 30
0.0
 11
-32.81494140625
 21
-1179.487548828125
 31
0.0
  0
LINE
  5
97
330
92
100
AcDbEntity
  8
PEN
100
AcDbLine
 10
-305.722412109375
 20
-1079.662841796875
 30
0.0
 11
-315.722412109375
 21
-1079.662841796875
 31
0.0
  0
LINE
  5
98
330
92
100
AcDbEntity
  8
PEN
100
AcDbLine
 10
-310.722412109375
 20
-1074.662841796875
 30
0.0
 11
-310.722412109375
 21
-1084.662841796875
 31
0.0
  0
LWPOLYLINE
  5
99
330
92
100
AcDbEntity
  8
CUT
100
AcDbPolyline
 90
93
 70
0
 43
0.0
 10
0.0
 20
0.0
 10
0.077392578125
 20
-8.098388671875
 10
0.72900390625
 20
-76.259521484375
 10
1.281494140625
 20
-133.684326171875
 10
1.85205078125
 20
-192.642822265625
 10
2.39892578125
 20
-248.956787109375
 10
2.92529296875
 20
-303.018310546875
 10
3.42822265625
 20
-354.6083984375
 10
3.9072265625
 20
-403.817138671875
 10
4.364013671875
 20
-450.897705078125
 10
4.8212890625
 20
-498.450439453125
 10
5.202880859375
 20
-538.4942626953125
 10
5.584716796875
 20
-579.2017822265625
 10
5.941162109375
 20
-617.9359130859375
 10
6.27001953125
 20
-654.7529296875
 10
6.572509765625
 20
-689.732177734375
 10
6.84619140625
 20
-722.935546875
 10
7.09130859375
 20
-754.42822265625
 10
7.306640625
 20
-784.2806396484375
 10
7.49169921875
 20
-812.56103515625
 10
7.645263671875
 20
-839.334716796875
 10
7.7666015625
 20
-864.6761474609375
 10
7.85400390625
 20
-888.650146484375
 10
7.906494140625
 20
-911.328369140625
 10
7.922119140625
 20
-932.7835693359375
 10
7.900146484375
 20
-953.086181640625
 10
7.838623046875
 20
-972.3099365234375
 10
7.73486328125
 20
-990.52978515625
 10
7.588134765625
 20
-1007.7490234375
 10
7.3935546875
 20
-1024.199951171875
 10
7.148681640625
 20
-1039.87744140625
 10
6.8515625
 20
-1054.814453125
 10
6.498046875
 20
-1069.1512451171875
 10
6.0830078125
 20
-1082.9676513671875
 10
5.601318359375
 20
-1096.3843994140625
 10
5.052734375
 20
-1109.367431640625
 10
4.427978515625
 20
-1122.114501953125
 10
3.7255859375
 20
-1134.66650390625
 10
2.94091796875
 20
-1147.1009521484375
 10
2.068603515625
 20
-1159.5338134765625
 10
1.111572265625
 20
-1171.9664306640625
 10
0.062255859375
 20
-1184.5494384765625
 10
-0.888427734375
 20
-1195.9473876953125
 10
-0.888427734375
 20
-1195.9473876953125
 10
-7.651611328125
 20
-1193.6396484375
 10
-343.650634765625
 20
-1078.99365234375
 10
-343.650634765625
 20
-1078.99365234375
 10
-343.614990234375
 20
-1069.9571533203125
 10
-343.573486328125
 20
-1059.344970703125
 10
-343.54150390625
 20
-1048.7880859375
 10
-343.517578125
 20
-1038.197509765625
 10
-343.500732421875
 20
-1027.506103515625
 10
-343.488037109375
 20
-1016.6446533203125
 10
-343.47802734375
 20
-1005.54345703125
 10
-343.46826171875
 20
-994.1356201171875
 10
-343.456298828125
 20
-982.349365234375
 10
-343.440185546875
 20
-970.1160888671875
 10
-343.417724609375
 20
-957.366943359375
 10
-343.38720703125
 20
-944.0330810546875
 10
-343.34716796875
 20
-930.0482177734375
 10
-343.2958984375
 20
-915.346923828125
 10
-343.231689453125
 20
-899.8599853515625
 10
-343.153564453125
 20
-883.525146484375
 10
-343.060302734375
 20
-866.278076171875
 10
-342.951904296875
 20
-848.05419921875
 10
-342.82666015625
 20
-828.787841796875
 10
-342.683837890625
 20
-808.4234619140625
 10
-342.523681640625
 20
-786.8935546875
 10
-342.344970703125
 20
-764.1351318359375
 10
-342.147705078125
 20
-740.0921630859375
 10
-341.93115234375
 20
-714.701171875
 10
-341.695068359375
 20
-687.8958740234375
 10
-341.439208984375
 20
-659.626953125
 10
-341.163330078125
 20
-629.826416015625
 10
-340.8671875
 20
-598.4320068359375
 10
-340.550048828125
 20
-565.3883056640625
 10
-340.212646484375
 20
-530.6219482421875
 10
-339.854248046875
 20
-494.1124267578125
 10
-339.474853515625
 20
-455.7481689453125
 10
-339.075439453125
 20
-415.5390625
 10
-338.652587890625
 20
-373.18017578125
 10
-338.212646484375
 20
-329.1240234375
 10
-337.74853515625
 20
-282.728759765625
 10
-337.266845703125
 20
-234.423095703125
 10
-336.76220703125
 20
-183.762451171875
 10
-336.23828125
 20
-130.90087890625
 10
-335.69384765625
 20
-75.749267578125
 10
-335.130126953125
 20
-18.242431640625
 10
-335.05322265625
 20
-10.420166015625
 10
-335.05322265625
 20
-10.420166015625
 10
-330.87890625
 20
-10.29052734375
 10
-4.671142578125
 20
-0.145263671875
 10
0.0
 20
0.0
  0
LINE
  5
9A
330
92
100
AcDbEntity
  8
PEN
100
AcDbLine
 10
0.57763671875
 20
-8.141357421875
 30
0.0
 11
-9.422607421875
 21
-8.141357421875
 31
0.0
  0
LINE
  5
9B
330
92
100
AcDbEntity
  8
PEN
100
AcDbLine
 10
-4.42236328125
 20
-3.14111328125
 30
0.0
 11
-4.42236328125
 21
-13.141357421875
 31
0.0
  0
LINE
  5
9C
330
92
100
AcDbEntity
  8
PEN
100
AcDbLine
 10
0.577880859375
 20
-1184.1754150390625
 30
0.0
 11
-9.42236328125
 21
-1184.1754150390625
 31
0.0
  0
LINE
  5
9D
330
92
100
AcDbEntity
  8
PEN
100
AcDbLine
 10
-4.422119140625
 20
-1179.1754150390625
 30
0.0
 11
-4.422119140625
 21
-1189.1754150390625
 31
0.0
  0
LINE
  5
9E
330
92
100
AcDbEntity
  8
PEN
100
AcDbLine
 10
-325.630126953125
 20
-18.28662109375
 30
0.0
 11
-335.63037109375
 21
-18.28662109375
 31
0.0
  0
LINE
  5
9F
330
92
100
AcDbEntity
  8
PEN
100
AcDbLine
 10
-330.63037109375
 20
-13.286376953125
 30
0.0
 11
-330.63037109375
 21
-23.28662109375
 31
0.0
  0
LINE
  5
A0
330
92
100
AcDbEntity
  8
PEN
100
AcDbLine
 10
-334.114990234375
 20
-1069.9749755859375
 30
0.0
 11
-344.115234375
 21
-1069.9749755859375
 31
0.0
  0
LINE
  5
A1
330
92
100
AcDbEntity
  8
PEN
100
AcDbLine
 10
-339.115234375
 20
-1064.9749755859375
 30
0.0
 11
-339.115234375
 21
-1074.9749755859375
 31
0.0
  0
TEXT
  5
A2
330
92
100
AcDbEntity
  8
TEXT
100
AcDbText
 10
-325.630126953125
 20
-18.28662109375
 30
0.0
 40
3.0
  1
SAIL-5 R
 11
-325.630126953125
 21
-18.28662109375
 31
0.0
100
AcDbText
  0
LINE
  5
A3
330
92
100
AcDbEntity
  8
PEN
100
AcDbLine
 10
7.64990234375
 20
-1039.7738037109375
 30
0.0
 11
-2.350341796875
 21
-1039.7738037109375
 31
0.0
  0
LINE
  5
A4
330
92
100
AcDbEntity
  8
PEN
100
AcDbLine
 10
2.649658203125
 20
-1034.7738037109375
 30
0.0
 11
2.649658203125
 21
-1044.7738037109375
 31
0.0
  0
TEXT
  5
A5
330
92
100
AcDbEntity
  8
text
100
AcDbText
 10
-46.350341796875
 20
-1041.773681640625
 30
0.0
 40
3.0
  1
strut-seam
 11
-46.350341796875
 21
-1041.773681640625
 31
0.0
100
AcDbText
  0
LINE
  5
A6
330
92
100
AcDbEntity
  8
PEN
100
AcDbLine
 10
8.354248046875
 20
-888.6767578125
 30
0.0
 11
-1.64599609375
 21
-888.6767578125
 31
0.0
  0
LINE
  5
A7
330
92
100
AcDbEntity
  8
PEN
100
AcDbLine
 10
3.35400390625
 20
-883.6767578125
 30
0.0
 11
3.35400390625
 21
-893.6767578125
 31
0.0
  0
TEXT
  5
A8
330
92
100
AcDbEntity
  8
text
100
AcDbText
 10
-45.64599609375
 20
-890.6767578125
 30
0.0
 40
3.0
  1
strut-seam
 11
-45.64599609375
 21
-890.6767578125
 31
0.0
100
AcDbText
  0
ENDBLK
  5
94
330
92
100
AcDbEntity
  8
0
100
AcDbBlockEnd
  0
BLOCK
  5
AC
330
AB
100
AcDbEntity
  8
0
100
AcDbBlockBegin
  2
ripstop UV-SAIL-6_(5)
 70
0
 10
0.0
 20
0.0
 30
0.0
  3
ripstop UV-SAIL-6_(5)
  1

  0
LINE
  5
AE
330
AB
100
AcDbEntity
  8
PEN
100
AcDbLine
 10
-25.6376953125
 20
-1045.16796875
 30
0.0
 11
-35.637939453125
 21
-1045.16796875
 31
0.0
  0
LINE
  5
AF
330
AB
100
AcDbEntity
  8
PEN
100
AcDbLine
 10
-30.637939453125
 20
-1040.16796875
 30
0.0
 11
-30.637939453125
 21
-1050.16796875
 31
0.0
  0
LINE
  5
B0
330
AB
100
AcDbEntity
  8
PEN
100
AcDbLine
 10
-263.479736328125
 20
-912.0306396484375
 30
0.0
 11
-273.47998046875
 21
-912.0306396484375
 31
0.0
  0
LINE
  5
B1
330
AB
100
AcDbEntity
  8
PEN
100
AcDbLine
 10
-268.47998046875
 20
-907.0306396484375
 30
0.0
 11
-268.47998046875
 21
-917.0306396484375
 31
0.0
  0
LWPOLYLINE
  5
B2
330
AB
100
AcDbEntity
  8
CUT
100
AcDbPolyline
 90
93
 70
0
 43
0.0
 10
0.0
 20
0.0
 10
0.039794921875
 20
-8.1357421875
 10
0.321533203125
 20
-65.65087890625
 10
0.596923828125
 20
-120.815185546875
 10
0.865966796875
 20
-173.671875
 10
1.128173828125
 20
-224.275390625
 10
1.3837890625
 20
-272.69970703125
 10
1.631103515625
 20
-318.966796875
 10
1.871826171875
 20
-363.18994140625
 10
2.10400390625
 20
-405.38232421875
 10
2.327880859375
 20
-445.631103515625
 10
2.54345703125
 20
-483.9774169921875
 10
2.749267578125
 20
-520.4993896484375
 10
2.946044921875
 20
-555.258056640625
 10
3.13232421875
 20
-588.2918701171875
 10
3.307861328125
 20
-619.694091796875
 10
3.47216796875
 20
-649.494140625
 10
3.624755859375
 20
-677.7613525390625
 10
3.764892578125
 20
-704.5616455078125
 10
3.89111328125
 20
-729.95263671875
 10
4.003173828125
 20
-753.9947509765625
 10
4.1005859375
 20
-776.75244140625
 10
4.18212890625
 20
-798.28271484375
 10
4.246337890625
 20
-818.6507568359375
 10
4.292724609375
 20
-837.91796875
 10
4.319580078125
 20
-856.1474609375
 10
4.324951171875
 20
-873.402099609375
 10
4.308349609375
 20
-889.746337890625
 10
4.26611328125
 20
-905.2449951171875
 10
4.197021484375
 20
-919.9632568359375
 10
4.098388671875
 20
-933.8829345703125
 10
3.9658203125
 20
-947.3277587890625
 10
3.79833984375
 20
-960.0458984375
 10
3.59130859375
 20
-972.26953125
 10
3.3388671875
 20
-984.1097412109375
 10
3.04052734375
 20
-995.5333251953125
 10
2.68994140625
 20
-1006.6573486328125
 10
2.281982421875
 20
-1017.5867919921875
 10
1.817626953125
 20
-1028.266845703125
 10
1.286865234375
 20
-1038.9217529296875
 10
0.693115234375
 20
-1049.49462890625
 10
0.03125
 20
-1060.101806640625
 10
-0.79443359375
 20
-1073.3336181640625
 10
-0.79443359375
 20
-1073.3336181640625
 10
-9.3447265625
 20
-1068.5474853515625
 10
-299.332275390625
 20
-906.220458984375
 10
-299.332275390625
 20
-906.220458984375
 10
-299.15673828125
 20
-897.2886962890625
 10
-298.990234375
 20
-888.8148193359375
 10
-298.841552734375
 20
-880.214111328125
 10
-298.714599609375
 20
-871.7489013671875
 10
-298.6015625
 20
-862.937255859375
 10
-298.50634765625
 20
-854.18408203125
 10
-298.42236328125
 20
-844.926025390625
 10
-298.351806640625
 20
-835.509033203125
 10
-298.291259765625
 20
-825.7459716796875
 10
-298.239501953125
 20
-815.5823974609375
 10
-298.1953125
 20
-804.9642333984375
 10
-298.156005859375
 20
-793.837646484375
 10
-298.12158203125
 20
-782.1507568359375
 10
-298.09033203125
 20
-769.8502197265625
 10
-298.060791015625
 20
-756.8839111328125
 10
-298.032958984375
 20
-743.19775390625
 10
-298.005126953125
 20
-728.7430419921875
 10
-297.977294921875
 20
-713.4613037109375
 10
-297.948486328125
 20
-697.3197021484375
 10
-297.918212890625
 20
-680.2431640625
 10
-297.88623046875
 20
-662.1904296875
 10
-297.852294921875
 20
-643.103759765625
 10
-297.81591796875
 20
-622.9381103515625
 10
-297.777099609375
 20
-601.6575927734375
 10
-297.7353515625
 20
-579.1815185546875
 10
-297.69091796875
 20
-555.491455078125
 10
-297.6435546875
 20
-530.5050048828125
 10
-297.593994140625
 20
-504.1973876953125
 10
-297.541259765625
 20
-476.509033203125
 10
-297.486572265625
 20
-447.392333984375
 10
-297.42919921875
 20
-416.78369140625
 10
-297.370361328125
 20
-384.6328125
 10
-297.310302734375
 20
-350.90087890625
 10
-297.24951171875
 20
-315.548828125
 10
-297.188720703125
 20
-278.501953125
 10
-297.127685546875
 20
-239.72021484375
 10
-297.068359375
 20
-199.152099609375
 10
-297.0107421875
 20
-156.747802734375
 10
-296.956298828125
 20
-112.45849609375
 10
-296.90625
 20
-66.234130859375
 10
-296.861083984375
 20
-18.021728515625
 10
-296.853515625
 20
-10.175048828125
 10
-296.853515625
 20
-10.175048828125
 10
-292.635009765625
 20
-10.030517578125
 10
-4.734130859375
 20
-0.162353515625
 10
0.0
 20
0.0
  0
LINE
  5
B3
330
AB
100
AcDbEntity
  8
PEN
100
AcDbLine
 10
0.5400390625
 20
-8.15771484375
 30
0.0
 11
-9.460205078125
 21
-8.15771484375
 31
0.0
  0
LINE
  5
B4
330
AB
100
AcDbEntity
  8
PEN
100
AcDbLine
 10
-4.460205078125
 20
-3.15771484375
 30
0.0
 11
-4.460205078125
 21
-13.157958984375
 31
0.0
  0
LINE
  5
B5
330
AB
100
AcDbEntity
  8
PEN
100
AcDbLine
 10
0.5400390625
 20
-1059.821533203125
 30
0.0
 11
-9.460205078125
 21
-1059.821533203125
 31
0.0
  0
LINE
  5
B6
330
AB
100
AcDbEntity
  8
PEN
100
AcDbLine
 10
-4.460205078125
 20
-1054.821533203125
 30
0.0
 11
-4.460205078125
 21
-1064.821533203125
 31
0.0
  0
LINE
  5
B7
330
AB
100
AcDbEntity
  8
PEN
100
AcDbLine
 10
-287.361083984375
 20
-18.02587890625
 30
0.0
 11
-297.361328125
 21
-18.02587890625
 31
0.0
  0
LINE
  5
B8
330
AB
100
AcDbEntity
  8
PEN
100
AcDbLine
 10
-292.361083984375
 20
-13.02587890625
 30
0.0
 11
-292.361083984375
 21
-23.026123046875
 31
0.0
  0
LINE
  5
B9
330
AB
100
AcDbEntity
  8
PEN
100
AcDbLine
 10
-289.657470703125
 20
-897.3770751953125
 30
0.0
 11
-299.65771484375
 21
-897.3770751953125
 31
0.0
  0
LINE
  5
BA
330
AB
100
AcDbEntity
  8
PEN
100
AcDbLine
 10
-294.657470703125
 20
-892.3770751953125
 30
0.0
 11
-294.657470703125
 21
-902.3770751953125
 31
0.0
  0
TEXT
  5
BB
330
AB
100
AcDbEntity
  8
TEXT
100
AcDbText
 10
-287.361083984375
 20
-18.02587890625
 30
0.0
 40
3.0
  1
SAIL-6 R
 11
-287.361083984375
 21
-18.02587890625
 31
0.0
100
AcDbText
  0
ENDBLK
  5
AD
330
AB
100
AcDbEntity
  8
0
100
AcDbBlockEnd
  0
BLOCK
  5
BF
330
BE
100
AcDbEntity
  8
0
100
AcDbBlockBegin
  2
ripstop UV-SAIL-7_(6)
 70
0
 10
0.0
 20
0.0
 30
0.0
  3
ripstop UV-SAIL-7_(6)
  1

  0
LWPOLYLINE
  5
C1
330
BE
100
AcDbEntity
  8
CUT
100
AcDbPolyline
 90
55
 70
0
 43
0.0
 10
0.0
 20
0.0
 10
0.0185546875
 20
-8.121337890625
 10
0.129638671875
 20
-56.32666015625
 10
0.23974609375
 20
-102.564208984375
 10
0.3486328125
 20
-146.85302734375
 10
0.456298828125
 20
-189.263916015625
 10
0.561767578125
 20
-229.832275390625
 10
0.666259765625
 20
-268.62158203125
 10
0.7685546875
 20
-305.6689453125
 10
0.868896484375
 20
-341.02587890625
 10
0.967041015625
 20
-374.762451171875
 10
1.06298828125
 20
-406.9007568359375
 10
1.15673828125
 20
-437.5277099609375
 10
1.246826171875
 20
-466.6422119140625
 10
1.334228515625
 20
-494.3399658203125
 10
1.418212890625
 20
-520.639892578125
 10
1.498291015625
 20
-545.611572265625
 10
1.574462890625
 20
-569.3409423828125
 10
1.64697265625
 20
-591.792724609375
 10
1.71435546875
 20
-613.086181640625
 10
1.776611328125
 20
-633.2430419921875
 10
1.833984375
 20
-652.327392578125
 10
1.884521484375
 20
-670.3807373046875
 10
1.92919921875
 20
-687.4609375
 10
1.966064453125
 20
-703.6171875
 10
1.99462890625
 20
-718.89990234375
 10
2.0146484375
 20
-733.3623046875
 10
2.024658203125
 20
-747.05615234375
 10
2.022705078125
 20
-760.03369140625
 10
2.008544921875
 20
-772.3477783203125
 10
1.978759765625
 20
-784.05224609375
 10
1.93310546875
 20
-795.2003173828125
 10
1.86865234375
 20
-805.84423828125
 10
1.782470703125
 20
-816.0404052734375
 10
1.674560546875
 20
-825.6907958984375
 10
1.536865234375
 20
-835.300537109375
 10
1.373291015625
 20
-844.359619140625
 10
1.174560546875
 20
-853.3076171875
 10
0.941650390625
 20
-862.075439453125
 10
0.67431640625
 20
-870.6156005859375
 10
0.36474609375
 20
-879.1766357421875
 10
0.014404296875
 20
-887.7020263671875
 10
-0.7275390625
 20
-905.744873046875
 10
-0.7275390625
 20
-905.744873046875
 10
-11.658203125
 20
-894.4815673828125
 10
-216.20458984375
 20
-683.7127685546875
 10
-332.71875
 20
-414.9544677734375
 10
-332.71875
 20
-414.9544677734375
 10
-332.86474609375
 20
-413.3585205078125
 10
-368.8720703125
 20
-19.169921875
 10
-369.65869140625
 20
-10.56396484375
 10
-369.65869140625
 20
-10.56396484375
 10
-359.1416015625
 20
-10.263427734375
 10
-4.709716796875
 20
-0.134765625
 10
0.0
 20
0.0
  0
LINE
  5
C2
330
BE
100
AcDbEntity
  8
PEN
100
AcDbLine
 10
0.518798828125
 20
-8.131591796875
 30
0.0
 11
-9.4814453125
 21
-8.131591796875
 31
0.0
  0
LINE
  5
C3
330
BE
100
AcDbEntity
  8
PEN
100
AcDbLine
 10
-4.481201171875
 20
-3.13134765625
 30
0.0
 11
-4.481201171875
 21
-13.131591796875
 31
0.0
  0
LINE
  5
C4
330
BE
100
AcDbEntity
  8
PEN
100
AcDbLine
 10
0.518310546875
 20
-887.517333984375
 30
0.0
 11
-9.48193359375
 21
-887.517333984375
 31
0.0
  0
LINE
  5
C5
330
BE
100
AcDbEntity
  8
PEN
100
AcDbLine
 10
-4.481689453125
 20
-882.517333984375
 30
0.0
 11
-4.481689453125
 21
-892.517333984375
 31
0.0
  0
LINE
  5
C6
330
BE
100
AcDbEntity
  8
PEN
100
AcDbLine
 10
-353.9130859375
 20
-18.26025390625
 30
0.0
 11
-363.91357421875
 21
-18.26025390625
 31
0.0
  0
LINE
  5
C7
330
BE
100
AcDbEntity
  8
PEN
100
AcDbLine
 10
-358.91357421875
 20
-13.26025390625
 30
0.0
 11
-358.91357421875
 21
-23.260498046875
 31
0.0
  0
LINE
  5
C8
330
BE
100
AcDbEntity
  8
PEN
100
AcDbLine
 10
-317.90576171875
 20
-412.448974609375
 30
0.0
 11
-327.90625
 21
-412.448974609375
 31
0.0
  0
LINE
  5
C9
330
BE
100
AcDbEntity
  8
PEN
100
AcDbLine
 10
-322.90625
 20
-407.4488525390625
 30
0.0
 11
-322.90625
 21
-417.4490966796875
 31
0.0
  0
TEXT
  5
CA
330
BE
100
AcDbEntity
  8
TEXT
100
AcDbText
 10
-353.9130859375
 20
-18.26025390625
 30
0.0
 40
3.0
  1
SAIL-7 R
 11
-353.9130859375
 21
-18.26025390625
 31
0.0
100
AcDbText
  0
LWPOLYLINE
  5
CB
330
BE
100
AcDbEntity
  8
PEN
100
AcDbPolyline
 90
9
 70
0
 43
0.0
 10
-209.0029296875
 20
-11.91015625
 10
-205.4765625
 20
-11.18408203125
 10
-191.373046875
 20
-8.279296875
 10
-189.35595703125
 20
-18.073974609375
 10
-365.65576171875
 20
-54.38134765625
 10
-187.5703125
 20
-80.561767578125
 10
-189.0244140625
 20
-90.455322265625
 10
-203.271484375
 20
-88.36083984375
 10
-206.8330078125
 20
-87.83740234375
  0
LWPOLYLINE
  5
CC
330
BE
100
AcDbEntity
  8
PEN
100
AcDbPolyline
 90
9
 70
0
 43
0.0
 10
-198.9970703125
 20
-136.5703125
 10
-195.50537109375
 20
-135.69091796875
 10
-181.5419921875
 20
-132.173828125
 10
-179.099609375
 20
-141.87109375
 10
-353.64794921875
 20
-185.834228515625
 10
-176.87353515625
 20
-219.757568359375
 10
-178.75830078125
 20
-229.578369140625
 10
-186.56396484375
 20
-228.080322265625
 10
-196.435546875
 20
-226.186279296875
  0
ENDBLK
  5
C0
330
BE
100
AcDbEntity
  8
0
100
AcDbBlockEnd
  0
BLOCK
  5
D0
330
CF
100
AcDbEntity
  8
0
100
AcDbBlockBegin
  2
ripstop UV-SAIL-1.left_(7)
 70
0
 10
0.0
 20
0.0
 30
0.0
  3
ripstop UV-SAIL-1.left_(7)
  1

  0
LINE
  5
D2
330
CF
100
AcDbEntity
  8
PEN
100
AcDbLine
 10
-420.5155029296875
 20
-1593.3714599609375
 30
0.0
 11
-430.5155029296875
 21
-1593.3714599609375
 31
0.0
  0
LINE
  5
D3
330
CF
100
AcDbEntity
  8
PEN
100
AcDbLine
 10
-425.5155029296875
 20
-1588.3714599609375
 30
0.0
 11
-425.5155029296875
 21
-1598.3714599609375
 31
0.0
  0
LINE
  5
D4
330
CF
100
AcDbEntity
  8
PEN
100
AcDbLine
 10
-925.85498046875
 20
-1549.133544921875
 30
0.0
 11
-935.85498046875
 21
-1549.133544921875
 31
0.0
  0
LINE
  5
D5
330
CF
100
AcDbEntity
  8
PEN
100
AcDbLine
 10
-930.85498046875
 20
-1544.133544921875
 30
0.0
 11
-930.85498046875
 21
-1554.133544921875
 31
0.0
  0
LWPOLYLINE
  5
D6
330
CF
100
AcDbEntity
  8
CUT
100
AcDbPolyline
 90
93
 70
0
 43
0.0
 10
0.0
 20
0.0
 10
-0.1292266845703125
 20
-8.00390625
 10
-1.5210723876953125
 20
-94.25146484375
 10
-2.86480712890625
 20
-176.902587890625
 10
-4.1578521728515625
 20
-255.95458984375
 10
-5.402252197265625
 20
-331.709228515625
 10
-6.59808349609375
 20
-404.349365234375
 10
-7.7379608154296875
 20
-473.6104736328125
 10
-8.826629638671875
 20
-539.979248046875
 10
-9.856048583984375
 20
-603.14501953125
 10
-10.8275146484375
 20
-663.394775390625
 10
-11.73968505859375
 20
-720.8341064453125
 10
-12.59088134765625
 20
-775.55322265625
 10
-13.378402709960938
 20
-827.6025390625
 10
-14.100082397460938
 20
-877.0498046875
 10
-14.754440307617188
 20
-924.0184326171875
 10
-15.339797973632812
 20
-968.6162109375
 10
-15.853485107421875
 20
-1010.892333984375
 10
-16.293792724609375
 20
-1050.962890625
 10
-16.658660888671875
 20
-1088.915283203125
 10
-16.945755004882812
 20
-1124.8424072265625
 10
-17.152847290039062
 20
-1158.8414306640625
 10
-17.277694702148438
 20
-1190.992431640625
 10
-17.3179931640625
 20
-1221.4031982421875
 10
-17.271133422851562
 20
-1250.1846923828125
 10
-17.134750366210938
 20
-1277.41748046875
 10
-16.90594482421875
 20
-1303.213134765625
 10
-16.582015991210938
 20
-1327.682861328125
 10
-16.159820556640625
 20
-1350.9267578125
 10
-15.63616943359375
 20
-1373.0673828125
 10
-15.0078125
 20
-1394.21240234375
 10
-14.2711181640625
 20
-1414.487060546875
 10
-13.422271728515625
 20
-1434.0093994140625
 10
-12.457504272460938
 20
-1452.9091796875
 10
-11.372879028320312
 20
-1471.3067626953125
 10
-10.1641845703125
 20
-1489.3338623046875
 10
-8.82769775390625
 20
-1507.112060546875
 10
-7.3594207763671875
 20
-1524.7679443359375
 10
-5.7556915283203125
 20
-1542.421142578125
 10
-4.0136566162109375
 20
-1560.184814453125
 10
-2.1294097900390625
 20
-1578.177490234375
 10
-0.1026763916015625
 20
-1596.48291015625
 10
0.9867095947265625
 20
-1606.3221435546875
 10
0.9867095947265625
 20
-1606.3221435546875
 10
5.2420806884765625
 20
-1605.9495849609375
 10
573.0119018554688
 20
-1556.24658203125
 10
573.0119018554688
 20
-1556.24658203125
 10
573.9577026367188
 20
-1546.9739990234375
 10
575.7171020507812
 20
-1529.725341796875
 10
577.3482666015625
 20
-1512.744140625
 10
578.8512573242188
 20
-1495.9163818359375
 10
580.2227172851562
 20
-1479.162841796875
 10
581.4623413085938
 20
-1462.361572265625
 10
582.5694580078125
 20
-1445.3865966796875
 10
583.540771484375
 20
-1428.147705078125
 10
584.3756103515625
 20
-1410.5059814453125
 10
585.0718383789062
 20
-1392.3568115234375
 10
585.6282348632812
 20
-1373.572265625
 10
586.0432739257812
 20
-1354.0364990234375
 10
586.3153076171875
 20
-1333.6558837890625
 10
586.4434814453125
 20
-1312.2965087890625
 10
586.4269409179688
 20
-1289.84765625
 10
586.2647094726562
 20
-1266.23046875
 10
585.9560546875
 20
-1241.3250732421875
 10
585.500244140625
 20
-1215.013671875
 10
584.8975219726562
 20
-1187.2342529296875
 10
584.1467895507812
 20
-1157.8668212890625
 10
583.2483520507812
 20
-1126.8250732421875
 10
582.2011108398438
 20
-1093.9986572265625
 10
581.00634765625
 20
-1059.3348388671875
 10
579.6636352539062
 20
-1022.7308349609375
 10
578.1699829101562
 20
-984.0155029296875
 10
576.5326538085938
 20
-943.28515625
 10
574.7415161132812
 20
-900.2064208984375
 10
572.8065185546875
 20
-854.923583984375
 10
570.7243041992188
 20
-807.2606201171875
 10
568.4905395507812
 20
-757.03271484375
 10
566.11376953125
 20
-704.33642578125
 10
563.5841064453125
 20
-648.865234375
 10
560.914306640625
 20
-590.796142578125
 10
558.10009765625
 20
-529.947509765625
 10
555.1184692382812
 20
-465.720947265625
 10
552.0205688476562
 20
-399.118896484375
 10
548.7569580078125
 20
-328.98291015625
 10
545.359130859375
 20
-255.877685546875
 10
541.8362426757812
 20
-179.912109375
 10
538.1498413085938
 20
-100.14208984375
 10
534.3232421875
 20
-16.9638671875
 10
533.9678955078125
 20
-9.241455078125
 10
533.9678955078125
 20
-9.241455078125
 10
529.9664306640625
 20
-9.171875
 10
4.5086212158203125
 20
-0.077880859375
 10
0.0
 20
0.0
  0
LINE
  5
D7
330
CF
100
AcDbEntity
  8
PEN
100
AcDbLine
 10
9.370193481445312
 20
-8.07666015625
 30
0.0
 11
-0.6298065185546875
 21
-8.07666015625
 31
0.0
  0
LINE
  5
D8
330
CF
100
AcDbEntity
  8
PEN
100
AcDbLine
 10
4.3701934814453125
 20
-3.07666015625
 30
0.0
 11
4.3701934814453125
 21
-13.076904296875
 31
0.0
  0
LINE
  5
D9
330
CF
100
AcDbEntity
  8
PEN
100
AcDbLine
 10
9.3699951171875
 20
-1595.98779296875
 30
0.0
 11
-0.6299896240234375
 21
-1595.98779296875
 31
0.0
  0
LINE
  5
DA
330
CF
100
AcDbEntity
  8
PEN
100
AcDbLine
 10
4.3699951171875
 20
-1590.98779296875
 30
0.0
 11
4.3699951171875
 21
-1600.9876708984375
 31
0.0
  0
LINE
  5
DB
330
CF
100
AcDbEntity
  8
PEN
100
AcDbLine
 10
534.8279418945312
 20
-17.170654296875
 30
0.0
 11
524.8279418945312
 21
-17.170654296875
 31
0.0
  0
LINE
  5
DC
330
CF
100
AcDbEntity
  8
PEN
100
AcDbLine
 10
529.8279418945312
 20
-12.170654296875
 30
0.0
 11
529.8279418945312
 21
-22.1708984375
 31
0.0
  0
LINE
  5
DD
330
CF
100
AcDbEntity
  8
PEN
100
AcDbLine
 10
574.4808959960938
 20
-1546.517333984375
 30
0.0
 11
564.4808959960938
 21
-1546.517333984375
 31
0.0
  0
LINE
  5
DE
330
CF
100
AcDbEntity
  8
PEN
100
AcDbLine
 10
569.4808959960938
 20
-1541.517333984375
 30
0.0
 11
569.4808959960938
 21
-1551.517333984375
 31
0.0
  0
TEXT
  5
DF
330
CF
100
AcDbEntity
  8
TEXT
100
AcDbText
 10
9.370193481445312
 20
-8.07666015625
 30
0.0
 40
3.0
  1
SAIL-1 L
 11
9.370193481445312
 21
-8.07666015625
 31
0.0
100
AcDbText
  0
LINE
  5
E0
330
CF
100
AcDbEntity
  8
PEN
100
AcDbLine
 10
-3.9272003173828125
 20
-1433.7982177734375
 30
0.0
 11
-13.927200317382812
 21
-1433.7982177734375
 31
0.0
  0
LINE
  5
E1
330
CF
100
AcDbEntity
  8
PEN
100
AcDbLine
 10
-8.927200317382812
 20
-1428.7982177734375
 30
0.0
 11
-8.927200317382812
 21
-1438.7982177734375
 31
0.0
  0
TEXT
  5
E2
330
CF
100
AcDbEntity
  8
text
100
AcDbText
 10
2.07281494140625
 20
-1435.7982177734375
 30
0.0
 40
3.0
  1
strut-seam
 11
2.07281494140625
 21
-1435.7982177734375
 31
0.0
100
AcDbText
  0
LINE
  5
E3
330
CF
100
AcDbEntity
  8
PEN
100
AcDbLine
 10
-7.634857177734375
 20
-1277.3858642578125
 30
0.0
 11
-17.634841918945312
 21
-1277.3858642578125
 31
0.0
  0
LINE
  5
E4
330
CF
100
AcDbEntity
  8
PEN
100
AcDbLine
 10
-12.634841918945312
 20
-1272.3858642578125
 30
0.0
 11
-12.634841918945312
 21
-1282.3858642578125
 31
0.0
  0
TEXT
  5
E5
330
CF
100
AcDbEntity
  8
text
100
AcDbText
 10
-1.6348419189453125
 20
-1279.3858642578125
 30
0.0
 40
3.0
  1
strut-seam
 11
-1.6348419189453125
 21
-1279.3858642578125
 31
0.0
100
AcDbText
  0
LINE
  5
E6
330
CF
100
AcDbEntity
  8
PEN
100
AcDbLine
 10
-6.3538055419921875
 20
-1010.9453125
 30
0.0
 11
-16.353790283203125
 21
-1010.9453125
 31
0.0
  0
LINE
  5
E7
330
CF
100
AcDbEntity
  8
PEN
100
AcDbLine
 10
-11.353790283203125
 20
-1005.9453125
 30
0.0
 11
-11.353790283203125
 21
-1015.9453125
 31
0.0
  0
TEXT
  5
E8
330
CF
100
AcDbEntity
  8
text
100
AcDbText
 10
-0.353790283203125
 20
-1012.9453125
 30
0.0
 40
3.0
  1
strut-seam
 11
-0.353790283203125
 21
-1012.9453125
 31
0.0
100
AcDbText
  0
LINE
  5
E9
330
CF
100
AcDbEntity
  8
PEN
100
AcDbLine
 10
-0.3563385009765625
 20
-603.19873046875
 30
0.0
 11
-10.3563232421875
 21
-603.19873046875
 31
0.0
  0
LINE
  5
EA
330
CF
100
AcDbEntity
  8
PEN
100
AcDbLine
 10
-5.3563232421875
 20
-598.1988525390625
 30
0.0
 11
-5.3563232421875
 21
-608.19873046875
 31
0.0
  0
TEXT
  5
EB
330
CF
100
AcDbEntity
  8
text
100
AcDbText
 10
5.6436767578125
 20
-605.19873046875
 30
0.0
 40
3.0
  1
strut-seam
 11
5.6436767578125
 21
-605.19873046875
 31
0.0
100
AcDbText
  0
ENDBLK
  5
D1
330
CF
100
AcDbEntity
  8
0
100
AcDbBlockEnd
  0
BLOCK
  5
EF
330
EE
100
AcDbEntity
  8
0
100
AcDbBlockBegin
  2
ripstop UV-SAIL-1.te_patch_(8)
 70
0
 10
0.0
 20
0.0
 30
0.0
  3
ripstop UV-SAIL-1.te_patch_(8)
  1

  0
LWPOLYLINE
  5
F1
330
EE
100
AcDbEntity
  8
CUT
100
AcDbPolyline
 90
7
 70
0
 43
0.0
 10
0.0
 20
0.0
 10
0.1292266845703125
 20
-8.00390625
 10
1.1360015869140625
 20
-70.390869140625
 10
-537.2032470703125
 20
-79.56689453125
 10
-534.3232421875
 20
-16.9638671875
 10
-533.9678955078125
 20
-9.241455078125
 10
0.0
 20
0.0
  0
ENDBLK
  5
F0
330
EE
100
AcDbEntity
  8
0
100
AcDbBlockEnd
  0
BLOCK
  5
F5
330
F4
100
AcDbEntity
  8
0
100
AcDbBlockBegin
  2
ripstop UV-SAIL-1.te_patch.left_(9)
 70
0
 10
0.0
 20
0.0
 30
0.0
  3
ripstop UV-SAIL-1.te_patch.left_(9)
  1

  0
LWPOLYLINE
  5
F7
330
F4
100
AcDbEntity
  8
CUT
100
AcDbPolyline
 90
7
 70
0
 43
0.0
 10
0.0
 20
0.0
 10
-0.1292266845703125
 20
-8.00390625
 10
-1.1360015869140625
 20
-70.390869140625
 10
537.2032470703125
 20
-79.56689453125
 10
534.3232421875
 20
-16.9638671875
 10
533.9678955078125
 20
-9.241455078125
 10
0.0
 20
0.0
  0
ENDBLK
  5
F6
330
F4
100
AcDbEntity
  8
0
100
AcDbBlockEnd
  0
BLOCK
  5
FB
330
FA
100
AcDbEntity
  8
0
100
AcDbBlockBegin
  2
ripstop UV-SAIL-1.patch.strut.center_(10)
 70
0
 10
0.0
 20
0.0
 30
0.0
  3
ripstop UV-SAIL-1.patch.strut.center_(10)
  1

  0
LWPOLYLINE
  5
FD
330
FA
100
AcDbEntity
  8
CUT
100
AcDbPolyline
 90
138
 70
0
 43
0.0
 10
0.0
 20
0.0
 10
0.075531005859375
 20
-0.861328125
 10
0.2955322265625
 20
-3.376953125
 10
0.650238037109375
 20
-7.4443359375
 10
1.129852294921875
 20
-12.96142578125
 10
1.724639892578125
 20
-19.8251953125
 10
2.42474365234375
 20
-27.933837890625
 10
3.220428466796875
 20
-37.1845703125
 10
4.101898193359375
 20
-47.474853515625
 10
5.059356689453125
 20
-58.702392578125
 10
6.0830078125
 20
-70.764892578125
 10
7.1630859375
 20
-83.56005859375
 10
8.289794921875
 20
-96.98486328125
 10
9.453338623046875
 20
-110.937255859375
 10
10.6439208984375
 20
-125.31494140625
 10
11.851806640625
 20
-140.01513671875
 10
13.06719970703125
 20
-154.935546875
 10
14.2802734375
 20
-169.973876953125
 10
15.48126220703125
 20
-185.027587890625
 10
16.660400390625
 20
-199.994140625
 10
17.807830810546875
 20
-214.771240234375
 10
18.91387939453125
 20
-229.25634765625
 10
19.968658447265625
 20
-243.34716796875
 10
20.962432861328125
 20
-256.94140625
 10
21.8853759765625
 20
-269.93603515625
 10
22.72772216796875
 20
-282.229248046875
 10
23.479736328125
 20
-293.71826171875
 10
24.131561279296875
 20
-304.301025390625
 10
24.6734619140625
 20
-313.874755859375
 10
25.095611572265625
 20
-322.3369140625
 10
25.388275146484375
 20
-329.5849609375
 10
26.241729736328125
 20
-351.20556640625
 10
27.3978271484375
 20
-375.433837890625
 10
28.815673828125
 20
-402.080810546875
 10
30.45428466796875
 20
-430.9560546875
 10
32.272674560546875
 20
-461.87060546875
 10
34.229888916015625
 20
-494.6346435546875
 10
36.284942626953125
 20
-529.058349609375
 10
38.396942138671875
 20
-564.9522705078125
 10
40.524871826171875
 20
-602.1268310546875
 10
42.627777099609375
 20
-640.392333984375
 10
44.66471862792969
 20
-679.5592041015625
 10
46.594696044921875
 20
-719.4378662109375
 10
48.37677001953125
 20
-759.838623046875
 10
49.969970703125
 20
-800.57177734375
 10
51.333343505859375
 20
-841.447998046875
 10
52.4259033203125
 20
-882.27734375
 10
53.20672607421875
 20
-922.8704833984375
 10
53.63482666015625
 20
-963.03759765625
 10
53.66925048828125
 20
-1002.5892333984375
 10
53.269012451171875
 20
-1041.3355712890625
 10
52.3931884765625
 20
-1079.087158203125
 10
51.00079345703125
 20
-1115.654296875
 10
49.05085754394531
 20
-1150.847412109375
 10
46.50242614746094
 20
-1184.476806640625
 10
43.314544677734375
 20
-1216.35302734375
 10
39.446258544921875
 20
-1246.286376953125
 10
34.856597900390625
 20
-1274.087158203125
 10
29.50457763671875
 20
-1299.56591796875
 10
23.3492431640625
 20
-1322.5328369140625
 10
16.349700927734375
 20
-1342.7987060546875
 10
13.452178955078125
 20
-1349.12646484375
 10
9.506622314453125
 20
-1356.166748046875
 10
4.59344482421875
 20
-1363.8543701171875
 10
-1.2069091796875
 20
-1372.1243896484375
 10
-7.813934326171875
 20
-1380.911865234375
 10
-15.147247314453125
 20
-1390.1514892578125
 10
-23.1263427734375
 20
-1399.7783203125
 10
-31.670806884765625
 20
-1409.727294921875
 10
-40.7001953125
 20
-1419.9334716796875
 10
-50.134033203125
 20
-1430.33154296875
 10
-59.89190673828125
 20
-1440.856689453125
 10
-69.89337158203125
 20
-1451.443603515625
 10
-80.05792236328125
 20
-1462.027587890625
 10
-90.30514526367188
 20
-1472.543212890625
 10
-100.55462646484375
 20
-1482.9256591796875
 10
-110.72586059570312
 20
-1493.1097412109375
 10
-120.7384033203125
 20
-1503.0303955078125
 10
-130.5118408203125
 20
-1512.62255859375
 10
-139.96572875976562
 20
-1521.8212890625
 10
-149.01959228515625
 20
-1530.5615234375
 10
-157.593017578125
 20
-1538.778076171875
 10
-165.60549926757812
 20
-1546.4058837890625
 10
-172.97665405273438
 20
-1553.3800048828125
 10
-179.62594604492188
 20
-1559.63525390625
 10
-185.4730224609375
 20
-1565.1068115234375
 10
-190.4373779296875
 20
-1569.729248046875
 10
-194.43856811523438
 20
-1573.4378662109375
 10
-197.39617919921875
 20
-1576.16748046875
 10
-199.229736328125
 20
-1577.852783203125
 10
-199.8587646484375
 20
-1578.42919921875
 10
-199.8587646484375
 20
-1578.42919921875
 10
98.99832153320312
 20
-1604.5914306640625
 10
98.99832153320312
 20
-1604.5914306640625
 10
100.08770751953125
 20
-1594.752197265625
 10
102.11444091796875
 20
-1576.44677734375
 10
103.99868774414062
 20
-1558.4541015625
 10
105.74072265625
 20
-1540.6904296875
 10
107.34445190429688
 20
-1523.0372314453125
 10
108.81272888183594
 20
-1505.38134765625
 10
110.14921569824219
 20
-1487.6031494140625
 10
111.35791015625
 20
-1469.5760498046875
 10
112.44253540039062
 20
-1451.178466796875
 10
113.40730285644531
 20
-1432.2786865234375
 10
114.25614929199219
 20
-1412.75634765625
 10
114.99284362792969
 20
-1392.481689453125
 10
115.62120056152344
 20
-1371.336669921875
 10
116.14485168457031
 20
-1349.196044921875
 10
116.56704711914062
 20
-1325.9521484375
 10
116.89097595214844
 20
-1301.482421875
 10
117.11978149414062
 20
-1275.686767578125
 10
117.25616455078125
 20
-1248.4539794921875
 10
117.30302429199219
 20
-1219.6724853515625
 10
117.26272583007812
 20
-1189.26171875
 10
117.13787841796875
 20
-1157.1107177734375
 10
116.9307861328125
 20
-1123.1116943359375
 10
116.64369201660156
 20
-1087.1845703125
 10
116.27882385253906
 20
-1049.232177734375
 10
115.83851623535156
 20
-1009.16162109375
 10
115.3248291015625
 20
-966.885498046875
 10
114.73947143554688
 20
-922.2877197265625
 10
114.08511352539062
 20
-875.319091796875
 10
113.36343383789062
 20
-825.871826171875
 10
112.57591247558594
 20
-773.822509765625
 10
111.72471618652344
 20
-719.1033935546875
 10
110.81254577636719
 20
-661.6640625
 10
109.84107971191406
 20
-601.414306640625
 10
108.81166076660156
 20
-538.24853515625
 10
107.72299194335938
 20
-471.8797607421875
 10
106.58311462402344
 20
-402.61865234375
 10
105.38728332519531
 20
-329.978515625
 10
104.14288330078125
 20
-254.223876953125
 10
102.84983825683594
 20
-175.171875
 10
101.506103515625
 20
-92.520751953125
 10
100.1142578125
 20
-6.273193359375
 10
99.98503112792969
 20
1.730712890625
 10
0.0
 20
0.0
 10
99.98503112792969
 20
1.730712890625
  0
ENDBLK
  5
FC
330
FA
100
AcDbEntity
  8
0
100
AcDbBlockEnd
  0
BLOCK
  5
101
330
100
100
AcDbEntity
  8
0
100
AcDbBlockBegin
  2
ripstop UV-SAIL-1.patch.strut.center.left_(11)
 70
0
 10
0.0
 20
0.0
 30
0.0
  3
ripstop UV-SAIL-1.patch.strut.center.left_(11)
  1

  0
LWPOLYLINE
  5
103
330
100
100
AcDbEntity
  8
CUT
100
AcDbPolyline
 90
138
 70
0
 43
0.0
 10
0.0
 20
0.0
 10
-0.075531005859375
 20
-0.861328125
 10
-0.2955322265625
 20
-3.376953125
 10
-0.650238037109375
 20
-7.4443359375
 10
-1.129852294921875
 20
-12.96142578125
 10
-1.724639892578125
 20
-19.8251953125
 10
-2.42474365234375
 20
-27.933837890625
 10
-3.220428466796875
 20
-37.1845703125
 10
-4.101898193359375
 20
-47.474853515625
 10
-5.059356689453125
 20
-58.702392578125
 10
-6.0830078125
 20
-70.764892578125
 10
-7.1630859375
 20
-83.56005859375
 10
-8.289794921875
 20
-96.98486328125
 10
-9.453338623046875
 20
-110.937255859375
 10
-10.6439208984375
 20
-125.31494140625
 10
-11.851806640625
 20
-140.01513671875
 10
-13.06719970703125
 20
-154.935546875
 10
-14.2802734375
 20
-169.973876953125
 10
-15.48126220703125
 20
-185.027587890625
 10
-16.660400390625
 20
-199.994140625
 10
-17.807830810546875
 20
-214.771240234375
 10
-18.91387939453125
 20
-229.25634765625
 10
-19.968658447265625
 20
-243.34716796875
 10
-20.962432861328125
 20
-256.94140625
 10
-21.8853759765625
 20
-269.93603515625
 10
-22.72772216796875
 20
-282.229248046875
 10
-23.479736328125
 20
-293.71826171875
 10
-24.131561279296875
 20
-304.301025390625
 10
-24.6734619140625
 20
-313.874755859375
 10
-25.095611572265625
 20
-322.3369140625
 10
-25.388275146484375
 20
-329.5849609375
 10
-26.241729736328125
 20
-351.20556640625
 10
-27.3978271484375
 20
-375.433837890625
 10
-28.815673828125
 20
-402.080810546875
 10
-30.45428466796875
 20
-430.9560546875
 10
-32.272674560546875
 20
-461.87060546875
 10
-34.229888916015625
 20
-494.6346435546875
 10
-36.284942626953125
 20
-529.058349609375
 10
-38.396942138671875
 20
-564.9522705078125
 10
-40.524871826171875
 20
-602.1268310546875
 10
-42.627777099609375
 20
-640.392333984375
 10
-44.66471862792969
 20
-679.5592041015625
 10
-46.594696044921875
 20
-719.4378662109375
 10
-48.37677001953125
 20
-759.838623046875
 10
-49.969970703125
 20
-800.57177734375
 10
-51.333343505859375
 20
-841.447998046875
 10
-52.4259033203125
 20
-882.27734375
 10
-53.20672607421875
 20
-922.8704833984375
 10
-53.63482666015625
 20
-963.03759765625
 10
-53.66925048828125
 20
-1002.5892333984375
 10
-53.269012451171875
 20
-1041.3355712890625
 10
-52.3931884765625
 20
-1079.087158203125
 10
-51.00079345703125
 20
-1115.654296875
 10
-49.05085754394531
 20
-1150.847412109375
 10
-46.50242614746094
 20
-1184.476806640625
 10
-43.314544677734375
 20
-1216.35302734375
 10
-39.446258544921875
 20
-1246.286376953125
 10
-34.856597900390625
 20
-1274.087158203125
 10
-29.50457763671875
 20
-1299.56591796875
 10
-23.3492431640625
 20
-1322.5328369140625
 10
-16.349700927734375
 20
-1342.7987060546875
 10
-13.452178955078125
 20
-1349.12646484375
 10
-9.506622314453125
 20
-1356.166748046875
 10
-4.59344482421875
 20
-1363.8543701171875
 10
1.2069091796875
 20
-1372.1243896484375
 10
7.813934326171875
 20
-1380.911865234375
 10
15.147247314453125
 20
-1390.1514892578125
 10
23.1263427734375
 20
-1399.7783203125
 10
31.670806884765625
 20
-1409.727294921875
 10
40.7001953125
 20
-1419.9334716796875
 10
50.134033203125
 20
-1430.33154296875
 10
59.89190673828125
 20
-1440.856689453125
 10
69.89337158203125
 20
-1451.443603515625
 10
80.05792236328125
 20
-1462.027587890625
 10
90.30514526367188
 20
-1472.543212890625
 10
100.55462646484375
 20
-1482.9256591796875
 10
110.72586059570312
 20
-1493.1097412109375
 10
120.7384033203125
 20
-1503.0303955078125
 10
130.5118408203125
 20
-1512.62255859375
 10
139.96572875976562
 20
-1521.8212890625
 10
149.01959228515625
 20
-1530.5615234375
 10
157.593017578125
 20
-1538.778076171875
 10
165.60549926757812
 20
-1546.4058837890625
 10
172.97665405273438
 20
-1553.3800048828125
 10
179.62594604492188
 20
-1559.63525390625
 10
185.4730224609375
 20
-1565.1068115234375
 10
190.4373779296875
 20
-1569.729248046875
 10
194.43856811523438
 20
-1573.4378662109375
 10
197.39617919921875
 20
-1576.16748046875
 10
199.229736328125
 20
-1577.852783203125
 10
199.8587646484375
 20
-1578.42919921875
 10
199.8587646484375
 20
-1578.42919921875
 10
-98.99832153320312
 20
-1604.5914306640625
 10
-98.99832153320312
 20
-1604.5914306640625
 10
-100.08770751953125
 20
-1594.752197265625
 10
-102.11444091796875
 20
-1576.44677734375
 10
-103.99868774414062
 20
-1558.4541015625
 10
-105.74072265625
 20
-1540.6904296875
 10
-107.34445190429688
 20
-1523.0372314453125
 10
-108.81272888183594
 20
-1505.38134765625
 10
-110.14921569824219
 20
-1487.6031494140625
 10
-111.35791015625
 20
-1469.5760498046875
 10
-112.44253540039062
 20
-1451.178466796875
 10
-113.40730285644531
 20
-1432.2786865234375
 10
-114.25614929199219
 20
-1412.75634765625
 10
-114.99284362792969
 20
-1392.481689453125
 10
-115.62120056152344
 20
-1371.336669921875
 10
-116.14485168457031
 20
-1349.196044921875
 10
-116.56704711914062
 20
-1325.9521484375
 10
-116.89097595214844
 20
-1301.482421875
 10
-117.11978149414062
 20
-1275.686767578125
 10
-117.25616455078125
 20
-1248.4539794921875
 10
-117.30302429199219
 20
-1219.6724853515625
 10
-117.26272583007812
 20
-1189.26171875
 10
-117.13787841796875
 20
-1157.1107177734375
 10
-116.9307861328125
 20
-1123.1116943359375
 10
-116.64369201660156
 20
-1087.1845703125
 10
-116.27882385253906
 20
-1049.232177734375
 10
-115.83851623535156
 20
-1009.16162109375
 10
-115.3248291015625
 20
-966.885498046875
 10
-114.73947143554688
 20
-922.2877197265625
 10
-114.08511352539062
 20
-875.319091796875
 10
-113.36343383789062
 20
-825.871826171875
 10
-112.57591247558594
 20
-773.822509765625
 10
-111.72471618652344
 20
-719.1033935546875
 10
-110.81254577636719
 20
-661.6640625
 10
-109.84107971191406
 20
-601.414306640625
 10
-108.81166076660156
 20
-538.24853515625
 10
-107.72299194335938
 20
-471.8797607421875
 10
-106.58311462402344
 20
-402.61865234375
 10
-105.38728332519531
 20
-329.978515625
 10
-104.14288330078125
 20
-254.223876953125
 10
-102.84983825683594
 20
-175.171875
 10
-101.506103515625
 20
-92.520751953125
 10
-100.1142578125
 20
-6.273193359375
 10
-99.98503112792969
 20
1.730712890625
 10
0.0
 20
0.0
 10
-99.98503112792969
 20
1.730712890625
  0
ENDBLK
  5
102
330
100
100
AcDbEntity
  8
0
100
AcDbBlockEnd
  0
BLOCK
  5
107
330
106
100
AcDbEntity
  8
0
100
AcDbBlockBegin
  2
ripstop UV-SAIL-2.left_(12)
 70
0
 10
0.0
 20
0.0
 30
0.0
  3
ripstop UV-SAIL-2.left_(12)
  1

  0
LINE
  5
109
330
106
100
AcDbEntity
  8
PEN
100
AcDbLine
 10
-1907.820556640625
 20
-1533.06884765625
 30
0.0
 11
-1917.820556640625
 21
-1533.06884765625
 31
0.0
  0
LINE
  5
10A
330
106
100
AcDbEntity
  8
PEN
100
AcDbLine
 10
-1912.820556640625
 20
-1528.06884765625
 30
0.0
 11
-1912.820556640625
 21
-1538.06884765625
 31
0.0
  0
LINE
  5
10B
330
106
100
AcDbEntity
  8
PEN
100
AcDbLine
 10
-2352.99365234375
 20
-1457.426025390625
 30
0.0
 11
-2362.99365234375
 21
-1457.426025390625
 31
0.0
  0
LINE
  5
10C
330
106
100
AcDbEntity
  8
PEN
100
AcDbLine
 10
-2357.99365234375
 20
-1452.426025390625
 30
0.0
 11
-2357.99365234375
 21
-1462.426025390625
 31
0.0
  0
LWPOLYLINE
  5
10D
330
106
100
AcDbEntity
  8
CUT
100
AcDbPolyline
 90
93
 70
0
 43
0.0
 10
0.0
 20
0.0
 10
-0.14385986328125
 20
-8.0263671875
 10
-1.633544921875
 20
-91.10400390625
 10
-3.07415771484375
 20
-170.872802734375
 10
-4.462158203125
 20
-247.310302734375
 10
-5.7945556640625
 20
-320.41064453125
 10
-7.068603515625
 20
-390.18017578125
 10
-8.29486083984375
 20
-457.378662109375
 10
-9.45709228515625
 20
-521.29248046875
 10
-10.5589599609375
 20
-582.2896728515625
 10
-11.60308837890625
 20
-640.697265625
 10
-12.57550048828125
 20
-695.91259765625
 10
-13.48895263671875
 20
-748.83935546875
 10
-14.3323974609375
 20
-799.0350341796875
 10
-15.10546875
 20
-846.678466796875
 10
-15.81072998046875
 20
-892.096923828125
 10
-16.441650390625
 20
-935.1329345703125
 10
-16.9986572265625
 20
-975.9947509765625
 10
-17.4775390625
 20
-1014.6351318359375
 10
-17.87835693359375
 20
-1051.2806396484375
 10
-18.19805908203125
 20
-1086.0030517578125
 10
-18.4339599609375
 20
-1118.8072509765625
 10
-18.58416748046875
 20
-1149.8470458984375
 10
-18.64599609375
 20
-1179.2342529296875
 10
-18.61663818359375
 20
-1207.03955078125
 10
-18.4931640625
 20
-1233.314453125
 10
-18.2723388671875
 20
-1258.223388671875
 10
-17.9503173828125
 20
-1281.8619384765625
 10
-17.52374267578125
 20
-1304.287109375
 10
-16.9881591796875
 20
-1325.632080078125
 10
-16.33868408203125
 20
-1346.0152587890625
 10
-15.5706787109375
 20
-1365.5308837890625
 10
-14.67828369140625
 20
-1384.3048095703125
 10
-13.65655517578125
 20
-1402.4405517578125
 10
-12.49853515625
 20
-1420.0677490234375
 10
-11.19921875
 20
-1437.2918701171875
 10
-9.75189208984375
 20
-1454.2366943359375
 10
-8.15008544921875
 20
-1471.0244140625
 10
-6.389404296875
 20
-1487.7525634765625
 10
-4.46429443359375
 20
-1504.540771484375
 10
-2.37066650390625
 20
-1521.48583984375
 10
-0.1060791015625
 20
-1538.681884765625
 10
1.22247314453125
 20
-1548.77001953125
 10
1.22247314453125
 20
-1548.77001953125
 10
6.03057861328125
 20
-1547.952880859375
 10
512.5711669921875
 20
-1461.8826904296875
 10
512.5711669921875
 20
-1461.8826904296875
 10
513.1708984375
 20
-1452.6934814453125
 10
514.206787109375
 20
-1436.820068359375
 10
515.1746826171875
 20
-1421.19580078125
 10
516.077880859375
 20
-1405.62353515625
 10
516.9058837890625
 20
-1390.1556396484375
 10
517.66259765625
 20
-1374.55078125
 10
518.339599609375
 20
-1358.80224609375
 10
518.9351806640625
 20
-1342.7579345703125
 10
519.4449462890625
 20
-1326.3333740234375
 10
519.8660888671875
 20
-1309.3831787109375
 10
520.194091796875
 20
-1291.8211669921875
 10
520.4256591796875
 20
-1273.562744140625
 10
520.5584716796875
 20
-1254.4677734375
 10
520.5894775390625
 20
-1234.4552001953125
 10
520.5162353515625
 20
-1213.45166015625
 10
520.3363037109375
 20
-1191.2559814453125
 10
520.04931640625
 20
-1167.9066162109375
 10
519.6529541015625
 20
-1143.224609375
 10
519.146728515625
 20
-1117.189208984375
 10
518.52783203125
 20
-1089.59033203125
 10
517.7978515625
 20
-1060.4627685546875
 10
516.956787109375
 20
-1029.73583984375
 10
515.9993896484375
 20
-997.15283203125
 10
514.9276123046875
 20
-962.7200927734375
 10
513.7471923828125
 20
-926.5426025390625
 10
512.4466552734375
 20
-888.1817626953125
 10
511.0391845703125
 20
-847.98095703125
 10
509.5086669921875
 20
-805.3597412109375
 10
507.861083984375
 20
-760.4364013671875
 10
506.1141357421875
 20
-713.595703125
 10
504.2459716796875
 20
-664.1732177734375
 10
502.2493896484375
 20
-611.908203125
 10
500.1708984375
 20
-557.9185791015625
 10
497.9346923828125
 20
-500.16015625
 10
495.60986328125
 20
-440.32958984375
 10
493.1494140625
 20
-377.130615234375
 10
490.6085205078125
 20
-311.8916015625
 10
487.9412841796875
 20
-243.338623046875
 10
485.2008056640625
 20
-172.7529296875
 10
482.2979736328125
 20
-97.744873046875
 10
479.271728515625
 20
-19.2177734375
 10
478.9739990234375
 20
-11.489501953125
 10
478.9739990234375
 20
-11.489501953125
 10
474.966796875
 20
-11.3935546875
 10
4.5472412109375
 20
-0.109130859375
 10
0.0
 20
0.0
  0
LINE
  5
10E
330
106
100
AcDbEntity
  8
PEN
100
AcDbLine
 10
9.35540771484375
 20
-8.10693359375
 30
0.0
 11
-0.64459228515625
 21
-8.10693359375
 31
0.0
  0
LINE
  5
10F
330
106
100
AcDbEntity
  8
PEN
100
AcDbLine
 10
4.35540771484375
 20
-3.106689453125
 30
0.0
 11
4.35540771484375
 21
-13.10693359375
 31
0.0
  0
LINE
  5
110
330
106
100
AcDbEntity
  8
PEN
100
AcDbLine
 10
9.35540771484375
 20
-1538.09423828125
 30
0.0
 11
-0.64459228515625
 21
-1538.09423828125
 31
0.0
  0
LINE
  5
111
330
106
100
AcDbEntity
  8
PEN
100
AcDbLine
 10
4.35540771484375
 20
-1533.09423828125
 30
0.0
 11
4.35540771484375
 21
-1543.09423828125
 31
0.0
  0
LINE
  5
112
330
106
100
AcDbEntity
  8
PEN
100
AcDbLine
 10
479.7750244140625
 20
-19.39111328125
 30
0.0
 11
469.7750244140625
 21
-19.39111328125
 31
0.0
  0
LINE
  5
113
330
106
100
AcDbEntity
  8
PEN
100
AcDbLine
 10
474.7750244140625
 20
-14.39111328125
 30
0.0
 11
474.7750244140625
 21
-24.391357421875
 31
0.0
  0
LINE
  5
114
330
106
100
AcDbEntity
  8
PEN
100
AcDbLine
 10
513.680419921875
 20
-1452.4005126953125
 30
0.0
 11
503.680419921875
 21
-1452.4005126953125
 31
0.0
  0
LINE
  5
115
330
106
100
AcDbEntity
  8
PEN
100
AcDbLine
 10
508.680419921875
 20
-1447.4005126953125
 30
0.0
 11
508.680419921875
 21
-1457.4005126953125
 31
0.0
  0
TEXT
  5
116
330
106
100
AcDbEntity
  8
TEXT
100
AcDbText
 10
9.35540771484375
 20
-8.10693359375
 30
0.0
 40
3.0
  1
SAIL-2 L
 11
9.35540771484375
 21
-8.10693359375
 31
0.0
100
AcDbText
  0
ENDBLK
  5
108
330
106
100
AcDbEntity
  8
0
100
AcDbBlockEnd
  0
BLOCK
  5
11A
330
119
100
AcDbEntity
  8
0
100
AcDbBlockBegin
  2
ripstop UV-SAIL-2.te_patch_(13)
 70
0
 10
0.0
 20
0.0
 30
0.0
  3
ripstop UV-SAIL-2.te_patch_(13)
  1

  0
LWPOLYLINE
  5
11C
330
119
100
AcDbEntity
  8
CUT
100
AcDbPolyline
 90
7
 70
0
 43
0.0
 10
0.0
 20
0.0
 10
0.14385986328125
 20
-8.0263671875
 10
1.2620849609375
 20
-70.388671875
 10
-481.6849365234375
 20
-81.83740234375
 10
-479.271728515625
 20
-19.2177734375
 10
-478.9739990234375
 20
-11.489501953125
 10
0.0
 20
0.0
  0
ENDBLK
  5
11B
330
119
100
AcDbEntity
  8
0
100
AcDbBlockEnd
  0
BLOCK
  5
120
330
11F
100
AcDbEntity
  8
0
100
AcDbBlockBegin
  2
ripstop UV-SAIL-2.te_patch.left_(14)
 70
0
 10
0.0
 20
0.0
 30
0.0
  3
ripstop UV-SAIL-2.te_patch.left_(14)
  1

  0
LWPOLYLINE
  5
122
330
11F
100
AcDbEntity
  8
CUT
100
AcDbPolyline
 90
7
 70
0
 43
0.0
 10
0.0
 20
0.0
 10
-0.14385986328125
 20
-8.0263671875
 10
-1.2620849609375
 20
-70.388671875
 10
481.6849365234375
 20
-81.83740234375
 10
479.271728515625
 20
-19.2177734375
 10
478.9739990234375
 20
-11.489501953125
 10
0.0
 20
0.0
  0
ENDBLK
  5
121
330
11F
100
AcDbEntity
  8
0
100
AcDbBlockEnd
  0
BLOCK
  5
126
330
125
100
AcDbEntity
  8
0
100
AcDbBlockBegin
  2
ripstop UV-SAIL-3.left_(15)
 70
0
 10
0.0
 20
0.0
 30
0.0
  3
ripstop UV-SAIL-3.left_(15)
  1

  0
LINE
  5
128
330
125
100
AcDbEntity
  8
PEN
100
AcDbLine
 10
-3307.807861328125
 20
-1434.0341796875
 30
0.0
 11
-3317.807861328125
 21
-1434.0341796875
 31
0.0
  0
LINE
  5
129
330
125
100
AcDbEntity
  8
PEN
100
AcDbLine
 10
-3312.807861328125
 20
-1429.0341796875
 30
0.0
 11
-3312.807861328125
 21
-1439.0341796875
 31
0.0
  0
LINE
  5
12A
330
125
100
AcDbEntity
  8
PEN
100
AcDbLine
 10
-3686.37255859375
 20
-1334.523681640625
 30
0.0
 11
-3696.37255859375
 21
-1334.523681640625
 31
0.0
  0
LINE
  5
12B
330
125
100
AcDbEntity
  8
PEN
100
AcDbLine
 10
-3691.37255859375
 20
-1329.523681640625
 30
0.0
 11
-3691.37255859375
 21
-1339.523681640625
 31
0.0
  0
LWPOLYLINE
  5
12C
330
125
100
AcDbEntity
  8
CUT
100
AcDbPolyline
 90
93
 70
0
 43
0.0
 10
0.0
 20
0.0
 10
-0.0933837890625
 20
-8.09814453125
 10
-0.991455078125
 20
-86.03173828125
 10
-1.8587646484375
 20
-160.8681640625
 10
-2.6939697265625
 20
-232.591552734375
 10
-3.4942626953125
 20
-301.088134765625
 10
-4.26416015625
 20
-366.86279296875
 10
-4.9970703125
 20
-429.51611328125
 10
-5.6976318359375
 20
-489.525634765625
 10
-6.362060546875
 20
-546.7457275390625
 10
-6.9906005859375
 20
-601.3126220703125
 10
-7.5826416015625
 20
-653.31298828125
 10
-8.1373291015625
 20
-702.828857421875
 10
-8.6583251953125
 20
-750.335205078125
 10
-9.1317138671875
 20
-794.718505859375
 10
-9.5693359375
 20
-837.26123046875
 10
-9.966552734375
 20
-877.6376953125
 10
-10.3218994140625
 20
-915.93359375
 10
-10.6353759765625
 20
-952.38134765625
 10
-10.9027099609375
 20
-986.6124267578125
 10
-11.1256103515625
 20
-1019.1629638671875
 10
-11.302001953125
 20
-1049.9666748046875
 10
-11.43017578125
 20
-1079.18310546875
 10
-11.5076904296875
 20
-1106.6728515625
 10
-11.532958984375
 20
-1132.752197265625
 10
-11.50390625
 20
-1157.38623046875
 10
-11.4171142578125
 20
-1180.807861328125
 10
-11.2705078125
 20
-1202.9342041015625
 10
-11.0599365234375
 20
-1223.9521484375
 10
-10.78125
 20
-1243.956787109375
 10
-10.4296875
 20
-1263.0474853515625
 10
-10.0003662109375
 20
-1281.3250732421875
 10
-9.48828125
 20
-1298.852783203125
 10
-8.8861083984375
 20
-1315.8004150390625
 10
-8.1881103515625
 20
-1332.2325439453125
 10
-7.38720703125
 20
-1348.273193359375
 10
-6.476806640625
 20
-1364.0286865234375
 10
-5.4503173828125
 20
-1379.598876953125
 10
-4.3001708984375
 20
-1395.112548828125
 10
-3.0244140625
 20
-1410.6219482421875
 10
-1.6160888671875
 20
-1426.2584228515625
 10
-0.072509765625
 20
-1442.097412109375
 10
0.9803466796875
 20
-1452.901123046875
 10
0.9803466796875
 20
-1452.901123046875
 10
6.9486083984375
 20
-1451.3323974609375
 10
445.10888671875
 20
-1336.156494140625
 10
445.10888671875
 20
-1336.156494140625
 10
445.49560546875
 20
-1327.088623046875
 10
446.1025390625
 20
-1312.85107421875
 10
446.683349609375
 20
-1298.8736572265625
 10
447.2451171875
 20
-1284.8330078125
 10
447.7734375
 20
-1270.9266357421875
 10
448.267822265625
 20
-1256.9754638671875
 10
448.7314453125
 20
-1242.670166015625
 10
449.1513671875
 20
-1228.1484375
 10
449.525390625
 20
-1213.2401123046875
 10
449.849609375
 20
-1197.853759765625
 10
450.11669921875
 20
-1181.9434814453125
 10
450.32568359375
 20
-1165.3092041015625
 10
450.470703125
 20
-1147.9744873046875
 10
450.55078125
 20
-1129.7340087890625
 10
450.561767578125
 20
-1110.554931640625
 10
450.501220703125
 20
-1090.3504638671875
 10
450.367919921875
 20
-1069.036376953125
 10
450.160400390625
 20
-1046.61767578125
 10
449.876953125
 20
-1022.8443603515625
 10
449.5146484375
 20
-997.607421875
 10
449.079345703125
 20
-971.16357421875
 10
448.561767578125
 20
-942.94873046875
 10
447.971435546875
 20
-913.4404296875
 10
447.296142578125
 20
-881.9295654296875
 10
446.551025390625
 20
-849.0667724609375
 10
445.717041015625
 20
-813.939697265625
 10
444.817626953125
 20
-777.4525146484375
 10
443.82470703125
 20
-738.373046875
 10
442.761474609375
 20
-697.565185546875
 10
441.6357421875
 20
-655.1826171875
 10
440.403076171875
 20
-609.5213623046875
 10
439.10888671875
 20
-562.1435546875
 10
437.737548828125
 20
-512.4090576171875
 10
436.29150390625
 20
-460.2998046875
 10
434.768798828125
 20
-405.678466796875
 10
433.174560546875
 20
-348.609130859375
 10
431.5029296875
 20
-288.796875
 10
429.75244140625
 20
-226.081298828125
 10
427.936767578125
 20
-160.865234375
 10
426.047119140625
 20
-92.725830078125
 10
424.088623046875
 20
-21.744384765625
 10
423.875
 20
-14.005615234375
 10
423.875
 20
-14.005615234375
 10
419.8544921875
 20
-13.872802734375
 10
4.6705322265625
 20
-0.154296875
 10
0.0
 20
0.0
  0
LINE
  5
12D
330
125
100
AcDbEntity
  8
PEN
100
AcDbLine
 10
9.4063720703125
 20
-8.14990234375
 30
0.0
 11
-0.5936279296875
 21
-8.14990234375
 31
0.0
  0
LINE
  5
12E
330
125
100
AcDbEntity
  8
PEN
100
AcDbLine
 10
4.4063720703125
 20
-3.14990234375
 30
0.0
 11
4.4063720703125
 21
-13.14990234375
 31
0.0
  0
LINE
  5
12F
330
125
100
AcDbEntity
  8
PEN
100
AcDbLine
 10
9.4063720703125
 20
-1441.660888671875
 30
0.0
 11
-0.5936279296875
 21
-1441.660888671875
 31
0.0
  0
LINE
  5
130
330
125
100
AcDbEntity
  8
PEN
100
AcDbLine
 10
4.4063720703125
 20
-1436.660888671875
 30
0.0
 11
4.4063720703125
 21
-1446.660888671875
 31
0.0
  0
LINE
  5
131
330
125
100
AcDbEntity
  8
PEN
100
AcDbLine
 10
424.590576171875
 20
-21.868408203125
 30
0.0
 11
414.59033203125
 21
-21.868408203125
 31
0.0
  0
LINE
  5
132
330
125
100
AcDbEntity
  8
PEN
100
AcDbLine
 10
419.59033203125
 20
-16.868408203125
 30
0.0
 11
419.59033203125
 21
-26.86865234375
 31
0.0
  0
LINE
  5
133
330
125
100
AcDbEntity
  8
PEN
100
AcDbLine
 10
445.999755859375
 20
-1326.89697265625
 30
0.0
 11
435.99951171875
 21
-1326.89697265625
 31
0.0
  0
LINE
  5
134
330
125
100
AcDbEntity
  8
PEN
100
AcDbLine
 10
440.999755859375
 20
-1321.89697265625
 30
0.0
 11
440.999755859375
 21
-1331.89697265625
 31
0.0
  0
TEXT
  5
135
330
125
100
AcDbEntity
  8
TEXT
100
AcDbText
 10
9.4063720703125
 20
-8.14990234375
 30
0.0
 40
3.0
  1
SAIL-3 L
 11
9.4063720703125
 21
-8.14990234375
 31
0.0
100
AcDbText
  0
ENDBLK
  5
127
330
125
100
AcDbEntity
  8
0
100
AcDbBlockEnd
  0
BLOCK
  5
139
330
138
100
AcDbEntity
  8
0
100
AcDbBlockBegin
  2
ripstop UV-SAIL-3.te_patch_(16)
 70
0
 10
0.0
 20
0.0
 30
0.0
  3
ripstop UV-SAIL-3.te_patch_(16)
  1

  0
LWPOLYLINE
  5
13B
330
138
100
AcDbEntity
  8
CUT
100
AcDbPolyline
 90
7
 70
0
 43
0.0
 10
0.0
 20
0.0
 10
0.0933837890625
 20
-8.09814453125
 10
0.8111572265625
 20
-70.395263671875
 10
-425.81689453125
 20
-84.37890625
 10
-424.088623046875
 20
-21.744384765625
 10
-423.875
 20
-14.005615234375
 10
0.0
 20
0.0
  0
ENDBLK
  5
13A
330
138
100
AcDbEntity
  8
0
100
AcDbBlockEnd
  0
BLOCK
  5
13F
330
13E
100
AcDbEntity
  8
0
100
AcDbBlockBegin
  2
ripstop UV-SAIL-3.te_patch.left_(17)
 70
0
 10
0.0
 20
0.0
 30
0.0
  3
ripstop UV-SAIL-3.te_patch.left_(17)
  1

  0
LWPOLYLINE
  5
141
330
13E
100
AcDbEntity
  8
CUT
100
AcDbPolyline
 90
7
 70
0
 43
0.0
 10
0.0
 20
0.0
 10
-0.0933837890625
 20
-8.09814453125
 10
-0.8111572265625
 20
-70.395263671875
 10
425.81689453125
 20
-84.37890625
 10
424.088623046875
 20
-21.744384765625
 10
423.875
 20
-14.005615234375
 10
0.0
 20
0.0
  0
ENDBLK
  5
140
330
13E
100
AcDbEntity
  8
0
100
AcDbBlockEnd
  0
BLOCK
  5
145
330
144
100
AcDbEntity
  8
0
100
AcDbBlockBegin
  2
ripstop UV-SAIL-4.left_(18)
 70
0
 10
0.0
 20
0.0
 30
0.0
  3
ripstop UV-SAIL-4.left_(18)
  1

  0
LINE
  5
147
330
144
100
AcDbEntity
  8
PEN
100
AcDbLine
 10
-4621.06787109375
 20
-1304.62158203125
 30
0.0
 11
-4631.068359375
 21
-1304.62158203125
 31
0.0
  0
LINE
  5
148
330
144
100
AcDbEntity
  8
PEN
100
AcDbLine
 10
-4626.06787109375
 20
-1299.62158203125
 30
0.0
 11
-4626.06787109375
 21
-1309.6214599609375
 31
0.0
  0
LINE
  5
149
330
144
100
AcDbEntity
  8
PEN
100
AcDbLine
 10
-4945.3798828125
 20
-1205.7620849609375
 30
0.0
 11
-4955.38037109375
 21
-1205.7620849609375
 31
0.0
  0
LINE
  5
14A
330
144
100
AcDbEntity
  8
PEN
100
AcDbLine
 10
-4950.3798828125
 20
-1200.7620849609375
 30
0.0
 11
-4950.3798828125
 21
-1210.7620849609375
 31
0.0
  0
LWPOLYLINE
  5
14B
330
144
100
AcDbEntity
  8
CUT
100
AcDbPolyline
 90
93
 70
0
 43
0.0
 10
0.0
 20
0.0
 10
-0.071533203125
 20
-8.11669921875
 10
-0.69775390625
 20
-79.1728515625
 10
-1.30126953125
 20
-147.34130859375
 10
-1.882568359375
 20
-212.72265625
 10
-2.43994140625
 20
-275.264404296875
 10
-2.9716796875
 20
-334.89453125
 10
-3.4833984375
 20
-392.20068359375
 10
-3.970458984375
 20
-446.8687744140625
 10
-4.433349609375
 20
-499.038818359375
 10
-4.871337890625
 20
-548.782470703125
 10
-5.28515625
 20
-596.1865234375
 10
-5.67333984375
 20
-641.3082275390625
 10
-6.0361328125
 20
-684.25048828125
 10
-6.373046875
 20
-725.06396484375
 10
-6.68359375
 20
-763.8443603515625
 10
-6.967041015625
 20
-800.6458740234375
 10
-7.223388671875
 20
-835.5565185546875
 10
-7.450927734375
 20
-868.6439208984375
 10
-7.64990234375
 20
-899.987060546875
 10
-7.819091796875
 20
-929.6611328125
 10
-7.95751953125
 20
-957.7435302734375
 10
-8.06396484375
 20
-984.310546875
 10
-8.136474609375
 20
-1009.4410400390625
 10
-8.1748046875
 20
-1033.2158203125
 10
-8.176025390625
 20
-1055.714111328125
 10
-8.137939453125
 20
-1077.0185546875
 10
-8.05859375
 20
-1097.213134765625
 10
-7.933837890625
 20
-1116.3836669921875
 10
-7.76171875
 20
-1134.549560546875
 10
-7.536376953125
 20
-1151.9459228515625
 10
-7.255126953125
 20
-1168.5360107421875
 10
-6.91015625
 20
-1184.516845703125
 10
-6.499755859375
 20
-1199.8480224609375
 10
-6.01318359375
 20
-1214.7928466796875
 10
-5.44775390625
 20
-1229.322265625
 10
-4.7978515625
 20
-1243.5391845703125
 10
-4.05419921875
 20
-1257.599609375
 10
-3.212890625
 20
-1271.559326171875
 10
-2.26708984375
 20
-1285.5362548828125
 10
-1.217041015625
 20
-1299.5550537109375
 10
-0.056884765625
 20
-1313.7359619140625
 10
0.857421875
 20
-1324.9117431640625
 10
0.857421875
 20
-1324.9117431640625
 10
7.34423828125
 20
-1322.9344482421875
 10
390.463134765625
 20
-1206.1490478515625
 10
390.463134765625
 20
-1206.1490478515625
 10
390.63232421875
 20
-1197.0987548828125
 10
390.86669921875
 20
-1184.568115234375
 10
391.108154296875
 20
-1172.0921630859375
 10
391.3544921875
 20
-1159.57958984375
 10
391.59765625
 20
-1147.2239990234375
 10
391.838623046875
 20
-1134.6640625
 10
392.07470703125
 20
-1121.743408203125
 10
392.2919921875
 20
-1108.8997802734375
 10
392.496826171875
 20
-1095.401611328125
 10
392.67626953125
 20
-1081.69140625
 10
392.832275390625
 20
-1067.2401123046875
 10
392.95556640625
 20
-1052.367431640625
 10
393.046630859375
 20
-1036.7056884765625
 10
393.10009765625
 20
-1020.2703857421875
 10
393.114501953125
 20
-1002.9827880859375
 10
393.08740234375
 20
-984.7647705078125
 10
393.016357421875
 20
-965.5421142578125
 10
392.900146484375
 20
-945.2401123046875
 10
392.737548828125
 20
-923.784423828125
 10
392.52880859375
 20
-901.2669677734375
 10
392.27001953125
 20
-877.13134765625
 10
391.9638671875
 20
-851.791259765625
 10
391.6123046875
 20
-825.247314453125
 10
391.205322265625
 20
-796.7366943359375
 10
390.7529296875
 20
-766.885009765625
 10
390.251708984375
 20
-735.3924560546875
 10
389.701416015625
 20
-702.19482421875
 10
389.111328125
 20
-667.7349853515625
 10
388.454833984375
 20
-630.4005126953125
 10
387.759033203125
 20
-591.6671142578125
 10
387.015380859375
 20
-550.975830078125
 10
386.22412109375
 20
-508.2110595703125
 10
385.385986328125
 20
-463.3782958984375
 10
384.499755859375
 20
-416.316650390625
 10
383.567138671875
 20
-367.029052734375
 10
382.59130859375
 20
-315.55615234375
 10
381.564697265625
 20
-261.42626953125
 10
380.49951171875
 20
-205.193603515625
 10
379.384521484375
 20
-146.16650390625
 10
378.22802734375
 20
-84.714111328125
 10
377.030029296875
 20
-20.671142578125
 10
376.884521484375
 20
-12.899658203125
 10
376.884521484375
 20
-12.899658203125
 10
372.804443359375
 20
-12.760009765625
 10
4.701904296875
 20
-0.160888671875
 10
0.0
 20
0.0
  0
LINE
  5
14C
330
144
100
AcDbEntity
  8
PEN
100
AcDbLine
 10
9.428466796875
 20
-8.15625
 30
0.0
 11
-0.57177734375
 21
-8.15625
 31
0.0
  0
LINE
  5
14D
330
144
100
AcDbEntity
  8
PEN
100
AcDbLine
 10
4.42822265625
 20
-3.15625
 30
0.0
 11
4.42822265625
 21
-13.156494140625
 31
0.0
  0
LINE
  5
14E
330
144
100
AcDbEntity
  8
PEN
100
AcDbLine
 10
9.428466796875
 20
-1313.3690185546875
 30
0.0
 11
-0.57177734375
 21
-1313.3690185546875
 31
0.0
  0
LINE
  5
14F
330
144
100
AcDbEntity
  8
PEN
100
AcDbLine
 10
4.42822265625
 20
-1308.3690185546875
 30
0.0
 11
4.42822265625
 21
-1318.3690185546875
 31
0.0
  0
LINE
  5
150
330
144
100
AcDbEntity
  8
PEN
100
AcDbLine
 10
377.531005859375
 20
-20.75537109375
 30
0.0
 11
367.53076171875
 21
-20.75537109375
 31
0.0
  0
LINE
  5
151
330
144
100
AcDbEntity
  8
PEN
100
AcDbLine
 10
372.53076171875
 20
-15.755126953125
 30
0.0
 11
372.53076171875
 21
-25.75537109375
 31
0.0
  0
LINE
  5
152
330
144
100
AcDbEntity
  8
PEN
100
AcDbLine
 10
391.13330078125
 20
-1197.0146484375
 30
0.0
 11
381.133056640625
 21
-1197.0146484375
 31
0.0
  0
LINE
  5
153
330
144
100
AcDbEntity
  8
PEN
100
AcDbLine
 10
386.133056640625
 20
-1192.0146484375
 30
0.0
 11
386.133056640625
 21
-1202.0146484375
 31
0.0
  0
TEXT
  5
154
330
144
100
AcDbEntity
  8
TEXT
100
AcDbText
 10
9.428466796875
 20
-8.15625
 30
0.0
 40
3.0
  1
SAIL-4 L
 11
9.428466796875
 21
-8.15625
 31
0.0
100
AcDbText
  0
ENDBLK
  5
146
330
144
100
AcDbEntity
  8
0
100
AcDbBlockEnd
  0
BLOCK
  5
158
330
157
100
AcDbEntity
  8
0
100
AcDbBlockBegin
  2
ripstop UV-SAIL-4.te_patch_(19)
 70
0
 10
0.0
 20
0.0
 30
0.0
  3
ripstop UV-SAIL-4.te_patch_(19)
  1

  0
LWPOLYLINE
  5
15A
330
157
100
AcDbEntity
  8
CUT
100
AcDbPolyline
 90
7
 70
0
 43
0.0
 10
0.0
 20
0.0
 10
0.071533203125
 20
-8.11669921875
 10
0.620361328125
 20
-70.3974609375
 10
-378.201416015625
 20
-83.287353515625
 10
-377.030029296875
 20
-20.671142578125
 10
-376.884521484375
 20
-12.899658203125
 10
0.0
 20
0.0
  0
ENDBLK
  5
159
330
157
100
AcDbEntity
  8
0
100
AcDbBlockEnd
  0
BLOCK
  5
15E
330
15D
100
AcDbEntity
  8
0
100
AcDbBlockBegin
  2
ripstop UV-SAIL-4.te_patch.left_(20)
 70
0
 10
0.0
 20
0.0
 30
0.0
  3
ripstop UV-SAIL-4.te_patch.left_(20)
  1

  0
LWPOLYLINE
  5
160
330
15D
100
AcDbEntity
  8
CUT
100
AcDbPolyline
 90
7
 70
0
 43
0.0
 10
0.0
 20
0.0
 10
-0.071533203125
 20
-8.11669921875
 10
-0.620361328125
 20
-70.3974609375
 10
378.201416015625
 20
-83.287353515625
 10
377.030029296875
 20
-20.671142578125
 10
376.884521484375
 20
-12.899658203125
 10
0.0
 20
0.0
  0
ENDBLK
  5
15F
330
15D
100
AcDbEntity
  8
0
100
AcDbBlockEnd
  0
BLOCK
  5
164
330
163
100
AcDbEntity
  8
0
100
AcDbBlockBegin
  2
ripstop UV-SAIL-4.patch.strut.outside_(21)
 70
0
 10
0.0
 20
0.0
 30
0.0
  3
ripstop UV-SAIL-4.patch.strut.outside_(21)
  1

  0
LWPOLYLINE
  5
166
330
163
100
AcDbEntity
  8
CUT
100
AcDbPolyline
 90
138
 70
0
 43
0.0
 10
0.0
 20
0.0
 10
-0.174560546875
 20
0.536865234375
 10
-0.68310546875
 20
2.1048583984375
 10
-1.503173828125
 20
4.640869140625
 10
-2.612060546875
 20
8.0810546875
 10
-3.987060546875
 20
12.3619384765625
 10
-5.606201171875
 20
17.420166015625
 10
-7.44677734375
 20
23.1922607421875
 10
-9.486328125
 20
29.614501953125
 10
-11.701904296875
 20
36.62353515625
 10
-14.0712890625
 20
44.15576171875
 10
-16.572021484375
 20
52.1478271484375
 10
-19.181640625
 20
60.5360107421875
 10
-21.87744140625
 20
69.257080078125
 10
-24.636962890625
 20
78.2471923828125
 10
-27.4375
 20
87.443115234375
 10
-30.2568359375
 20
96.78125
 10
-33.072265625
 20
106.1981201171875
 10
-35.861328125
 20
115.6302490234375
 10
-38.6015625
 20
125.0140380859375
 10
-41.270263671875
 20
134.2860107421875
 10
-43.84521484375
 20
143.382568359375
 10
-46.3037109375
 20
152.240478515625
 10
-48.623046875
 20
160.7960205078125
 10
-50.78076171875
 20
168.985595703125
 10
-52.754638671875
 20
176.7459716796875
 10
-54.522216796875
 20
184.013427734375
 10
-56.060302734375
 20
190.7244873046875
 10
-57.34716796875
 20
196.8157958984375
 10
-58.359619140625
 20
202.2237548828125
 10
-59.074951171875
 20
206.8848876953125
 10
-60.95458984375
 20
223.1845703125
 10
-62.586669921875
 20
241.4229736328125
 10
-63.980224609375
 20
261.46142578125
 10
-65.144775390625
 20
283.1617431640625
 10
-66.090087890625
 20
306.3856201171875
 10
-66.824951171875
 20
330.994873046875
 10
-67.359375
 20
356.8509521484375
 10
-67.702392578125
 20
383.8155517578125
 10
-67.863525390625
 20
411.75048828125
 10
-67.852294921875
 20
440.517333984375
 10
-67.677978515625
 20
469.9779052734375
 10
-67.350341796875
 20
499.9937744140625
 10
-66.878173828125
 20
530.426513671875
 10
-66.271484375
 20
561.1380615234375
 10
-65.53955078125
 20
591.9898681640625
 10
-64.691650390625
 20
622.84375
 10
-63.7373046875
 20
653.5614013671875
 10
-62.685791015625
 20
684.00439453125
 10
-61.546630859375
 20
714.0343017578125
 10
-60.329345703125
 20
743.51318359375
 10
-59.043212890625
 20
772.3023681640625
 10
-57.697998046875
 20
800.263671875
 10
-56.302490234375
 20
827.2589111328125
 10
-54.866455078125
 20
853.1495361328125
 10
-53.3994140625
 20
877.7972412109375
 10
-51.91064453125
 20
901.0635986328125
 10
-50.40966796875
 20
922.8109130859375
 10
-48.90576171875
 20
942.9000244140625
 10
-47.408447265625
 20
961.1932373046875
 10
-45.92626953125
 20
977.5518798828125
 10
-45.32080078125
 20
983.1800537109375
 10
-44.5
 20
989.7384033203125
 10
-43.47998046875
 20
997.1488037109375
 10
-42.277587890625
 20
1005.3321533203125
 10
-40.909423828125
 20
1014.2100830078125
 10
-39.391845703125
 20
1023.7034912109375
 10
-37.741455078125
 20
1033.7340087890625
 10
-35.97509765625
 20
1044.2230224609375
 10
-34.109130859375
 20
1055.0916748046875
 10
-32.160400390625
 20
1066.2611083984375
 10
-30.14501953125
 20
1077.6527099609375
 10
-28.079833984375
 20
1089.1878662109375
 10
-25.981201171875
 20
1100.7879638671875
 10
-23.865966796875
 20
1112.3741455078125
 10
-21.75048828125
 20
1123.8677978515625
 10
-19.651611328125
 20
1135.1903076171875
 10
-17.58544921875
 20
1146.2628173828125
 10
-15.56884765625
 20
1157.0069580078125
 10
-13.618408203125
 20
1167.3436279296875
 10
-11.75048828125
 20
1177.1944580078125
 10
-9.98193359375
 20
1186.4805908203125
 10
-8.329345703125
 20
1195.1231689453125
 10
-6.808837890625
 20
1203.0438232421875
 10
-5.4375
 20
1210.1636962890625
 10
-4.2314453125
 20
1216.4039306640625
 10
-3.207763671875
 20
1221.6861572265625
 10
-2.382568359375
 20
1225.9315185546875
 10
-1.772705078125
 20
1229.0614013671875
 10
-1.39453125
 20
1230.9971923828125
 10
-1.265625
 20
1231.6600341796875
 10
-1.265625
 20
1231.6600341796875
 10
-101.20703125
 20
1228.2393798828125
 10
-101.20703125
 20
1228.2393798828125
 10
-101.3525390625
 20
1220.4678955078125
 10
-102.550537109375
 20
1156.4249267578125
 10
-103.70703125
 20
1094.9725341796875
 10
-104.822021484375
 20
1035.9454345703125
 10
-105.88720703125
 20
979.7127685546875
 10
-106.913818359375
 20
925.5828857421875
 10
-107.8896484375
 20
874.1099853515625
 10
-108.822265625
 20
824.8223876953125
 10
-109.70849609375
 20
777.7607421875
 10
-110.546630859375
 20
732.927978515625
 10
-111.337890625
 20
690.1632080078125
 10
-112.08154296875
 20
649.471923828125
 10
-112.77734375
 20
610.738525390625
 10
-113.433837890625
 20
573.404052734375
 10
-114.02392578125
 20
538.9442138671875
 10
-114.57421875
 20
505.74658203125
 10
-115.075439453125
 20
474.2540283203125
 10
-115.52783203125
 20
444.40234375
 10
-115.934814453125
 20
415.8917236328125
 10
-116.286376953125
 20
389.3477783203125
 10
-116.592529296875
 20
364.0076904296875
 10
-116.851318359375
 20
339.8720703125
 10
-117.06005859375
 20
317.3546142578125
 10
-117.22265625
 20
295.89892578125
 10
-117.3388671875
 20
275.596923828125
 10
-117.409912109375
 20
256.374267578125
 10
-117.43701171875
 20
238.15625
 10
-117.422607421875
 20
220.86865234375
 10
-117.369140625
 20
204.433349609375
 10
-117.278076171875
 20
188.7716064453125
 10
-117.15478515625
 20
173.89892578125
 10
-116.998779296875
 20
159.4476318359375
 10
-116.8193359375
 20
145.7374267578125
 10
-116.614501953125
 20
132.2392578125
 10
-116.397216796875
 20
119.3956298828125
 10
-116.1611328125
 20
106.4749755859375
 10
-115.920166015625
 20
93.9150390625
 10
-115.677001953125
 20
81.5594482421875
 10
-115.4306640625
 20
69.046875
 10
-115.189208984375
 20
56.5709228515625
 10
-114.954833984375
 20
44.040283203125
 10
-114.78564453125
 20
34.989990234375
 10
-114.78564453125
 20
34.989990234375
 10
0.0
 20
0.0
  0
ENDBLK
  5
165
330
163
100
AcDbEntity
  8
0
100
AcDbBlockEnd
  0
BLOCK
  5
16A
330
169
100
AcDbEntity
  8
0
100
AcDbBlockBegin
  2
ripstop UV-SAIL-4.patch.strut.outside.left_(22)
 70
0
 10
0.0
 20
0.0
 30
0.0
  3
ripstop UV-SAIL-4.patch.strut.outside.left_(22)
  1

  0
LWPOLYLINE
  5
16C
330
169
100
AcDbEntity
  8
CUT
100
AcDbPolyline
 90
138
 70
0
 43
0.0
 10
0.0
 20
0.0
 10
0.174560546875
 20
0.536865234375
 10
0.68310546875
 20
2.1048583984375
 10
1.503173828125
 20
4.640869140625
 10
2.612060546875
 20
8.0810546875
 10
3.987060546875
 20
12.3619384765625
 10
5.606201171875
 20
17.420166015625
 10
7.44677734375
 20
23.1922607421875
 10
9.486328125
 20
29.614501953125
 10
11.701904296875
 20
36.62353515625
 10
14.0712890625
 20
44.15576171875
 10
16.572021484375
 20
52.1478271484375
 10
19.181640625
 20
60.5360107421875
 10
21.87744140625
 20
69.257080078125
 10
24.636962890625
 20
78.2471923828125
 10
27.4375
 20
87.443115234375
 10
30.2568359375
 20
96.78125
 10
33.072265625
 20
106.1981201171875
 10
35.861328125
 20
115.6302490234375
 10
38.6015625
 20
125.0140380859375
 10
41.270263671875
 20
134.2860107421875
 10
43.84521484375
 20
143.382568359375
 10
46.3037109375
 20
152.240478515625
 10
48.623046875
 20
160.7960205078125
 10
50.78076171875
 20
168.985595703125
 10
52.754638671875
 20
176.7459716796875
 10
54.522216796875
 20
184.013427734375
 10
56.060302734375
 20
190.7244873046875
 10
57.34716796875
 20
196.8157958984375
 10
58.359619140625
 20
202.2237548828125
 10
59.074951171875
 20
206.8848876953125
 10
60.95458984375
 20
223.1845703125
 10
62.586669921875
 20
241.4229736328125
 10
63.980224609375
 20
261.46142578125
 10
65.144775390625
 20
283.1617431640625
 10
66.090087890625
 20
306.3856201171875
 10
66.824951171875
 20
330.994873046875
 10
67.359375
 20
356.8509521484375
 10
67.702392578125
 20
383.8155517578125
 10
67.863525390625
 20
411.75048828125
 10
67.852294921875
 20
440.517333984375
 10
67.677978515625
 20
469.9779052734375
 10
67.350341796875
 20
499.9937744140625
 10
66.878173828125
 20
530.426513671875
 10
66.271484375
 20
561.1380615234375
 10
65.53955078125
 20
591.9898681640625
 10
64.691650390625
 20
622.84375
 10
63.7373046875
 20
653.5614013671875
 10
62.685791015625
 20
684.00439453125
 10
61.546630859375
 20
714.0343017578125
 10
60.329345703125
 20
743.51318359375
 10
59.043212890625
 20
772.3023681640625
 10
57.697998046875
 20
800.263671875
 10
56.302490234375
 20
827.2589111328125
 10
54.866455078125
 20
853.1495361328125
 10
53.3994140625
 20
877.7972412109375
 10
51.91064453125
 20
901.0635986328125
 10
50.40966796875
 20
922.8109130859375
 10
48.90576171875
 20
942.9000244140625
 10
47.408447265625
 20
961.1932373046875
 10
45.92626953125
 20
977.5518798828125
 10
45.32080078125
 20
983.1800537109375
 10
44.5
 20
989.7384033203125
 10
43.47998046875
 20
997.1488037109375
 10
42.277587890625
 20
1005.3321533203125
 10
40.909423828125
 20
1014.2100830078125
 10
39.391845703125
 20
1023.7034912109375
 10
37.741455078125
 20
1033.7340087890625
 10
35.97509765625
 20
1044.2230224609375
 10
34.109130859375
 20
1055.0916748046875
 10
32.160400390625
 20
1066.2611083984375
 10
30.14501953125
 20
1077.6527099609375
 10
28.079833984375
 20
1089.1878662109375
 10
25.981201171875
 20
1100.7879638671875
 10
23.865966796875
 20
1112.3741455078125
 10
21.75048828125
 20
1123.8677978515625
 10
19.651611328125
 20
1135.1903076171875
 10
17.58544921875
 20
1146.2628173828125
 10
15.56884765625
 20
1157.0069580078125
 10
13.618408203125
 20
1167.3436279296875
 10
11.75048828125
 20
1177.1944580078125
 10
9.98193359375
 20
1186.4805908203125
 10
8.329345703125
 20
1195.1231689453125
 10
6.808837890625
 20
1203.0438232421875
 10
5.4375
 20
1210.1636962890625
 10
4.2314453125
 20
1216.4039306640625
 10
3.207763671875
 20
1221.6861572265625
 10
2.382568359375
 20
1225.9315185546875
 10
1.772705078125
 20
1229.0614013671875
 10
1.39453125
 20
1230.9971923828125
 10
1.265625
 20
1231.6600341796875
 10
1.265625
 20
1231.6600341796875
 10
101.20703125
 20
1228.2393798828125
 10
101.20703125
 20
1228.2393798828125
 10
101.3525390625
 20
1220.4678955078125
 10
102.550537109375
 20
1156.4249267578125
 10
103.70703125
 20
1094.9725341796875
 10
104.822021484375
 20
1035.9454345703125
 10
105.88720703125
 20
979.7127685546875
 10
106.913818359375
 20
925.5828857421875
 10
107.8896484375
 20
874.1099853515625
 10
108.822265625
 20
824.8223876953125
 10
109.70849609375
 20
777.7607421875
 10
110.546630859375
 20
732.927978515625
 10
111.337890625
 20
690.1632080078125
 10
112.08154296875
 20
649.471923828125
 10
112.77734375
 20
610.738525390625
 10
113.433837890625
 20
573.404052734375
 10
114.02392578125
 20
538.9442138671875
 10
114.57421875
 20
505.74658203125
 10
115.075439453125
 20
474.2540283203125
 10
115.52783203125
 20
444.40234375
 10
115.934814453125
 20
415.8917236328125
 10
116.286376953125
 20
389.3477783203125
 10
116.592529296875
 20
364.0076904296875
 10
116.851318359375
 20
339.8720703125
 10
117.06005859375
 20
317.3546142578125
 10
117.22265625
 20
295.89892578125
 10
117.3388671875
 20
275.596923828125
 10
117.409912109375
 20
256.374267578125
 10
117.43701171875
 20
238.15625
 10
117.422607421875
 20
220.86865234375
 10
117.369140625
 20
204.433349609375
 10
117.278076171875
 20
188.7716064453125
 10
117.15478515625
 20
173.89892578125
 10
116.998779296875
 20
159.4476318359375
 10
116.8193359375
 20
145.7374267578125
 10
116.614501953125
 20
132.2392578125
 10
116.397216796875
 20
119.3956298828125
 10
116.1611328125
 20
106.4749755859375
 10
115.920166015625
 20
93.9150390625
 10
115.677001953125
 20
81.5594482421875
 10
115.4306640625
 20
69.046875
 10
115.189208984375
 20
56.5709228515625
 10
114.954833984375
 20
44.040283203125
 10
114.78564453125
 20
34.989990234375
 10
114.78564453125
 20
34.989990234375
 10
0.0
 20
0.0
  0
ENDBLK
  5
16B
330
169
100
AcDbEntity
  8
0
100
AcDbBlockEnd
  0
BLOCK
  5
170
330
16F
100
AcDbEntity
  8
0
100
AcDbBlockBegin
  2
ripstop UV-SAIL-5.left_(23)
 70
0
 10
0.0
 20
0.0
 30
0.0
  3
ripstop UV-SAIL-5.left_(23)
  1

  0
LINE
  5
172
330
16F
100
AcDbEntity
  8
PEN
100
AcDbLine
 10
-5847.3701171875
 20
-1174.487548828125
 30
0.0
 11
-5857.3701171875
 21
-1174.487548828125
 31
0.0
  0
LINE
  5
173
330
16F
100
AcDbEntity
  8
PEN
100
AcDbLine
 10
-5852.3701171875
 20
-1169.487548828125
 30
0.0
 11
-5852.3701171875
 21
-1179.487548828125
 31
0.0
  0
LINE
  5
174
330
16F
100
AcDbEntity
  8
PEN
100
AcDbLine
 10
-6125.27734375
 20
-1079.662841796875
 30
0.0
 11
-6135.27734375
 21
-1079.662841796875
 31
0.0
  0
LINE
  5
175
330
16F
100
AcDbEntity
  8
PEN
100
AcDbLine
 10
-6130.27734375
 20
-1074.662841796875
 30
0.0
 11
-6130.27734375
 21
-1084.662841796875
 31
0.0
  0
LWPOLYLINE
  5
176
330
16F
100
AcDbEntity
  8
CUT
100
AcDbPolyline
 90
93
 70
0
 43
0.0
 10
0.0
 20
0.0
 10
-0.077392578125
 20
-8.098388671875
 10
-0.72900390625
 20
-76.259521484375
 10
-1.281494140625
 20
-133.684326171875
 10
-1.85205078125
 20
-192.642822265625
 10
-2.39892578125
 20
-248.956787109375
 10
-2.92529296875
 20
-303.018310546875
 10
-3.42822265625
 20
-354.6083984375
 10
-3.9072265625
 20
-403.817138671875
 10
-4.364013671875
 20
-450.897705078125
 10
-4.8212890625
 20
-498.450439453125
 10
-5.202880859375
 20
-538.4942626953125
 10
-5.584716796875
 20
-579.2017822265625
 10
-5.941162109375
 20
-617.9359130859375
 10
-6.27001953125
 20
-654.7529296875
 10
-6.572509765625
 20
-689.732177734375
 10
-6.84619140625
 20
-722.935546875
 10
-7.09130859375
 20
-754.42822265625
 10
-7.306640625
 20
-784.2806396484375
 10
-7.49169921875
 20
-812.56103515625
 10
-7.645263671875
 20
-839.334716796875
 10
-7.7666015625
 20
-864.6761474609375
 10
-7.85400390625
 20
-888.650146484375
 10
-7.906494140625
 20
-911.328369140625
 10
-7.922119140625
 20
-932.7835693359375
 10
-7.900146484375
 20
-953.086181640625
 10
-7.838623046875
 20
-972.3099365234375
 10
-7.73486328125
 20
-990.52978515625
 10
-7.588134765625
 20
-1007.7490234375
 10
-7.3935546875
 20
-1024.199951171875
 10
-7.148681640625
 20
-1039.87744140625
 10
-6.8515625
 20
-1054.814453125
 10
-6.498046875
 20
-1069.1512451171875
 10
-6.0830078125
 20
-1082.9676513671875
 10
-5.601318359375
 20
-1096.3843994140625
 10
-5.052734375
 20
-1109.367431640625
 10
-4.427978515625
 20
-1122.114501953125
 10
-3.7255859375
 20
-1134.66650390625
 10
-2.94091796875
 20
-1147.1009521484375
 10
-2.068603515625
 20
-1159.5338134765625
 10
-1.111572265625
 20
-1171.9664306640625
 10
-0.062255859375
 20
-1184.5494384765625
 10
0.888427734375
 20
-1195.9473876953125
 10
0.888427734375
 20
-1195.9473876953125
 10
7.651611328125
 20
-1193.6396484375
 10
343.650634765625
 20
-1078.99365234375
 10
343.650634765625
 20
-1078.99365234375
 10
343.614990234375
 20
-1069.9571533203125
 10
343.573486328125
 20
-1059.344970703125
 10
343.54150390625
 20
-1048.7880859375
 10
343.517578125
 20
-1038.197509765625
 10
343.500732421875
 20
-1027.506103515625
 10
343.488037109375
 20
-1016.6446533203125
 10
343.47802734375
 20
-1005.54345703125
 10
343.46826171875
 20
-994.1356201171875
 10
343.456298828125
 20
-982.349365234375
 10
343.440185546875
 20
-970.1160888671875
 10
343.417724609375
 20
-957.366943359375
 10
343.38720703125
 20
-944.0330810546875
 10
343.34716796875
 20
-930.0482177734375
 10
343.2958984375
 20
-915.346923828125
 10
343.231689453125
 20
-899.8599853515625
 10
343.153564453125
 20
-883.525146484375
 10
343.060302734375
 20
-866.278076171875
 10
342.951904296875
 20
-848.05419921875
 10
342.82666015625
 20
-828.787841796875
 10
342.683837890625
 20
-808.4234619140625
 10
342.523681640625
 20
-786.8935546875
 10
342.344970703125
 20
-764.1351318359375
 10
342.147705078125
 20
-740.0921630859375
 10
341.93115234375
 20
-714.701171875
 10
341.695068359375
 20
-687.8958740234375
 10
341.439208984375
 20
-659.626953125
 10
341.163330078125
 20
-629.826416015625
 10
340.8671875
 20
-598.4320068359375
 10
340.550048828125
 20
-565.3883056640625
 10
340.212646484375
 20
-530.6219482421875
 10
339.854248046875
 20
-494.1124267578125
 10
339.474853515625
 20
-455.7481689453125
 10
339.075439453125
 20
-415.5390625
 10
338.652587890625
 20
-373.18017578125
 10
338.212646484375
 20
-329.1240234375
 10
337.74853515625
 20
-282.728759765625
 10
337.266845703125
 20
-234.423095703125
 10
336.76220703125
 20
-183.762451171875
 10
336.23828125
 20
-130.90087890625
 10
335.69384765625
 20
-75.749267578125
 10
335.130126953125
 20
-18.242431640625
 10
335.05322265625
 20
-10.420166015625
 10
335.05322265625
 20
-10.420166015625
 10
330.87890625
 20
-10.29052734375
 10
4.671142578125
 20
-0.145263671875
 10
0.0
 20
0.0
  0
LINE
  5
177
330
16F
100
AcDbEntity
  8
PEN
100
AcDbLine
 10
9.422607421875
 20
-8.141357421875
 30
0.0
 11
-0.57763671875
 21
-8.141357421875
 31
0.0
  0
LINE
  5
178
330
16F
100
AcDbEntity
  8
PEN
100
AcDbLine
 10
4.42236328125
 20
-3.14111328125
 30
0.0
 11
4.42236328125
 21
-13.141357421875
 31
0.0
  0
LINE
  5
179
330
16F
100
AcDbEntity
  8
PEN
100
AcDbLine
 10
9.42236328125
 20
-1184.1754150390625
 30
0.0
 11
-0.577880859375
 21
-1184.1754150390625
 31
0.0
  0
LINE
  5
17A
330
16F
100
AcDbEntity
  8
PEN
100
AcDbLine
 10
4.422119140625
 20
-1179.1754150390625
 30
0.0
 11
4.422119140625
 21
-1189.1754150390625
 31
0.0
  0
LINE
  5
17B
330
16F
100
AcDbEntity
  8
PEN
100
AcDbLine
 10
335.63037109375
 20
-18.28662109375
 30
0.0
 11
325.630126953125
 21
-18.28662109375
 31
0.0
  0
LINE
  5
17C
330
16F
100
AcDbEntity
  8
PEN
100
AcDbLine
 10
330.63037109375
 20
-13.286376953125
 30
0.0
 11
330.63037109375
 21
-23.28662109375
 31
0.0
  0
LINE
  5
17D
330
16F
100
AcDbEntity
  8
PEN
100
AcDbLine
 10
344.115234375
 20
-1069.9749755859375
 30
0.0
 11
334.114990234375
 21
-1069.9749755859375
 31
0.0
  0
LINE
  5
17E
330
16F
100
AcDbEntity
  8
PEN
100
AcDbLine
 10
339.115234375
 20
-1064.9749755859375
 30
0.0
 11
339.115234375
 21
-1074.9749755859375
 31
0.0
  0
TEXT
  5
17F
330
16F
100
AcDbEntity
  8
TEXT
100
AcDbText
 10
9.422607421875
 20
-8.141357421875
 30
0.0
 40
3.0
  1
SAIL-5 L
 11
9.422607421875
 21
-8.141357421875
 31
0.0
100
AcDbText
  0
LINE
  5
180
330
16F
100
AcDbEntity
  8
PEN
100
AcDbLine
 10
2.350341796875
 20
-1039.7738037109375
 30
0.0
 11
-7.64990234375
 21
-1039.7738037109375
 31
0.0
  0
LINE
  5
181
330
16F
100
AcDbEntity
  8
PEN
100
AcDbLine
 10
-2.649658203125
 20
-1034.7738037109375
 30
0.0
 11
-2.649658203125
 21
-1044.7738037109375
 31
0.0
  0
TEXT
  5
182
330
16F
100
AcDbEntity
  8
text
100
AcDbText
 10
8.35009765625
 20
-1041.773681640625
 30
0.0
 40
3.0
  1
strut-seam
 11
8.35009765625
 21
-1041.773681640625
 31
0.0
100
AcDbText
  0
LINE
  5
183
330
16F
100
AcDbEntity
  8
PEN
100
AcDbLine
 10
1.64599609375
 20
-888.6767578125
 30
0.0
 11
-8.354248046875
 21
-888.6767578125
 31
0.0
  0
LINE
  5
184
330
16F
100
AcDbEntity
  8
PEN
100
AcDbLine
 10
-3.35400390625
 20
-883.6767578125
 30
0.0
 11
-3.35400390625
 21
-893.6767578125
 31
0.0
  0
TEXT
  5
185
330
16F
100
AcDbEntity
  8
text
100
AcDbText
 10
7.64599609375
 20
-890.6767578125
 30
0.0
 40
3.0
  1
strut-seam
 11
7.64599609375
 21
-890.6767578125
 31
0.0
100
AcDbText
  0
ENDBLK
  5
171
330
16F
100
AcDbEntity
  8
0
100
AcDbBlockEnd
  0
BLOCK
  5
189
330
188
100
AcDbEntity
  8
0
100
AcDbBlockBegin
  2
ripstop UV-SAIL-5.te_patch_(24)
 70
0
 10
0.0
 20
0.0
 30
0.0
  3
ripstop UV-SAIL-5.te_patch_(24)
  1

  0
LWPOLYLINE
  5
18B
330
188
100
AcDbEntity
  8
CUT
100
AcDbPolyline
 90
8
 70
0
 43
0.0
 10
0.0
 20
0.0
 10
0.077392578125
 20
-8.098388671875
 10
0.673095703125
 20
-70.39697265625
 10
-335.743896484375
 20
-80.81689453125
 10
-335.69384765625
 20
-75.749267578125
 10
-335.130126953125
 20
-18.242431640625
 10
-335.05322265625
 20
-10.420166015625
 10
0.0
 20
0.0
  0
ENDBLK
  5
18A
330
188
100
AcDbEntity
  8
0
100
AcDbBlockEnd
  0
BLOCK
  5
18F
330
18E
100
AcDbEntity
  8
0
100
AcDbBlockBegin
  2
ripstop UV-SAIL-5.te_patch.left_(25)
 70
0
 10
0.0
 20
0.0
 30
0.0
  3
ripstop UV-SAIL-5.te_patch.left_(25)
  1

  0
LWPOLYLINE
  5
191
330
18E
100
AcDbEntity
  8
CUT
100
AcDbPolyline
 90
8
 70
0
 43
0.0
 10
0.0
 20
0.0
 10
-0.077392578125
 20
-8.098388671875
 10
-0.673095703125
 20
-70.39697265625
 10
335.743896484375
 20
-80.81689453125
 10
335.69384765625
 20
-75.749267578125
 10
335.130126953125
 20
-18.242431640625
 10
335.05322265625
 20
-10.420166015625
 10
0.0
 20
0.0
  0
ENDBLK
  5
190
330
18E
100
AcDbEntity
  8
0
100
AcDbBlockEnd
  0
BLOCK
  5
195
330
194
100
AcDbEntity
  8
0
100
AcDbBlockBegin
  2
ripstop UV-SAIL-5.patch.strut.center_(26)
 70
0
 10
0.0
 20
0.0
 30
0.0
  3
ripstop UV-SAIL-5.patch.strut.center_(26)
  1

  0
LWPOLYLINE
  5
197
330
194
100
AcDbEntity
  8
CUT
100
AcDbPolyline
 90
138
 70
0
 43
0.0
 10
0.0
 20
0.0
 10
0.123779296875
 20
-0.63427734375
 10
0.484619140625
 20
-2.4873046875
 10
1.06640625
 20
-5.48388671875
 10
1.853271484375
 20
-9.548095703125
 10
2.82958984375
 20
-14.605224609375
 10
3.979248046875
 20
-20.57958984375
 10
5.286865234375
 20
-27.395751953125
 10
6.73583984375
 20
-34.978759765625
 10
8.31103515625
 20
-43.253173828125
 10
9.996337890625
 20
-52.143310546875
 10
11.77587890625
 20
-61.57421875
 10
13.633544921875
 20
-71.47021484375
 10
15.553955078125
 20
-81.75634765625
 10
17.52099609375
 20
-92.357177734375
 10
19.51904296875
 20
-103.197021484375
 10
21.531982421875
 20
-114.200927734375
 10
23.5439453125
 20
-125.293701171875
 10
25.539306640625
 20
-136.3994140625
 10
27.501953125
 20
-147.443115234375
 10
29.416259765625
 20
-158.349609375
 10
31.26611328125
 20
-169.04345703125
 10
33.035888671875
 20
-179.448974609375
 10
34.70947265625
 20
-189.4912109375
 10
36.271484375
 20
-199.0947265625
 10
37.70556640625
 20
-208.18408203125
 10
38.99609375
 20
-216.684326171875
 10
40.12744140625
 20
-224.51953125
 10
41.08349609375
 20
-231.61474609375
 10
41.848388671875
 20
-237.89453125
 10
42.40576171875
 20
-243.283203125
 10
43.782958984375
 20
-259.1279296875
 10
45.19384765625
 20
-276.85205078125
 10
46.625732421875
 20
-296.320556640625
 10
48.066650390625
 20
-317.39892578125
 10
49.505126953125
 20
-339.95263671875
 10
50.9287109375
 20
-363.8466796875
 10
52.32568359375
 20
-388.94677734375
 10
53.683837890625
 20
-415.117919921875
 10
54.991455078125
 20
-442.2255859375
 10
56.236083984375
 20
-470.1353759765625
 10
57.40625
 20
-498.7122802734375
 10
58.489990234375
 20
-527.8218994140625
 10
59.474853515625
 20
-557.3294677734375
 10
60.34912109375
 20
-587.100341796875
 10
61.100830078125
 20
-616.999755859375
 10
61.718017578125
 20
-646.8931884765625
 10
62.188720703125
 20
-676.6458740234375
 10
62.500732421875
 20
-706.123291015625
 10
62.642333984375
 20
-735.190673828125
 10
62.601318359375
 20
-763.71337890625
 10
62.3662109375
 20
-791.556884765625
 10
61.92431640625
 20
-818.58642578125
 10
61.263916015625
 20
-844.667236328125
 10
60.373291015625
 20
-869.664794921875
 10
59.239990234375
 20
-893.4444580078125
 10
57.852294921875
 20
-915.8714599609375
 10
56.198486328125
 20
-936.8111572265625
 10
54.26611328125
 20
-956.1290283203125
 10
52.04345703125
 20
-973.6903076171875
 10
49.518310546875
 20
-989.3607177734375
 10
48.71630859375
 20
-993.1468505859375
 10
47.5966796875
 20
-997.517333984375
 10
46.182861328125
 20
-1002.4224853515625
 10
44.499755859375
 20
-1007.81201171875
 10
42.571533203125
 20
-1013.635986328125
 10
40.421875
 20
-1019.844482421875
 10
38.075439453125
 20
-1026.38720703125
 10
35.556640625
 20
-1033.21435546875
 10
32.88916015625
 20
-1040.27587890625
 10
30.09765625
 20
-1047.521484375
 10
27.2060546875
 20
-1054.9014892578125
 10
24.23876953125
 20
-1062.36572265625
 10
21.2197265625
 20
-1069.864013671875
 10
18.173828125
 20
-1077.3465576171875
 10
15.124755859375
 20
-1084.76318359375
 10
12.0966796875
 20
-1092.06396484375
 10
9.114013671875
 20
-1099.19873046875
 10
6.201171875
 20
-1106.1175537109375
 10
3.382080078125
 20
-1112.7703857421875
 10
0.68115234375
 20
-1119.107177734375
 10
-1.877685546875
 20
-1125.077880859375
 10
-4.27001953125
 20
-1130.632568359375
 10
-6.471435546875
 20
-1135.7210693359375
 10
-8.4580078125
 20
-1140.29345703125
 10
-10.205322265625
 20
-1144.2998046875
 10
-11.689453125
 20
-1147.689697265625
 10
-12.885986328125
 20
-1150.41357421875
 10
-13.7705078125
 20
-1152.4210205078125
 10
-14.319091796875
 20
-1153.6622314453125
 10
-14.507080078125
 20
-1154.0869140625
 10
-14.507080078125
 20
-1154.0869140625
 10
99.0634765625
 20
-1192.8385009765625
 10
99.0634765625
 20
-1192.8385009765625
 10
100.01416015625
 20
-1181.4405517578125
 10
101.0634765625
 20
-1168.8575439453125
 10
102.0205078125
 20
-1156.4249267578125
 10
102.892822265625
 20
-1143.9920654296875
 10
103.677490234375
 20
-1131.5576171875
 10
104.3798828125
 20
-1119.005615234375
 10
105.004638671875
 20
-1106.258544921875
 10
105.55322265625
 20
-1093.2755126953125
 10
106.034912109375
 20
-1079.8587646484375
 10
106.449951171875
 20
-1066.0423583984375
 10
106.803466796875
 20
-1051.70556640625
 10
107.1005859375
 20
-1036.7685546875
 10
107.345458984375
 20
-1021.091064453125
 10
107.5400390625
 20
-1004.64013671875
 10
107.686767578125
 20
-987.4208984375
 10
107.79052734375
 20
-969.2010498046875
 10
107.85205078125
 20
-949.977294921875
 10
107.8740234375
 20
-929.6746826171875
 10
107.8583984375
 20
-908.219482421875
 10
107.805908203125
 20
-885.541259765625
 10
107.718505859375
 20
-861.5672607421875
 10
107.59716796875
 20
-836.225830078125
 10
107.443603515625
 20
-809.4521484375
 10
107.258544921875
 20
-781.1717529296875
 10
107.043212890625
 20
-751.3193359375
 10
106.798095703125
 20
-719.82666015625
 10
106.5244140625
 20
-686.623291015625
 10
106.221923828125
 20
-651.64404296875
 10
105.89306640625
 20
-614.8270263671875
 10
105.53662109375
 20
-576.0928955078125
 10
105.15478515625
 20
-535.3853759765625
 10
104.773193359375
 20
-495.341552734375
 10
104.31591796875
 20
-447.788818359375
 10
103.859130859375
 20
-400.708251953125
 10
103.380126953125
 20
-351.49951171875
 10
102.877197265625
 20
-299.909423828125
 10
102.350830078125
 20
-245.847900390625
 10
101.803955078125
 20
-189.533935546875
 10
101.2333984375
 20
-130.575439453125
 10
100.680908203125
 20
-73.150634765625
 10
100.029296875
 20
-4.989501953125
 10
99.951904296875
 20
3.10888671875
 10
0.0
 20
0.0
 10
99.951904296875
 20
3.10888671875
  0
ENDBLK
  5
196
330
194
100
AcDbEntity
  8
0
100
AcDbBlockEnd
  0
BLOCK
  5
19B
330
19A
100
AcDbEntity
  8
0
100
AcDbBlockBegin
  2
ripstop UV-SAIL-5.patch.strut.center.left_(27)
 70
0
 10
0.0
 20
0.0
 30
0.0
  3
ripstop UV-SAIL-5.patch.strut.center.left_(27)
  1

  0
LWPOLYLINE
  5
19D
330
19A
100
AcDbEntity
  8
CUT
100
AcDbPolyline
 90
138
 70
0
 43
0.0
 10
0.0
 20
0.0
 10
-0.123779296875
 20
-0.63427734375
 10
-0.484619140625
 20
-2.4873046875
 10
-1.06640625
 20
-5.48388671875
 10
-1.853271484375
 20
-9.548095703125
 10
-2.82958984375
 20
-14.605224609375
 10
-3.979248046875
 20
-20.57958984375
 10
-5.286865234375
 20
-27.395751953125
 10
-6.73583984375
 20
-34.978759765625
 10
-8.31103515625
 20
-43.253173828125
 10
-9.996337890625
 20
-52.143310546875
 10
-11.77587890625
 20
-61.57421875
 10
-13.633544921875
 20
-71.47021484375
 10
-15.553955078125
 20
-81.75634765625
 10
-17.52099609375
 20
-92.357177734375
 10
-19.51904296875
 20
-103.197021484375
 10
-21.531982421875
 20
-114.200927734375
 10
-23.5439453125
 20
-125.293701171875
 10
-25.539306640625
 20
-136.3994140625
 10
-27.501953125
 20
-147.443115234375
 10
-29.416259765625
 20
-158.349609375
 10
-31.26611328125
 20
-169.04345703125
 10
-33.035888671875
 20
-179.448974609375
 10
-34.70947265625
 20
-189.4912109375
 10
-36.271484375
 20
-199.0947265625
 10
-37.70556640625
 20
-208.18408203125
 10
-38.99609375
 20
-216.684326171875
 10
-40.12744140625
 20
-224.51953125
 10
-41.08349609375
 20
-231.61474609375
 10
-41.848388671875
 20
-237.89453125
 10
-42.40576171875
 20
-243.283203125
 10
-43.782958984375
 20
-259.1279296875
 10
-45.19384765625
 20
-276.85205078125
 10
-46.625732421875
 20
-296.320556640625
 10
-48.066650390625
 20
-317.39892578125
 10
-49.505126953125
 20
-339.95263671875
 10
-50.9287109375
 20
-363.8466796875
 10
-52.32568359375
 20
-388.94677734375
 10
-53.683837890625
 20
-415.117919921875
 10
-54.991455078125
 20
-442.2255859375
 10
-56.236083984375
 20
-470.1353759765625
 10
-57.40625
 20
-498.7122802734375
 10
-58.489990234375
 20
-527.8218994140625
 10
-59.474853515625
 20
-557.3294677734375
 10
-60.34912109375
 20
-587.100341796875
 10
-61.100830078125
 20
-616.999755859375
 10
-61.718017578125
 20
-646.8931884765625
 10
-62.188720703125
 20
-676.6458740234375
 10
-62.500732421875
 20
-706.123291015625
 10
-62.642333984375
 20
-735.190673828125
 10
-62.601318359375
 20
-763.71337890625
 10
-62.3662109375
 20
-791.556884765625
 10
-61.92431640625
 20
-818.58642578125
 10
-61.263916015625
 20
-844.667236328125
 10
-60.373291015625
 20
-869.664794921875
 10
-59.239990234375
 20
-893.4444580078125
 10
-57.852294921875
 20
-915.8714599609375
 10
-56.198486328125
 20
-936.8111572265625
 10
-54.26611328125
 20
-956.1290283203125
 10
-52.04345703125
 20
-973.6903076171875
 10
-49.518310546875
 20
-989.3607177734375
 10
-48.71630859375
 20
-993.1468505859375
 10
-47.5966796875
 20
-997.517333984375
 10
-46.182861328125
 20
-1002.4224853515625
 10
-44.499755859375
 20
-1007.81201171875
 10
-42.571533203125
 20
-1013.635986328125
 10
-40.421875
 20
-1019.844482421875
 10
-38.075439453125
 20
-1026.38720703125
 10
-35.556640625
 20
-1033.21435546875
 10
-32.88916015625
 20
-1040.27587890625
 10
-30.09765625
 20
-1047.521484375
 10
-27.2060546875
 20
-1054.9014892578125
 10
-24.23876953125
 20
-1062.36572265625
 10
-21.2197265625
 20
-1069.864013671875
 10
-18.173828125
 20
-1077.3465576171875
 10
-15.124755859375
 20
-1084.76318359375
 10
-12.0966796875
 20
-1092.06396484375
 10
-9.114013671875
 20
-1099.19873046875
 10
-6.201171875
 20
-1106.1175537109375
 10
-3.382080078125
 20
-1112.7703857421875
 10
-0.68115234375
 20
-1119.107177734375
 10
1.877685546875
 20
-1125.077880859375
 10
4.27001953125
 20
-1130.632568359375
 10
6.471435546875
 20
-1135.7210693359375
 10
8.4580078125
 20
-1140.29345703125
 10
10.205322265625
 20
-1144.2998046875
 10
11.689453125
 20
-1147.689697265625
 10
12.885986328125
 20
-1150.41357421875
 10
13.7705078125
 20
-1152.4210205078125
 10
14.319091796875
 20
-1153.6622314453125
 10
14.507080078125
 20
-1154.0869140625
 10
14.507080078125
 20
-1154.0869140625
 10
-99.0634765625
 20
-1192.8385009765625
 10
-99.0634765625
 20
-1192.8385009765625
 10
-100.01416015625
 20
-1181.4405517578125
 10
-101.0634765625
 20
-1168.8575439453125
 10
-102.0205078125
 20
-1156.4249267578125
 10
-102.892822265625
 20
-1143.9920654296875
 10
-103.677490234375
 20
-1131.5576171875
 10
-104.3798828125
 20
-1119.005615234375
 10
-105.004638671875
 20
-1106.258544921875
 10
-105.55322265625
 20
-1093.2755126953125
 10
-106.034912109375
 20
-1079.8587646484375
 10
-106.449951171875
 20
-1066.0423583984375
 10
-106.803466796875
 20
-1051.70556640625
 10
-107.1005859375
 20
-1036.7685546875
 10
-107.345458984375
 20
-1021.091064453125
 10
-107.5400390625
 20
-1004.64013671875
 10
-107.686767578125
 20
-987.4208984375
 10
-107.79052734375
 20
-969.2010498046875
 10
-107.85205078125
 20
-949.977294921875
 10
-107.8740234375
 20
-929.6746826171875
 10
-107.8583984375
 20
-908.219482421875
 10
-107.805908203125
 20
-885.541259765625
 10
-107.718505859375
 20
-861.5672607421875
 10
-107.59716796875
 20
-836.225830078125
 10
-107.443603515625
 20
-809.4521484375
 10
-107.258544921875
 20
-781.1717529296875
 10
-107.043212890625
 20
-751.3193359375
 10
-106.798095703125
 20
-719.82666015625
 10
-106.5244140625
 20
-686.623291015625
 10
-106.221923828125
 20
-651.64404296875
 10
-105.89306640625
 20
-614.8270263671875
 10
-105.53662109375
 20
-576.0928955078125
 10
-105.15478515625
 20
-535.3853759765625
 10
-104.773193359375
 20
-495.341552734375
 10
-104.31591796875
 20
-447.788818359375
 10
-103.859130859375
 20
-400.708251953125
 10
-103.380126953125
 20
-351.49951171875
 10
-102.877197265625
 20
-299.909423828125
 10
-102.350830078125
 20
-245.847900390625
 10
-101.803955078125
 20
-189.533935546875
 10
-101.2333984375
 20
-130.575439453125
 10
-100.680908203125
 20
-73.150634765625
 10
-100.029296875
 20
-4.989501953125
 10
-99.951904296875
 20
3.10888671875
 10
0.0
 20
0.0
 10
-99.951904296875
 20
3.10888671875
  0
ENDBLK
  5
19C
330
19A
100
AcDbEntity
  8
0
100
AcDbBlockEnd
  0
BLOCK
  5
1A1
330
1A0
100
AcDbEntity
  8
0
100
AcDbBlockBegin
  2
ripstop UV-SAIL-6.left_(28)
 70
0
 10
0.0
 20
0.0
 30
0.0
  3
ripstop UV-SAIL-6.left_(28)
  1

  0
LINE
  5
1A3
330
1A0
100
AcDbEntity
  8
PEN
100
AcDbLine
 10
-6984.716796875
 20
-1045.16796875
 30
0.0
 11
-6994.716796875
 21
-1045.16796875
 31
0.0
  0
LINE
  5
1A4
330
1A0
100
AcDbEntity
  8
PEN
100
AcDbLine
 10
-6989.716796875
 20
-1040.16796875
 30
0.0
 11
-6989.716796875
 21
-1050.16796875
 31
0.0
  0
LINE
  5
1A5
330
1A0
100
AcDbEntity
  8
PEN
100
AcDbLine
 10
-7222.55859375
 20
-912.0306396484375
 30
0.0
 11
-7232.55908203125
 21
-912.0306396484375
 31
0.0
  0
LINE
  5
1A6
330
1A0
100
AcDbEntity
  8
PEN
100
AcDbLine
 10
-7227.55908203125
 20
-907.0306396484375
 30
0.0
 11
-7227.55908203125
 21
-917.0306396484375
 31
0.0
  0
LWPOLYLINE
  5
1A7
330
1A0
100
AcDbEntity
  8
CUT
100
AcDbPolyline
 90
93
 70
0
 43
0.0
 10
0.0
 20
0.0
 10
-0.039794921875
 20
-8.1357421875
 10
-0.321533203125
 20
-65.65087890625
 10
-0.596923828125
 20
-120.815185546875
 10
-0.865966796875
 20
-173.671875
 10
-1.128173828125
 20
-224.275390625
 10
-1.3837890625
 20
-272.69970703125
 10
-1.631103515625
 20
-318.966796875
 10
-1.871826171875
 20
-363.18994140625
 10
-2.10400390625
 20
-405.38232421875
 10
-2.327880859375
 20
-445.631103515625
 10
-2.54345703125
 20
-483.9774169921875
 10
-2.749267578125
 20
-520.4993896484375
 10
-2.946044921875
 20
-555.258056640625
 10
-3.13232421875
 20
-588.2918701171875
 10
-3.307861328125
 20
-619.694091796875
 10
-3.47216796875
 20
-649.494140625
 10
-3.624755859375
 20
-677.7613525390625
 10
-3.764892578125
 20
-704.5616455078125
 10
-3.89111328125
 20
-729.95263671875
 10
-4.003173828125
 20
-753.9947509765625
 10
-4.1005859375
 20
-776.75244140625
 10
-4.18212890625
 20
-798.28271484375
 10
-4.246337890625
 20
-818.6507568359375
 10
-4.292724609375
 20
-837.91796875
 10
-4.319580078125
 20
-856.1474609375
 10
-4.324951171875
 20
-873.402099609375
 10
-4.308349609375
 20
-889.746337890625
 10
-4.26611328125
 20
-905.2449951171875
 10
-4.197021484375
 20
-919.9632568359375
 10
-4.098388671875
 20
-933.8829345703125
 10
-3.9658203125
 20
-947.3277587890625
 10
-3.79833984375
 20
-960.0458984375
 10
-3.59130859375
 20
-972.26953125
 10
-3.3388671875
 20
-984.1097412109375
 10
-3.04052734375
 20
-995.5333251953125
 10
-2.68994140625
 20
-1006.6573486328125
 10
-2.281982421875
 20
-1017.5867919921875
 10
-1.817626953125
 20
-1028.266845703125
 10
-1.286865234375
 20
-1038.9217529296875
 10
-0.693115234375
 20
-1049.49462890625
 10
-0.03125
 20
-1060.101806640625
 10
0.79443359375
 20
-1073.3336181640625
 10
0.79443359375
 20
-1073.3336181640625
 10
9.3447265625
 20
-1068.5474853515625
 10
299.332275390625
 20
-906.220458984375
 10
299.332275390625
 20
-906.220458984375
 10
299.15673828125
 20
-897.2886962890625
 10
298.990234375
 20
-888.8148193359375
 10
298.841552734375
 20
-880.214111328125
 10
298.714599609375
 20
-871.7489013671875
 10
298.6015625
 20
-862.937255859375
 10
298.50634765625
 20
-854.18408203125
 10
298.42236328125
 20
-844.926025390625
 10
298.351806640625
 20
-835.509033203125
 10
298.291259765625
 20
-825.7459716796875
 10
298.239501953125
 20
-815.5823974609375
 10
298.1953125
 20
-804.9642333984375
 10
298.156005859375
 20
-793.837646484375
 10
298.12158203125
 20
-782.1507568359375
 10
298.09033203125
 20
-769.8502197265625
 10
298.060791015625
 20
-756.8839111328125
 10
298.032958984375
 20
-743.19775390625
 10
298.005126953125
 20
-728.7430419921875
 10
297.977294921875
 20
-713.4613037109375
 10
297.948486328125
 20
-697.3197021484375
 10
297.918212890625
 20
-680.2431640625
 10
297.88623046875
 20
-662.1904296875
 10
297.852294921875
 20
-643.103759765625
 10
297.81591796875
 20
-622.9381103515625
 10
297.777099609375
 20
-601.6575927734375
 10
297.7353515625
 20
-579.1815185546875
 10
297.69091796875
 20
-555.491455078125
 10
297.6435546875
 20
-530.5050048828125
 10
297.593994140625
 20
-504.1973876953125
 10
297.541259765625
 20
-476.509033203125
 10
297.486572265625
 20
-447.392333984375
 10
297.42919921875
 20
-416.78369140625
 10
297.370361328125
 20
-384.6328125
 10
297.310302734375
 20
-350.90087890625
 10
297.24951171875
 20
-315.548828125
 10
297.188720703125
 20
-278.501953125
 10
297.127685546875
 20
-239.72021484375
 10
297.068359375
 20
-199.152099609375
 10
297.0107421875
 20
-156.747802734375
 10
296.956298828125
 20
-112.45849609375
 10
296.90625
 20
-66.234130859375
 10
296.861083984375
 20
-18.021728515625
 10
296.853515625
 20
-10.175048828125
 10
296.853515625
 20
-10.175048828125
 10
292.635009765625
 20
-10.030517578125
 10
4.734130859375
 20
-0.162353515625
 10
0.0
 20
0.0
  0
LINE
  5
1A8
330
1A0
100
AcDbEntity
  8
PEN
100
AcDbLine
 10
9.460205078125
 20
-8.15771484375
 30
0.0
 11
-0.5400390625
 21
-8.15771484375
 31
0.0
  0
LINE
  5
1A9
330
1A0
100
AcDbEntity
  8
PEN
100
AcDbLine
 10
4.460205078125
 20
-3.15771484375
 30
0.0
 11
4.460205078125
 21
-13.157958984375
 31
0.0
  0
LINE
  5
1AA
330
1A0
100
AcDbEntity
  8
PEN
100
AcDbLine
 10
9.460205078125
 20
-1059.821533203125
 30
0.0
 11
-0.5400390625
 21
-1059.821533203125
 31
0.0
  0
LINE
  5
1AB
330
1A0
100
AcDbEntity
  8
PEN
100
AcDbLine
 10
4.460205078125
 20
-1054.821533203125
 30
0.0
 11
4.460205078125
 21
-1064.821533203125
 31
0.0
  0
LINE
  5
1AC
330
1A0
100
AcDbEntity
  8
PEN
100
AcDbLine
 10
297.361328125
 20
-18.02587890625
 30
0.0
 11
287.361083984375
 21
-18.02587890625
 31
0.0
  0
LINE
  5
1AD
330
1A0
100
AcDbEntity
  8
PEN
100
AcDbLine
 10
292.361083984375
 20
-13.02587890625
 30
0.0
 11
292.361083984375
 21
-23.026123046875
 31
0.0
  0
LINE
  5
1AE
330
1A0
100
AcDbEntity
  8
PEN
100
AcDbLine
 10
299.65771484375
 20
-897.3770751953125
 30
0.0
 11
289.657470703125
 21
-897.3770751953125
 31
0.0
  0
LINE
  5
1AF
330
1A0
100
AcDbEntity
  8
PEN
100
AcDbLine
 10
294.657470703125
 20
-892.3770751953125
 30
0.0
 11
294.657470703125
 21
-902.3770751953125
 31
0.0
  0
TEXT
  5
1B0
330
1A0
100
AcDbEntity
  8
TEXT
100
AcDbText
 10
9.460205078125
 20
-8.15771484375
 30
0.0
 40
3.0
  1
SAIL-6 L
 11
9.460205078125
 21
-8.15771484375
 31
0.0
100
AcDbText
  0
ENDBLK
  5
1A2
330
1A0
100
AcDbEntity
  8
0
100
AcDbBlockEnd
  0
BLOCK
  5
1B4
330
1B3
100
AcDbEntity
  8
0
100
AcDbBlockBegin
  2
ripstop UV-SAIL-7.left_(29)
 70
0
 10
0.0
 20
0.0
 30
0.0
  3
ripstop UV-SAIL-7.left_(29)
  1

  0
LWPOLYLINE
  5
1B6
330
1B3
100
AcDbEntity
  8
CUT
100
AcDbPolyline
 90
55
 70
0
 43
0.0
 10
0.0
 20
0.0
 10
-0.0185546875
 20
-8.121337890625
 10
-0.129638671875
 20
-56.32666015625
 10
-0.23974609375
 20
-102.564208984375
 10
-0.3486328125
 20
-146.85302734375
 10
-0.456298828125
 20
-189.263916015625
 10
-0.561767578125
 20
-229.832275390625
 10
-0.666259765625
 20
-268.62158203125
 10
-0.7685546875
 20
-305.6689453125
 10
-0.868896484375
 20
-341.02587890625
 10
-0.967041015625
 20
-374.762451171875
 10
-1.06298828125
 20
-406.9007568359375
 10
-1.15673828125
 20
-437.5277099609375
 10
-1.246826171875
 20
-466.6422119140625
 10
-1.334228515625
 20
-494.3399658203125
 10
-1.418212890625
 20
-520.639892578125
 10
-1.498291015625
 20
-545.611572265625
 10
-1.574462890625
 20
-569.3409423828125
 10
-1.64697265625
 20
-591.792724609375
 10
-1.71435546875
 20
-613.086181640625
 10
-1.776611328125
 20
-633.2430419921875
 10
-1.833984375
 20
-652.327392578125
 10
-1.884521484375
 20
-670.3807373046875
 10
-1.92919921875
 20
-687.4609375
 10
-1.966064453125
 20
-703.6171875
 10
-1.99462890625
 20
-718.89990234375
 10
-2.0146484375
 20
-733.3623046875
 10
-2.024658203125
 20
-747.05615234375
 10
-2.022705078125
 20
-760.03369140625
 10
-2.008544921875
 20
-772.3477783203125
 10
-1.978759765625
 20
-784.05224609375
 10
-1.93310546875
 20
-795.2003173828125
 10
-1.86865234375
 20
-805.84423828125
 10
-1.782470703125
 20
-816.0404052734375
 10
-1.674560546875
 20
-825.6907958984375
 10
-1.536865234375
 20
-835.300537109375
 10
-1.373291015625
 20
-844.359619140625
 10
-1.174560546875
 20
-853.3076171875
 10
-0.941650390625
 20
-862.075439453125
 10
-0.67431640625
 20
-870.6156005859375
 10
-0.36474609375
 20
-879.1766357421875
 10
-0.014404296875
 20
-887.7020263671875
 10
0.7275390625
 20
-905.744873046875
 10
0.7275390625
 20
-905.744873046875
 10
11.658203125
 20
-894.4815673828125
 10
216.20458984375
 20
-683.7127685546875
 10
332.71875
 20
-414.9544677734375
 10
332.71875
 20
-414.9544677734375
 10
332.86474609375
 20
-413.3585205078125
 10
368.8720703125
 20
-19.169921875
 10
369.65869140625
 20
-10.56396484375
 10
369.65869140625
 20
-10.56396484375
 10
359.1416015625
 20
-10.263427734375
 10
4.709716796875
 20
-0.134765625
 10
0.0
 20
0.0
  0
LINE
  5
1B7
330
1B3
100
AcDbEntity
  8
PEN
100
AcDbLine
 10
9.4814453125
 20
-8.131591796875
 30
0.0
 11
-0.518798828125
 21
-8.131591796875
 31
0.0
  0
LINE
  5
1B8
330
1B3
100
AcDbEntity
  8
PEN
100
AcDbLine
 10
4.481201171875
 20
-3.13134765625
 30
0.0
 11
4.481201171875
 21
-13.131591796875
 31
0.0
  0
LINE
  5
1B9
330
1B3
100
AcDbEntity
  8
PEN
100
AcDbLine
 10
9.48193359375
 20
-887.517333984375
 30
0.0
 11
-0.518310546875
 21
-887.517333984375
 31
0.0
  0
LINE
  5
1BA
330
1B3
100
AcDbEntity
  8
PEN
100
AcDbLine
 10
4.481689453125
 20
-882.517333984375
 30
0.0
 11
4.481689453125
 21
-892.517333984375
 31
0.0
  0
LINE
  5
1BB
330
1B3
100
AcDbEntity
  8
PEN
100
AcDbLine
 10
363.91357421875
 20
-18.26025390625
 30
0.0
 11
353.9130859375
 21
-18.26025390625
 31
0.0
  0
LINE
  5
1BC
330
1B3
100
AcDbEntity
  8
PEN
100
AcDbLine
 10
358.91357421875
 20
-13.26025390625
 30
0.0
 11
358.91357421875
 21
-23.260498046875
 31
0.0
  0
LINE
  5
1BD
330
1B3
100
AcDbEntity
  8
PEN
100
AcDbLine
 10
327.90625
 20
-412.448974609375
 30
0.0
 11
317.90576171875
 21
-412.448974609375
 31
0.0
  0
LINE
  5
1BE
330
1B3
100
AcDbEntity
  8
PEN
100
AcDbLine
 10
322.90625
 20
-407.4488525390625
 30
0.0
 11
322.90625
 21
-417.4490966796875
 31
0.0
  0
TEXT
  5
1BF
330
1B3
100
AcDbEntity
  8
TEXT
100
AcDbText
 10
9.4814453125
 20
-8.131591796875
 30
0.0
 40
3.0
  1
SAIL-7 L
 11
9.4814453125
 21
-8.131591796875
 31
0.0
100
AcDbText
  0
LWPOLYLINE
  5
1C0
330
1B3
100
AcDbEntity
  8
PEN
100
AcDbPolyline
 90
9
 70
0
 43
0.0
 10
209.0029296875
 20
-11.91015625
 10
205.4765625
 20
-11.18408203125
 10
191.373046875
 20
-8.279296875
 10
189.35595703125
 20
-18.073974609375
 10
365.65576171875
 20
-54.38134765625
 10
187.5703125
 20
-80.561767578125
 10
189.0244140625
 20
-90.455322265625
 10
203.271484375
 20
-88.36083984375
 10
206.8330078125
 20
-87.83740234375
  0
LWPOLYLINE
  5
1C1
330
1B3
100
AcDbEntity
  8
PEN
100
AcDbPolyline
 90
9
 70
0
 43
0.0
 10
198.9970703125
 20
-136.5703125
 10
195.50537109375
 20
-135.69091796875
 10
181.5419921875
 20
-132.173828125
 10
179.099609375
 20
-141.87109375
 10
353.64794921875
 20
-185.834228515625
 10
176.87353515625
 20
-219.757568359375
 10
178.75830078125
 20
-229.578369140625
 10
186.56396484375
 20
-228.080322265625
 10
196.435546875
 20
-226.186279296875
  0
ENDBLK
  5
1B5
330
1B3
100
AcDbEntity
  8
0
100
AcDbBlockEnd
  0
BLOCK
  5
1C5
330
1C4
100
AcDbEntity
  8
0
100
AcDbBlockBegin
  2
ripstop UV-LE-10.tab_inside_(30)
 70
0
 10
0.0
 20
0.0
 30
0.0
  3
ripstop UV-LE-10.tab_inside_(30)
  1

  0
LWPOLYLINE
  5
1C7
330
1C4
100
AcDbEntity
  8
CUT
100
AcDbPolyline
 90
25
 70
1
 43
0.0
 10
0.0
 20
0.0
 10
-61.953125
 20
15.549976348876953
 10
-43.9599609375
 20
87.23515319824219
 10
74.4970703125
 20
57.50271987915039
 10
103.38671875
 20
57.502723693847656
 10
104.34228515625
 20
48.30397033691406
 10
104.74560546875
 20
43.50646209716797
 10
105.03369140625
 20
38.67156982421875
 10
105.181640625
 20
33.813026428222656
 10
105.162109375
 20
28.926265716552734
 10
104.94677734375
 20
24.02084732055664
 10
104.5068359375
 20
19.09449005126953
 10
103.81689453125
 20
14.16912841796875
 10
102.85595703125
 20
9.285755157470703
 10
101.6015625
 20
4.4410552978515625
 10
100.04052734375
 20
-0.33153533935546875
 10
98.16650390625
 20
-5.001243591308594
 10
95.97802734375
 20
-9.540267944335938
 10
93.482421875
 20
-13.916397094726562
 10
90.6875
 20
-18.11444854736328
 10
87.611328125
 20
-22.107460021972656
 10
84.27783203125
 20
-25.877197265625
 10
77.55322265625
 20
-32.54484558105469
 10
55.9619140625
 20
-14.046318054199219
 10
0.0
 20
0.0
  0
ENDBLK
  5
1C6
330
1C4
100
AcDbEntity
  8
0
100
AcDbBlockEnd
  0
BLOCK
  5
1CB
330
1CA
100
AcDbEntity
  8
0
100
AcDbBlockBegin
  2
ripstop UV-LE-10.tab_inside_left_(31)
 70
0
 10
0.0
 20
0.0
 30
0.0
  3
ripstop UV-LE-10.tab_inside_left_(31)
  1

  0
LWPOLYLINE
  5
1CD
330
1CA
100
AcDbEntity
  8
CUT
100
AcDbPolyline
 90
25
 70
1
 43
0.0
 10
0.0
 20
0.0
 10
61.953125
 20
15.549976348876953
 10
43.9599609375
 20
87.23515319824219
 10
-74.4970703125
 20
57.50271987915039
 10
-103.38671875
 20
57.502723693847656
 10
-104.34228515625
 20
48.30397033691406
 10
-104.74560546875
 20
43.50646209716797
 10
-105.03369140625
 20
38.67156982421875
 10
-105.181640625
 20
33.813026428222656
 10
-105.162109375
 20
28.926265716552734
 10
-104.94677734375
 20
24.02084732055664
 10
-104.5068359375
 20
19.094501495361328
 10
-103.81689453125
 20
14.169116973876953
 10
-102.85595703125
 20
9.285755157470703
 10
-101.6015625
 20
4.4410552978515625
 10
-100.04052734375
 20
-0.33153533935546875
 10
-98.16650390625
 20
-5.001243591308594
 10
-95.97802734375
 20
-9.540267944335938
 10
-93.482421875
 20
-13.916397094726562
 10
-90.6875
 20
-18.11444854736328
 10
-87.611328125
 20
-22.107460021972656
 10
-84.27783203125
 20
-25.877197265625
 10
-77.55322265625
 20
-32.54484558105469
 10
-55.9619140625
 20
-14.046318054199219
 10
0.0
 20
0.0
  0
ENDBLK
  5
1CC
330
1CA
100
AcDbEntity
  8
0
100
AcDbBlockEnd
  0
BLOCK
  5
1D1
330
1D0
100
AcDbEntity
  8
0
100
AcDbBlockBegin
  2
Copyright_(131)
 70
0
 10
0.0
 20
0.0
 30
0.0
  3
Copyright_(131)
  1

  0
MTEXT
  5
1D3
330
1D0
100
AcDbEntity
  8
TEXT
100
AcDbMText
 10
0.0
 20
-3500.0
 30
0.0
 40
200.0
 71
1
  3
This work is licensed under a Creative Commons \PAttribution-NonCommercial-ShareAlike 4.0 International License\Phttp://creativecommons.org/licenses/by-nc-sa/4.0/\PYou may not use this kite design for commercial purposes\PAuthor: Karsten Gaebert (inf
  1
o@wingworks.de)\PCreated: 2020-03-12
  0
ENDBLK
  5
1D2
330
1D0
100
AcDbEntity
  8
0
100
AcDbBlockEnd
  0
ENDSEC
  0
SECTION
  2
ENTITIES
  0
INSERT
  5
57
330
17
100
AcDbEntity
  8
0
100
AcDbBlockReference
  2
ripstop UV-SAIL-1_(0)
 10
-195.62989473342896
 20
2519.786596298218
 30
0.0
  0
INSERT
  5
6A
330
17
100
AcDbEntity
  8
0
100
AcDbBlockReference
  2
ripstop UV-SAIL-2_(1)
 10
-939.4446015357971
 20
2511.0433101654053
 30
0.0
  0
INSERT
  5
7D
330
17
100
AcDbEntity
  8
0
100
AcDbBlockReference
  2
ripstop UV-SAIL-3_(2)
 10
-1639.6936178207397
 20
2500.0526905059814
 30
0.0
  0
INSERT
  5
90
330
17
100
AcDbEntity
  8
0
100
AcDbBlockReference
  2
ripstop UV-SAIL-4_(3)
 10
-2296.47159576416
 20
2486.4325523376465
 30
0.0
  0
INSERT
  5
A9
330
17
100
AcDbEntity
  8
0
100
AcDbBlockReference
  2
ripstop UV-SAIL-5_(4)
 10
-2909.7776412963867
 20
2473.706007003784
 30
0.0
  0
INSERT
  5
BC
330
17
100
AcDbEntity
  8
0
100
AcDbBlockReference
  2
ripstop UV-SAIL-6_(5)
 10
-3479.539632797241
 20
2463.564872741699
 30
0.0
  0
INSERT
  5
CD
330
17
100
AcDbEntity
  8
0
100
AcDbBlockReference
  2
ripstop UV-SAIL-7_(6)
 10
-4005.8188438415527
 20
2453.6876678466797
 30
0.0
  0
INSERT
  5
EC
330
17
100
AcDbEntity
  8
0
100
AcDbBlockReference
  2
ripstop UV-SAIL-1.left_(7)
 10
195.62989473342896
 20
2519.786596298218
 30
0.0
  0
INSERT
  5
F2
330
17
100
AcDbEntity
  8
0
100
AcDbBlockReference
  2
ripstop UV-SAIL-1.te_patch_(8)
 10
-195.62989473342896
 20
2519.786596298218
 30
0.0
  0
INSERT
  5
F8
330
17
100
AcDbEntity
  8
0
100
AcDbBlockReference
  2
ripstop UV-SAIL-1.te_patch.left_(9)
 10
195.62989473342896
 20
2519.786596298218
 30
0.0
  0
INSERT
  5
FE
330
17
100
AcDbEntity
  8
0
100
AcDbBlockReference
  2
ripstop UV-SAIL-1.patch.strut.center_(10)
 10
-295.61492800712585
 20
2518.0559158325195
 30
0.0
  0
INSERT
  5
104
330
17
100
AcDbEntity
  8
0
100
AcDbBlockReference
  2
ripstop UV-SAIL-1.patch.strut.center.left_(11)
 10
295.61492800712585
 20
2518.0559158325195
 30
0.0
  0
INSERT
  5
117
330
17
100
AcDbEntity
  8
0
100
AcDbBlockReference
  2
ripstop UV-SAIL-2.left_(12)
 10
939.4446015357971
 20
2511.0433101654053
 30
0.0
  0
INSERT
  5
11D
330
17
100
AcDbEntity
  8
0
100
AcDbBlockReference
  2
ripstop UV-SAIL-2.te_patch_(13)
 10
-939.4446015357971
 20
2511.0433101654053
 30
0.0
  0
INSERT
  5
123
330
17
100
AcDbEntity
  8
0
100
AcDbBlockReference
  2
ripstop UV-SAIL-2.te_patch.left_(14)
 10
939.4446015357971
 20
2511.0433101654053
 30
0.0
  0
INSERT
  5
136
330
17
100
AcDbEntity
  8
0
100
AcDbBlockReference
  2
ripstop UV-SAIL-3.left_(15)
 10
1639.6936178207397
 20
2500.0526905059814
 30
0.0
  0
INSERT
  5
13C
330
17
100
AcDbEntity
  8
0
100
AcDbBlockReference
  2
ripstop UV-SAIL-3.te_patch_(16)
 10
-1639.6936178207397
 20
2500.0526905059814
 30
0.0
  0
INSERT
  5
142
330
17
100
AcDbEntity
  8
0
100
AcDbBlockReference
  2
ripstop UV-SAIL-3.te_patch.left_(17)
 10
1639.6936178207397
 20
2500.0526905059814
 30
0.0
  0
INSERT
  5
155
330
17
100
AcDbEntity
  8
0
100
AcDbBlockReference
  2
ripstop UV-SAIL-4.left_(18)
 10
2296.47159576416
 20
2486.4325523376465
 30
0.0
  0
INSERT
  5
15B
330
17
100
AcDbEntity
  8
0
100
AcDbBlockReference
  2
ripstop UV-SAIL-4.te_patch_(19)
 10
-2296.47159576416
 20
2486.4325523376465
 30
0.0
  0
INSERT
  5
161
330
17
100
AcDbEntity
  8
0
100
AcDbBlockReference
  2
ripstop UV-SAIL-4.te_patch.left_(20)
 10
2296.47159576416
 20
2486.4325523376465
 30
0.0
  0
INSERT
  5
167
330
17
100
AcDbEntity
  8
0
100
AcDbBlockReference
  2
ripstop UV-SAIL-4.patch.strut.outside_(21)
 10
-2572.1492767333984
 20
1245.2936172485352
 30
0.0
  0
INSERT
  5
16D
330
17
100
AcDbEntity
  8
0
100
AcDbBlockReference
  2
ripstop UV-SAIL-4.patch.strut.outside.left_(22)
 10
2572.1492767333984
 20
1245.2936172485352
 30
0.0
  0
INSERT
  5
186
330
17
100
AcDbEntity
  8
0
100
AcDbBlockReference
  2
ripstop UV-SAIL-5.left_(23)
 10
2909.7776412963867
 20
2473.706007003784
 30
0.0
  0
INSERT
  5
18C
330
17
100
AcDbEntity
  8
0
100
AcDbBlockReference
  2
ripstop UV-SAIL-5.te_patch_(24)
 10
-2909.7776412963867
 20
2473.706007003784
 30
0.0
  0
INSERT
  5
192
330
17
100
AcDbEntity
  8
0
100
AcDbBlockReference
  2
ripstop UV-SAIL-5.te_patch.left_(25)
 10
2909.7776412963867
 20
2473.706007003784
 30
0.0
  0
INSERT
  5
198
330
17
100
AcDbEntity
  8
0
100
AcDbBlockReference
  2
ripstop UV-SAIL-5.patch.strut.center_(26)
 10
-3009.7293853759766
 20
2470.597267150879
 30
0.0
  0
INSERT
  5
19E
330
17
100
AcDbEntity
  8
0
100
AcDbBlockReference
  2
ripstop UV-SAIL-5.patch.strut.center.left_(27)
 10
3009.7293853759766
 20
2470.597267150879
 30
0.0
  0
INSERT
  5
1B1
330
17
100
AcDbEntity
  8
0
100
AcDbBlockReference
  2
ripstop UV-SAIL-6.left_(28)
 10
3479.539632797241
 20
2463.564872741699
 30
0.0
  0
INSERT
  5
1C2
330
17
100
AcDbEntity
  8
0
100
AcDbBlockReference
  2
ripstop UV-SAIL-7.left_(29)
 10
4005.8188438415527
 20
2453.6876678466797
 30
0.0
  0
INSERT
  5
1C8
330
17
100
AcDbEntity
  8
0
100
AcDbBlockReference
  2
ripstop UV-LE-10.tab_inside_(30)
 10
-5666.626930236816
 20
-52.50272527337074
 30
0.0
  0
INSERT
  5
1CE
330
17
100
AcDbEntity
  8
0
100
AcDbBlockReference
  2
ripstop UV-LE-10.tab_inside_left_(31)
 10
5666.626930236816
 20
-52.50272527337074
 30
0.0
  0
INSERT
  5
1D4
330
17
100
AcDbEntity
  8
0
100
AcDbBlockReference
  2
Copyright_(131)
 10
0.0
 20
0.0
 30
0.0
  0
ENDSEC
  0
SECTION
  2
OBJECTS
  0
DICTIONARY
  5
A
330
0
100
AcDbDictionary
281
1
  3
ACAD_MLINESTYLE
350
10
  3
ACAD_LAYOUT
350
D
  3
ACAD_TABLESTYLE
350
15
  3
ACAD_GROUP
350
C
  3
ACAD_MLEADERSTYLE
350
F
  3
ACAD_COLOR
350
B
  3
ACAD_PLOTSTYLENAME
350
12
  3
ACAD_VISUALSTYLE
350
16
  3
ACAD_SCALELIST
350
14
  3
ACAD_PLOTSETTINGS
350
11
  3
ACAD_MATERIAL
350
E
  0
DICTIONARY
  5
B
330
A
100
AcDbDictionary
281
1
  0
DICTIONARY
  5
C
330
A
100
AcDbDictionary
281
1
  0
DICTIONARY
  5
D
330
A
100
AcDbDictionary
281
1
  3
Layout1
350
1E
  3
Model
350
1A
  0
DICTIONARY
  5
E
330
A
100
AcDbDictionary
281
1
  3
ByBlock
350
1F
  3
Global
350
21
  3
ByLayer
350
20
  0
DICTIONARY
  5
F
330
A
100
AcDbDictionary
281
1
  3
Standard
350
2C
  0
DICTIONARY
  5
10
330
A
100
AcDbDictionary
281
1
  3
Standard
350
22
  0
DICTIONARY
  5
11
330
A
100
AcDbDictionary
281
1
  0
ACDBDICTIONARYWDFLT
  5
12
330
A
100
AcDbDictionary
281
1
  3
Normal
350
13
100
AcDbDictionaryWithDefault
340
13
  0
ACDBPLACEHOLDER
  5
13
330
12
  0
DICTIONARY
  5
14
330
A
100
AcDbDictionary
281
1
  0
DICTIONARY
  5
15
330
A
100
AcDbDictionary
281
1
  0
DICTIONARY
  5
16
330
A
100
AcDbDictionary
281
1
  0
LAYOUT
  5
1A
330
D
100
AcDbPlotSettings
  1

  2
Adobe PDF
  4
A4
  6

 40
3.175
 41
3.175
 42
3.175
 43
3.175
 44
209.91
 45
297.03
 46
0.0
 47
0.0
 48
0.0
 49
0.0
140
0.0
141
0.0
142
1.0
143
1.0
 70
688
 72
0
 73
1
 74
5
  7

 75
16
 76
0
 77
2
 78
300
147
1.0
148
0.0
149
0.0
100
AcDbLayout
  1
Model
 70
1
 71
0
 10
-3.175
 20
-3.175
 11
293.857
 21
206.735
 12
0.0
 22
0.0
 32
0.0
 14
29.068
 24
20.356
 34
0.0
 15
261.614
 25
183.204
 35
0.0
146
0.0
 13
0.0
 23
0.0
 33
0.0
 16
1.0
 26
0.0
 36
0.0
 17
0.0
 27
1.0
 37
0.0
 76
1
330
17
  0
LAYOUT
  5
1E
330
D
100
AcDbPlotSettings
  1

  2
Adobe PDF
  4
A4
  6

 40
3.175
 41
3.175
 42
3.175
 43
3.175
 44
209.91
 45
297.03
 46
0.0
 47
0.0
 48
0.0
 49
0.0
140
0.0
141
0.0
142
1.0
143
1.0
 70
688
 72
0
 73
1
 74
5
  7

 75
16
 76
0
 77
2
 78
300
147
1.0
148
0.0
149
0.0
100
AcDbLayout
  1
Layout1
 70
1
 71
1
 10
-3.175
 20
-3.175
 11
293.857
 21
206.735
 12
0.0
 22
0.0
 32
0.0
 14
29.068
 24
20.356
 34
0.0
 15
261.614
 25
183.204
 35
0.0
146
0.0
 13
0.0
 23
0.0
 33
0.0
 16
1.0
 26
0.0
 36
0.0
 17
0.0
 27
1.0
 37
0.0
 76
1
330
1B
  0
MATERIAL
  5
1F
102
{ACAD_REACTORS
330
E
102
}
330
E
100
AcDbMaterial
  1
ByBlock
  2

 70
0
 40
1.0
 71
1
 41
1.0
 91
-1023410177
 42
1.0
 72
1
  3

 73
1
 74
1
 75
1
 44
0.5
 73
0
 45
1.0
 46
1.0
 77
1
  4

 78
1
 79
1
170
1
 48
1.0
171
1
  6

172
1
173
1
174
1
140
1.0
141
1.0
175
1
  7

176
1
177
1
178
1
143
1.0
179
1
  8

270
1
271
1
272
1
145
1.0
146
1.0
273
1
  9

274
1
275
1
276
1
 42
1.0
 72
1
  3

 73
1
 74
1
 75
1
 94
63
  0
MATERIAL
  5
20
102
{ACAD_REACTORS
330
E
102
}
330
E
100
AcDbMaterial
  1
ByLayer
  2

 70
0
 40
1.0
 71
1
 41
1.0
 91
-1023410177
 42
1.0
 72
1
  3

 73
1
 74
1
 75
1
 44
0.5
 73
0
 45
1.0
 46
1.0
 77
1
  4

 78
1
 79
1
170
1
 48
1.0
171
1
  6

172
1
173
1
174
1
140
1.0
141
1.0
175
1
  7

176
1
177
1
178
1
143
1.0
179
1
  8

270
1
271
1
272
1
145
1.0
146
1.0
273
1
  9

274
1
275
1
276
1
 42
1.0
 72
1
  3

 73
1
 74
1
 75
1
 94
63
  0
MATERIAL
  5
21
102
{ACAD_REACTORS
330
E
102
}
330
E
100
AcDbMaterial
  1
Global
  2

 70
0
 40
1.0
 71
1
 41
1.0
 91
-1023410177
 42
1.0
 72
1
  3

 73
1
 74
1
 75
1
 44
0.5
 73
0
 45
1.0
 46
1.0
 77
1
  4

 78
1
 79
1
170
1
 48
1.0
171
1
  6

172
1
173
1
174
1
140
1.0
141
1.0
175
1
  7

176
1
177
1
178
1
143
1.0
179
1
  8

270
1
271
1
272
1
145
1.0
146
1.0
273
1
  9

274
1
275
1
276
1
 42
1.0
 72
1
  3

 73
1
 74
1
 75
1
 94
63
  0
MLINESTYLE
  5
22
102
{ACAD_REACTORS
330
10
102
}
330
10
100
AcDbMlineStyle
 52
90.0
 51
90.0
  2
Standard
 70
0
 62
256
  3

 71
2
 49
0.5
 62
256
  6
BYLAYER
 49
-0.5
 62
256
  6
BYLAYER
  0
MLEADERSTYLE
  5
2C
102
{ACAD_REACTORS
330
F
102
}
330
F
100
AcDbMLeaderStyle
142
1.0
143
3.75
175
1
291
1
 47
1.0
 44
4.0
271
0
179
2
292
0
140
1.0
 92
-2
297
0
290
1
 46
4.0
 40
0.0
  3
Standard
300

141
0.0
178
1
177
0
 93
-1056964608
 91
-1056964608
 90
2
296
0
 45
4.0
176
0
170
2
342
29
172
0
 41
0.0
171
1
 42
2.0
272
9
173
1
294
1
295
0
174
1
 43
8.0
 94
-1056964608
 49
0.0
272
9
  0
ENDSEC
  0
EOF
