  0
SECTION
  2
HEADER
  9
$ACADVER
  1
AC1024
  9
$ACADMAINTVER
 90
4
  9
$DWGCODEPAGE
  3
ANSI_1252
  9
$LASTSAVEDBY
  1
ezdxf
  9
$INSBASE
 10
0.0
 20
0.0
 30
0.0
  9
$EXTMIN
 10
-100
 20
-100
 30
-100
  9
$EXTMAX
 10
100
 20
100
 30
100
  9
$LIMMIN
 10
0.0
 20
0.0
  9
$LIMMAX
 10
420.0
 20
297.0
  9
$ORTHOMODE
 70
0
  9
$REGENMODE
 70
1
  9
$FILLMODE
 70
1
  9
$QTEXTMODE
 70
0
  9
$MIRRTEXT
 70
1
  9
$LTSCALE
 40
1.0
  9
$ATTMODE
 70
1
  9
$TEXTSIZE
 40
2.5
  9
$TRACEWID
 40
1.0
  9
$TEXTSTYLE
  7
Standard
  9
$CLAYER
  8
0
  9
$CELTYPE
  6
ByLayer
  9
$CECOLOR
 62
256
  9
$CELTSCALE
 40
1.0
  9
$DISPSILH
 70
0
  9
$DIMSCALE
 40
1.0
  9
$DIMASZ
 40
2.5
  9
$DIMEXO
 40
0.625
  9
$DIMDLI
 40
3.75
  9
$DIMRND
 40
0.0
  9
$DIMDLE
 40
0.0
  9
$DIMEXE
 40
1.25
  9
$DIMTP
 40
0.0
  9
$DIMTM
 40
0.0
  9
$DIMTXT
 40
2.5
  9
$DIMCEN
 40
2.5
  9
$DIMTSZ
 40
0.0
  9
$DIMTOL
 70
0
  9
$DIMLIM
 70
0
  9
$DIMTIH
 70
0
  9
$DIMTOH
 70
0
  9
$DIMSE1
 70
0
  9
$DIMSE2
 70
0
  9
$DIMTAD
 70
1
  9
$DIMZIN
 70
8
  9
$DIMBLK
  1

  9
$DIMASO
 70
1
  9
$DIMSHO
 70
1
  9
$DIMPOST
  1

  9
$DIMAPOST
  1

  9
$DIMALT
 70
0
  9
$DIMALTD
 70
3
  9
$DIMALTF
 40
0.03937007874
  9
$DIMLFAC
 40
1.0
  9
$DIMTOFL
 70
1
  9
$DIMTVP
 40
0.0
  9
$DIMTIX
 70
0
  9
$DIMSOXD
 70
0
  9
$DIMSAH
 70
0
  9
$DIMBLK1
  1

  9
$DIMBLK2
  1

  9
$DIMSTYLE
  2
ISO-25
  9
$DIMCLRD
 70
0
  9
$DIMCLRE
 70
0
  9
$DIMCLRT
 70
0
  9
$DIMTFAC
 40
1.0
  9
$DIMGAP
 40
0.625
  9
$DIMJUST
 70
0
  9
$DIMSD1
 70
0
  9
$DIMSD2
 70
0
  9
$DIMTOLJ
 70
0
  9
$DIMTZIN
 70
8
  9
$DIMALTZ
 70
0
  9
$DIMALTTZ
 70
0
  9
$DIMUPT
 70
0
  9
$DIMDEC
 70
2
  9
$DIMTDEC
 70
2
  9
$DIMALTU
 70
2
  9
$DIMALTTD
 70
3
  9
$DIMTXSTY
  7
Standard
  9
$DIMAUNIT
 70
0
  9
$DIMADEC
 70
0
  9
$DIMALTRND
 40
0.0
  9
$DIMAZIN
 70
0
  9
$DIMDSEP
 70
44
  9
$DIMATFIT
 70
3
  9
$DIMFRAC
 70
0
  9
$DIMLDRBLK
  1

  9
$DIMLUNIT
 70
2
  9
$DIMLWD
 70
-2
  9
$DIMLWE
 70
-2
  9
$DIMTMOVE
 70
0
  9
$DIMFXL
 40
1.0
  9
$DIMFXLON
 70
0
  9
$DIMJOGANG
 40
0.785398163397
  9
$DIMTFILL
 70
0
  9
$DIMTFILLCLR
 70
0
  9
$DIMARCSYM
 70
0
  9
$DIMLTYPE
  6

  9
$DIMLTEX1
  6

  9
$DIMLTEX2
  6

  9
$DIMTXTDIRECTION
 70
0
  9
$LUNITS
 70
2
  9
$LUPREC
 70
4
  9
$SKETCHINC
 40
1.0
  9
$FILLETRAD
 40
10.0
  9
$AUNITS
 70
0
  9
$AUPREC
 70
2
  9
$MENU
  1
.
  9
$ELEVATION
 40
0.0
  9
$PELEVATION
 40
0.0
  9
$THICKNESS
 40
0.0
  9
$LIMCHECK
 70
0
  9
$CHAMFERA
 40
0.0
  9
$CHAMFERB
 40
0.0
  9
$CHAMFERC
 40
0.0
  9
$CHAMFERD
 40
0.0
  9
$SKPOLY
 70
0
  9
$TDCREATE
 40
2458921.831087963
  9
$TDUCREATE
 40
2458532.153996898
  9
$TDUPDATE
 40
2458921.831087963
  9
$TDUUPDATE
 40
2458532.1544311
  9
$TDINDWG
 40
0.0
  9
$TDUSRTIMER
 40
0.0
  9
$USRTIMER
 70
1
  9
$ANGBASE
 50
0.0
  9
$ANGDIR
 70
0
  9
$PDMODE
 70
0
  9
$PDSIZE
 40
0.0
  9
$PLINEWID
 40
0.0
  9
$SPLFRAME
 70
0
  9
$SPLINETYPE
 70
6
  9
$SPLINESEGS
 70
8
  9
$HANDSEED
  5
F2
  9
$SURFTAB1
 70
6
  9
$SURFTAB2
 70
6
  9
$SURFTYPE
 70
6
  9
$SURFU
 70
6
  9
$SURFV
 70
6
  9
$UCSBASE
  2

  9
$UCSNAME
  2

  9
$UCSORG
 10
0.0
 20
0.0
 30
0.0
  9
$UCSXDIR
 10
1.0
 20
0.0
 30
0.0
  9
$UCSYDIR
 10
0.0
 20
1.0
 30
0.0
  9
$UCSORTHOREF
  2

  9
$UCSORTHOVIEW
 70
0
  9
$UCSORGTOP
 10
0.0
 20
0.0
 30
0.0
  9
$UCSORGBOTTOM
 10
0.0
 20
0.0
 30
0.0
  9
$UCSORGLEFT
 10
0.0
 20
0.0
 30
0.0
  9
$UCSORGRIGHT
 10
0.0
 20
0.0
 30
0.0
  9
$UCSORGFRONT
 10
0.0
 20
0.0
 30
0.0
  9
$UCSORGBACK
 10
0.0
 20
0.0
 30
0.0
  9
$PUCSBASE
  2

  9
$PUCSNAME
  2

  9
$PUCSORG
 10
0.0
 20
0.0
 30
0.0
  9
$PUCSXDIR
 10
1.0
 20
0.0
 30
0.0
  9
$PUCSYDIR
 10
0.0
 20
1.0
 30
0.0
  9
$PUCSORTHOREF
  2

  9
$PUCSORTHOVIEW
 70
0
  9
$PUCSORGTOP
 10
0.0
 20
0.0
 30
0.0
  9
$PUCSORGBOTTOM
 10
0.0
 20
0.0
 30
0.0
  9
$PUCSORGLEFT
 10
0.0
 20
0.0
 30
0.0
  9
$PUCSORGRIGHT
 10
0.0
 20
0.0
 30
0.0
  9
$PUCSORGFRONT
 10
0.0
 20
0.0
 30
0.0
  9
$PUCSORGBACK
 10
0.0
 20
0.0
 30
0.0
  9
$USERI1
 70
0
  9
$USERI2
 70
0
  9
$USERI3
 70
0
  9
$USERI4
 70
0
  9
$USERI5
 70
0
  9
$USERR1
 40
0.0
  9
$USERR2
 40
0.0
  9
$USERR3
 40
0.0
  9
$USERR4
 40
0.0
  9
$USERR5
 40
0.0
  9
$WORLDVIEW
 70
1
  9
$SHADEDGE
 70
3
  9
$SHADEDIF
 70
70
  9
$TILEMODE
 70
1
  9
$MAXACTVP
 70
64
  9
$PINSBASE
 10
0.0
 20
0.0
 30
0.0
  9
$PLIMCHECK
 70
0
  9
$PEXTMIN
 10
1e+20
 20
1e+20
 30
1e+20
  9
$PEXTMAX
 10
-1e+20
 20
-1e+20
 30
-1e+20
  9
$PLIMMIN
 10
0.0
 20
0.0
  9
$PLIMMAX
 10
420.0
 20
297.0
  9
$UNITMODE
 70
0
  9
$VISRETAIN
 70
1
  9
$PLINEGEN
 70
0
  9
$PSLTSCALE
 70
1
  9
$TREEDEPTH
 70
3020
  9
$CMLSTYLE
  2
Standard
  9
$CMLJUST
 70
0
  9
$CMLSCALE
 40
20.0
  9
$PROXYGRAPHICS
 70
1
  9
$MEASUREMENT
 70
1
  9
$CELWEIGHT
370
-1
  9
$ENDCAPS
280
0
  9
$JOINSTYLE
280
0
  9
$LWDISPLAY
290
0
  9
$INSUNITS
 70
4
  9
$HYPERLINKBASE
  1

  9
$STYLESHEET
  1

  9
$XEDIT
290
1
  9
$CEPSNTYPE
380
0
  9
$PSTYLEMODE
290
1
  9
$FINGERPRINTGUID
  2
389F2ABD-6493-11EA-A70D-58946B7B6068
  9
$VERSIONGUID
  2
389F2ABF-6493-11EA-A70D-58946B7B6068
  9
$EXTNAMES
290
1
  9
$PSVPSCALE
 40
0.0
  9
$OLESTARTUP
290
0
  9
$SORTENTS
280
127
  9
$INDEXCTL
280
0
  9
$HIDETEXT
280
1
  9
$XCLIPFRAME
280
2
  9
$HALOGAP
280
0
  9
$OBSCOLOR
 70
257
  9
$OBSLTYPE
280
0
  9
$INTERSECTIONDISPLAY
280
0
  9
$INTERSECTIONCOLOR
 70
257
  9
$DIMASSOC
280
2
  9
$PROJECTNAME
  1

  9
$CAMERADISPLAY
290
0
  9
$LENSLENGTH
 40
50.0
  9
$CAMERAHEIGHT
 40
0.0
  9
$STEPSPERSEC
 40
24.0
  9
$STEPSIZE
 40
100.0
  9
$3DDWFPREC
 40
2.0
  9
$PSOLWIDTH
 40
0.005
  9
$PSOLHEIGHT
 40
0.08
  9
$LOFTANG1
 40
1.570796326795
  9
$LOFTANG2
 40
1.570796326795
  9
$LOFTMAG1
 40
0.0
  9
$LOFTMAG2
 40
0.0
  9
$LOFTPARAM
 70
7
  9
$LOFTNORMALS
280
1
  9
$LATITUDE
 40
37.795
  9
$LONGITUDE
 40
-122.394
  9
$NORTHDIRECTION
 40
0.0
  9
$TIMEZONE
 70
-8000
  9
$LIGHTGLYPHDISPLAY
280
1
  9
$TILEMODELIGHTSYNCH
280
1
  9
$CMATERIAL
347
45
  9
$SOLIDHIST
280
0
  9
$SHOWHIST
280
1
  9
$DWFFRAME
280
2
  9
$DGNFRAME
280
2
  9
$REALWORLDSCALE
290
1
  9
$INTERFERECOLOR
 62
256
  9
$CSHADOW
280
0
  9
$SHADOWPLANELOCATION
 40
0.0
  0
ENDSEC
  0
SECTION
  2
CLASSES
  0
CLASS
  1
ACDBDICTIONARYWDFLT
  2
AcDbDictionaryWithDefault
  3
ObjectDBX Classes
 90
0
 91
0
280
0
281
0
  0
CLASS
  1
SUN
  2
AcDbSun
  3
SCENEOE
 90
1153
 91
0
280
0
281
0
  0
CLASS
  1
VISUALSTYLE
  2
AcDbVisualStyle
  3
ObjectDBX Classes
 90
4095
 91
0
280
0
281
0
  0
CLASS
  1
MATERIAL
  2
AcDbMaterial
  3
ObjectDBX Classes
 90
1153
 91
0
280
0
281
0
  0
CLASS
  1
SCALE
  2
AcDbScale
  3
ObjectDBX Classes
 90
1153
 91
0
280
0
281
0
  0
CLASS
  1
TABLESTYLE
  2
AcDbTableStyle
  3
ObjectDBX Classes
 90
4095
 91
0
280
0
281
0
  0
CLASS
  1
MLEADERSTYLE
  2
AcDbMLeaderStyle
  3
ACDB_MLEADERSTYLE_CLASS
 90
4095
 91
0
280
0
281
0
  0
CLASS
  1
DICTIONARYVAR
  2
AcDbDictionaryVar
  3
ObjectDBX Classes
 90
0
 91
0
280
0
281
0
  0
CLASS
  1
CELLSTYLEMAP
  2
AcDbCellStyleMap
  3
ObjectDBX Classes
 90
1152
 91
0
280
0
281
0
  0
CLASS
  1
MENTALRAYRENDERSETTINGS
  2
AcDbMentalRayRenderSettings
  3
SCENEOE
 90
1024
 91
0
280
0
281
0
  0
CLASS
  1
ACDBDETAILVIEWSTYLE
  2
AcDbDetailViewStyle
  3
ObjectDBX Classes
 90
1025
 91
0
280
0
281
0
  0
CLASS
  1
ACDBSECTIONVIEWSTYLE
  2
AcDbSectionViewStyle
  3
ObjectDBX Classes
 90
1025
 91
0
280
0
281
0
  0
CLASS
  1
RASTERVARIABLES
  2
AcDbRasterVariables
  3
ISM
 90
0
 91
0
280
0
281
0
  0
CLASS
  1
LAYOUT
  2
AcDbLayout
  3
ObjectDBX Classes
 90
0
 91
0
280
0
281
0
  0
CLASS
  1
ACDBPLACEHOLDER
  2
AcDbPlaceHolder
  3
ObjectDBX Classes
 90
0
 91
0
280
0
281
0
  0
ENDSEC
  0
SECTION
  2
TABLES
  0
TABLE
  2
VPORT
  5
4
330
0
100
AcDbSymbolTable
 70
1
  0
VPORT
  5
23
330
4
100
AcDbSymbolTableRecord
100
AcDbViewportTableRecord
  2
*Active
 70
0
 10
0.0
 20
0.0
 11
1.0
 21
1.0
 12
70.0
 22
50.0
 13
0.0
 23
0.0
 14
0.5
 24
0.5
 15
0.5
 25
0.5
 16
0.0
 26
0.0
 36
1.0
 17
0.0
 27
0.0
 37
0.0
 40
1.0
 41
1.34
 42
50.0
 43
0.0
 44
0.0
 50
0.0
 51
0.0
 71
0
 72
1000
 73
1
 74
3
 75
0
 76
0
 77
0
 78
0
281
0
 65
0
146
0.0
  0
ENDTAB
  0
TABLE
  2
LTYPE
  5
3
330
0
100
AcDbSymbolTable
 70
4
  0
LTYPE
  5
24
330
3
100
AcDbSymbolTableRecord
100
AcDbLinetypeTableRecord
  2
ByBlock
 70
0
  3

 72
65
 73
0
 40
0.0
  0
LTYPE
  5
25
330
3
100
AcDbSymbolTableRecord
100
AcDbLinetypeTableRecord
  2
ByLayer
 70
0
  3

 72
65
 73
0
 40
0.0
  0
LTYPE
  5
26
330
3
100
AcDbSymbolTableRecord
100
AcDbLinetypeTableRecord
  2
Continuous
 70
0
  3

 72
65
 73
0
 40
0.0
  0
LTYPE
  5
39
330
3
100
AcDbSymbolTableRecord
100
AcDbLinetypeTableRecord
  2
DASHED
 70
0
  3
Dashed - - - - - - - - - - - - - - - - - - - - - - -
 72
65
 73
2
 40
8.0
 49
-3.0
 74
0
 49
8.0
 74
0
  0
ENDTAB
  0
TABLE
  2
LAYER
  5
6
330
0
100
AcDbSymbolTable
 70
14
  0
LAYER
  5
27
330
6
100
AcDbSymbolTableRecord
100
AcDbLayerTableRecord
  2
0
 70
0
 62
7
  6
Continuous
370
-3
390
13
347
21
  0
LAYER
  5
28
330
6
100
AcDbSymbolTableRecord
100
AcDbLayerTableRecord
  2
Defpoints
 70
0
 62
7
  6
Continuous
290
0
370
-3
390
13
347
21
  0
LAYER
  5
2D
330
6
100
AcDbSymbolTableRecord
100
AcDbLayerTableRecord
  2
SAIL
 70
0
 62
0
  6
Continuous
370
50
390
13
347
21
  0
LAYER
  5
2E
330
6
100
AcDbSymbolTableRecord
100
AcDbLayerTableRecord
  2
TUBE
 70
0
 62
0
  6
Continuous
370
50
390
13
347
21
  0
LAYER
  5
2F
330
6
100
AcDbSymbolTableRecord
100
AcDbLayerTableRecord
  2
BLADDER
 70
0
 62
0
  6
Continuous
370
50
390
13
347
21
  0
LAYER
  5
30
330
6
100
AcDbSymbolTableRecord
100
AcDbLayerTableRecord
  2
PEN
 70
0
 62
5
  6
Continuous
370
-3
390
13
347
21
  0
LAYER
  5
31
330
6
100
AcDbSymbolTableRecord
100
AcDbLayerTableRecord
  2
SEAM
 70
0
 62
1
  6
DASHED
370
35
390
13
347
21
  0
LAYER
  5
32
330
6
100
AcDbSymbolTableRecord
100
AcDbLayerTableRecord
  2
MARKER
 70
0
 62
8
  6
Continuous
370
-3
390
13
347
21
  0
LAYER
  5
33
330
6
100
AcDbSymbolTableRecord
100
AcDbLayerTableRecord
  2
TEXT
 70
0
 62
3
  6
Continuous
370
-3
390
13
347
21
  0
LAYER
  5
34
330
6
100
AcDbSymbolTableRecord
100
AcDbLayerTableRecord
  2
REINFORCEMENT
 70
0
 62
4
  6
Continuous
370
50
390
13
347
21
  0
LAYER
  5
35
330
6
100
AcDbSymbolTableRecord
100
AcDbLayerTableRecord
  2
PROTECTION
 70
0
 62
6
  6
Continuous
370
50
390
13
347
21
  0
LAYER
  5
36
330
6
100
AcDbSymbolTableRecord
100
AcDbLayerTableRecord
  2
WEBBING
 70
0
 62
2
  6
Continuous
370
35
390
13
347
21
  0
LAYER
  5
37
330
6
100
AcDbSymbolTableRecord
100
AcDbLayerTableRecord
  2
CUT
 70
0
 62
6
  6
Continuous
370
50
390
13
347
21
  0
LAYER
  5
38
330
6
100
AcDbSymbolTableRecord
100
AcDbLayerTableRecord
  2
DRILL
 70
0
 62
2
  6
Continuous
370
35
390
13
347
21
  0
ENDTAB
  0
TABLE
  2
STYLE
  5
7
330
0
100
AcDbSymbolTable
 70
1
  0
STYLE
  5
29
330
7
100
AcDbSymbolTableRecord
100
AcDbTextStyleTableRecord
  2
Standard
 70
0
 40
0.0
 41
1.0
 50
0.0
 71
0
 42
2.5
  3
txt
  4

  0
ENDTAB
  0
TABLE
  2
VIEW
  5
9
330
0
100
AcDbSymbolTable
 70
0
  0
ENDTAB
  0
TABLE
  2
UCS
  5
5
330
0
100
AcDbSymbolTable
 70
0
  0
ENDTAB
  0
TABLE
  2
APPID
  5
8
330
0
100
AcDbSymbolTable
 70
1
  0
APPID
  5
2A
330
8
100
AcDbSymbolTableRecord
100
AcDbRegAppTableRecord
  2
ACAD
 70
0
  0
ENDTAB
  0
TABLE
  2
DIMSTYLE
  5
2
330
0
100
AcDbSymbolTable
 70
1
100
AcDbDimStyleTable
  0
DIMSTYLE
105
2B
330
2
100
AcDbSymbolTableRecord
100
AcDbDimStyleTableRecord
  2
Standard
 70
0
 40
1.0
 41
2.5
 42
0.625
 43
3.75
 44
1.25
 45
0.0
 46
0.0
 47
0.0
 48
0.0
 49
2.5
140
2.5
141
2.5
142
0.0
143
0.03937007874
144
1.0
145
0.0
146
1.0
147
0.625
148
0.0
 69
0
 70
0
 71
0
 72
0
 73
0
 74
0
 75
0
 76
0
 77
1
 78
8
 79
0
170
0
171
3
172
1
173
0
174
0
175
0
176
0
177
0
178
0
179
0
271
0
272
2
273
2
274
3
275
0
276
0
277
2
278
44
279
0
280
0
281
0
282
0
283
0
284
8
285
0
286
0
288
0
289
3
290
0
371
-2
372
-2
  0
ENDTAB
  0
TABLE
  2
BLOCK_RECORD
  5
1
330
0
100
AcDbSymbolTable
 70
31
  0
BLOCK_RECORD
  5
17
330
1
100
AcDbSymbolTableRecord
100
AcDbBlockTableRecord
  2
*Model_Space
340
1A
 70
0
280
1
281
1
  0
BLOCK_RECORD
  5
1B
330
1
100
AcDbSymbolTableRecord
100
AcDbBlockTableRecord
  2
*Paper_Space
340
1E
 70
0
280
1
281
1
  0
BLOCK_RECORD
  5
3A
330
1
100
AcDbSymbolTableRecord
100
AcDbBlockTableRecord
  2
cordura UV-SAIL-1.le_seam_patch_(0)
340
0
 70
0
280
1
281
1
  0
BLOCK_RECORD
  5
40
330
1
100
AcDbSymbolTableRecord
100
AcDbBlockTableRecord
  2
cordura UV-SAIL-1.te_seam_patch_(1)
340
0
 70
0
280
1
281
1
  0
BLOCK_RECORD
  5
46
330
1
100
AcDbSymbolTableRecord
100
AcDbBlockTableRecord
  2
cordura UV-STRUT-1-SEGMENT-4-tab_(2)
340
0
 70
0
280
1
281
1
  0
BLOCK_RECORD
  5
4E
330
1
100
AcDbSymbolTableRecord
100
AcDbBlockTableRecord
  2
cordura UV-SAIL-5.le_seam_patch_(3)
340
0
 70
0
280
1
281
1
  0
BLOCK_RECORD
  5
54
330
1
100
AcDbSymbolTableRecord
100
AcDbBlockTableRecord
  2
cordura UV-SAIL-5.le_seam_patch.left_(4)
340
0
 70
0
280
1
281
1
  0
BLOCK_RECORD
  5
5A
330
1
100
AcDbSymbolTableRecord
100
AcDbBlockTableRecord
  2
cordura UV-SAIL-5.te_seam_patch_(5)
340
0
 70
0
280
1
281
1
  0
BLOCK_RECORD
  5
60
330
1
100
AcDbSymbolTableRecord
100
AcDbBlockTableRecord
  2
cordura UV-SAIL-5.te_seam_patch.left_(6)
340
0
 70
0
280
1
281
1
  0
BLOCK_RECORD
  5
66
330
1
100
AcDbSymbolTableRecord
100
AcDbBlockTableRecord
  2
cordura UV-STRUT-5-SEGMENT-2-tab_(7)
340
0
 70
0
280
1
281
1
  0
BLOCK_RECORD
  5
6E
330
1
100
AcDbSymbolTableRecord
100
AcDbBlockTableRecord
  2
cordura UV-STRUT-5-SEGMENT-2.left-tab.left_(8)
340
0
 70
0
280
1
281
1
  0
BLOCK_RECORD
  5
76
330
1
100
AcDbSymbolTableRecord
100
AcDbBlockTableRecord
  2
cordura UV-LE-1.seg_seam_patch_(9)
340
0
 70
0
280
1
281
1
  0
BLOCK_RECORD
  5
7C
330
1
100
AcDbSymbolTableRecord
100
AcDbBlockTableRecord
  2
cordura UV-LE-5.seg_seam_patch_(10)
340
0
 70
0
280
1
281
1
  0
BLOCK_RECORD
  5
82
330
1
100
AcDbSymbolTableRecord
100
AcDbBlockTableRecord
  2
cordura UV-LE-5.seg_seam_patch.left_(11)
340
0
 70
0
280
1
281
1
  0
BLOCK_RECORD
  5
88
330
1
100
AcDbSymbolTableRecord
100
AcDbBlockTableRecord
  2
cordura UV-LE-6.seg_seam_patch_(12)
340
0
 70
0
280
1
281
1
  0
BLOCK_RECORD
  5
8E
330
1
100
AcDbSymbolTableRecord
100
AcDbBlockTableRecord
  2
cordura UV-LE-6.seg_seam_patch.left_(13)
340
0
 70
0
280
1
281
1
  0
BLOCK_RECORD
  5
94
330
1
100
AcDbSymbolTableRecord
100
AcDbBlockTableRecord
  2
cordura UV-LE-7.seg_seam_patch_(14)
340
0
 70
0
280
1
281
1
  0
BLOCK_RECORD
  5
9A
330
1
100
AcDbSymbolTableRecord
100
AcDbBlockTableRecord
  2
cordura UV-LE-7.seg_seam_patch.left_(15)
340
0
 70
0
280
1
281
1
  0
BLOCK_RECORD
  5
A0
330
1
100
AcDbSymbolTableRecord
100
AcDbBlockTableRecord
  2
cordura UV-LE-8.seg_seam_patch_(16)
340
0
 70
0
280
1
281
1
  0
BLOCK_RECORD
  5
A6
330
1
100
AcDbSymbolTableRecord
100
AcDbBlockTableRecord
  2
cordura UV-LE-8.seg_seam_patch.left_(17)
340
0
 70
0
280
1
281
1
  0
BLOCK_RECORD
  5
AC
330
1
100
AcDbSymbolTableRecord
100
AcDbBlockTableRecord
  2
cordura UV-LE-9.seg_seam_patch_(18)
340
0
 70
0
280
1
281
1
  0
BLOCK_RECORD
  5
B2
330
1
100
AcDbSymbolTableRecord
100
AcDbBlockTableRecord
  2
cordura UV-LE-9.seg_seam_patch.left_(19)
340
0
 70
0
280
1
281
1
  0
BLOCK_RECORD
  5
B8
330
1
100
AcDbSymbolTableRecord
100
AcDbBlockTableRecord
  2
cordura UV-LE-10-Tip-Patch_(20)
340
0
 70
0
280
1
281
1
  0
BLOCK_RECORD
  5
BE
330
1
100
AcDbSymbolTableRecord
100
AcDbBlockTableRecord
  2
cordura UV-LE-10.left-Tip-Patch.left_(21)
340
0
 70
0
280
1
281
1
  0
BLOCK_RECORD
  5
C4
330
1
100
AcDbSymbolTableRecord
100
AcDbBlockTableRecord
  2
cordura UV-LE-10.tip_line_patch_(22)
340
0
 70
0
280
1
281
1
  0
BLOCK_RECORD
  5
CA
330
1
100
AcDbSymbolTableRecord
100
AcDbBlockTableRecord
  2
cordura UV-LE-10.tip_line_patch.left_(23)
340
0
 70
0
280
1
281
1
  0
BLOCK_RECORD
  5
D0
330
1
100
AcDbSymbolTableRecord
100
AcDbBlockTableRecord
  2
cordura UV-LE-10.tab_(24)
340
0
 70
0
280
1
281
1
  0
BLOCK_RECORD
  5
D8
330
1
100
AcDbSymbolTableRecord
100
AcDbBlockTableRecord
  2
cordura UV-LE-10.tab_left_(25)
340
0
 70
0
280
1
281
1
  0
BLOCK_RECORD
  5
E0
330
1
100
AcDbSymbolTableRecord
100
AcDbBlockTableRecord
  2
cordura UV-LE-10.seg_seam_patch_(26)
340
0
 70
0
280
1
281
1
  0
BLOCK_RECORD
  5
E6
330
1
100
AcDbSymbolTableRecord
100
AcDbBlockTableRecord
  2
cordura UV-LE-10.seg_seam_patch.left_(27)
340
0
 70
0
280
1
281
1
  0
BLOCK_RECORD
  5
EC
330
1
100
AcDbSymbolTableRecord
100
AcDbBlockTableRecord
  2
Copyright_(131)
340
0
 70
0
280
1
281
1
  0
ENDTAB
  0
ENDSEC
  0
SECTION
  2
BLOCKS
  0
BLOCK
  5
18
330
17
100
AcDbEntity
  8
0
100
AcDbBlockBegin
  2
*Model_Space
 70
0
 10
0.0
 20
0.0
 30
0.0
  3
*Model_Space
  1

  0
ENDBLK
  5
19
330
17
100
AcDbEntity
  8
0
100
AcDbBlockEnd
  0
BLOCK
  5
1C
330
1B
100
AcDbEntity
  8
0
100
AcDbBlockBegin
  2
*Paper_Space
 70
0
 10
0.0
 20
0.0
 30
0.0
  3
*Paper_Space
  1

  0
ENDBLK
  5
1D
330
1B
100
AcDbEntity
  8
0
100
AcDbBlockEnd
  0
BLOCK
  5
3B
330
3A
100
AcDbEntity
  8
0
100
AcDbBlockBegin
  2
cordura UV-SAIL-1.le_seam_patch_(0)
 70
0
 10
0.0
 20
0.0
 30
0.0
  3
cordura UV-SAIL-1.le_seam_patch_(0)
  1

  0
LWPOLYLINE
  5
3D
330
3A
100
AcDbEntity
  8
CUT
100
AcDbPolyline
 90
63
 70
1
 43
0.0
 10
0.0
 20
0.0
 10
-29.992103576660156
 20
-0.68829345703125
 10
-29.99690055847168
 20
0.6046142578125
 10
-30.006032943725586
 20
4.3658447265625
 10
-30.011613845825195
 20
10.41900634765625
 10
-30.00575828552246
 20
18.5877685546875
 10
-29.98057746887207
 20
28.696044921875
 10
-29.92818260192871
 20
40.56732177734375
 10
-29.840688705444336
 20
54.02532958984375
 10
-29.710206985473633
 20
68.89373779296875
 10
-29.528850555419922
 20
84.99639892578125
 10
-29.288732528686523
 20
102.15679931640625
 10
-28.981966018676758
 20
120.19879150390625
 10
-28.600662231445312
 20
138.94598388671875
 10
-28.136934280395508
 20
158.22210693359375
 10
-27.582897186279297
 20
177.85076904296875
 10
-26.930660247802734
 20
197.65582275390625
 10
-26.172338485717773
 20
217.46087646484375
 10
-25.300045013427734
 20
237.08953857421875
 10
-24.305891036987305
 20
256.36566162109375
 10
-23.181989669799805
 20
275.11285400390625
 10
-21.920454025268555
 20
293.15484619140625
 10
-20.513397216796875
 20
310.31524658203125
 10
-18.952930450439453
 20
326.41778564453125
 10
-17.231168746948242
 20
341.28631591796875
 10
-15.340222358703613
 20
354.74432373046875
 10
-13.272205352783203
 20
366.61566162109375
 10
-11.019229888916016
 20
376.72381591796875
 10
-8.573409080505371
 20
384.89263916015625
 10
-5.92685604095459
 20
390.94586181640625
 10
-3.0716824531555176
 20
394.70697021484375
 10
0.0
 20
395.99993896484375
 10
3.0716805458068848
 20
394.70697021484375
 10
5.926854133605957
 20
390.94586181640625
 10
8.573407173156738
 20
384.89263916015625
 10
11.019227981567383
 20
376.72381591796875
 10
13.27220344543457
 20
366.61553955078125
 10
15.340221405029297
 20
354.74432373046875
 10
17.231168746948242
 20
341.28631591796875
 10
18.952932357788086
 20
326.41778564453125
 10
20.51340103149414
 20
310.31524658203125
 10
21.920459747314453
 20
293.15484619140625
 10
23.181995391845703
 20
275.11273193359375
 10
24.305896759033203
 20
256.36566162109375
 10
25.300052642822266
 20
237.08953857421875
 10
26.172348022460938
 20
217.46075439453125
 10
26.9306697845459
 20
197.65582275390625
 10
27.58290672302246
 20
177.85076904296875
 10
28.136945724487305
 20
158.22210693359375
 10
28.60067367553711
 20
138.94598388671875
 10
28.981977462768555
 20
120.19879150390625
 10
29.288745880126953
 20
102.15679931640625
 10
29.528865814208984
 20
84.99639892578125
 10
29.710224151611328
 20
68.89373779296875
 10
29.840707778930664
 20
54.02532958984375
 10
29.928203582763672
 20
40.56732177734375
 10
29.980600357055664
 20
28.696044921875
 10
30.005783081054688
 20
18.58782958984375
 10
30.011640548706055
 20
10.41900634765625
 10
30.006059646606445
 20
4.3658447265625
 10
29.99692726135254
 20
0.60467529296875
 10
29.992107391357422
 20
-0.68829345703125
 10
0.0
 20
0.0
  0
ENDBLK
  5
3C
330
3A
100
AcDbEntity
  8
0
100
AcDbBlockEnd
  0
BLOCK
  5
41
330
40
100
AcDbEntity
  8
0
100
AcDbBlockBegin
  2
cordura UV-SAIL-1.te_seam_patch_(1)
 70
0
 10
0.0
 20
0.0
 30
0.0
  3
cordura UV-SAIL-1.te_seam_patch_(1)
  1

  0
LWPOLYLINE
  5
43
330
40
100
AcDbEntity
  8
CUT
100
AcDbPolyline
 90
63
 70
1
 43
0.0
 10
0.0
 20
0.0
 10
-29.999977111816406
 20
-0.035400390625
 10
-29.951478958129883
 20
-0.524169921875
 10
-29.808076858520508
 20
-1.946044921875
 10
-29.572906494140625
 20
-4.234375
 10
-29.24910545349121
 20
-7.322509765625
 10
-28.839813232421875
 20
-11.143798828125
 10
-28.348167419433594
 20
-15.631591796875
 10
-27.77730369567871
 20
-20.71923828125
 10
-27.130359649658203
 20
-26.34033203125
 10
-26.41047477722168
 20
-32.427734375
 10
-25.620786666870117
 20
-38.915283203125
 10
-24.764429092407227
 20
-45.735595703125
 10
-23.84454345703125
 20
-52.82275390625
 10
-22.864267349243164
 20
-60.110107421875
 10
-21.826736450195312
 20
-67.53076171875
 10
-20.735090255737305
 20
-75.017822265625
 10
-19.592466354370117
 20
-82.5048828125
 10
-18.40199851989746
 20
-89.92529296875
 10
-17.166828155517578
 20
-97.212646484375
 10
-15.890091896057129
 20
-104.2998046875
 10
-14.57492733001709
 20
-111.120361328125
 10
-13.224472045898438
 20
-117.607666015625
 10
-11.841863632202148
 20
-123.695068359375
 10
-10.430238723754883
 20
-129.316162109375
 10
-8.99273681640625
 20
-134.40380859375
 10
-7.53249454498291
 20
-138.891845703125
 10
-6.052649021148682
 20
-142.712890625
 10
-4.556338310241699
 20
-145.801025390625
 10
-3.0466997623443604
 20
-148.08935546875
 10
-1.5268712043762207
 20
-149.511474609375
 10
0.0
 20
-150.000244140625
 10
1.5268803834915161
 20
-149.511474609375
 10
3.046708106994629
 20
-148.08935546875
 10
4.5563459396362305
 20
-145.801025390625
 10
6.052656173706055
 20
-142.712890625
 10
7.532500743865967
 20
-138.891845703125
 10
8.992742538452148
 20
-134.40380859375
 10
10.430244445800781
 20
-129.316162109375
 10
11.84186840057373
 20
-123.695068359375
 10
13.224475860595703
 20
-117.607666015625
 10
14.574931144714355
 20
-111.120361328125
 10
15.890095710754395
 20
-104.2998046875
 10
17.16683006286621
 20
-97.212646484375
 10
18.402000427246094
 20
-89.92529296875
 10
19.59246826171875
 20
-82.5048828125
 10
20.735092163085938
 20
-75.017822265625
 10
21.826738357543945
 20
-67.53076171875
 10
22.864269256591797
 20
-60.110107421875
 10
23.844545364379883
 20
-52.82275390625
 10
24.764429092407227
 20
-45.735595703125
 10
25.620784759521484
 20
-38.915283203125
 10
26.410472869873047
 20
-32.427734375
 10
27.13035774230957
 20
-26.34033203125
 10
27.777301788330078
 20
-20.71923828125
 10
28.34816551208496
 20
-15.631591796875
 10
28.839811325073242
 20
-11.143798828125
 10
29.249103546142578
 20
-7.322509765625
 10
29.572904586791992
 20
-4.234375
 10
29.808074951171875
 20
-1.946044921875
 10
29.95147705078125
 20
-0.524169921875
 10
29.999977111816406
 20
-0.035400390625
 10
0.0
 20
0.0
  0
ENDBLK
  5
42
330
40
100
AcDbEntity
  8
0
100
AcDbBlockEnd
  0
BLOCK
  5
47
330
46
100
AcDbEntity
  8
0
100
AcDbBlockBegin
  2
cordura UV-STRUT-1-SEGMENT-4-tab_(2)
 70
0
 10
0.0
 20
0.0
 30
0.0
  3
cordura UV-STRUT-1-SEGMENT-4-tab_(2)
  1

  0
LWPOLYLINE
  5
49
330
46
100
AcDbEntity
  8
CUT
100
AcDbPolyline
 90
41
 70
1
 43
0.0
 10
0.0
 20
0.0
 10
87.37841796875
 20
-0.0001220703125
 10
115.23095703125
 20
-1.352294921875
 10
115.6591796875
 20
7.7078857421875
 10
115.841796875
 20
11.810546875
 10
116.01171875
 20
15.88232421875
 10
116.171875
 20
19.97119140625
 10
116.31982421875
 20
24.044921875
 10
116.45751953125
 20
28.1307373046875
 10
116.58349609375
 20
32.1949462890625
 10
116.70068359375
 20
36.3138427734375
 10
116.80419921875
 20
40.3671875
 10
116.89794921875
 20
44.4669189453125
 10
116.98046875
 20
48.541259765625
 10
117.05224609375
 20
52.638916015625
 10
117.11279296875
 20
56.708740234375
 10
117.162109375
 20
60.7911376953125
 10
117.201171875
 20
64.885498046875
 10
117.228515625
 20
68.963623046875
 10
117.2451171875
 20
73.06005859375
 10
117.2509765625
 20
77.13720703125
 10
117.2451171875
 20
81.2130126953125
 10
117.228515625
 20
85.31103515625
 10
117.201171875
 20
89.3851318359375
 10
117.16259765625
 20
93.486572265625
 10
117.11279296875
 20
97.5614013671875
 10
117.05224609375
 20
101.63427734375
 10
116.98095703125
 20
105.73388671875
 10
116.8984375
 20
109.809326171875
 10
116.80419921875
 20
113.904541015625
 10
116.7001953125
 20
117.9801025390625
 10
116.58447265625
 20
122.054443359375
 10
116.4580078125
 20
126.149658203125
 10
116.3203125
 20
130.22314453125
 10
116.17236328125
 20
134.3018798828125
 10
116.01220703125
 20
138.38818359375
 10
115.84228515625
 20
142.4697265625
 10
115.66015625
 20
146.5556640625
 10
115.23193359375
 20
155.625732421875
 10
87.37939453125
 20
154.2734375
 10
0.0009765625
 20
154.2734375
  0
LWPOLYLINE
  5
4A
330
46
100
AcDbEntity
  8
PEN
100
AcDbPolyline
 90
8
 70
1
 43
0.0
 10
1.99951171875
 20
125.705078125
 10
0.0
 20
123.705078125
 10
0.0
 20
102.705078125
 10
1.99951171875
 20
100.705078125
 10
61.7998046875
 20
100.705078125
 10
63.7998046875
 20
102.705078125
 10
63.7998046875
 20
123.705078125
 10
61.7998046875
 20
125.705078125
  0
LWPOLYLINE
  5
4B
330
46
100
AcDbEntity
  8
PEN
100
AcDbPolyline
 90
22
 70
0
 43
0.0
 10
115.25
 20
82.2098388671875
 10
109.251953125
 20
82.0643310546875
 10
115.1767578125
 20
85.2088623046875
 10
109.1064453125
 20
88.0625
 10
115.03173828125
 20
91.2071533203125
 10
108.96044921875
 20
94.060791015625
 10
114.88623046875
 20
97.2054443359375
 10
108.81494140625
 20
100.05908203125
 10
114.74072265625
 20
103.20361328125
 10
108.66943359375
 20
106.05712890625
 10
114.5947265625
 20
109.201904296875
 10
108.52392578125
 20
112.055419921875
 10
114.44921875
 20
115.2000732421875
 10
108.37890625
 20
118.0537109375
 10
114.3037109375
 20
121.1983642578125
 10
108.23291015625
 20
124.0518798828125
 10
114.15869140625
 20
127.196533203125
 10
108.08740234375
 20
130.0501708984375
 10
114.01318359375
 20
133.19482421875
 10
107.94189453125
 20
136.0484619140625
 10
113.86767578125
 20
139.193115234375
 10
107.869140625
 20
139.0474853515625
  0
ENDBLK
  5
48
330
46
100
AcDbEntity
  8
0
100
AcDbBlockEnd
  0
BLOCK
  5
4F
330
4E
100
AcDbEntity
  8
0
100
AcDbBlockBegin
  2
cordura UV-SAIL-5.le_seam_patch_(3)
 70
0
 10
0.0
 20
0.0
 30
0.0
  3
cordura UV-SAIL-5.le_seam_patch_(3)
  1

  0
LWPOLYLINE
  5
51
330
4E
100
AcDbEntity
  8
CUT
100
AcDbPolyline
 90
63
 70
1
 43
0.0
 10
0.0
 20
0.0
 10
-29.10205078125
 20
7.2860107421875
 10
-29.0625
 20
7.979736328125
 10
-28.94482421875
 20
9.9974365234375
 10
-28.750732421875
 20
13.244873046875
 10
-28.481689453125
 20
17.627197265625
 10
-28.138916015625
 20
23.0499267578125
 10
-27.72412109375
 20
29.4183349609375
 10
-27.23876953125
 20
36.637939453125
 10
-26.68408203125
 20
44.614013671875
 10
-26.06201171875
 20
53.2520751953125
 10
-25.373779296875
 20
62.4573974609375
 10
-24.62060546875
 20
72.135498046875
 10
-23.804443359375
 20
82.19140625
 10
-22.9267578125
 20
92.5311279296875
 10
-21.988525390625
 20
103.0595703125
 10
-20.99169921875
 20
113.6822509765625
 10
-19.937744140625
 20
124.3046875
 10
-18.827880859375
 20
134.83203125
 10
-17.66357421875
 20
145.1697998046875
 10
-16.44677734375
 20
155.2236328125
 10
-15.178466796875
 20
164.8985595703125
 10
-13.8603515625
 20
174.0999755859375
 10
-12.493896484375
 20
182.7333984375
 10
-11.08056640625
 20
190.704345703125
 10
-9.6220703125
 20
197.91796875
 10
-8.119384765625
 20
204.27978515625
 10
-6.574462890625
 20
209.6951904296875
 10
-4.988525390625
 20
214.0694580078125
 10
-3.36328125
 20
217.30810546875
 10
-1.69970703125
 20
219.316650390625
 10
0.0
 20
220.0
 10
1.820068359375
 20
219.2421875
 10
3.58349609375
 20
217.05908203125
 10
5.2900390625
 20
213.552734375
 10
6.939453125
 20
208.82470703125
 10
8.531005859375
 20
202.97705078125
 10
10.064453125
 20
196.1114501953125
 10
11.53955078125
 20
188.3297119140625
 10
12.9560546875
 20
179.7337646484375
 10
14.31298828125
 20
170.42529296875
 10
15.611083984375
 20
160.50634765625
 10
16.848876953125
 20
150.07861328125
 10
18.026611328125
 20
139.243896484375
 10
19.14404296875
 20
128.104248046875
 10
20.2001953125
 20
116.7611083984375
 10
21.1953125
 20
105.316650390625
 10
22.128662109375
 20
93.8724365234375
 10
23.0
 20
82.530517578125
 10
23.809326171875
 20
71.3927001953125
 10
24.555908203125
 20
60.560546875
 10
25.239013671875
 20
50.13623046875
 10
25.859130859375
 20
40.2213134765625
 10
26.41552734375
 20
30.9178466796875
 10
26.907470703125
 20
22.3275146484375
 10
27.335205078125
 20
14.55224609375
 10
27.6982421875
 20
7.693603515625
 10
27.995849609375
 20
1.853759765625
 10
28.22802734375
 20
-2.865478515625
 10
28.394287109375
 20
-6.362548828125
 10
28.494140625
 20
-8.535400390625
 10
28.52783203125
 20
-9.2823486328125
 10
0.0
 20
0.0
  0
ENDBLK
  5
50
330
4E
100
AcDbEntity
  8
0
100
AcDbBlockEnd
  0
BLOCK
  5
55
330
54
100
AcDbEntity
  8
0
100
AcDbBlockBegin
  2
cordura UV-SAIL-5.le_seam_patch.left_(4)
 70
0
 10
0.0
 20
0.0
 30
0.0
  3
cordura UV-SAIL-5.le_seam_patch.left_(4)
  1

  0
LWPOLYLINE
  5
57
330
54
100
AcDbEntity
  8
CUT
100
AcDbPolyline
 90
63
 70
1
 43
0.0
 10
0.0
 20
0.0
 10
29.10205078125
 20
7.2860107421875
 10
29.0625
 20
7.979736328125
 10
28.94482421875
 20
9.9974365234375
 10
28.750732421875
 20
13.244873046875
 10
28.481689453125
 20
17.627197265625
 10
28.138916015625
 20
23.0499267578125
 10
27.72412109375
 20
29.4183349609375
 10
27.23876953125
 20
36.637939453125
 10
26.68408203125
 20
44.614013671875
 10
26.06201171875
 20
53.2520751953125
 10
25.373779296875
 20
62.4573974609375
 10
24.62060546875
 20
72.135498046875
 10
23.804443359375
 20
82.19140625
 10
22.9267578125
 20
92.5311279296875
 10
21.988525390625
 20
103.0595703125
 10
20.99169921875
 20
113.6822509765625
 10
19.937744140625
 20
124.3046875
 10
18.827880859375
 20
134.83203125
 10
17.66357421875
 20
145.1697998046875
 10
16.44677734375
 20
155.2236328125
 10
15.178466796875
 20
164.8985595703125
 10
13.8603515625
 20
174.0999755859375
 10
12.493896484375
 20
182.7333984375
 10
11.08056640625
 20
190.704345703125
 10
9.6220703125
 20
197.91796875
 10
8.119384765625
 20
204.27978515625
 10
6.574462890625
 20
209.6951904296875
 10
4.988525390625
 20
214.0694580078125
 10
3.36328125
 20
217.30810546875
 10
1.69970703125
 20
219.316650390625
 10
0.0
 20
220.0
 10
-1.820068359375
 20
219.2421875
 10
-3.58349609375
 20
217.05908203125
 10
-5.2900390625
 20
213.552734375
 10
-6.939453125
 20
208.82470703125
 10
-8.531005859375
 20
202.97705078125
 10
-10.064453125
 20
196.1114501953125
 10
-11.53955078125
 20
188.3297119140625
 10
-12.9560546875
 20
179.7337646484375
 10
-14.31298828125
 20
170.42529296875
 10
-15.611083984375
 20
160.50634765625
 10
-16.848876953125
 20
150.07861328125
 10
-18.026611328125
 20
139.243896484375
 10
-19.14404296875
 20
128.104248046875
 10
-20.2001953125
 20
116.7611083984375
 10
-21.1953125
 20
105.316650390625
 10
-22.128662109375
 20
93.8724365234375
 10
-23.0
 20
82.530517578125
 10
-23.809326171875
 20
71.3927001953125
 10
-24.555908203125
 20
60.560546875
 10
-25.239013671875
 20
50.13623046875
 10
-25.859130859375
 20
40.2213134765625
 10
-26.41552734375
 20
30.9178466796875
 10
-26.907470703125
 20
22.3275146484375
 10
-27.335205078125
 20
14.55224609375
 10
-27.6982421875
 20
7.693603515625
 10
-27.995849609375
 20
1.853759765625
 10
-28.22802734375
 20
-2.865478515625
 10
-28.394287109375
 20
-6.362548828125
 10
-28.494140625
 20
-8.535400390625
 10
-28.52783203125
 20
-9.2823486328125
 10
0.0
 20
0.0
  0
ENDBLK
  5
56
330
54
100
AcDbEntity
  8
0
100
AcDbBlockEnd
  0
BLOCK
  5
5B
330
5A
100
AcDbEntity
  8
0
100
AcDbBlockBegin
  2
cordura UV-SAIL-5.te_seam_patch_(5)
 70
0
 10
0.0
 20
0.0
 30
0.0
  3
cordura UV-SAIL-5.te_seam_patch_(5)
  1

  0
LWPOLYLINE
  5
5D
330
5A
100
AcDbEntity
  8
CUT
100
AcDbPolyline
 90
63
 70
1
 43
0.0
 10
0.0
 20
0.0
 10
-29.9931640625
 20
-0.64599609375
 10
-29.944580078125
 20
-1.133056640625
 10
-29.800537109375
 20
-2.549072265625
 10
-29.564697265625
 20
-4.82861328125
 10
-29.23974609375
 20
-7.90478515625
 10
-28.829345703125
 20
-11.7109375
 10
-28.33642578125
 20
-16.18115234375
 10
-27.763916015625
 20
-21.248779296875
 10
-27.115478515625
 20
-26.84765625
 10
-26.393798828125
 20
-32.9111328125
 10
-25.6025390625
 20
-39.37255859375
 10
-24.744384765625
 20
-46.16650390625
 10
-23.822998046875
 20
-53.2255859375
 10
-22.841064453125
 20
-60.483642578125
 10
-21.802001953125
 20
-67.874755859375
 10
-20.709228515625
 20
-75.331787109375
 10
-19.5654296875
 20
-82.788818359375
 10
-18.374267578125
 20
-90.1796875
 10
-17.138671875
 20
-97.4375
 10
-15.861572265625
 20
-104.49609375
 10
-14.546630859375
 20
-111.2890625
 10
-13.196533203125
 20
-117.75
 10
-11.81494140625
 20
-123.8125
 10
-10.40478515625
 20
-129.40966796875
 10
-8.96923828125
 20
-134.47607421875
 10
-7.51123046875
 20
-138.94482421875
 10
-6.034423828125
 20
-142.74951171875
 10
-4.541748046875
 20
-145.823974609375
 10
-3.036376953125
 20
-148.101318359375
 10
-1.521484375
 20
-149.515380859375
 10
0.0
 20
-150.0
 10
1.54150390625
 20
-149.503662109375
 10
3.073486328125
 20
-148.064697265625
 10
4.593505859375
 20
-145.749755859375
 10
6.09814453125
 20
-142.626953125
 10
7.584228515625
 20
-138.76318359375
 10
9.049072265625
 20
-134.225830078125
 10
10.4892578125
 20
-129.082763671875
 10
11.90234375
 20
-123.400390625
 10
13.28515625
 20
-117.246826171875
 10
14.63427734375
 20
-110.689208984375
 10
15.947021484375
 20
-103.794921875
 10
17.220458984375
 20
-96.63134765625
 10
18.451171875
 20
-89.265625
 10
19.636474609375
 20
-81.765380859375
 10
20.773193359375
 20
-74.19775390625
 10
21.858642578125
 20
-66.63037109375
 10
22.889404296875
 20
-59.130126953125
 10
23.86279296875
 20
-51.764892578125
 10
24.775634765625
 20
-44.601806640625
 10
25.624755859375
 20
-37.708251953125
 10
26.407470703125
 20
-31.151611328125
 10
27.120361328125
 20
-24.998779296875
 10
27.760986328125
 20
-19.31787109375
 10
28.32568359375
 20
-14.17578125
 10
28.811767578125
 20
-9.64013671875
 10
29.21630859375
 20
-5.778076171875
 10
29.536376953125
 20
-2.656982421875
 10
29.7685546875
 20
-0.34423828125
 10
29.909912109375
 20
1.093017578125
 10
29.9580078125
 20
1.5869140625
 10
0.0
 20
0.0
  0
ENDBLK
  5
5C
330
5A
100
AcDbEntity
  8
0
100
AcDbBlockEnd
  0
BLOCK
  5
61
330
60
100
AcDbEntity
  8
0
100
AcDbBlockBegin
  2
cordura UV-SAIL-5.te_seam_patch.left_(6)
 70
0
 10
0.0
 20
0.0
 30
0.0
  3
cordura UV-SAIL-5.te_seam_patch.left_(6)
  1

  0
LWPOLYLINE
  5
63
330
60
100
AcDbEntity
  8
CUT
100
AcDbPolyline
 90
63
 70
1
 43
0.0
 10
0.0
 20
0.0
 10
29.9931640625
 20
-0.64599609375
 10
29.944580078125
 20
-1.133056640625
 10
29.800537109375
 20
-2.549072265625
 10
29.564697265625
 20
-4.82861328125
 10
29.23974609375
 20
-7.90478515625
 10
28.829345703125
 20
-11.7109375
 10
28.33642578125
 20
-16.18115234375
 10
27.763916015625
 20
-21.248779296875
 10
27.115478515625
 20
-26.84765625
 10
26.393798828125
 20
-32.9111328125
 10
25.6025390625
 20
-39.37255859375
 10
24.744384765625
 20
-46.16650390625
 10
23.822998046875
 20
-53.2255859375
 10
22.841064453125
 20
-60.483642578125
 10
21.802001953125
 20
-67.874755859375
 10
20.709228515625
 20
-75.331787109375
 10
19.5654296875
 20
-82.788818359375
 10
18.374267578125
 20
-90.1796875
 10
17.138671875
 20
-97.4375
 10
15.861572265625
 20
-104.49609375
 10
14.546630859375
 20
-111.2890625
 10
13.196533203125
 20
-117.75
 10
11.81494140625
 20
-123.8125
 10
10.40478515625
 20
-129.40966796875
 10
8.96923828125
 20
-134.47607421875
 10
7.51123046875
 20
-138.94482421875
 10
6.034423828125
 20
-142.74951171875
 10
4.541748046875
 20
-145.823974609375
 10
3.036376953125
 20
-148.101318359375
 10
1.521484375
 20
-149.515380859375
 10
0.0
 20
-150.0
 10
-1.54150390625
 20
-149.503662109375
 10
-3.073486328125
 20
-148.064697265625
 10
-4.593505859375
 20
-145.749755859375
 10
-6.09814453125
 20
-142.626953125
 10
-7.584228515625
 20
-138.76318359375
 10
-9.049072265625
 20
-134.225830078125
 10
-10.4892578125
 20
-129.082763671875
 10
-11.90234375
 20
-123.400390625
 10
-13.28515625
 20
-117.246826171875
 10
-14.63427734375
 20
-110.689208984375
 10
-15.947021484375
 20
-103.794921875
 10
-17.220458984375
 20
-96.63134765625
 10
-18.451171875
 20
-89.265625
 10
-19.636474609375
 20
-81.765380859375
 10
-20.773193359375
 20
-74.19775390625
 10
-21.858642578125
 20
-66.63037109375
 10
-22.889404296875
 20
-59.130126953125
 10
-23.86279296875
 20
-51.764892578125
 10
-24.775634765625
 20
-44.601806640625
 10
-25.624755859375
 20
-37.708251953125
 10
-26.407470703125
 20
-31.151611328125
 10
-27.120361328125
 20
-24.998779296875
 10
-27.760986328125
 20
-19.31787109375
 10
-28.32568359375
 20
-14.17578125
 10
-28.811767578125
 20
-9.64013671875
 10
-29.21630859375
 20
-5.778076171875
 10
-29.536376953125
 20
-2.656982421875
 10
-29.7685546875
 20
-0.34423828125
 10
-29.909912109375
 20
1.093017578125
 10
-29.9580078125
 20
1.5869140625
 10
0.0
 20
0.0
  0
ENDBLK
  5
62
330
60
100
AcDbEntity
  8
0
100
AcDbBlockEnd
  0
BLOCK
  5
67
330
66
100
AcDbEntity
  8
0
100
AcDbBlockBegin
  2
cordura UV-STRUT-5-SEGMENT-2-tab_(7)
 70
0
 10
0.0
 20
0.0
 30
0.0
  3
cordura UV-STRUT-5-SEGMENT-2-tab_(7)
  1

  0
LWPOLYLINE
  5
69
330
66
100
AcDbEntity
  8
CUT
100
AcDbPolyline
 90
41
 70
1
 43
0.0
 10
0.0
 20
0.0
 10
87.43408203125
 20
-0.000244140625
 10
115.3623046875
 20
-0.734130859375
 10
115.59375
 20
8.315185546875
 10
115.69140625
 20
12.37060546875
 10
115.7822265625
 20
16.3818359375
 10
115.869140625
 20
20.479248046875
 10
115.9482421875
 20
24.498779296875
 10
116.02294921875
 20
28.5478515625
 10
116.0908203125
 20
32.6123046875
 10
116.15380859375
 20
36.663330078125
 10
116.21044921875
 20
40.721923828125
 10
116.2607421875
 20
44.73828125
 10
116.30517578125
 20
48.794677734375
 10
116.34375
 20
52.853759765625
 10
116.376953125
 20
56.90771484375
 10
116.40380859375
 20
60.9677734375
 10
116.4248046875
 20
65.024658203125
 10
116.43896484375
 20
69.041259765625
 10
116.4482421875
 20
73.098876953125
 10
116.45166015625
 20
77.156494140625
 10
116.4482421875
 20
81.2138671875
 10
116.43896484375
 20
85.271240234375
 10
116.4248046875
 20
89.287109375
 10
116.40380859375
 20
93.344482421875
 10
116.376953125
 20
97.40625
 10
116.34423828125
 20
101.45947265625
 10
116.30517578125
 20
105.515625
 10
116.2607421875
 20
109.576171875
 10
116.2109375
 20
113.5927734375
 10
116.15380859375
 20
117.646240234375
 10
116.09130859375
 20
121.7021484375
 10
116.0234375
 20
125.76220703125
 10
115.94873046875
 20
129.815185546875
 10
115.86962890625
 20
133.840576171875
 10
115.78271484375
 20
137.9267578125
 10
115.69140625
 20
141.9443359375
 10
115.59423828125
 20
146.00048828125
 10
115.36279296875
 20
155.047119140625
 10
87.4345703125
 20
154.31298828125
 10
0.00048828125
 20
154.31298828125
  0
LWPOLYLINE
  5
6A
330
66
100
AcDbEntity
  8
PEN
100
AcDbPolyline
 90
8
 70
1
 43
0.0
 10
1.99951171875
 20
125.734619140625
 10
0.0
 20
123.73486328125
 10
0.0
 20
102.734619140625
 10
1.99951171875
 20
100.73486328125
 10
61.7998046875
 20
100.73486328125
 10
63.7998046875
 20
102.734619140625
 10
63.7998046875
 20
123.73486328125
 10
61.7998046875
 20
125.734619140625
  0
LWPOLYLINE
  5
6B
330
66
100
AcDbEntity
  8
PEN
100
AcDbPolyline
 90
22
 70
0
 43
0.0
 10
114.451171875
 20
82.19580078125
 10
108.45166015625
 20
82.11669921875
 10
114.41162109375
 20
85.195556640625
 10
108.37255859375
 20
88.1162109375
 10
114.33251953125
 20
91.195068359375
 10
108.29345703125
 20
94.11572265625
 10
114.25341796875
 20
97.194580078125
 10
108.21435546875
 20
100.115234375
 10
114.17431640625
 20
103.194091796875
 10
108.13525390625
 20
106.11474609375
 10
114.09521484375
 20
109.193359375
 10
108.05615234375
 20
112.114013671875
 10
114.01611328125
 20
115.193115234375
 10
107.97705078125
 20
118.113525390625
 10
113.93701171875
 20
121.192626953125
 10
107.89794921875
 20
124.11328125
 10
113.85791015625
 20
127.19189453125
 10
107.81884765625
 20
130.112548828125
 10
113.77880859375
 20
133.19140625
 10
107.73974609375
 20
136.112060546875
 10
113.69970703125
 20
139.190673828125
 10
107.7001953125
 20
139.11181640625
  0
ENDBLK
  5
68
330
66
100
AcDbEntity
  8
0
100
AcDbBlockEnd
  0
BLOCK
  5
6F
330
6E
100
AcDbEntity
  8
0
100
AcDbBlockBegin
  2
cordura UV-STRUT-5-SEGMENT-2.left-tab.left_(8)
 70
0
 10
0.0
 20
0.0
 30
0.0
  3
cordura UV-STRUT-5-SEGMENT-2.left-tab.left_(8)
  1

  0
LWPOLYLINE
  5
71
330
6E
100
AcDbEntity
  8
CUT
100
AcDbPolyline
 90
41
 70
1
 43
0.0
 10
0.0
 20
0.0
 10
-87.43408203125
 20
-0.000244140625
 10
-115.3623046875
 20
-0.734130859375
 10
-115.59375
 20
8.315185546875
 10
-115.69140625
 20
12.37060546875
 10
-115.7822265625
 20
16.3818359375
 10
-115.869140625
 20
20.479248046875
 10
-115.9482421875
 20
24.498779296875
 10
-116.02294921875
 20
28.5478515625
 10
-116.0908203125
 20
32.6123046875
 10
-116.15380859375
 20
36.663330078125
 10
-116.21044921875
 20
40.721923828125
 10
-116.2607421875
 20
44.73828125
 10
-116.30517578125
 20
48.794677734375
 10
-116.34375
 20
52.853759765625
 10
-116.376953125
 20
56.90771484375
 10
-116.40380859375
 20
60.9677734375
 10
-116.4248046875
 20
65.024658203125
 10
-116.43896484375
 20
69.041259765625
 10
-116.4482421875
 20
73.098876953125
 10
-116.45166015625
 20
77.156494140625
 10
-116.4482421875
 20
81.2138671875
 10
-116.43896484375
 20
85.271240234375
 10
-116.4248046875
 20
89.287109375
 10
-116.40380859375
 20
93.344482421875
 10
-116.376953125
 20
97.40625
 10
-116.34423828125
 20
101.45947265625
 10
-116.30517578125
 20
105.515625
 10
-116.2607421875
 20
109.576171875
 10
-116.2109375
 20
113.5927734375
 10
-116.15380859375
 20
117.646240234375
 10
-116.09130859375
 20
121.7021484375
 10
-116.0234375
 20
125.76220703125
 10
-115.94873046875
 20
129.815185546875
 10
-115.86962890625
 20
133.840576171875
 10
-115.78271484375
 20
137.9267578125
 10
-115.69140625
 20
141.9443359375
 10
-115.59423828125
 20
146.00048828125
 10
-115.36279296875
 20
155.047119140625
 10
-87.4345703125
 20
154.31298828125
 10
-0.00048828125
 20
154.31298828125
  0
LWPOLYLINE
  5
72
330
6E
100
AcDbEntity
  8
PEN
100
AcDbPolyline
 90
8
 70
1
 43
0.0
 10
-1.99951171875
 20
125.734619140625
 10
0.0
 20
123.73486328125
 10
0.0
 20
102.734619140625
 10
-1.99951171875
 20
100.73486328125
 10
-61.7998046875
 20
100.73486328125
 10
-63.7998046875
 20
102.734619140625
 10
-63.7998046875
 20
123.73486328125
 10
-61.7998046875
 20
125.734619140625
  0
LWPOLYLINE
  5
73
330
6E
100
AcDbEntity
  8
PEN
100
AcDbPolyline
 90
22
 70
0
 43
0.0
 10
-108.45166015625
 20
82.11669921875
 10
-114.451171875
 20
82.19580078125
 10
-108.412109375
 20
85.116455078125
 10
-114.3720703125
 20
88.1953125
 10
-108.3330078125
 20
91.115966796875
 10
-114.29296875
 20
94.19482421875
 10
-108.25390625
 20
97.115478515625
 10
-114.2138671875
 20
100.1943359375
 10
-108.1748046875
 20
103.114990234375
 10
-114.134765625
 20
106.193603515625
 10
-108.095703125
 20
109.114501953125
 10
-114.0556640625
 20
112.193115234375
 10
-108.0166015625
 20
115.11376953125
 10
-113.9765625
 20
118.19287109375
 10
-107.9375
 20
121.113525390625
 10
-113.8974609375
 20
124.192138671875
 10
-107.8583984375
 20
127.11279296875
 10
-113.818359375
 20
130.191650390625
 10
-107.779296875
 20
133.1123046875
 10
-113.7392578125
 20
136.191162109375
 10
-107.7001953125
 20
139.11181640625
 10
-113.69970703125
 20
139.190673828125
  0
ENDBLK
  5
70
330
6E
100
AcDbEntity
  8
0
100
AcDbBlockEnd
  0
BLOCK
  5
77
330
76
100
AcDbEntity
  8
0
100
AcDbBlockBegin
  2
cordura UV-LE-1.seg_seam_patch_(9)
 70
0
 10
0.0
 20
0.0
 30
0.0
  3
cordura UV-LE-1.seg_seam_patch_(9)
  1

  0
LWPOLYLINE
  5
79
330
76
100
AcDbEntity
  8
CUT
100
AcDbPolyline
 90
17
 70
1
 43
0.0
 10
0.0
 20
0.0
 10
20.0
 20
0.0
 10
20.0
 20
-197.48828125
 10
19.659255981445312
 20
-200.07644653320312
 10
18.660247802734375
 20
-202.48828125
 10
17.071075439453125
 20
-204.559326171875
 10
15.0
 20
-206.14852905273438
 10
12.58819580078125
 20
-207.14752197265625
 10
10.0
 20
-207.48828125
 10
-10.0
 20
-207.48828125
 10
-12.588180541992188
 20
-207.14752197265625
 10
-15.0
 20
-206.14852905273438
 10
-17.071060180664062
 20
-204.559326171875
 10
-18.660247802734375
 20
-202.48825073242188
 10
-19.659255981445312
 20
-200.07644653320312
 10
-20.0
 20
-197.48828125
 10
-20.0
 20
0.0
  0
ENDBLK
  5
78
330
76
100
AcDbEntity
  8
0
100
AcDbBlockEnd
  0
BLOCK
  5
7D
330
7C
100
AcDbEntity
  8
0
100
AcDbBlockBegin
  2
cordura UV-LE-5.seg_seam_patch_(10)
 70
0
 10
0.0
 20
0.0
 30
0.0
  3
cordura UV-LE-5.seg_seam_patch_(10)
  1

  0
LWPOLYLINE
  5
7F
330
7C
100
AcDbEntity
  8
CUT
100
AcDbPolyline
 90
17
 70
1
 43
0.0
 10
0.0
 20
0.0
 10
15.000244140625
 20
0.0
 10
15.000244140625
 20
-141.9261016845703
 10
14.74462890625
 20
-143.86724853515625
 10
13.9951171875
 20
-145.6761016845703
 10
12.803466796875
 20
-147.22940063476562
 10
11.25
 20
-148.42127990722656
 10
9.441162109375
 20
-149.17054748535156
 10
7.5
 20
-149.4261016845703
 10
-7.5
 20
-149.4261016845703
 10
-9.441162109375
 20
-149.17054748535156
 10
-11.25
 20
-148.42127990722656
 10
-12.80322265625
 20
-147.22940063476562
 10
-13.9951171875
 20
-145.6761016845703
 10
-14.744384765625
 20
-143.86724853515625
 10
-15.0
 20
-141.9261016845703
 10
-15.0
 20
-5.7220458984375e-06
  0
ENDBLK
  5
7E
330
7C
100
AcDbEntity
  8
0
100
AcDbBlockEnd
  0
BLOCK
  5
83
330
82
100
AcDbEntity
  8
0
100
AcDbBlockBegin
  2
cordura UV-LE-5.seg_seam_patch.left_(11)
 70
0
 10
0.0
 20
0.0
 30
0.0
  3
cordura UV-LE-5.seg_seam_patch.left_(11)
  1

  0
LWPOLYLINE
  5
85
330
82
100
AcDbEntity
  8
CUT
100
AcDbPolyline
 90
17
 70
1
 43
0.0
 10
0.0
 20
0.0
 10
15.0
 20
0.0
 10
15.0
 20
-141.9261016845703
 10
14.744384765625
 20
-143.86724853515625
 10
13.9951171875
 20
-145.6761016845703
 10
12.80322265625
 20
-147.22940063476562
 10
11.25
 20
-148.42127990722656
 10
9.441162109375
 20
-149.17054748535156
 10
7.5
 20
-149.4261016845703
 10
-7.5
 20
-149.4261016845703
 10
-9.441162109375
 20
-149.17054748535156
 10
-11.25
 20
-148.42127990722656
 10
-12.803466796875
 20
-147.22940063476562
 10
-13.9951171875
 20
-145.6761016845703
 10
-14.74462890625
 20
-143.86724853515625
 10
-15.000244140625
 20
-141.9261016845703
 10
-15.000244140625
 20
-5.7220458984375e-06
  0
ENDBLK
  5
84
330
82
100
AcDbEntity
  8
0
100
AcDbBlockEnd
  0
BLOCK
  5
89
330
88
100
AcDbEntity
  8
0
100
AcDbBlockBegin
  2
cordura UV-LE-6.seg_seam_patch_(12)
 70
0
 10
0.0
 20
0.0
 30
0.0
  3
cordura UV-LE-6.seg_seam_patch_(12)
  1

  0
LWPOLYLINE
  5
8B
330
88
100
AcDbEntity
  8
CUT
100
AcDbPolyline
 90
17
 70
1
 43
0.0
 10
0.0
 20
0.0
 10
15.000244140625
 20
0.0
 10
15.000244140625
 20
-130.7563934326172
 10
14.74462890625
 20
-132.69754028320312
 10
13.995361328125
 20
-134.5063934326172
 10
12.803466796875
 20
-136.0596923828125
 10
11.25
 20
-137.25157165527344
 10
9.441162109375
 20
-138.00082397460938
 10
7.5
 20
-138.25637817382812
 10
-7.499755859375
 20
-138.25637817382812
 10
-9.44091796875
 20
-138.00082397460938
 10
-11.25
 20
-137.25157165527344
 10
-12.80322265625
 20
-136.0596923828125
 10
-13.9951171875
 20
-134.5063934326172
 10
-14.744384765625
 20
-132.69754028320312
 10
-15.0
 20
-130.7563934326172
 10
-15.0
 20
0.0
  0
ENDBLK
  5
8A
330
88
100
AcDbEntity
  8
0
100
AcDbBlockEnd
  0
BLOCK
  5
8F
330
8E
100
AcDbEntity
  8
0
100
AcDbBlockBegin
  2
cordura UV-LE-6.seg_seam_patch.left_(13)
 70
0
 10
0.0
 20
0.0
 30
0.0
  3
cordura UV-LE-6.seg_seam_patch.left_(13)
  1

  0
LWPOLYLINE
  5
91
330
8E
100
AcDbEntity
  8
CUT
100
AcDbPolyline
 90
17
 70
1
 43
0.0
 10
0.0
 20
0.0
 10
15.0
 20
0.0
 10
15.0
 20
-130.7563934326172
 10
14.744384765625
 20
-132.69754028320312
 10
13.9951171875
 20
-134.5063934326172
 10
12.80322265625
 20
-136.0596923828125
 10
11.25
 20
-137.25157165527344
 10
9.44091796875
 20
-138.00082397460938
 10
7.499755859375
 20
-138.25637817382812
 10
-7.5
 20
-138.25637817382812
 10
-9.441162109375
 20
-138.00082397460938
 10
-11.25
 20
-137.25157165527344
 10
-12.803466796875
 20
-136.0596923828125
 10
-13.995361328125
 20
-134.5063934326172
 10
-14.74462890625
 20
-132.69754028320312
 10
-15.000244140625
 20
-130.7563934326172
 10
-15.000244140625
 20
0.0
  0
ENDBLK
  5
90
330
8E
100
AcDbEntity
  8
0
100
AcDbBlockEnd
  0
BLOCK
  5
95
330
94
100
AcDbEntity
  8
0
100
AcDbBlockBegin
  2
cordura UV-LE-7.seg_seam_patch_(14)
 70
0
 10
0.0
 20
0.0
 30
0.0
  3
cordura UV-LE-7.seg_seam_patch_(14)
  1

  0
LWPOLYLINE
  5
97
330
94
100
AcDbEntity
  8
CUT
100
AcDbPolyline
 90
17
 70
1
 43
0.0
 10
0.0
 20
0.0
 10
15.0
 20
0.0
 10
15.0
 20
-129.04205322265625
 10
14.744384765625
 20
-130.9832000732422
 10
13.9951171875
 20
-132.79205322265625
 10
12.802978515625
 20
-134.34535217285156
 10
11.25
 20
-135.5372314453125
 10
9.44140625
 20
-136.2864990234375
 10
7.500244140625
 20
-136.54205322265625
 10
-7.500244140625
 20
-136.54205322265625
 10
-9.44140625
 20
-136.2864990234375
 10
-11.25
 20
-135.5372314453125
 10
-12.802978515625
 20
-134.34535217285156
 10
-13.9951171875
 20
-132.79205322265625
 10
-14.744140625
 20
-130.9832000732422
 10
-14.999755859375
 20
-129.04205322265625
 10
-14.999755859375
 20
5.7220458984375e-06
  0
ENDBLK
  5
96
330
94
100
AcDbEntity
  8
0
100
AcDbBlockEnd
  0
BLOCK
  5
9B
330
9A
100
AcDbEntity
  8
0
100
AcDbBlockBegin
  2
cordura UV-LE-7.seg_seam_patch.left_(15)
 70
0
 10
0.0
 20
0.0
 30
0.0
  3
cordura UV-LE-7.seg_seam_patch.left_(15)
  1

  0
LWPOLYLINE
  5
9D
330
9A
100
AcDbEntity
  8
CUT
100
AcDbPolyline
 90
17
 70
1
 43
0.0
 10
0.0
 20
0.0
 10
14.999755859375
 20
0.0
 10
14.999755859375
 20
-129.04205322265625
 10
14.744140625
 20
-130.9832000732422
 10
13.9951171875
 20
-132.79205322265625
 10
12.802978515625
 20
-134.34535217285156
 10
11.25
 20
-135.5372314453125
 10
9.44140625
 20
-136.2864990234375
 10
7.500244140625
 20
-136.54205322265625
 10
-7.500244140625
 20
-136.54205322265625
 10
-9.44140625
 20
-136.2864990234375
 10
-11.25
 20
-135.5372314453125
 10
-12.802978515625
 20
-134.34535217285156
 10
-13.9951171875
 20
-132.79205322265625
 10
-14.744384765625
 20
-130.9832000732422
 10
-15.0
 20
-129.04205322265625
 10
-15.0
 20
5.7220458984375e-06
  0
ENDBLK
  5
9C
330
9A
100
AcDbEntity
  8
0
100
AcDbBlockEnd
  0
BLOCK
  5
A1
330
A0
100
AcDbEntity
  8
0
100
AcDbBlockBegin
  2
cordura UV-LE-8.seg_seam_patch_(16)
 70
0
 10
0.0
 20
0.0
 30
0.0
  3
cordura UV-LE-8.seg_seam_patch_(16)
  1

  0
LWPOLYLINE
  5
A3
330
A0
100
AcDbEntity
  8
CUT
100
AcDbPolyline
 90
17
 70
1
 43
0.0
 10
0.0
 20
0.0
 10
15.0
 20
0.0
 10
15.0
 20
-121.37664031982422
 10
14.744140625
 20
-123.31779479980469
 10
13.9951171875
 20
-125.12664794921875
 10
12.80322265625
 20
-126.67996215820312
 10
11.25
 20
-127.87184143066406
 10
9.44140625
 20
-128.62107849121094
 10
7.5
 20
-128.8766326904297
 10
-7.5
 20
-128.8766326904297
 10
-9.44140625
 20
-128.62107849121094
 10
-11.25
 20
-127.87184143066406
 10
-12.80322265625
 20
-126.67996215820312
 10
-13.9951171875
 20
-125.12664794921875
 10
-14.744140625
 20
-123.31779479980469
 10
-15.0
 20
-121.37664031982422
 10
-15.0
 20
-1.9073486328125e-06
  0
ENDBLK
  5
A2
330
A0
100
AcDbEntity
  8
0
100
AcDbBlockEnd
  0
BLOCK
  5
A7
330
A6
100
AcDbEntity
  8
0
100
AcDbBlockBegin
  2
cordura UV-LE-8.seg_seam_patch.left_(17)
 70
0
 10
0.0
 20
0.0
 30
0.0
  3
cordura UV-LE-8.seg_seam_patch.left_(17)
  1

  0
LWPOLYLINE
  5
A9
330
A6
100
AcDbEntity
  8
CUT
100
AcDbPolyline
 90
17
 70
1
 43
0.0
 10
0.0
 20
0.0
 10
15.0
 20
0.0
 10
15.0
 20
-121.37664031982422
 10
14.744140625
 20
-123.31779479980469
 10
13.9951171875
 20
-125.12664794921875
 10
12.80322265625
 20
-126.67996215820312
 10
11.25
 20
-127.87184143066406
 10
9.44140625
 20
-128.62107849121094
 10
7.5
 20
-128.8766326904297
 10
-7.5
 20
-128.8766326904297
 10
-9.44140625
 20
-128.62107849121094
 10
-11.25
 20
-127.87184143066406
 10
-12.80322265625
 20
-126.67996215820312
 10
-13.9951171875
 20
-125.12664794921875
 10
-14.744140625
 20
-123.31779479980469
 10
-15.0
 20
-121.37664031982422
 10
-15.0
 20
-1.9073486328125e-06
  0
ENDBLK
  5
A8
330
A6
100
AcDbEntity
  8
0
100
AcDbBlockEnd
  0
BLOCK
  5
AD
330
AC
100
AcDbEntity
  8
0
100
AcDbBlockBegin
  2
cordura UV-LE-9.seg_seam_patch_(18)
 70
0
 10
0.0
 20
0.0
 30
0.0
  3
cordura UV-LE-9.seg_seam_patch_(18)
  1

  0
LWPOLYLINE
  5
AF
330
AC
100
AcDbEntity
  8
CUT
100
AcDbPolyline
 90
17
 70
1
 43
0.0
 10
0.0
 20
0.0
 10
14.99951171875
 20
0.0
 10
14.99951171875
 20
-120.87101745605469
 10
14.744140625
 20
-122.81216430664062
 10
13.9951171875
 20
-124.62101745605469
 10
12.802734375
 20
-126.17433166503906
 10
11.25
 20
-127.3662109375
 10
9.44140625
 20
-128.11546325683594
 10
7.5
 20
-128.3710174560547
 10
-7.50048828125
 20
-128.3710174560547
 10
-9.44140625
 20
-128.11546325683594
 10
-11.25
 20
-127.3662109375
 10
-12.80322265625
 20
-126.17433166503906
 10
-13.9951171875
 20
-124.62101745605469
 10
-14.74462890625
 20
-122.81216430664062
 10
-15.0
 20
-120.87101745605469
 10
-15.0
 20
-5.7220458984375e-06
  0
ENDBLK
  5
AE
330
AC
100
AcDbEntity
  8
0
100
AcDbBlockEnd
  0
BLOCK
  5
B3
330
B2
100
AcDbEntity
  8
0
100
AcDbBlockBegin
  2
cordura UV-LE-9.seg_seam_patch.left_(19)
 70
0
 10
0.0
 20
0.0
 30
0.0
  3
cordura UV-LE-9.seg_seam_patch.left_(19)
  1

  0
LWPOLYLINE
  5
B5
330
B2
100
AcDbEntity
  8
CUT
100
AcDbPolyline
 90
17
 70
1
 43
0.0
 10
0.0
 20
0.0
 10
15.0
 20
0.0
 10
15.0
 20
-120.87101745605469
 10
14.74462890625
 20
-122.81216430664062
 10
13.9951171875
 20
-124.62101745605469
 10
12.80322265625
 20
-126.17433166503906
 10
11.25
 20
-127.3662109375
 10
9.44140625
 20
-128.11546325683594
 10
7.50048828125
 20
-128.3710174560547
 10
-7.5
 20
-128.3710174560547
 10
-9.44140625
 20
-128.11546325683594
 10
-11.25
 20
-127.3662109375
 10
-12.802734375
 20
-126.17433166503906
 10
-13.9951171875
 20
-124.62101745605469
 10
-14.744140625
 20
-122.81216430664062
 10
-14.99951171875
 20
-120.87101745605469
 10
-14.99951171875
 20
-5.7220458984375e-06
  0
ENDBLK
  5
B4
330
B2
100
AcDbEntity
  8
0
100
AcDbBlockEnd
  0
BLOCK
  5
B9
330
B8
100
AcDbEntity
  8
0
100
AcDbBlockBegin
  2
cordura UV-LE-10-Tip-Patch_(20)
 70
0
 10
0.0
 20
0.0
 30
0.0
  3
cordura UV-LE-10-Tip-Patch_(20)
  1

  0
LWPOLYLINE
  5
BB
330
B8
100
AcDbEntity
  8
CUT
100
AcDbPolyline
 90
74
 70
1
 43
0.0
 10
0.0
 20
0.0
 10
3.958984375
 20
4.064262390136719
 10
7.66064453125
 20
8.360008239746094
 10
11.08447265625
 20
12.877464294433594
 10
14.21337890625
 20
17.602806091308594
 10
17.03271484375
 20
22.518753051757812
 10
19.53369140625
 20
27.605247497558594
 10
21.71240234375
 20
32.84044647216797
 10
23.568359375
 20
38.201805114746094
 10
25.10888671875
 20
43.66627883911133
 10
26.34326171875
 20
49.21174621582031
 10
27.28759765625
 20
54.817317962646484
 10
27.9599609375
 20
60.46464538574219
 10
28.3818359375
 20
66.13774108886719
 10
28.57763671875
 20
71.82316589355469
 10
28.57177734375
 20
77.51002502441406
 10
28.3896484375
 20
83.191162109375
 10
28.0546875
 20
88.86122131347656
 10
27.58837890625
 20
94.51725769042969
 10
27.01123046875
 20
100.15753173828125
 10
26.33642578125
 20
105.78280639648438
 10
25.5771484375
 20
111.39384460449219
 10
24.740234375
 20
116.99191284179688
 10
23.828125
 20
122.5784912109375
 10
22.83740234375
 20
128.1534423828125
 10
21.76171875
 20
133.7158660888672
 10
20.58935546875
 20
139.26348876953125
 10
19.30615234375
 20
144.79161071777344
 10
17.8935546875
 20
150.29290771484375
 10
16.33203125
 20
155.75836181640625
 10
14.6005859375
 20
161.17587280273438
 10
12.677734375
 20
166.52938842773438
 10
10.54345703125
 20
171.8028564453125
 10
8.17919921875
 20
176.9752197265625
 10
5.5673828125
 20
182.0247802734375
 10
2.69873046875
 20
186.92816162109375
 10
-0.4365234375
 20
191.66143798828125
 10
-46.03466796875
 20
152.66363525390625
 10
-44.39892578125
 20
149.7550506591797
 10
-42.962890625
 20
146.74317932128906
 10
-41.71435546875
 20
143.64837646484375
 10
-40.63720703125
 20
140.48973083496094
 10
-39.71142578125
 20
137.28321838378906
 10
-38.91357421875
 20
134.04293823242188
 10
-38.2197265625
 20
130.77767944335938
 10
-37.60693359375
 20
127.49655151367188
 10
-37.05224609375
 20
124.20571899414062
 10
-36.53369140625
 20
120.90765380859375
 10
-36.0361328125
 20
117.60662841796875
 10
-35.54248046875
 20
114.30455017089844
 10
-35.044921875
 20
111.00297546386719
 10
-34.5361328125
 20
107.70230102539062
 10
-34.0146484375
 20
104.40421295166016
 10
-33.4814453125
 20
101.10813903808594
 10
-32.943359375
 20
97.81291961669922
 10
-32.412109375
 20
94.51725769042969
 10
-31.89892578125
 20
91.21846008300781
 10
-31.423828125
 20
87.9144515991211
 10
-31.00732421875
 20
84.6029281616211
 10
-30.671875
 20
81.28254699707031
 10
-30.443359375
 20
77.9530029296875
 10
-30.34716796875
 20
74.61727142333984
 10
-30.40966796875
 20
71.28096008300781
 10
-30.654296875
 20
67.9529037475586
 10
-31.103515625
 20
64.64657592773438
 10
-31.77490234375
 20
61.37755584716797
 10
-32.68115234375
 20
58.166019439697266
 10
-33.830078125
 20
55.033103942871094
 10
-35.224609375
 20
52.00062561035156
 10
-36.85986328125
 20
49.09139633178711
 10
-38.7275390625
 20
46.32514572143555
 10
-40.8134765625
 20
43.719303131103516
 10
-43.09912109375
 20
41.287132263183594
 10
-45.56396484375
 20
39.03754425048828
  0
ENDBLK
  5
BA
330
B8
100
AcDbEntity
  8
0
100
AcDbBlockEnd
  0
BLOCK
  5
BF
330
BE
100
AcDbEntity
  8
0
100
AcDbBlockBegin
  2
cordura UV-LE-10.left-Tip-Patch.left_(21)
 70
0
 10
0.0
 20
0.0
 30
0.0
  3
cordura UV-LE-10.left-Tip-Patch.left_(21)
  1

  0
LWPOLYLINE
  5
C1
330
BE
100
AcDbEntity
  8
CUT
100
AcDbPolyline
 90
74
 70
1
 43
0.0
 10
0.0
 20
0.0
 10
-3.958984375
 20
4.064262390136719
 10
-7.66064453125
 20
8.360008239746094
 10
-11.08447265625
 20
12.877464294433594
 10
-14.21337890625
 20
17.602806091308594
 10
-17.03271484375
 20
22.518753051757812
 10
-19.53369140625
 20
27.605247497558594
 10
-21.71240234375
 20
32.84044647216797
 10
-23.568359375
 20
38.201805114746094
 10
-25.10888671875
 20
43.66627883911133
 10
-26.34326171875
 20
49.21174621582031
 10
-27.28759765625
 20
54.817317962646484
 10
-27.9599609375
 20
60.46464538574219
 10
-28.3818359375
 20
66.13774108886719
 10
-28.57763671875
 20
71.82316589355469
 10
-28.57177734375
 20
77.51002502441406
 10
-28.3896484375
 20
83.191162109375
 10
-28.0546875
 20
88.86122131347656
 10
-27.58837890625
 20
94.51725769042969
 10
-27.01123046875
 20
100.15753173828125
 10
-26.33642578125
 20
105.78280639648438
 10
-25.5771484375
 20
111.39384460449219
 10
-24.740234375
 20
116.99191284179688
 10
-23.828125
 20
122.5784912109375
 10
-22.83740234375
 20
128.1534423828125
 10
-21.76171875
 20
133.7158660888672
 10
-20.58935546875
 20
139.26348876953125
 10
-19.30615234375
 20
144.79161071777344
 10
-17.8935546875
 20
150.29290771484375
 10
-16.33203125
 20
155.75836181640625
 10
-14.6005859375
 20
161.17587280273438
 10
-12.677734375
 20
166.52938842773438
 10
-10.54345703125
 20
171.8028564453125
 10
-8.17919921875
 20
176.9752197265625
 10
-5.5673828125
 20
182.0247802734375
 10
-2.69873046875
 20
186.92816162109375
 10
0.4365234375
 20
191.66143798828125
 10
46.03466796875
 20
152.66363525390625
 10
44.39892578125
 20
149.7550506591797
 10
42.962890625
 20
146.74317932128906
 10
41.71435546875
 20
143.64837646484375
 10
40.63720703125
 20
140.48973083496094
 10
39.71142578125
 20
137.28321838378906
 10
38.91357421875
 20
134.04293823242188
 10
38.2197265625
 20
130.77767944335938
 10
37.60693359375
 20
127.49655151367188
 10
37.05224609375
 20
124.20571899414062
 10
36.53369140625
 20
120.90765380859375
 10
36.0361328125
 20
117.60662841796875
 10
35.54248046875
 20
114.30455017089844
 10
35.044921875
 20
111.00297546386719
 10
34.5361328125
 20
107.70230102539062
 10
34.0146484375
 20
104.40421295166016
 10
33.4814453125
 20
101.10813903808594
 10
32.943359375
 20
97.81291961669922
 10
32.412109375
 20
94.51725769042969
 10
31.89892578125
 20
91.21846008300781
 10
31.423828125
 20
87.9144515991211
 10
31.00732421875
 20
84.6029281616211
 10
30.671875
 20
81.28254699707031
 10
30.443359375
 20
77.9530029296875
 10
30.34716796875
 20
74.61727142333984
 10
30.40966796875
 20
71.28096008300781
 10
30.654296875
 20
67.9529037475586
 10
31.103515625
 20
64.64657592773438
 10
31.77490234375
 20
61.37755584716797
 10
32.68115234375
 20
58.166019439697266
 10
33.830078125
 20
55.033103942871094
 10
35.224609375
 20
52.00062561035156
 10
36.85986328125
 20
49.09139633178711
 10
38.7275390625
 20
46.32514572143555
 10
40.8134765625
 20
43.719303131103516
 10
43.09912109375
 20
41.287132263183594
 10
45.56396484375
 20
39.03754425048828
  0
ENDBLK
  5
C0
330
BE
100
AcDbEntity
  8
0
100
AcDbBlockEnd
  0
BLOCK
  5
C5
330
C4
100
AcDbEntity
  8
0
100
AcDbBlockBegin
  2
cordura UV-LE-10.tip_line_patch_(22)
 70
0
 10
0.0
 20
0.0
 30
0.0
  3
cordura UV-LE-10.tip_line_patch_(22)
  1

  0
LWPOLYLINE
  5
C7
330
C4
100
AcDbEntity
  8
CUT
100
AcDbPolyline
 90
23
 70
1
 43
0.0
 10
0.0
 20
0.0
 10
0.0
 20
-230.0
 10
-64.86865234375
 20
-218.493408203125
 10
-69.9658203125
 20
-216.907470703125
 10
-74.71484375
 20
-214.067138671875
 10
-78.79345703125
 20
-210.165283203125
 10
-81.9228515625
 20
-205.468017578125
 10
-83.890625
 20
-200.29541015625
 10
-84.5615234375
 20
-195.0
 10
-84.5615234375
 20
-101.0
 10
-84.41845703125
 20
-95.157470703125
 10
-83.998046875
 20
-88.38037109375
 10
-83.330078125
 20
-81.131103515625
 10
-82.4599609375
 20
-73.90283203125
 10
-81.4462890625
 20
-67.18896484375
 10
-80.3583984375
 20
-61.446533203125
 10
-71.3544921875
 20
-19.55322265625
 10
-69.5859375
 20
-14.4921875
 10
-66.57421875
 20
-9.7763671875
 10
-62.525390625
 20
-5.7265625
 10
-57.71484375
 20
-2.619384765625
 10
-52.4716796875
 20
-0.666015625
 10
-47.1513671875
 20
0.000244140625
  0
ENDBLK
  5
C6
330
C4
100
AcDbEntity
  8
0
100
AcDbBlockEnd
  0
BLOCK
  5
CB
330
CA
100
AcDbEntity
  8
0
100
AcDbBlockBegin
  2
cordura UV-LE-10.tip_line_patch.left_(23)
 70
0
 10
0.0
 20
0.0
 30
0.0
  3
cordura UV-LE-10.tip_line_patch.left_(23)
  1

  0
LWPOLYLINE
  5
CD
330
CA
100
AcDbEntity
  8
CUT
100
AcDbPolyline
 90
23
 70
1
 43
0.0
 10
0.0
 20
0.0
 10
0.0
 20
-230.0
 10
64.86865234375
 20
-218.493408203125
 10
69.9658203125
 20
-216.907470703125
 10
74.71484375
 20
-214.067138671875
 10
78.79345703125
 20
-210.165283203125
 10
81.9228515625
 20
-205.468017578125
 10
83.890625
 20
-200.29541015625
 10
84.5615234375
 20
-195.0
 10
84.5615234375
 20
-101.0
 10
84.41845703125
 20
-95.157470703125
 10
83.998046875
 20
-88.38037109375
 10
83.330078125
 20
-81.131103515625
 10
82.4599609375
 20
-73.90283203125
 10
81.4462890625
 20
-67.18896484375
 10
80.3583984375
 20
-61.446533203125
 10
71.3544921875
 20
-19.55322265625
 10
69.5859375
 20
-14.4921875
 10
66.57421875
 20
-9.7763671875
 10
62.525390625
 20
-5.7265625
 10
57.71484375
 20
-2.619384765625
 10
52.4716796875
 20
-0.666015625
 10
47.1513671875
 20
0.000244140625
  0
ENDBLK
  5
CC
330
CA
100
AcDbEntity
  8
0
100
AcDbBlockEnd
  0
BLOCK
  5
D1
330
D0
100
AcDbEntity
  8
0
100
AcDbBlockBegin
  2
cordura UV-LE-10.tab_(24)
 70
0
 10
0.0
 20
0.0
 30
0.0
  3
cordura UV-LE-10.tab_(24)
  1

  0
LWPOLYLINE
  5
D3
330
D0
100
AcDbEntity
  8
CUT
100
AcDbPolyline
 90
25
 70
1
 43
0.0
 10
0.0
 20
0.0
 10
-61.953125
 20
15.549976348876953
 10
-43.9599609375
 20
87.23515319824219
 10
74.4970703125
 20
57.50271987915039
 10
103.38671875
 20
57.502723693847656
 10
104.34228515625
 20
48.30397033691406
 10
104.74560546875
 20
43.50646209716797
 10
105.03369140625
 20
38.67156982421875
 10
105.181640625
 20
33.813026428222656
 10
105.162109375
 20
28.926265716552734
 10
104.94677734375
 20
24.02084732055664
 10
104.5068359375
 20
19.09449005126953
 10
103.81689453125
 20
14.16912841796875
 10
102.85595703125
 20
9.285755157470703
 10
101.6015625
 20
4.4410552978515625
 10
100.04052734375
 20
-0.33153533935546875
 10
98.16650390625
 20
-5.001243591308594
 10
95.97802734375
 20
-9.540267944335938
 10
93.482421875
 20
-13.916397094726562
 10
90.6875
 20
-18.11444854736328
 10
87.611328125
 20
-22.107460021972656
 10
84.27783203125
 20
-25.877197265625
 10
77.55322265625
 20
-32.54484558105469
 10
55.9619140625
 20
-14.046318054199219
 10
0.0
 20
0.0
  0
LWPOLYLINE
  5
D4
330
D0
100
AcDbEntity
  8
PEN
100
AcDbPolyline
 90
20
 70
0
 43
0.0
 10
96.90576171875
 20
44.074241638183594
 10
102.61083984375
 20
42.215087890625
 10
95.9765625
 20
41.221893310546875
 10
100.75146484375
 20
36.51039123535156
 10
94.1171875
 20
35.51719665527344
 10
98.89208984375
 20
30.80569839477539
 10
92.2578125
 20
29.8125057220459
 10
97.033203125
 20
25.101003646850586
 10
90.39892578125
 20
24.10780906677246
 10
95.173828125
 20
19.39630889892578
 10
88.53955078125
 20
18.40311050415039
 10
93.314453125
 20
13.691612243652344
 10
86.6806640625
 20
12.698417663574219
 10
91.45556640625
 20
7.986919403076172
 10
84.8212890625
 20
6.993721008300781
 10
89.59619140625
 20
2.2822227478027344
 10
82.9619140625
 20
1.2890243530273438
 10
87.7373046875
 20
-3.422473907470703
 10
81.10302734375
 20
-4.415668487548828
 10
86.8076171875
 20
-6.274822235107422
  0
LWPOLYLINE
  5
D5
330
D0
100
AcDbEntity
  8
PEN
100
AcDbPolyline
 90
8
 70
1
 43
0.0
 10
16.1376953125
 20
21.162452697753906
 10
18.56494140625
 20
22.615392684936523
 10
23.6767578125
 20
42.98360061645508
 10
22.22412109375
 20
45.41032028198242
 10
-22.39208984375
 20
56.608787536621094
 10
-24.81884765625
 20
55.15584945678711
 10
-29.93115234375
 20
34.78763961791992
 10
-28.47802734375
 20
32.360923767089844
  0
ENDBLK
  5
D2
330
D0
100
AcDbEntity
  8
0
100
AcDbBlockEnd
  0
BLOCK
  5
D9
330
D8
100
AcDbEntity
  8
0
100
AcDbBlockBegin
  2
cordura UV-LE-10.tab_left_(25)
 70
0
 10
0.0
 20
0.0
 30
0.0
  3
cordura UV-LE-10.tab_left_(25)
  1

  0
LWPOLYLINE
  5
DB
330
D8
100
AcDbEntity
  8
CUT
100
AcDbPolyline
 90
25
 70
1
 43
0.0
 10
0.0
 20
0.0
 10
61.953125
 20
15.549976348876953
 10
43.9599609375
 20
87.23515319824219
 10
-74.4970703125
 20
57.50271987915039
 10
-103.38671875
 20
57.502723693847656
 10
-104.34228515625
 20
48.30397033691406
 10
-104.74560546875
 20
43.50646209716797
 10
-105.03369140625
 20
38.67156982421875
 10
-105.181640625
 20
33.813026428222656
 10
-105.162109375
 20
28.926265716552734
 10
-104.94677734375
 20
24.02084732055664
 10
-104.5068359375
 20
19.094501495361328
 10
-103.81689453125
 20
14.169116973876953
 10
-102.85595703125
 20
9.285755157470703
 10
-101.6015625
 20
4.4410552978515625
 10
-100.04052734375
 20
-0.33153533935546875
 10
-98.16650390625
 20
-5.001243591308594
 10
-95.97802734375
 20
-9.540267944335938
 10
-93.482421875
 20
-13.916397094726562
 10
-90.6875
 20
-18.11444854736328
 10
-87.611328125
 20
-22.107460021972656
 10
-84.27783203125
 20
-25.877197265625
 10
-77.55322265625
 20
-32.54484558105469
 10
-55.9619140625
 20
-14.046318054199219
 10
0.0
 20
0.0
  0
LWPOLYLINE
  5
DC
330
D8
100
AcDbEntity
  8
PEN
100
AcDbPolyline
 90
20
 70
0
 43
0.0
 10
-102.61083984375
 20
42.215087890625
 10
-96.90576171875
 20
44.074241638183594
 10
-101.6806640625
 20
39.36273956298828
 10
-95.04638671875
 20
38.369544982910156
 10
-99.82177734375
 20
33.658042907714844
 10
-93.1875
 20
32.664852142333984
 10
-97.96240234375
 20
27.953351974487305
 10
-91.328125
 20
26.960159301757812
 10
-96.103515625
 20
22.248653411865234
 10
-89.46875
 20
21.255462646484375
 10
-94.24462890625
 20
16.543956756591797
 10
-87.6103515625
 20
15.550769805908203
 10
-92.38525390625
 20
10.839263916015625
 10
-85.7509765625
 20
9.8460693359375
 10
-90.5263671875
 20
5.134571075439453
 10
-83.89208984375
 20
4.1413726806640625
 10
-88.6669921875
 20
-0.5701255798339844
 10
-82.03271484375
 20
-1.563323974609375
 10
-86.8076171875
 20
-6.274822235107422
 10
-81.10302734375
 20
-4.415668487548828
  0
LWPOLYLINE
  5
DD
330
D8
100
AcDbEntity
  8
PEN
100
AcDbPolyline
 90
8
 70
1
 43
0.0
 10
-16.1376953125
 20
21.162452697753906
 10
-18.56494140625
 20
22.615392684936523
 10
-23.6767578125
 20
42.98360061645508
 10
-22.22412109375
 20
45.41032028198242
 10
22.39208984375
 20
56.608787536621094
 10
24.81884765625
 20
55.155845642089844
 10
29.93115234375
 20
34.787635803222656
 10
28.47802734375
 20
32.36091613769531
  0
ENDBLK
  5
DA
330
D8
100
AcDbEntity
  8
0
100
AcDbBlockEnd
  0
BLOCK
  5
E1
330
E0
100
AcDbEntity
  8
0
100
AcDbBlockBegin
  2
cordura UV-LE-10.seg_seam_patch_(26)
 70
0
 10
0.0
 20
0.0
 30
0.0
  3
cordura UV-LE-10.seg_seam_patch_(26)
  1

  0
LWPOLYLINE
  5
E3
330
E0
100
AcDbEntity
  8
CUT
100
AcDbPolyline
 90
17
 70
1
 43
0.0
 10
0.0
 20
0.0
 10
14.99951171875
 20
0.0
 10
14.99951171875
 20
-117.76376342773438
 10
14.744140625
 20
-119.70491790771484
 10
13.9951171875
 20
-121.5137710571289
 10
12.802734375
 20
-123.06707000732422
 10
11.25
 20
-124.25896453857422
 10
9.44140625
 20
-125.00820922851562
 10
7.5
 20
-125.26376342773438
 10
-7.50048828125
 20
-125.26376342773438
 10
-9.44140625
 20
-125.00820922851562
 10
-11.25
 20
-124.25896453857422
 10
-12.80322265625
 20
-123.06707000732422
 10
-13.99560546875
 20
-121.5137710571289
 10
-14.74462890625
 20
-119.70491790771484
 10
-15.0
 20
-117.76376342773438
 10
-15.0
 20
-3.814697265625e-06
  0
ENDBLK
  5
E2
330
E0
100
AcDbEntity
  8
0
100
AcDbBlockEnd
  0
BLOCK
  5
E7
330
E6
100
AcDbEntity
  8
0
100
AcDbBlockBegin
  2
cordura UV-LE-10.seg_seam_patch.left_(27)
 70
0
 10
0.0
 20
0.0
 30
0.0
  3
cordura UV-LE-10.seg_seam_patch.left_(27)
  1

  0
LWPOLYLINE
  5
E9
330
E6
100
AcDbEntity
  8
CUT
100
AcDbPolyline
 90
17
 70
1
 43
0.0
 10
0.0
 20
0.0
 10
15.0
 20
0.0
 10
15.0
 20
-117.76376342773438
 10
14.74462890625
 20
-119.70491790771484
 10
13.99560546875
 20
-121.5137710571289
 10
12.80322265625
 20
-123.06707000732422
 10
11.25
 20
-124.25896453857422
 10
9.44140625
 20
-125.00820922851562
 10
7.50048828125
 20
-125.26376342773438
 10
-7.5
 20
-125.26376342773438
 10
-9.44140625
 20
-125.00820922851562
 10
-11.25
 20
-124.25896453857422
 10
-12.802734375
 20
-123.06707000732422
 10
-13.9951171875
 20
-121.5137710571289
 10
-14.744140625
 20
-119.70491790771484
 10
-14.99951171875
 20
-117.76376342773438
 10
-14.99951171875
 20
-3.814697265625e-06
  0
ENDBLK
  5
E8
330
E6
100
AcDbEntity
  8
0
100
AcDbBlockEnd
  0
BLOCK
  5
ED
330
EC
100
AcDbEntity
  8
0
100
AcDbBlockBegin
  2
Copyright_(131)
 70
0
 10
0.0
 20
0.0
 30
0.0
  3
Copyright_(131)
  1

  0
MTEXT
  5
EF
330
EC
100
AcDbEntity
  8
TEXT
100
AcDbMText
 10
0.0
 20
-3500.0
 30
0.0
 40
200.0
 71
1
  3
This work is licensed under a Creative Commons \PAttribution-NonCommercial-ShareAlike 4.0 International License\Phttp://creativecommons.org/licenses/by-nc-sa/4.0/\PYou may not use this kite design for commercial purposes\PAuthor: Karsten Gaebert (inf
  1
o@wingworks.de)\PCreated: 2020-03-12
  0
ENDBLK
  5
EE
330
EC
100
AcDbEntity
  8
0
100
AcDbBlockEnd
  0
ENDSEC
  0
SECTION
  2
ENTITIES
  0
INSERT
  5
3E
330
17
100
AcDbEntity
  8
0
100
AcDbBlockReference
  2
cordura UV-SAIL-1.le_seam_patch_(0)
 10
0.0
 20
923.7989187240601
 30
0.0
  0
INSERT
  5
44
330
17
100
AcDbEntity
  8
0
100
AcDbBlockReference
  2
cordura UV-SAIL-1.te_seam_patch_(1)
 10
0.0
 20
2511.7099285125732
 30
0.0
  0
INSERT
  5
4C
330
17
100
AcDbEntity
  8
0
100
AcDbBlockReference
  2
cordura UV-STRUT-1-SEGMENT-4-tab_(2)
 10
-4964.430332183838
 20
-1502.1367073059082
 30
0.0
  0
INSERT
  5
52
330
17
100
AcDbEntity
  8
0
100
AcDbBlockReference
  2
cordura UV-SAIL-5.le_seam_patch_(3)
 10
-2914.1998291015625
 20
1289.530634880066
 30
0.0
  0
INSERT
  5
58
330
17
100
AcDbEntity
  8
0
100
AcDbBlockReference
  2
cordura UV-SAIL-5.le_seam_patch.left_(4)
 10
2914.1998291015625
 20
1289.530634880066
 30
0.0
  0
INSERT
  5
5E
330
17
100
AcDbEntity
  8
0
100
AcDbBlockReference
  2
cordura UV-SAIL-5.te_seam_patch_(5)
 10
-2914.2000675201416
 20
2465.564727783203
 30
0.0
  0
INSERT
  5
64
330
17
100
AcDbEntity
  8
0
100
AcDbBlockReference
  2
cordura UV-SAIL-5.te_seam_patch.left_(6)
 10
2914.2000675201416
 20
2465.564727783203
 30
0.0
  0
INSERT
  5
6C
330
17
100
AcDbEntity
  8
0
100
AcDbBlockReference
  2
cordura UV-STRUT-5-SEGMENT-2-tab_(7)
 10
-4365.44942855835
 20
-3291.9559478759766
 30
0.0
  0
INSERT
  5
74
330
17
100
AcDbEntity
  8
0
100
AcDbBlockReference
  2
cordura UV-STRUT-5-SEGMENT-2.left-tab.left_(8)
 10
4365.44942855835
 20
-3291.9559478759766
 30
0.0
  0
INSERT
  5
7A
330
17
100
AcDbEntity
  8
0
100
AcDbBlockReference
  2
cordura UV-LE-1.seg_seam_patch_(9)
 10
-198.0152428150177
 20
24.842139333486557
 30
0.0
  0
INSERT
  5
80
330
17
100
AcDbEntity
  8
0
100
AcDbBlockReference
  2
cordura UV-LE-5.seg_seam_patch_(10)
 10
-2928.50923538208
 20
18.850743770599365
 30
0.0
  0
INSERT
  5
86
330
17
100
AcDbEntity
  8
0
100
AcDbBlockReference
  2
cordura UV-LE-5.seg_seam_patch.left_(11)
 10
2928.50923538208
 20
18.850743770599365
 30
0.0
  0
INSERT
  5
8C
330
17
100
AcDbEntity
  8
0
100
AcDbBlockReference
  2
cordura UV-LE-6.seg_seam_patch_(12)
 10
-3483.473777770996
 20
17.66049861907959
 30
0.0
  0
INSERT
  5
92
330
17
100
AcDbEntity
  8
0
100
AcDbBlockReference
  2
cordura UV-LE-6.seg_seam_patch.left_(13)
 10
3483.473777770996
 20
17.66049861907959
 30
0.0
  0
INSERT
  5
98
330
17
100
AcDbEntity
  8
0
100
AcDbBlockReference
  2
cordura UV-LE-7.seg_seam_patch_(14)
 10
-4018.8302993774414
 20
24.796485900878906
 30
0.0
  0
INSERT
  5
9E
330
17
100
AcDbEntity
  8
0
100
AcDbBlockReference
  2
cordura UV-LE-7.seg_seam_patch.left_(15)
 10
4018.8302993774414
 20
24.796485900878906
 30
0.0
  0
INSERT
  5
A4
330
17
100
AcDbEntity
  8
0
100
AcDbBlockReference
  2
cordura UV-LE-8.seg_seam_patch_(16)
 10
-4511.172294616699
 20
23.627042770385742
 30
0.0
  0
INSERT
  5
AA
330
17
100
AcDbEntity
  8
0
100
AcDbBlockReference
  2
cordura UV-LE-8.seg_seam_patch.left_(17)
 10
4511.172294616699
 20
23.627042770385742
 30
0.0
  0
INSERT
  5
B0
330
17
100
AcDbEntity
  8
0
100
AcDbBlockReference
  2
cordura UV-LE-9.seg_seam_patch_(18)
 10
-5001.824855804443
 20
29.89339828491211
 30
0.0
  0
INSERT
  5
B6
330
17
100
AcDbEntity
  8
0
100
AcDbBlockReference
  2
cordura UV-LE-9.seg_seam_patch.left_(19)
 10
5001.824855804443
 20
29.89339828491211
 30
0.0
  0
INSERT
  5
BC
330
17
100
AcDbEntity
  8
0
100
AcDbBlockReference
  2
cordura UV-LE-10-Tip-Patch_(20)
 10
-5570.335865020752
 20
-94.51726078987122
 30
0.0
  0
INSERT
  5
C2
330
17
100
AcDbEntity
  8
0
100
AcDbBlockReference
  2
cordura UV-LE-10.left-Tip-Patch.left_(21)
 10
5570.335865020752
 20
-94.51726078987122
 30
0.0
  0
INSERT
  5
C8
330
17
100
AcDbEntity
  8
0
100
AcDbBlockReference
  2
cordura UV-LE-10.tip_line_patch_(22)
 10
-4442.324161529541
 20
2437.0858669281006
 30
0.0
  0
INSERT
  5
CE
330
17
100
AcDbEntity
  8
0
100
AcDbBlockReference
  2
cordura UV-LE-10.tip_line_patch.left_(23)
 10
4442.324161529541
 20
2437.0858669281006
 30
0.0
  0
INSERT
  5
D6
330
17
100
AcDbEntity
  8
0
100
AcDbBlockReference
  2
cordura UV-LE-10.tab_(24)
 10
-5666.626930236816
 20
-52.50272527337074
 30
0.0
  0
INSERT
  5
DE
330
17
100
AcDbEntity
  8
0
100
AcDbBlockReference
  2
cordura UV-LE-10.tab_left_(25)
 10
5666.626930236816
 20
-52.50272527337074
 30
0.0
  0
INSERT
  5
E4
330
17
100
AcDbEntity
  8
0
100
AcDbBlockReference
  2
cordura UV-LE-10.seg_seam_patch_(26)
 10
-5511.56759262085
 20
34.931182861328125
 30
0.0
  0
INSERT
  5
EA
330
17
100
AcDbEntity
  8
0
100
AcDbBlockReference
  2
cordura UV-LE-10.seg_seam_patch.left_(27)
 10
5511.56759262085
 20
34.931182861328125
 30
0.0
  0
INSERT
  5
F0
330
17
100
AcDbEntity
  8
0
100
AcDbBlockReference
  2
Copyright_(131)
 10
0.0
 20
0.0
 30
0.0
  0
ENDSEC
  0
SECTION
  2
OBJECTS
  0
DICTIONARY
  5
A
330
0
100
AcDbDictionary
281
1
  3
ACAD_MLINESTYLE
350
10
  3
ACAD_LAYOUT
350
D
  3
ACAD_TABLESTYLE
350
15
  3
ACAD_GROUP
350
C
  3
ACAD_MLEADERSTYLE
350
F
  3
ACAD_COLOR
350
B
  3
ACAD_PLOTSTYLENAME
350
12
  3
ACAD_VISUALSTYLE
350
16
  3
ACAD_SCALELIST
350
14
  3
ACAD_PLOTSETTINGS
350
11
  3
ACAD_MATERIAL
350
E
  0
DICTIONARY
  5
B
330
A
100
AcDbDictionary
281
1
  0
DICTIONARY
  5
C
330
A
100
AcDbDictionary
281
1
  0
DICTIONARY
  5
D
330
A
100
AcDbDictionary
281
1
  3
Layout1
350
1E
  3
Model
350
1A
  0
DICTIONARY
  5
E
330
A
100
AcDbDictionary
281
1
  3
ByBlock
350
1F
  3
Global
350
21
  3
ByLayer
350
20
  0
DICTIONARY
  5
F
330
A
100
AcDbDictionary
281
1
  3
Standard
350
2C
  0
DICTIONARY
  5
10
330
A
100
AcDbDictionary
281
1
  3
Standard
350
22
  0
DICTIONARY
  5
11
330
A
100
AcDbDictionary
281
1
  0
ACDBDICTIONARYWDFLT
  5
12
330
A
100
AcDbDictionary
281
1
  3
Normal
350
13
100
AcDbDictionaryWithDefault
340
13
  0
ACDBPLACEHOLDER
  5
13
330
12
  0
DICTIONARY
  5
14
330
A
100
AcDbDictionary
281
1
  0
DICTIONARY
  5
15
330
A
100
AcDbDictionary
281
1
  0
DICTIONARY
  5
16
330
A
100
AcDbDictionary
281
1
  0
LAYOUT
  5
1A
330
D
100
AcDbPlotSettings
  1

  2
Adobe PDF
  4
A4
  6

 40
3.175
 41
3.175
 42
3.175
 43
3.175
 44
209.91
 45
297.03
 46
0.0
 47
0.0
 48
0.0
 49
0.0
140
0.0
141
0.0
142
1.0
143
1.0
 70
688
 72
0
 73
1
 74
5
  7

 75
16
 76
0
 77
2
 78
300
147
1.0
148
0.0
149
0.0
100
AcDbLayout
  1
Model
 70
1
 71
0
 10
-3.175
 20
-3.175
 11
293.857
 21
206.735
 12
0.0
 22
0.0
 32
0.0
 14
29.068
 24
20.356
 34
0.0
 15
261.614
 25
183.204
 35
0.0
146
0.0
 13
0.0
 23
0.0
 33
0.0
 16
1.0
 26
0.0
 36
0.0
 17
0.0
 27
1.0
 37
0.0
 76
1
330
17
  0
LAYOUT
  5
1E
330
D
100
AcDbPlotSettings
  1

  2
Adobe PDF
  4
A4
  6

 40
3.175
 41
3.175
 42
3.175
 43
3.175
 44
209.91
 45
297.03
 46
0.0
 47
0.0
 48
0.0
 49
0.0
140
0.0
141
0.0
142
1.0
143
1.0
 70
688
 72
0
 73
1
 74
5
  7

 75
16
 76
0
 77
2
 78
300
147
1.0
148
0.0
149
0.0
100
AcDbLayout
  1
Layout1
 70
1
 71
1
 10
-3.175
 20
-3.175
 11
293.857
 21
206.735
 12
0.0
 22
0.0
 32
0.0
 14
29.068
 24
20.356
 34
0.0
 15
261.614
 25
183.204
 35
0.0
146
0.0
 13
0.0
 23
0.0
 33
0.0
 16
1.0
 26
0.0
 36
0.0
 17
0.0
 27
1.0
 37
0.0
 76
1
330
1B
  0
MATERIAL
  5
1F
102
{ACAD_REACTORS
330
E
102
}
330
E
100
AcDbMaterial
  1
ByBlock
  2

 70
0
 40
1.0
 71
1
 41
1.0
 91
-1023410177
 42
1.0
 72
1
  3

 73
1
 74
1
 75
1
 44
0.5
 73
0
 45
1.0
 46
1.0
 77
1
  4

 78
1
 79
1
170
1
 48
1.0
171
1
  6

172
1
173
1
174
1
140
1.0
141
1.0
175
1
  7

176
1
177
1
178
1
143
1.0
179
1
  8

270
1
271
1
272
1
145
1.0
146
1.0
273
1
  9

274
1
275
1
276
1
 42
1.0
 72
1
  3

 73
1
 74
1
 75
1
 94
63
  0
MATERIAL
  5
20
102
{ACAD_REACTORS
330
E
102
}
330
E
100
AcDbMaterial
  1
ByLayer
  2

 70
0
 40
1.0
 71
1
 41
1.0
 91
-1023410177
 42
1.0
 72
1
  3

 73
1
 74
1
 75
1
 44
0.5
 73
0
 45
1.0
 46
1.0
 77
1
  4

 78
1
 79
1
170
1
 48
1.0
171
1
  6

172
1
173
1
174
1
140
1.0
141
1.0
175
1
  7

176
1
177
1
178
1
143
1.0
179
1
  8

270
1
271
1
272
1
145
1.0
146
1.0
273
1
  9

274
1
275
1
276
1
 42
1.0
 72
1
  3

 73
1
 74
1
 75
1
 94
63
  0
MATERIAL
  5
21
102
{ACAD_REACTORS
330
E
102
}
330
E
100
AcDbMaterial
  1
Global
  2

 70
0
 40
1.0
 71
1
 41
1.0
 91
-1023410177
 42
1.0
 72
1
  3

 73
1
 74
1
 75
1
 44
0.5
 73
0
 45
1.0
 46
1.0
 77
1
  4

 78
1
 79
1
170
1
 48
1.0
171
1
  6

172
1
173
1
174
1
140
1.0
141
1.0
175
1
  7

176
1
177
1
178
1
143
1.0
179
1
  8

270
1
271
1
272
1
145
1.0
146
1.0
273
1
  9

274
1
275
1
276
1
 42
1.0
 72
1
  3

 73
1
 74
1
 75
1
 94
63
  0
MLINESTYLE
  5
22
102
{ACAD_REACTORS
330
10
102
}
330
10
100
AcDbMlineStyle
 52
90.0
 51
90.0
  2
Standard
 70
0
 62
256
  3

 71
2
 49
0.5
 62
256
  6
BYLAYER
 49
-0.5
 62
256
  6
BYLAYER
  0
MLEADERSTYLE
  5
2C
102
{ACAD_REACTORS
330
F
102
}
330
F
100
AcDbMLeaderStyle
142
1.0
143
3.75
175
1
291
1
 47
1.0
 44
4.0
271
0
179
2
292
0
140
1.0
 92
-2
297
0
290
1
 46
4.0
 40
0.0
  3
Standard
300

141
0.0
178
1
177
0
 93
-1056964608
 91
-1056964608
 90
2
296
0
 45
4.0
176
0
170
2
342
29
172
0
 41
0.0
171
1
 42
2.0
272
9
173
1
294
1
295
0
174
1
 43
8.0
 94
-1056964608
 49
0.0
272
9
  0
ENDSEC
  0
EOF
