  0
SECTION
  2
HEADER
  9
$ACADVER
  1
AC1024
  9
$ACADMAINTVER
 90
4
  9
$DWGCODEPAGE
  3
ANSI_1252
  9
$LASTSAVEDBY
  1
ezdxf
  9
$INSBASE
 10
0.0
 20
0.0
 30
0.0
  9
$EXTMIN
 10
-100
 20
-100
 30
-100
  9
$EXTMAX
 10
100
 20
100
 30
100
  9
$LIMMIN
 10
0.0
 20
0.0
  9
$LIMMAX
 10
420.0
 20
297.0
  9
$ORTHOMODE
 70
0
  9
$REGENMODE
 70
1
  9
$FILLMODE
 70
1
  9
$QTEXTMODE
 70
0
  9
$MIRRTEXT
 70
1
  9
$LTSCALE
 40
1.0
  9
$ATTMODE
 70
1
  9
$TEXTSIZE
 40
2.5
  9
$TRACEWID
 40
1.0
  9
$TEXTSTYLE
  7
Standard
  9
$CLAYER
  8
0
  9
$CELTYPE
  6
ByLayer
  9
$CECOLOR
 62
256
  9
$CELTSCALE
 40
1.0
  9
$DISPSILH
 70
0
  9
$DIMSCALE
 40
1.0
  9
$DIMASZ
 40
2.5
  9
$DIMEXO
 40
0.625
  9
$DIMDLI
 40
3.75
  9
$DIMRND
 40
0.0
  9
$DIMDLE
 40
0.0
  9
$DIMEXE
 40
1.25
  9
$DIMTP
 40
0.0
  9
$DIMTM
 40
0.0
  9
$DIMTXT
 40
2.5
  9
$DIMCEN
 40
2.5
  9
$DIMTSZ
 40
0.0
  9
$DIMTOL
 70
0
  9
$DIMLIM
 70
0
  9
$DIMTIH
 70
0
  9
$DIMTOH
 70
0
  9
$DIMSE1
 70
0
  9
$DIMSE2
 70
0
  9
$DIMTAD
 70
1
  9
$DIMZIN
 70
8
  9
$DIMBLK
  1

  9
$DIMASO
 70
1
  9
$DIMSHO
 70
1
  9
$DIMPOST
  1

  9
$DIMAPOST
  1

  9
$DIMALT
 70
0
  9
$DIMALTD
 70
3
  9
$DIMALTF
 40
0.03937007874
  9
$DIMLFAC
 40
1.0
  9
$DIMTOFL
 70
1
  9
$DIMTVP
 40
0.0
  9
$DIMTIX
 70
0
  9
$DIMSOXD
 70
0
  9
$DIMSAH
 70
0
  9
$DIMBLK1
  1

  9
$DIMBLK2
  1

  9
$DIMSTYLE
  2
ISO-25
  9
$DIMCLRD
 70
0
  9
$DIMCLRE
 70
0
  9
$DIMCLRT
 70
0
  9
$DIMTFAC
 40
1.0
  9
$DIMGAP
 40
0.625
  9
$DIMJUST
 70
0
  9
$DIMSD1
 70
0
  9
$DIMSD2
 70
0
  9
$DIMTOLJ
 70
0
  9
$DIMTZIN
 70
8
  9
$DIMALTZ
 70
0
  9
$DIMALTTZ
 70
0
  9
$DIMUPT
 70
0
  9
$DIMDEC
 70
2
  9
$DIMTDEC
 70
2
  9
$DIMALTU
 70
2
  9
$DIMALTTD
 70
3
  9
$DIMTXSTY
  7
Standard
  9
$DIMAUNIT
 70
0
  9
$DIMADEC
 70
0
  9
$DIMALTRND
 40
0.0
  9
$DIMAZIN
 70
0
  9
$DIMDSEP
 70
44
  9
$DIMATFIT
 70
3
  9
$DIMFRAC
 70
0
  9
$DIMLDRBLK
  1

  9
$DIMLUNIT
 70
2
  9
$DIMLWD
 70
-2
  9
$DIMLWE
 70
-2
  9
$DIMTMOVE
 70
0
  9
$DIMFXL
 40
1.0
  9
$DIMFXLON
 70
0
  9
$DIMJOGANG
 40
0.785398163397
  9
$DIMTFILL
 70
0
  9
$DIMTFILLCLR
 70
0
  9
$DIMARCSYM
 70
0
  9
$DIMLTYPE
  6

  9
$DIMLTEX1
  6

  9
$DIMLTEX2
  6

  9
$DIMTXTDIRECTION
 70
0
  9
$LUNITS
 70
2
  9
$LUPREC
 70
4
  9
$SKETCHINC
 40
1.0
  9
$FILLETRAD
 40
10.0
  9
$AUNITS
 70
0
  9
$AUPREC
 70
2
  9
$MENU
  1
.
  9
$ELEVATION
 40
0.0
  9
$PELEVATION
 40
0.0
  9
$THICKNESS
 40
0.0
  9
$LIMCHECK
 70
0
  9
$CHAMFERA
 40
0.0
  9
$CHAMFERB
 40
0.0
  9
$CHAMFERC
 40
0.0
  9
$CHAMFERD
 40
0.0
  9
$SKPOLY
 70
0
  9
$TDCREATE
 40
2458920.837314815
  9
$TDUCREATE
 40
2458532.153996898
  9
$TDUPDATE
 40
2458920.837314815
  9
$TDUUPDATE
 40
2458532.1544311
  9
$TDINDWG
 40
0.0
  9
$TDUSRTIMER
 40
0.0
  9
$USRTIMER
 70
1
  9
$ANGBASE
 50
0.0
  9
$ANGDIR
 70
0
  9
$PDMODE
 70
0
  9
$PDSIZE
 40
0.0
  9
$PLINEWID
 40
0.0
  9
$SPLFRAME
 70
0
  9
$SPLINETYPE
 70
6
  9
$SPLINESEGS
 70
8
  9
$HANDSEED
  5
49
  9
$SURFTAB1
 70
6
  9
$SURFTAB2
 70
6
  9
$SURFTYPE
 70
6
  9
$SURFU
 70
6
  9
$SURFV
 70
6
  9
$UCSBASE
  2

  9
$UCSNAME
  2

  9
$UCSORG
 10
0.0
 20
0.0
 30
0.0
  9
$UCSXDIR
 10
1.0
 20
0.0
 30
0.0
  9
$UCSYDIR
 10
0.0
 20
1.0
 30
0.0
  9
$UCSORTHOREF
  2

  9
$UCSORTHOVIEW
 70
0
  9
$UCSORGTOP
 10
0.0
 20
0.0
 30
0.0
  9
$UCSORGBOTTOM
 10
0.0
 20
0.0
 30
0.0
  9
$UCSORGLEFT
 10
0.0
 20
0.0
 30
0.0
  9
$UCSORGRIGHT
 10
0.0
 20
0.0
 30
0.0
  9
$UCSORGFRONT
 10
0.0
 20
0.0
 30
0.0
  9
$UCSORGBACK
 10
0.0
 20
0.0
 30
0.0
  9
$PUCSBASE
  2

  9
$PUCSNAME
  2

  9
$PUCSORG
 10
0.0
 20
0.0
 30
0.0
  9
$PUCSXDIR
 10
1.0
 20
0.0
 30
0.0
  9
$PUCSYDIR
 10
0.0
 20
1.0
 30
0.0
  9
$PUCSORTHOREF
  2

  9
$PUCSORTHOVIEW
 70
0
  9
$PUCSORGTOP
 10
0.0
 20
0.0
 30
0.0
  9
$PUCSORGBOTTOM
 10
0.0
 20
0.0
 30
0.0
  9
$PUCSORGLEFT
 10
0.0
 20
0.0
 30
0.0
  9
$PUCSORGRIGHT
 10
0.0
 20
0.0
 30
0.0
  9
$PUCSORGFRONT
 10
0.0
 20
0.0
 30
0.0
  9
$PUCSORGBACK
 10
0.0
 20
0.0
 30
0.0
  9
$USERI1
 70
0
  9
$USERI2
 70
0
  9
$USERI3
 70
0
  9
$USERI4
 70
0
  9
$USERI5
 70
0
  9
$USERR1
 40
0.0
  9
$USERR2
 40
0.0
  9
$USERR3
 40
0.0
  9
$USERR4
 40
0.0
  9
$USERR5
 40
0.0
  9
$WORLDVIEW
 70
1
  9
$SHADEDGE
 70
3
  9
$SHADEDIF
 70
70
  9
$TILEMODE
 70
1
  9
$MAXACTVP
 70
64
  9
$PINSBASE
 10
0.0
 20
0.0
 30
0.0
  9
$PLIMCHECK
 70
0
  9
$PEXTMIN
 10
1e+20
 20
1e+20
 30
1e+20
  9
$PEXTMAX
 10
-1e+20
 20
-1e+20
 30
-1e+20
  9
$PLIMMIN
 10
0.0
 20
0.0
  9
$PLIMMAX
 10
420.0
 20
297.0
  9
$UNITMODE
 70
0
  9
$VISRETAIN
 70
1
  9
$PLINEGEN
 70
0
  9
$PSLTSCALE
 70
1
  9
$TREEDEPTH
 70
3020
  9
$CMLSTYLE
  2
Standard
  9
$CMLJUST
 70
0
  9
$CMLSCALE
 40
20.0
  9
$PROXYGRAPHICS
 70
1
  9
$MEASUREMENT
 70
1
  9
$CELWEIGHT
370
-1
  9
$ENDCAPS
280
0
  9
$JOINSTYLE
280
0
  9
$LWDISPLAY
290
0
  9
$INSUNITS
 70
4
  9
$HYPERLINKBASE
  1

  9
$STYLESHEET
  1

  9
$XEDIT
290
1
  9
$CEPSNTYPE
380
0
  9
$PSTYLEMODE
290
1
  9
$FINGERPRINTGUID
  2
4ED28F58-63CB-11EA-A70D-58946B7B6068
  9
$VERSIONGUID
  2
4ED28F5A-63CB-11EA-A70D-58946B7B6068
  9
$EXTNAMES
290
1
  9
$PSVPSCALE
 40
0.0
  9
$OLESTARTUP
290
0
  9
$SORTENTS
280
127
  9
$INDEXCTL
280
0
  9
$HIDETEXT
280
1
  9
$XCLIPFRAME
280
2
  9
$HALOGAP
280
0
  9
$OBSCOLOR
 70
257
  9
$OBSLTYPE
280
0
  9
$INTERSECTIONDISPLAY
280
0
  9
$INTERSECTIONCOLOR
 70
257
  9
$DIMASSOC
280
2
  9
$PROJECTNAME
  1

  9
$CAMERADISPLAY
290
0
  9
$LENSLENGTH
 40
50.0
  9
$CAMERAHEIGHT
 40
0.0
  9
$STEPSPERSEC
 40
24.0
  9
$STEPSIZE
 40
100.0
  9
$3DDWFPREC
 40
2.0
  9
$PSOLWIDTH
 40
0.005
  9
$PSOLHEIGHT
 40
0.08
  9
$LOFTANG1
 40
1.570796326795
  9
$LOFTANG2
 40
1.570796326795
  9
$LOFTMAG1
 40
0.0
  9
$LOFTMAG2
 40
0.0
  9
$LOFTPARAM
 70
7
  9
$LOFTNORMALS
280
1
  9
$LATITUDE
 40
37.795
  9
$LONGITUDE
 40
-122.394
  9
$NORTHDIRECTION
 40
0.0
  9
$TIMEZONE
 70
-8000
  9
$LIGHTGLYPHDISPLAY
280
1
  9
$TILEMODELIGHTSYNCH
280
1
  9
$CMATERIAL
347
45
  9
$SOLIDHIST
280
0
  9
$SHOWHIST
280
1
  9
$DWFFRAME
280
2
  9
$DGNFRAME
280
2
  9
$REALWORLDSCALE
290
1
  9
$INTERFERECOLOR
 62
256
  9
$CSHADOW
280
0
  9
$SHADOWPLANELOCATION
 40
0.0
  0
ENDSEC
  0
SECTION
  2
CLASSES
  0
CLASS
  1
ACDBDICTIONARYWDFLT
  2
AcDbDictionaryWithDefault
  3
ObjectDBX Classes
 90
0
 91
0
280
0
281
0
  0
CLASS
  1
SUN
  2
AcDbSun
  3
SCENEOE
 90
1153
 91
0
280
0
281
0
  0
CLASS
  1
VISUALSTYLE
  2
AcDbVisualStyle
  3
ObjectDBX Classes
 90
4095
 91
0
280
0
281
0
  0
CLASS
  1
MATERIAL
  2
AcDbMaterial
  3
ObjectDBX Classes
 90
1153
 91
0
280
0
281
0
  0
CLASS
  1
SCALE
  2
AcDbScale
  3
ObjectDBX Classes
 90
1153
 91
0
280
0
281
0
  0
CLASS
  1
TABLESTYLE
  2
AcDbTableStyle
  3
ObjectDBX Classes
 90
4095
 91
0
280
0
281
0
  0
CLASS
  1
MLEADERSTYLE
  2
AcDbMLeaderStyle
  3
ACDB_MLEADERSTYLE_CLASS
 90
4095
 91
0
280
0
281
0
  0
CLASS
  1
DICTIONARYVAR
  2
AcDbDictionaryVar
  3
ObjectDBX Classes
 90
0
 91
0
280
0
281
0
  0
CLASS
  1
CELLSTYLEMAP
  2
AcDbCellStyleMap
  3
ObjectDBX Classes
 90
1152
 91
0
280
0
281
0
  0
CLASS
  1
MENTALRAYRENDERSETTINGS
  2
AcDbMentalRayRenderSettings
  3
SCENEOE
 90
1024
 91
0
280
0
281
0
  0
CLASS
  1
ACDBDETAILVIEWSTYLE
  2
AcDbDetailViewStyle
  3
ObjectDBX Classes
 90
1025
 91
0
280
0
281
0
  0
CLASS
  1
ACDBSECTIONVIEWSTYLE
  2
AcDbSectionViewStyle
  3
ObjectDBX Classes
 90
1025
 91
0
280
0
281
0
  0
CLASS
  1
RASTERVARIABLES
  2
AcDbRasterVariables
  3
ISM
 90
0
 91
0
280
0
281
0
  0
CLASS
  1
LAYOUT
  2
AcDbLayout
  3
ObjectDBX Classes
 90
0
 91
0
280
0
281
0
  0
CLASS
  1
ACDBPLACEHOLDER
  2
AcDbPlaceHolder
  3
ObjectDBX Classes
 90
0
 91
0
280
0
281
0
  0
ENDSEC
  0
SECTION
  2
TABLES
  0
TABLE
  2
VPORT
  5
4
330
0
100
AcDbSymbolTable
 70
1
  0
VPORT
  5
23
330
4
100
AcDbSymbolTableRecord
100
AcDbViewportTableRecord
  2
*Active
 70
0
 10
0.0
 20
0.0
 11
1.0
 21
1.0
 12
70.0
 22
50.0
 13
0.0
 23
0.0
 14
0.5
 24
0.5
 15
0.5
 25
0.5
 16
0.0
 26
0.0
 36
1.0
 17
0.0
 27
0.0
 37
0.0
 40
1.0
 41
1.34
 42
50.0
 43
0.0
 44
0.0
 50
0.0
 51
0.0
 71
0
 72
1000
 73
1
 74
3
 75
0
 76
0
 77
0
 78
0
281
0
 65
0
146
0.0
  0
ENDTAB
  0
TABLE
  2
LTYPE
  5
3
330
0
100
AcDbSymbolTable
 70
4
  0
LTYPE
  5
24
330
3
100
AcDbSymbolTableRecord
100
AcDbLinetypeTableRecord
  2
ByBlock
 70
0
  3

 72
65
 73
0
 40
0.0
  0
LTYPE
  5
25
330
3
100
AcDbSymbolTableRecord
100
AcDbLinetypeTableRecord
  2
ByLayer
 70
0
  3

 72
65
 73
0
 40
0.0
  0
LTYPE
  5
26
330
3
100
AcDbSymbolTableRecord
100
AcDbLinetypeTableRecord
  2
Continuous
 70
0
  3

 72
65
 73
0
 40
0.0
  0
LTYPE
  5
39
330
3
100
AcDbSymbolTableRecord
100
AcDbLinetypeTableRecord
  2
DASHED
 70
0
  3
Dashed - - - - - - - - - - - - - - - - - - - - - - -
 72
65
 73
2
 40
8.0
 49
-3.0
 74
0
 49
8.0
 74
0
  0
ENDTAB
  0
TABLE
  2
LAYER
  5
6
330
0
100
AcDbSymbolTable
 70
14
  0
LAYER
  5
27
330
6
100
AcDbSymbolTableRecord
100
AcDbLayerTableRecord
  2
0
 70
0
 62
7
  6
Continuous
370
-3
390
13
347
21
  0
LAYER
  5
28
330
6
100
AcDbSymbolTableRecord
100
AcDbLayerTableRecord
  2
Defpoints
 70
0
 62
7
  6
Continuous
290
0
370
-3
390
13
347
21
  0
LAYER
  5
2D
330
6
100
AcDbSymbolTableRecord
100
AcDbLayerTableRecord
  2
SAIL
 70
0
 62
0
  6
Continuous
370
50
390
13
347
21
  0
LAYER
  5
2E
330
6
100
AcDbSymbolTableRecord
100
AcDbLayerTableRecord
  2
TUBE
 70
0
 62
0
  6
Continuous
370
50
390
13
347
21
  0
LAYER
  5
2F
330
6
100
AcDbSymbolTableRecord
100
AcDbLayerTableRecord
  2
BLADDER
 70
0
 62
0
  6
Continuous
370
50
390
13
347
21
  0
LAYER
  5
30
330
6
100
AcDbSymbolTableRecord
100
AcDbLayerTableRecord
  2
PEN
 70
0
 62
5
  6
Continuous
370
-3
390
13
347
21
  0
LAYER
  5
31
330
6
100
AcDbSymbolTableRecord
100
AcDbLayerTableRecord
  2
SEAM
 70
0
 62
1
  6
DASHED
370
35
390
13
347
21
  0
LAYER
  5
32
330
6
100
AcDbSymbolTableRecord
100
AcDbLayerTableRecord
  2
MARKER
 70
0
 62
8
  6
Continuous
370
-3
390
13
347
21
  0
LAYER
  5
33
330
6
100
AcDbSymbolTableRecord
100
AcDbLayerTableRecord
  2
TEXT
 70
0
 62
3
  6
Continuous
370
-3
390
13
347
21
  0
LAYER
  5
34
330
6
100
AcDbSymbolTableRecord
100
AcDbLayerTableRecord
  2
REINFORCEMENT
 70
0
 62
4
  6
Continuous
370
50
390
13
347
21
  0
LAYER
  5
35
330
6
100
AcDbSymbolTableRecord
100
AcDbLayerTableRecord
  2
PROTECTION
 70
0
 62
6
  6
Continuous
370
50
390
13
347
21
  0
LAYER
  5
36
330
6
100
AcDbSymbolTableRecord
100
AcDbLayerTableRecord
  2
WEBBING
 70
0
 62
2
  6
Continuous
370
35
390
13
347
21
  0
LAYER
  5
37
330
6
100
AcDbSymbolTableRecord
100
AcDbLayerTableRecord
  2
CUT
 70
0
 62
6
  6
Continuous
370
50
390
13
347
21
  0
LAYER
  5
38
330
6
100
AcDbSymbolTableRecord
100
AcDbLayerTableRecord
  2
DRILL
 70
0
 62
2
  6
Continuous
370
35
390
13
347
21
  0
ENDTAB
  0
TABLE
  2
STYLE
  5
7
330
0
100
AcDbSymbolTable
 70
1
  0
STYLE
  5
29
330
7
100
AcDbSymbolTableRecord
100
AcDbTextStyleTableRecord
  2
Standard
 70
0
 40
0.0
 41
1.0
 50
0.0
 71
0
 42
2.5
  3
txt
  4

  0
ENDTAB
  0
TABLE
  2
VIEW
  5
9
330
0
100
AcDbSymbolTable
 70
0
  0
ENDTAB
  0
TABLE
  2
UCS
  5
5
330
0
100
AcDbSymbolTable
 70
0
  0
ENDTAB
  0
TABLE
  2
APPID
  5
8
330
0
100
AcDbSymbolTable
 70
1
  0
APPID
  5
2A
330
8
100
AcDbSymbolTableRecord
100
AcDbRegAppTableRecord
  2
ACAD
 70
0
  0
ENDTAB
  0
TABLE
  2
DIMSTYLE
  5
2
330
0
100
AcDbSymbolTable
 70
1
100
AcDbDimStyleTable
  0
DIMSTYLE
105
2B
330
2
100
AcDbSymbolTableRecord
100
AcDbDimStyleTableRecord
  2
Standard
 70
0
 40
1.0
 41
2.5
 42
0.625
 43
3.75
 44
1.25
 45
0.0
 46
0.0
 47
0.0
 48
0.0
 49
2.5
140
2.5
141
2.5
142
0.0
143
0.03937007874
144
1.0
145
0.0
146
1.0
147
0.625
148
0.0
 69
0
 70
0
 71
0
 72
0
 73
0
 74
0
 75
0
 76
0
 77
1
 78
8
 79
0
170
0
171
3
172
1
173
0
174
0
175
0
176
0
177
0
178
0
179
0
271
0
272
2
273
2
274
3
275
0
276
0
277
2
278
44
279
0
280
0
281
0
282
0
283
0
284
8
285
0
286
0
288
0
289
3
290
0
371
-2
372
-2
  0
ENDTAB
  0
TABLE
  2
BLOCK_RECORD
  5
1
330
0
100
AcDbSymbolTable
 70
2
  0
BLOCK_RECORD
  5
17
330
1
100
AcDbSymbolTableRecord
100
AcDbBlockTableRecord
  2
*Model_Space
340
1A
 70
0
280
1
281
1
  0
BLOCK_RECORD
  5
1B
330
1
100
AcDbSymbolTableRecord
100
AcDbBlockTableRecord
  2
*Paper_Space
340
1E
 70
0
280
1
281
1
  0
ENDTAB
  0
ENDSEC
  0
SECTION
  2
BLOCKS
  0
BLOCK
  5
18
330
17
100
AcDbEntity
  8
0
100
AcDbBlockBegin
  2
*Model_Space
 70
0
 10
0.0
 20
0.0
 30
0.0
  3
*Model_Space
  1

  0
ENDBLK
  5
19
330
17
100
AcDbEntity
  8
0
100
AcDbBlockEnd
  0
BLOCK
  5
1C
330
1B
100
AcDbEntity
  8
0
100
AcDbBlockBegin
  2
*Paper_Space
 70
0
 10
0.0
 20
0.0
 30
0.0
  3
*Paper_Space
  1

  0
ENDBLK
  5
1D
330
1B
100
AcDbEntity
  8
0
100
AcDbBlockEnd
  0
ENDSEC
  0
SECTION
  2
ENTITIES
  0
LWPOLYLINE
  5
3B
330
17
100
AcDbEntity
  8
CUT
100
AcDbPolyline
 90
12
 70
1
 43
0.0
 10
0.0
 20
-5223.8369140625
 10
594.4180297851562
 20
-5240.140625
 10
1116.9027099609375
 20
-5255.31982421875
 10
1578.4058837890625
 20
-5269.35302734375
 10
1986.1844482421875
 20
-5282.14990234375
 10
2346.952880859375
 20
-5293.646484375
 10
2691.342529296875
 20
-5304.41845703125
 10
3000.522216796875
 20
-5312.232421875
 10
3310.134765625
 20
-5320.04638671875
 10
3918.21142578125
 20
-5328.59326171875
 10
3918.21142578125
 20
-5465.58251953125
 10
0.0
 20
-5465.58251953125
  0
LWPOLYLINE
  5
3C
330
17
100
AcDbEntity
  8
CUT
100
AcDbPolyline
 90
12
 70
1
 43
0.0
 10
0.0
 20
-5223.8369140625
 10
-594.4180297851562
 20
-5240.140625
 10
-1116.9027099609375
 20
-5255.31982421875
 10
-1578.4058837890625
 20
-5269.35302734375
 10
-1986.1844482421875
 20
-5282.14990234375
 10
-2346.952880859375
 20
-5293.646484375
 10
-2691.342529296875
 20
-5304.41845703125
 10
-3000.522216796875
 20
-5312.232421875
 10
-3310.134765625
 20
-5320.04638671875
 10
-3918.21142578125
 20
-5328.59326171875
 10
-3918.21142578125
 20
-5465.58251953125
 10
0.0
 20
-5465.58251953125
  0
LWPOLYLINE
  5
3D
330
17
100
AcDbEntity
  8
PEN
100
AcDbPolyline
 90
60
 70
1
 43
0.0
 10
147.59999084472656
 20
-5346.58251953125
 10
146.65924072265625
 20
-5346.6318359375
 10
145.72879028320312
 20
-5346.779296875
 10
144.81884765625
 20
-5347.02294921875
 10
143.93936157226562
 20
-5347.36083984375
 10
143.09999084472656
 20
-5347.78857421875
 10
142.3099365234375
 20
-5348.30126953125
 10
141.57781982421875
 20
-5348.89404296875
 10
140.9116973876953
 20
-5349.56005859375
 10
140.31884765625
 20
-5350.2919921875
 10
139.80577087402344
 20
-5351.08251953125
 10
139.37808227539062
 20
-5351.921875
 10
139.0404815673828
 20
-5352.80126953125
 10
138.7966766357422
 20
-5353.7109375
 10
138.64930725097656
 20
-5354.64208984375
 10
138.59999084472656
 20
-5355.58203125
 10
138.64930725097656
 20
-5356.52294921875
 10
138.7966766357422
 20
-5357.45361328125
 10
139.0404815673828
 20
-5358.36376953125
 10
139.37808227539062
 20
-5359.24267578125
 10
139.80577087402344
 20
-5360.08251953125
 10
140.31884765625
 20
-5360.87255859375
 10
140.9116973876953
 20
-5361.6044921875
 10
141.57781982421875
 20
-5362.27099609375
 10
142.30992126464844
 20
-5362.86376953125
 10
143.09999084472656
 20
-5363.37646484375
 10
143.93936157226562
 20
-5363.80419921875
 10
144.81884765625
 20
-5364.14208984375
 10
145.72877502441406
 20
-5364.3857421875
 10
146.6592254638672
 20
-5364.53271484375
 10
147.5999755859375
 20
-5364.58251953125
 10
148.54074096679688
 20
-5364.53271484375
 10
149.47119140625
 20
-5364.3857421875
 10
150.38113403320312
 20
-5364.14208984375
 10
151.2606201171875
 20
-5363.80419921875
 10
152.0999755859375
 20
-5363.37646484375
 10
152.8900604248047
 20
-5362.86376953125
 10
153.6221466064453
 20
-5362.27099609375
 10
154.28829956054688
 20
-5361.6044921875
 10
154.88113403320312
 20
-5360.87255859375
 10
155.3942108154297
 20
-5360.08251953125
 10
155.82188415527344
 20
-5359.24267578125
 10
156.15948486328125
 20
-5358.36376953125
 10
156.4033203125
 20
-5357.45361328125
 10
156.55068969726562
 20
-5356.52294921875
 10
156.60000610351562
 20
-5355.58251953125
 10
156.55068969726562
 20
-5354.64208984375
 10
156.40333557128906
 20
-5353.7109375
 10
156.1595001220703
 20
-5352.80126953125
 10
155.82191467285156
 20
-5351.921875
 10
155.3942413330078
 20
-5351.08251953125
 10
154.88116455078125
 20
-5350.2919921875
 10
154.28831481933594
 20
-5349.56005859375
 10
153.6221923828125
 20
-5348.89404296875
 10
152.8900909423828
 20
-5348.30126953125
 10
152.1000213623047
 20
-5347.78857421875
 10
151.2606658935547
 20
-5347.36083984375
 10
150.3811798095703
 20
-5347.02294921875
 10
149.4712371826172
 20
-5346.779296875
 10
148.54080200195312
 20
-5346.6318359375
  0
LWPOLYLINE
  5
3E
330
17
100
AcDbEntity
  8
PEN
100
AcDbPolyline
 90
60
 70
1
 43
0.0
 10
-1884.1844482421875
 20
-5376.58251953125
 10
-1885.125244140625
 20
-5376.6318359375
 10
-1886.0556640625
 20
-5376.779296875
 10
-1886.965576171875
 20
-5377.02294921875
 10
-1887.84521484375
 20
-5377.3603515625
 10
-1888.6845703125
 20
-5377.7880859375
 10
-1889.4744873046875
 20
-5378.30126953125
 10
-1890.2066650390625
 20
-5378.89453125
 10
-1890.872802734375
 20
-5379.560546875
 10
-1891.4656982421875
 20
-5380.29248046875
 10
-1891.978759765625
 20
-5381.08251953125
 10
-1892.4063720703125
 20
-5381.921875
 10
-1892.743896484375
 20
-5382.80126953125
 10
-1892.98779296875
 20
-5383.71142578125
 10
-1893.1351318359375
 20
-5384.6416015625
 10
-1893.1844482421875
 20
-5385.58251953125
 10
-1893.1351318359375
 20
-5386.5234375
 10
-1892.98779296875
 20
-5387.45361328125
 10
-1892.743896484375
 20
-5388.36376953125
 10
-1892.4063720703125
 20
-5389.2431640625
 10
-1891.978759765625
 20
-5390.08251953125
 10
-1891.4656982421875
 20
-5390.87255859375
 10
-1890.872802734375
 20
-5391.6044921875
 10
-1890.2066650390625
 20
-5392.2705078125
 10
-1889.4744873046875
 20
-5392.86376953125
 10
-1888.6845703125
 20
-5393.376953125
 10
-1887.84521484375
 20
-5393.8046875
 10
-1886.965576171875
 20
-5394.14208984375
 10
-1886.0556640625
 20
-5394.3857421875
 10
-1885.125244140625
 20
-5394.533203125
 10
-1884.1844482421875
 20
-5394.58203125
 10
-1883.24365234375
 20
-5394.533203125
 10
-1882.313232421875
 20
-5394.3857421875
 10
-1881.4033203125
 20
-5394.14208984375
 10
-1880.52392578125
 20
-5393.8046875
 10
-1879.6844482421875
 20
-5393.376953125
 10
-1878.8944091796875
 20
-5392.86376953125
 10
-1878.1622314453125
 20
-5392.2705078125
 10
-1877.4962158203125
 20
-5391.6044921875
 10
-1876.9033203125
 20
-5390.87255859375
 10
-1876.3902587890625
 20
-5390.08251953125
 10
-1875.962646484375
 20
-5389.2431640625
 10
-1875.625
 20
-5388.36376953125
 10
-1875.381103515625
 20
-5387.45361328125
 10
-1875.2337646484375
 20
-5386.5234375
 10
-1875.1845703125
 20
-5385.58251953125
 10
-1875.2337646484375
 20
-5384.6416015625
 10
-1875.381103515625
 20
-5383.71142578125
 10
-1875.625
 20
-5382.8017578125
 10
-1875.962646484375
 20
-5381.921875
 10
-1876.3902587890625
 20
-5381.08251953125
 10
-1876.9033203125
 20
-5380.29248046875
 10
-1877.49609375
 20
-5379.560546875
 10
-1878.1622314453125
 20
-5378.89453125
 10
-1878.894287109375
 20
-5378.30126953125
 10
-1879.6844482421875
 20
-5377.7880859375
 10
-1880.5238037109375
 20
-5377.3603515625
 10
-1881.4033203125
 20
-5377.02294921875
 10
-1882.313232421875
 20
-5376.779296875
 10
-1883.24365234375
 20
-5376.6318359375
  0
LWPOLYLINE
  5
3F
330
17
100
AcDbEntity
  8
PEN
100
AcDbPolyline
 90
60
 70
1
 43
0.0
 10
1884.1844482421875
 20
-5376.58251953125
 10
1885.125244140625
 20
-5376.6318359375
 10
1886.0556640625
 20
-5376.779296875
 10
1886.965576171875
 20
-5377.02294921875
 10
1887.84521484375
 20
-5377.3603515625
 10
1888.6845703125
 20
-5377.7880859375
 10
1889.4744873046875
 20
-5378.30126953125
 10
1890.2066650390625
 20
-5378.89453125
 10
1890.872802734375
 20
-5379.560546875
 10
1891.4656982421875
 20
-5380.29248046875
 10
1891.978759765625
 20
-5381.08251953125
 10
1892.4063720703125
 20
-5381.921875
 10
1892.743896484375
 20
-5382.80126953125
 10
1892.98779296875
 20
-5383.71142578125
 10
1893.1351318359375
 20
-5384.6416015625
 10
1893.1844482421875
 20
-5385.58251953125
 10
1893.1351318359375
 20
-5386.5234375
 10
1892.98779296875
 20
-5387.45361328125
 10
1892.743896484375
 20
-5388.36376953125
 10
1892.4063720703125
 20
-5389.2431640625
 10
1891.978759765625
 20
-5390.08251953125
 10
1891.4656982421875
 20
-5390.87255859375
 10
1890.872802734375
 20
-5391.6044921875
 10
1890.2066650390625
 20
-5392.2705078125
 10
1889.4744873046875
 20
-5392.86376953125
 10
1888.6845703125
 20
-5393.376953125
 10
1887.84521484375
 20
-5393.8046875
 10
1886.965576171875
 20
-5394.14208984375
 10
1886.0556640625
 20
-5394.3857421875
 10
1885.125244140625
 20
-5394.533203125
 10
1884.1844482421875
 20
-5394.58203125
 10
1883.24365234375
 20
-5394.533203125
 10
1882.313232421875
 20
-5394.3857421875
 10
1881.4033203125
 20
-5394.14208984375
 10
1880.52392578125
 20
-5393.8046875
 10
1879.6844482421875
 20
-5393.376953125
 10
1878.8944091796875
 20
-5392.86376953125
 10
1878.1622314453125
 20
-5392.2705078125
 10
1877.4962158203125
 20
-5391.6044921875
 10
1876.9033203125
 20
-5390.87255859375
 10
1876.3902587890625
 20
-5390.08251953125
 10
1875.962646484375
 20
-5389.2431640625
 10
1875.625
 20
-5388.36376953125
 10
1875.381103515625
 20
-5387.45361328125
 10
1875.2337646484375
 20
-5386.5234375
 10
1875.1845703125
 20
-5385.58251953125
 10
1875.2337646484375
 20
-5384.6416015625
 10
1875.381103515625
 20
-5383.71142578125
 10
1875.625
 20
-5382.8017578125
 10
1875.962646484375
 20
-5381.921875
 10
1876.3902587890625
 20
-5381.08251953125
 10
1876.9033203125
 20
-5380.29248046875
 10
1877.49609375
 20
-5379.560546875
 10
1878.1622314453125
 20
-5378.89453125
 10
1878.894287109375
 20
-5378.30126953125
 10
1879.6844482421875
 20
-5377.7880859375
 10
1880.5238037109375
 20
-5377.3603515625
 10
1881.4033203125
 20
-5377.02294921875
 10
1882.313232421875
 20
-5376.779296875
 10
1883.24365234375
 20
-5376.6318359375
  0
LWPOLYLINE
  5
40
330
17
100
AcDbEntity
  8
PEN
100
AcDbPolyline
 90
60
 70
1
 43
0.0
 10
-157.8000030517578
 20
-5372.58251953125
 10
-159.15887451171875
 20
-5372.6533203125
 10
-160.5028533935547
 20
-5372.86669921875
 10
-161.81723022460938
 20
-5373.21875
 10
-163.0875701904297
 20
-5373.70654296875
 10
-164.3000030517578
 20
-5374.32421875
 10
-165.4412078857422
 20
-5375.0654296875
 10
-166.4987030029297
 20
-5375.921875
 10
-167.4608917236328
 20
-5376.8837890625
 10
-168.31723022460938
 20
-5377.94091796875
 10
-169.05833435058594
 20
-5379.08251953125
 10
-169.6761016845703
 20
-5380.294921875
 10
-170.1637420654297
 20
-5381.56494140625
 10
-170.51593017578125
 20
-5382.8798828125
 10
-170.72879028320312
 20
-5384.2236328125
 10
-170.8000030517578
 20
-5385.58251953125
 10
-170.72879028320312
 20
-5386.94140625
 10
-170.51593017578125
 20
-5388.28515625
 10
-170.1637420654297
 20
-5389.599609375
 10
-169.6761016845703
 20
-5390.8701171875
 10
-169.05833435058594
 20
-5392.08203125
 10
-168.31723022460938
 20
-5393.2236328125
 10
-167.4608917236328
 20
-5394.28076171875
 10
-166.4987030029297
 20
-5395.2431640625
 10
-165.4412078857422
 20
-5396.099609375
 10
-164.3000030517578
 20
-5396.84033203125
 10
-163.08758544921875
 20
-5397.45849609375
 10
-161.81723022460938
 20
-5397.9462890625
 10
-160.50286865234375
 20
-5398.29833984375
 10
-159.1588897705078
 20
-5398.51123046875
 10
-157.80001831054688
 20
-5398.58251953125
 10
-156.44114685058594
 20
-5398.51123046875
 10
-155.09716796875
 20
-5398.29833984375
 10
-153.78280639648438
 20
-5397.9462890625
 10
-152.512451171875
 20
-5397.45849609375
 10
-151.30003356933594
 20
-5396.84033203125
 10
-150.1588134765625
 20
-5396.099609375
 10
-149.101318359375
 20
-5395.2431640625
 10
-148.13912963867188
 20
-5394.28125
 10
-147.2827911376953
 20
-5393.2236328125
 10
-146.54168701171875
 20
-5392.08251953125
 10
-145.92393493652344
 20
-5390.8701171875
 10
-145.436279296875
 20
-5389.599609375
 10
-145.08409118652344
 20
-5388.28515625
 10
-144.8712158203125
 20
-5386.94140625
 10
-144.8000030517578
 20
-5385.58251953125
 10
-144.8712158203125
 20
-5384.2236328125
 10
-145.08407592773438
 20
-5382.8798828125
 10
-145.43626403808594
 20
-5381.56494140625
 10
-145.9239044189453
 20
-5380.294921875
 10
-146.54165649414062
 20
-5379.08251953125
 10
-147.28274536132812
 20
-5377.94091796875
 10
-148.1390838623047
 20
-5376.8837890625
 10
-149.1012725830078
 20
-5375.921875
 10
-150.15875244140625
 20
-5375.0654296875
 10
-151.29995727539062
 20
-5374.32421875
 10
-152.5123748779297
 20
-5373.70654296875
 10
-153.78273010253906
 20
-5373.21875
 10
-155.0970916748047
 20
-5372.86669921875
 10
-156.44107055664062
 20
-5372.6533203125
  0
LWPOLYLINE
  5
42
330
17
100
AcDbEntity
  8
CUT
100
AcDbPolyline
 90
8
 70
1
 43
0.0
 10
73.70000457763672
 20
-5764.98876953125
 10
-118.08060455322266
 20
-5769.6708984375
 10
-277.1820373535156
 20
-5772.79296875
 10
-548.8101196289062
 20
-5782.15673828125
 10
-964.7488403320312
 20
-5804.00732421875
 10
-1694.8685302734375
 20
-5835.22216796875
 10
-1694.8685302734375
 20
-5913.25927734375
 10
73.70000457763672
 20
-5913.25927734375
  0
LWPOLYLINE
  5
43
330
17
100
AcDbEntity
  8
PEN
100
AcDbPolyline
 90
60
 70
1
 43
0.0
 10
-168.08059692382812
 20
-5834.25927734375
 10
-169.02134704589844
 20
-5834.30908203125
 10
-169.95179748535156
 20
-5834.45654296875
 10
-170.86175537109375
 20
-5834.7001953125
 10
-171.74122619628906
 20
-5835.03759765625
 10
-172.58059692382812
 20
-5835.46533203125
 10
-173.37066650390625
 20
-5835.978515625
 10
-174.10276794433594
 20
-5836.5712890625
 10
-174.76889038085938
 20
-5837.2373046875
 10
-175.36175537109375
 20
-5837.96923828125
 10
-175.8748321533203
 20
-5838.75927734375
 10
-176.30250549316406
 20
-5839.59912109375
 10
-176.64010620117188
 20
-5840.478515625
 10
-176.88392639160156
 20
-5841.38818359375
 10
-177.0312957763672
 20
-5842.31884765625
 10
-177.08059692382812
 20
-5843.259765625
 10
-177.0312957763672
 20
-5844.2001953125
 10
-176.88392639160156
 20
-5845.130859375
 10
-176.64010620117188
 20
-5846.04052734375
 10
-176.30250549316406
 20
-5846.919921875
 10
-175.8748321533203
 20
-5847.759765625
 10
-175.36175537109375
 20
-5848.5498046875
 10
-174.76889038085938
 20
-5849.28173828125
 10
-174.10276794433594
 20
-5849.94775390625
 10
-173.3706817626953
 20
-5850.54052734375
 10
-172.58059692382812
 20
-5851.0537109375
 10
-171.74122619628906
 20
-5851.4814453125
 10
-170.86175537109375
 20
-5851.81884765625
 10
-169.95181274414062
 20
-5852.0625
 10
-169.0213623046875
 20
-5852.2099609375
 10
-168.0806121826172
 20
-5852.259765625
 10
-167.13986206054688
 20
-5852.2099609375
 10
-166.2093963623047
 20
-5852.0625
 10
-165.29945373535156
 20
-5851.81884765625
 10
-164.41998291015625
 20
-5851.4814453125
 10
-163.5806121826172
 20
-5851.0537109375
 10
-162.79054260253906
 20
-5850.54052734375
 10
-162.05844116210938
 20
-5849.94775390625
 10
-161.39230346679688
 20
-5849.28173828125
 10
-160.79945373535156
 20
-5848.5498046875
 10
-160.286376953125
 20
-5847.759765625
 10
-159.85870361328125
 20
-5846.919921875
 10
-159.52110290527344
 20
-5846.04052734375
 10
-159.27728271484375
 20
-5845.130859375
 10
-159.12989807128906
 20
-5844.2001953125
 10
-159.08059692382812
 20
-5843.259765625
 10
-159.12989807128906
 20
-5842.31884765625
 10
-159.2772674560547
 20
-5841.38818359375
 10
-159.52108764648438
 20
-5840.478515625
 10
-159.85867309570312
 20
-5839.59912109375
 10
-160.28634643554688
 20
-5838.75927734375
 10
-160.79942321777344
 20
-5837.96923828125
 10
-161.39227294921875
 20
-5837.2373046875
 10
-162.0583953857422
 20
-5836.5712890625
 10
-162.79051208496094
 20
-5835.978515625
 10
-163.58056640625
 20
-5835.46533203125
 10
-164.41993713378906
 20
-5835.03759765625
 10
-165.29940795898438
 20
-5834.7001953125
 10
-166.2093505859375
 20
-5834.45654296875
 10
-167.13980102539062
 20
-5834.30908203125
  0
LWPOLYLINE
  5
45
330
17
100
AcDbEntity
  8
CUT
100
AcDbPolyline
 90
6
 70
1
 43
0.0
 10
62.19999694824219
 20
-6078.5830078125
 10
-122.98210906982422
 20
-6081.7041015625
 10
-276.8953552246094
 20
-6084.82568359375
 10
-1297.97119140625
 20
-6109.79736328125
 10
-1297.97119140625
 20
-6187.8349609375
 10
62.19999694824219
 20
-6187.8349609375
  0
LWPOLYLINE
  5
46
330
17
100
AcDbEntity
  8
PEN
100
AcDbPolyline
 90
60
 70
1
 43
0.0
 10
-162.9821014404297
 20
-6123.83447265625
 10
-163.92286682128906
 20
-6123.88427734375
 10
-164.85330200195312
 20
-6124.03173828125
 10
-165.7632598876953
 20
-6124.275390625
 10
-166.6427459716797
 20
-6124.61279296875
 10
-167.4821014404297
 20
-6125.04052734375
 10
-168.2721710205078
 20
-6125.5537109375
 10
-169.0042724609375
 20
-6126.146484375
 10
-169.67041015625
 20
-6126.8125
 10
-170.2632598876953
 20
-6127.54443359375
 10
-170.77633666992188
 20
-6128.33447265625
 10
-171.20401000976562
 20
-6129.17431640625
 10
-171.54161071777344
 20
-6130.0537109375
 10
-171.78543090820312
 20
-6130.96337890625
 10
-171.93280029296875
 20
-6131.89404296875
 10
-171.98211669921875
 20
-6132.83447265625
 10
-171.93280029296875
 20
-6133.775390625
 10
-171.78543090820312
 20
-6134.7060546875
 10
-171.54161071777344
 20
-6135.61572265625
 10
-171.20401000976562
 20
-6136.4951171875
 10
-170.77633666992188
 20
-6137.3349609375
 10
-170.2632598876953
 20
-6138.125
 10
-169.67041015625
 20
-6138.85693359375
 10
-169.0042724609375
 20
-6139.52294921875
 10
-168.27218627929688
 20
-6140.11572265625
 10
-167.4821014404297
 20
-6140.62890625
 10
-166.6427459716797
 20
-6141.056640625
 10
-165.7632598876953
 20
-6141.39404296875
 10
-164.8533172607422
 20
-6141.6376953125
 10
-163.92288208007812
 20
-6141.78515625
 10
-162.98211669921875
 20
-6141.8349609375
 10
-162.04136657714844
 20
-6141.78515625
 10
-161.11090087890625
 20
-6141.6376953125
 10
-160.2009735107422
 20
-6141.39404296875
 10
-159.3214874267578
 20
-6141.056640625
 10
-158.48211669921875
 20
-6140.62890625
 10
-157.69204711914062
 20
-6140.11572265625
 10
-156.95994567871094
 20
-6139.52294921875
 10
-156.29380798339844
 20
-6138.85693359375
 10
-155.7009735107422
 20
-6138.125
 10
-155.18789672851562
 20
-6137.3349609375
 10
-154.7602081298828
 20
-6136.4951171875
 10
-154.422607421875
 20
-6135.61572265625
 10
-154.1787872314453
 20
-6134.7060546875
 10
-154.0314178466797
 20
-6133.775390625
 10
-153.9821014404297
 20
-6132.8349609375
 10
-154.0314178466797
 20
-6131.89404296875
 10
-154.17877197265625
 20
-6130.96337890625
 10
-154.42259216308594
 20
-6130.0537109375
 10
-154.7601776123047
 20
-6129.17431640625
 10
-155.1878662109375
 20
-6128.33447265625
 10
-155.70094299316406
 20
-6127.54443359375
 10
-156.2937774658203
 20
-6126.8125
 10
-156.95989990234375
 20
-6126.146484375
 10
-157.6920166015625
 20
-6125.5537109375
 10
-158.48207092285156
 20
-6125.04052734375
 10
-159.32144165039062
 20
-6124.61279296875
 10
-160.200927734375
 20
-6124.275390625
 10
-161.11087036132812
 20
-6124.03173828125
 10
-162.0413055419922
 20
-6123.88427734375
  0
MTEXT
  5
48
330
17
100
AcDbEntity
  8
TEXT
100
AcDbMText
 10
0.0
 20
-3500.0
 30
0.0
 40
200.0
 71
1
  3
This work is licensed under a Creative Commons \PAttribution-NonCommercial-ShareAlike 4.0 International License\Phttp://creativecommons.org/licenses/by-nc-sa/4.0/\PYou may not use this kite design for commercial purposes\PAuthor: Karsten Gaebert (inf
  1
o@wingworks.de)\PCreated: 2020-03-11
  0
ENDSEC
  0
SECTION
  2
OBJECTS
  0
DICTIONARY
  5
A
330
0
100
AcDbDictionary
281
1
  3
ACAD_MLINESTYLE
350
10
  3
ACAD_LAYOUT
350
D
  3
ACAD_TABLESTYLE
350
15
  3
ACAD_GROUP
350
C
  3
ACAD_MLEADERSTYLE
350
F
  3
ACAD_COLOR
350
B
  3
ACAD_PLOTSTYLENAME
350
12
  3
ACAD_VISUALSTYLE
350
16
  3
ACAD_SCALELIST
350
14
  3
ACAD_PLOTSETTINGS
350
11
  3
ACAD_MATERIAL
350
E
  0
DICTIONARY
  5
B
330
A
100
AcDbDictionary
281
1
  0
DICTIONARY
  5
C
330
A
100
AcDbDictionary
281
1
  3
Copyright_(131)
350
47
  3
tpu UV-Bladder-STRUT-1_(1)
350
41
  3
tpu UV-Bladder-STRUT-5_(2)
350
44
  3
tpu UV-Bladder-LE_(0)
350
3A
  0
DICTIONARY
  5
D
330
A
100
AcDbDictionary
281
1
  3
Layout1
350
1E
  3
Model
350
1A
  0
DICTIONARY
  5
E
330
A
100
AcDbDictionary
281
1
  3
ByBlock
350
1F
  3
Global
350
21
  3
ByLayer
350
20
  0
DICTIONARY
  5
F
330
A
100
AcDbDictionary
281
1
  3
Standard
350
2C
  0
DICTIONARY
  5
10
330
A
100
AcDbDictionary
281
1
  3
Standard
350
22
  0
DICTIONARY
  5
11
330
A
100
AcDbDictionary
281
1
  0
ACDBDICTIONARYWDFLT
  5
12
330
A
100
AcDbDictionary
281
1
  3
Normal
350
13
100
AcDbDictionaryWithDefault
340
13
  0
ACDBPLACEHOLDER
  5
13
330
12
  0
DICTIONARY
  5
14
330
A
100
AcDbDictionary
281
1
  0
DICTIONARY
  5
15
330
A
100
AcDbDictionary
281
1
  0
DICTIONARY
  5
16
330
A
100
AcDbDictionary
281
1
  0
LAYOUT
  5
1A
330
D
100
AcDbPlotSettings
  1

  2
Adobe PDF
  4
A4
  6

 40
3.175
 41
3.175
 42
3.175
 43
3.175
 44
209.91
 45
297.03
 46
0.0
 47
0.0
 48
0.0
 49
0.0
140
0.0
141
0.0
142
1.0
143
1.0
 70
688
 72
0
 73
1
 74
5
  7

 75
16
 76
0
 77
2
 78
300
147
1.0
148
0.0
149
0.0
100
AcDbLayout
  1
Model
 70
1
 71
0
 10
-3.175
 20
-3.175
 11
293.857
 21
206.735
 12
0.0
 22
0.0
 32
0.0
 14
29.068
 24
20.356
 34
0.0
 15
261.614
 25
183.204
 35
0.0
146
0.0
 13
0.0
 23
0.0
 33
0.0
 16
1.0
 26
0.0
 36
0.0
 17
0.0
 27
1.0
 37
0.0
 76
1
330
17
  0
LAYOUT
  5
1E
330
D
100
AcDbPlotSettings
  1

  2
Adobe PDF
  4
A4
  6

 40
3.175
 41
3.175
 42
3.175
 43
3.175
 44
209.91
 45
297.03
 46
0.0
 47
0.0
 48
0.0
 49
0.0
140
0.0
141
0.0
142
1.0
143
1.0
 70
688
 72
0
 73
1
 74
5
  7

 75
16
 76
0
 77
2
 78
300
147
1.0
148
0.0
149
0.0
100
AcDbLayout
  1
Layout1
 70
1
 71
1
 10
-3.175
 20
-3.175
 11
293.857
 21
206.735
 12
0.0
 22
0.0
 32
0.0
 14
29.068
 24
20.356
 34
0.0
 15
261.614
 25
183.204
 35
0.0
146
0.0
 13
0.0
 23
0.0
 33
0.0
 16
1.0
 26
0.0
 36
0.0
 17
0.0
 27
1.0
 37
0.0
 76
1
330
1B
  0
MATERIAL
  5
1F
102
{ACAD_REACTORS
330
E
102
}
330
E
100
AcDbMaterial
  1
ByBlock
  2

 70
0
 40
1.0
 71
1
 41
1.0
 91
-1023410177
 42
1.0
 72
1
  3

 73
1
 74
1
 75
1
 44
0.5
 73
0
 45
1.0
 46
1.0
 77
1
  4

 78
1
 79
1
170
1
 48
1.0
171
1
  6

172
1
173
1
174
1
140
1.0
141
1.0
175
1
  7

176
1
177
1
178
1
143
1.0
179
1
  8

270
1
271
1
272
1
145
1.0
146
1.0
273
1
  9

274
1
275
1
276
1
 42
1.0
 72
1
  3

 73
1
 74
1
 75
1
 94
63
  0
MATERIAL
  5
20
102
{ACAD_REACTORS
330
E
102
}
330
E
100
AcDbMaterial
  1
ByLayer
  2

 70
0
 40
1.0
 71
1
 41
1.0
 91
-1023410177
 42
1.0
 72
1
  3

 73
1
 74
1
 75
1
 44
0.5
 73
0
 45
1.0
 46
1.0
 77
1
  4

 78
1
 79
1
170
1
 48
1.0
171
1
  6

172
1
173
1
174
1
140
1.0
141
1.0
175
1
  7

176
1
177
1
178
1
143
1.0
179
1
  8

270
1
271
1
272
1
145
1.0
146
1.0
273
1
  9

274
1
275
1
276
1
 42
1.0
 72
1
  3

 73
1
 74
1
 75
1
 94
63
  0
MATERIAL
  5
21
102
{ACAD_REACTORS
330
E
102
}
330
E
100
AcDbMaterial
  1
Global
  2

 70
0
 40
1.0
 71
1
 41
1.0
 91
-1023410177
 42
1.0
 72
1
  3

 73
1
 74
1
 75
1
 44
0.5
 73
0
 45
1.0
 46
1.0
 77
1
  4

 78
1
 79
1
170
1
 48
1.0
171
1
  6

172
1
173
1
174
1
140
1.0
141
1.0
175
1
  7

176
1
177
1
178
1
143
1.0
179
1
  8

270
1
271
1
272
1
145
1.0
146
1.0
273
1
  9

274
1
275
1
276
1
 42
1.0
 72
1
  3

 73
1
 74
1
 75
1
 94
63
  0
MLINESTYLE
  5
22
102
{ACAD_REACTORS
330
10
102
}
330
10
100
AcDbMlineStyle
 52
90.0
 51
90.0
  2
Standard
 70
0
 62
256
  3

 71
2
 49
0.5
 62
256
  6
BYLAYER
 49
-0.5
 62
256
  6
BYLAYER
  0
MLEADERSTYLE
  5
2C
102
{ACAD_REACTORS
330
F
102
}
330
F
100
AcDbMLeaderStyle
142
1.0
143
3.75
175
1
291
1
 47
1.0
 44
4.0
271
0
179
2
292
0
140
1.0
 92
-2
297
0
290
1
 46
4.0
 40
0.0
  3
Standard
300

141
0.0
178
1
177
0
 93
-1056964608
 91
-1056964608
 90
2
296
0
 45
4.0
176
0
170
2
342
29
172
0
 41
0.0
171
1
 42
2.0
272
9
173
1
294
1
295
0
174
1
 43
8.0
 94
-1056964608
 49
0.0
272
9
  0
GROUP
  5
3A
102
{ACAD_REACTORS
330
C
102
}
330
C
100
AcDbGroup
300

 70
0
 71
1
340
3B
340
3C
340
3D
340
3E
340
3F
340
40
  0
GROUP
  5
41
102
{ACAD_REACTORS
330
C
102
}
330
C
100
AcDbGroup
300

 70
0
 71
1
340
42
340
43
  0
GROUP
  5
44
102
{ACAD_REACTORS
330
C
102
}
330
C
100
AcDbGroup
300

 70
0
 71
1
340
45
340
46
  0
GROUP
  5
47
102
{ACAD_REACTORS
330
C
102
}
330
C
100
AcDbGroup
300

 70
0
 71
1
340
48
  0
ENDSEC
  0
EOF
