  0
SECTION
  2
HEADER
  9
$ACADVER
  1
AC1024
  9
$ACADMAINTVER
 90
4
  9
$DWGCODEPAGE
  3
ANSI_1252
  9
$LASTSAVEDBY
  1
ezdxf
  9
$INSBASE
 10
0.0
 20
0.0
 30
0.0
  9
$EXTMIN
 10
-100
 20
-100
 30
-100
  9
$EXTMAX
 10
100
 20
100
 30
100
  9
$LIMMIN
 10
0.0
 20
0.0
  9
$LIMMAX
 10
420.0
 20
297.0
  9
$ORTHOMODE
 70
0
  9
$REGENMODE
 70
1
  9
$FILLMODE
 70
1
  9
$QTEXTMODE
 70
0
  9
$MIRRTEXT
 70
1
  9
$LTSCALE
 40
1.0
  9
$ATTMODE
 70
1
  9
$TEXTSIZE
 40
2.5
  9
$TRACEWID
 40
1.0
  9
$TEXTSTYLE
  7
Standard
  9
$CLAYER
  8
0
  9
$CELTYPE
  6
ByLayer
  9
$CECOLOR
 62
256
  9
$CELTSCALE
 40
1.0
  9
$DISPSILH
 70
0
  9
$DIMSCALE
 40
1.0
  9
$DIMASZ
 40
2.5
  9
$DIMEXO
 40
0.625
  9
$DIMDLI
 40
3.75
  9
$DIMRND
 40
0.0
  9
$DIMDLE
 40
0.0
  9
$DIMEXE
 40
1.25
  9
$DIMTP
 40
0.0
  9
$DIMTM
 40
0.0
  9
$DIMTXT
 40
2.5
  9
$DIMCEN
 40
2.5
  9
$DIMTSZ
 40
0.0
  9
$DIMTOL
 70
0
  9
$DIMLIM
 70
0
  9
$DIMTIH
 70
0
  9
$DIMTOH
 70
0
  9
$DIMSE1
 70
0
  9
$DIMSE2
 70
0
  9
$DIMTAD
 70
1
  9
$DIMZIN
 70
8
  9
$DIMBLK
  1

  9
$DIMASO
 70
1
  9
$DIMSHO
 70
1
  9
$DIMPOST
  1

  9
$DIMAPOST
  1

  9
$DIMALT
 70
0
  9
$DIMALTD
 70
3
  9
$DIMALTF
 40
0.03937007874
  9
$DIMLFAC
 40
1.0
  9
$DIMTOFL
 70
1
  9
$DIMTVP
 40
0.0
  9
$DIMTIX
 70
0
  9
$DIMSOXD
 70
0
  9
$DIMSAH
 70
0
  9
$DIMBLK1
  1

  9
$DIMBLK2
  1

  9
$DIMSTYLE
  2
ISO-25
  9
$DIMCLRD
 70
0
  9
$DIMCLRE
 70
0
  9
$DIMCLRT
 70
0
  9
$DIMTFAC
 40
1.0
  9
$DIMGAP
 40
0.625
  9
$DIMJUST
 70
0
  9
$DIMSD1
 70
0
  9
$DIMSD2
 70
0
  9
$DIMTOLJ
 70
0
  9
$DIMTZIN
 70
8
  9
$DIMALTZ
 70
0
  9
$DIMALTTZ
 70
0
  9
$DIMUPT
 70
0
  9
$DIMDEC
 70
2
  9
$DIMTDEC
 70
2
  9
$DIMALTU
 70
2
  9
$DIMALTTD
 70
3
  9
$DIMTXSTY
  7
Standard
  9
$DIMAUNIT
 70
0
  9
$DIMADEC
 70
0
  9
$DIMALTRND
 40
0.0
  9
$DIMAZIN
 70
0
  9
$DIMDSEP
 70
44
  9
$DIMATFIT
 70
3
  9
$DIMFRAC
 70
0
  9
$DIMLDRBLK
  1

  9
$DIMLUNIT
 70
2
  9
$DIMLWD
 70
-2
  9
$DIMLWE
 70
-2
  9
$DIMTMOVE
 70
0
  9
$DIMFXL
 40
1.0
  9
$DIMFXLON
 70
0
  9
$DIMJOGANG
 40
0.785398163397
  9
$DIMTFILL
 70
0
  9
$DIMTFILLCLR
 70
0
  9
$DIMARCSYM
 70
0
  9
$DIMLTYPE
  6

  9
$DIMLTEX1
  6

  9
$DIMLTEX2
  6

  9
$DIMTXTDIRECTION
 70
0
  9
$LUNITS
 70
2
  9
$LUPREC
 70
4
  9
$SKETCHINC
 40
1.0
  9
$FILLETRAD
 40
10.0
  9
$AUNITS
 70
0
  9
$AUPREC
 70
2
  9
$MENU
  1
.
  9
$ELEVATION
 40
0.0
  9
$PELEVATION
 40
0.0
  9
$THICKNESS
 40
0.0
  9
$LIMCHECK
 70
0
  9
$CHAMFERA
 40
0.0
  9
$CHAMFERB
 40
0.0
  9
$CHAMFERC
 40
0.0
  9
$CHAMFERD
 40
0.0
  9
$SKPOLY
 70
0
  9
$TDCREATE
 40
2458920.837314815
  9
$TDUCREATE
 40
2458532.153996898
  9
$TDUPDATE
 40
2458920.837314815
  9
$TDUUPDATE
 40
2458532.1544311
  9
$TDINDWG
 40
0.0
  9
$TDUSRTIMER
 40
0.0
  9
$USRTIMER
 70
1
  9
$ANGBASE
 50
0.0
  9
$ANGDIR
 70
0
  9
$PDMODE
 70
0
  9
$PDSIZE
 40
0.0
  9
$PLINEWID
 40
0.0
  9
$SPLFRAME
 70
0
  9
$SPLINETYPE
 70
6
  9
$SPLINESEGS
 70
8
  9
$HANDSEED
  5
152
  9
$SURFTAB1
 70
6
  9
$SURFTAB2
 70
6
  9
$SURFTYPE
 70
6
  9
$SURFU
 70
6
  9
$SURFV
 70
6
  9
$UCSBASE
  2

  9
$UCSNAME
  2

  9
$UCSORG
 10
0.0
 20
0.0
 30
0.0
  9
$UCSXDIR
 10
1.0
 20
0.0
 30
0.0
  9
$UCSYDIR
 10
0.0
 20
1.0
 30
0.0
  9
$UCSORTHOREF
  2

  9
$UCSORTHOVIEW
 70
0
  9
$UCSORGTOP
 10
0.0
 20
0.0
 30
0.0
  9
$UCSORGBOTTOM
 10
0.0
 20
0.0
 30
0.0
  9
$UCSORGLEFT
 10
0.0
 20
0.0
 30
0.0
  9
$UCSORGRIGHT
 10
0.0
 20
0.0
 30
0.0
  9
$UCSORGFRONT
 10
0.0
 20
0.0
 30
0.0
  9
$UCSORGBACK
 10
0.0
 20
0.0
 30
0.0
  9
$PUCSBASE
  2

  9
$PUCSNAME
  2

  9
$PUCSORG
 10
0.0
 20
0.0
 30
0.0
  9
$PUCSXDIR
 10
1.0
 20
0.0
 30
0.0
  9
$PUCSYDIR
 10
0.0
 20
1.0
 30
0.0
  9
$PUCSORTHOREF
  2

  9
$PUCSORTHOVIEW
 70
0
  9
$PUCSORGTOP
 10
0.0
 20
0.0
 30
0.0
  9
$PUCSORGBOTTOM
 10
0.0
 20
0.0
 30
0.0
  9
$PUCSORGLEFT
 10
0.0
 20
0.0
 30
0.0
  9
$PUCSORGRIGHT
 10
0.0
 20
0.0
 30
0.0
  9
$PUCSORGFRONT
 10
0.0
 20
0.0
 30
0.0
  9
$PUCSORGBACK
 10
0.0
 20
0.0
 30
0.0
  9
$USERI1
 70
0
  9
$USERI2
 70
0
  9
$USERI3
 70
0
  9
$USERI4
 70
0
  9
$USERI5
 70
0
  9
$USERR1
 40
0.0
  9
$USERR2
 40
0.0
  9
$USERR3
 40
0.0
  9
$USERR4
 40
0.0
  9
$USERR5
 40
0.0
  9
$WORLDVIEW
 70
1
  9
$SHADEDGE
 70
3
  9
$SHADEDIF
 70
70
  9
$TILEMODE
 70
1
  9
$MAXACTVP
 70
64
  9
$PINSBASE
 10
0.0
 20
0.0
 30
0.0
  9
$PLIMCHECK
 70
0
  9
$PEXTMIN
 10
1e+20
 20
1e+20
 30
1e+20
  9
$PEXTMAX
 10
-1e+20
 20
-1e+20
 30
-1e+20
  9
$PLIMMIN
 10
0.0
 20
0.0
  9
$PLIMMAX
 10
420.0
 20
297.0
  9
$UNITMODE
 70
0
  9
$VISRETAIN
 70
1
  9
$PLINEGEN
 70
0
  9
$PSLTSCALE
 70
1
  9
$TREEDEPTH
 70
3020
  9
$CMLSTYLE
  2
Standard
  9
$CMLJUST
 70
0
  9
$CMLSCALE
 40
20.0
  9
$PROXYGRAPHICS
 70
1
  9
$MEASUREMENT
 70
1
  9
$CELWEIGHT
370
-1
  9
$ENDCAPS
280
0
  9
$JOINSTYLE
280
0
  9
$LWDISPLAY
290
0
  9
$INSUNITS
 70
4
  9
$HYPERLINKBASE
  1

  9
$STYLESHEET
  1

  9
$XEDIT
290
1
  9
$CEPSNTYPE
380
0
  9
$PSTYLEMODE
290
1
  9
$FINGERPRINTGUID
  2
4ED28F52-63CB-11EA-A70D-58946B7B6068
  9
$VERSIONGUID
  2
4ED28F54-63CB-11EA-A70D-58946B7B6068
  9
$EXTNAMES
290
1
  9
$PSVPSCALE
 40
0.0
  9
$OLESTARTUP
290
0
  9
$SORTENTS
280
127
  9
$INDEXCTL
280
0
  9
$HIDETEXT
280
1
  9
$XCLIPFRAME
280
2
  9
$HALOGAP
280
0
  9
$OBSCOLOR
 70
257
  9
$OBSLTYPE
280
0
  9
$INTERSECTIONDISPLAY
280
0
  9
$INTERSECTIONCOLOR
 70
257
  9
$DIMASSOC
280
2
  9
$PROJECTNAME
  1

  9
$CAMERADISPLAY
290
0
  9
$LENSLENGTH
 40
50.0
  9
$CAMERAHEIGHT
 40
0.0
  9
$STEPSPERSEC
 40
24.0
  9
$STEPSIZE
 40
100.0
  9
$3DDWFPREC
 40
2.0
  9
$PSOLWIDTH
 40
0.005
  9
$PSOLHEIGHT
 40
0.08
  9
$LOFTANG1
 40
1.570796326795
  9
$LOFTANG2
 40
1.570796326795
  9
$LOFTMAG1
 40
0.0
  9
$LOFTMAG2
 40
0.0
  9
$LOFTPARAM
 70
7
  9
$LOFTNORMALS
280
1
  9
$LATITUDE
 40
37.795
  9
$LONGITUDE
 40
-122.394
  9
$NORTHDIRECTION
 40
0.0
  9
$TIMEZONE
 70
-8000
  9
$LIGHTGLYPHDISPLAY
280
1
  9
$TILEMODELIGHTSYNCH
280
1
  9
$CMATERIAL
347
45
  9
$SOLIDHIST
280
0
  9
$SHOWHIST
280
1
  9
$DWFFRAME
280
2
  9
$DGNFRAME
280
2
  9
$REALWORLDSCALE
290
1
  9
$INTERFERECOLOR
 62
256
  9
$CSHADOW
280
0
  9
$SHADOWPLANELOCATION
 40
0.0
  0
ENDSEC
  0
SECTION
  2
CLASSES
  0
CLASS
  1
ACDBDICTIONARYWDFLT
  2
AcDbDictionaryWithDefault
  3
ObjectDBX Classes
 90
0
 91
0
280
0
281
0
  0
CLASS
  1
SUN
  2
AcDbSun
  3
SCENEOE
 90
1153
 91
0
280
0
281
0
  0
CLASS
  1
VISUALSTYLE
  2
AcDbVisualStyle
  3
ObjectDBX Classes
 90
4095
 91
0
280
0
281
0
  0
CLASS
  1
MATERIAL
  2
AcDbMaterial
  3
ObjectDBX Classes
 90
1153
 91
0
280
0
281
0
  0
CLASS
  1
SCALE
  2
AcDbScale
  3
ObjectDBX Classes
 90
1153
 91
0
280
0
281
0
  0
CLASS
  1
TABLESTYLE
  2
AcDbTableStyle
  3
ObjectDBX Classes
 90
4095
 91
0
280
0
281
0
  0
CLASS
  1
MLEADERSTYLE
  2
AcDbMLeaderStyle
  3
ACDB_MLEADERSTYLE_CLASS
 90
4095
 91
0
280
0
281
0
  0
CLASS
  1
DICTIONARYVAR
  2
AcDbDictionaryVar
  3
ObjectDBX Classes
 90
0
 91
0
280
0
281
0
  0
CLASS
  1
CELLSTYLEMAP
  2
AcDbCellStyleMap
  3
ObjectDBX Classes
 90
1152
 91
0
280
0
281
0
  0
CLASS
  1
MENTALRAYRENDERSETTINGS
  2
AcDbMentalRayRenderSettings
  3
SCENEOE
 90
1024
 91
0
280
0
281
0
  0
CLASS
  1
ACDBDETAILVIEWSTYLE
  2
AcDbDetailViewStyle
  3
ObjectDBX Classes
 90
1025
 91
0
280
0
281
0
  0
CLASS
  1
ACDBSECTIONVIEWSTYLE
  2
AcDbSectionViewStyle
  3
ObjectDBX Classes
 90
1025
 91
0
280
0
281
0
  0
CLASS
  1
RASTERVARIABLES
  2
AcDbRasterVariables
  3
ISM
 90
0
 91
0
280
0
281
0
  0
CLASS
  1
LAYOUT
  2
AcDbLayout
  3
ObjectDBX Classes
 90
0
 91
0
280
0
281
0
  0
CLASS
  1
ACDBPLACEHOLDER
  2
AcDbPlaceHolder
  3
ObjectDBX Classes
 90
0
 91
0
280
0
281
0
  0
ENDSEC
  0
SECTION
  2
TABLES
  0
TABLE
  2
VPORT
  5
4
330
0
100
AcDbSymbolTable
 70
1
  0
VPORT
  5
23
330
4
100
AcDbSymbolTableRecord
100
AcDbViewportTableRecord
  2
*Active
 70
0
 10
0.0
 20
0.0
 11
1.0
 21
1.0
 12
70.0
 22
50.0
 13
0.0
 23
0.0
 14
0.5
 24
0.5
 15
0.5
 25
0.5
 16
0.0
 26
0.0
 36
1.0
 17
0.0
 27
0.0
 37
0.0
 40
1.0
 41
1.34
 42
50.0
 43
0.0
 44
0.0
 50
0.0
 51
0.0
 71
0
 72
1000
 73
1
 74
3
 75
0
 76
0
 77
0
 78
0
281
0
 65
0
146
0.0
  0
ENDTAB
  0
TABLE
  2
LTYPE
  5
3
330
0
100
AcDbSymbolTable
 70
4
  0
LTYPE
  5
24
330
3
100
AcDbSymbolTableRecord
100
AcDbLinetypeTableRecord
  2
ByBlock
 70
0
  3

 72
65
 73
0
 40
0.0
  0
LTYPE
  5
25
330
3
100
AcDbSymbolTableRecord
100
AcDbLinetypeTableRecord
  2
ByLayer
 70
0
  3

 72
65
 73
0
 40
0.0
  0
LTYPE
  5
26
330
3
100
AcDbSymbolTableRecord
100
AcDbLinetypeTableRecord
  2
Continuous
 70
0
  3

 72
65
 73
0
 40
0.0
  0
LTYPE
  5
39
330
3
100
AcDbSymbolTableRecord
100
AcDbLinetypeTableRecord
  2
DASHED
 70
0
  3
Dashed - - - - - - - - - - - - - - - - - - - - - - -
 72
65
 73
2
 40
8.0
 49
-3.0
 74
0
 49
8.0
 74
0
  0
ENDTAB
  0
TABLE
  2
LAYER
  5
6
330
0
100
AcDbSymbolTable
 70
14
  0
LAYER
  5
27
330
6
100
AcDbSymbolTableRecord
100
AcDbLayerTableRecord
  2
0
 70
0
 62
7
  6
Continuous
370
-3
390
13
347
21
  0
LAYER
  5
28
330
6
100
AcDbSymbolTableRecord
100
AcDbLayerTableRecord
  2
Defpoints
 70
0
 62
7
  6
Continuous
290
0
370
-3
390
13
347
21
  0
LAYER
  5
2D
330
6
100
AcDbSymbolTableRecord
100
AcDbLayerTableRecord
  2
SAIL
 70
0
 62
0
  6
Continuous
370
50
390
13
347
21
  0
LAYER
  5
2E
330
6
100
AcDbSymbolTableRecord
100
AcDbLayerTableRecord
  2
TUBE
 70
0
 62
0
  6
Continuous
370
50
390
13
347
21
  0
LAYER
  5
2F
330
6
100
AcDbSymbolTableRecord
100
AcDbLayerTableRecord
  2
BLADDER
 70
0
 62
0
  6
Continuous
370
50
390
13
347
21
  0
LAYER
  5
30
330
6
100
AcDbSymbolTableRecord
100
AcDbLayerTableRecord
  2
PEN
 70
0
 62
5
  6
Continuous
370
-3
390
13
347
21
  0
LAYER
  5
31
330
6
100
AcDbSymbolTableRecord
100
AcDbLayerTableRecord
  2
SEAM
 70
0
 62
1
  6
DASHED
370
35
390
13
347
21
  0
LAYER
  5
32
330
6
100
AcDbSymbolTableRecord
100
AcDbLayerTableRecord
  2
MARKER
 70
0
 62
8
  6
Continuous
370
-3
390
13
347
21
  0
LAYER
  5
33
330
6
100
AcDbSymbolTableRecord
100
AcDbLayerTableRecord
  2
TEXT
 70
0
 62
3
  6
Continuous
370
-3
390
13
347
21
  0
LAYER
  5
34
330
6
100
AcDbSymbolTableRecord
100
AcDbLayerTableRecord
  2
REINFORCEMENT
 70
0
 62
4
  6
Continuous
370
50
390
13
347
21
  0
LAYER
  5
35
330
6
100
AcDbSymbolTableRecord
100
AcDbLayerTableRecord
  2
PROTECTION
 70
0
 62
6
  6
Continuous
370
50
390
13
347
21
  0
LAYER
  5
36
330
6
100
AcDbSymbolTableRecord
100
AcDbLayerTableRecord
  2
WEBBING
 70
0
 62
2
  6
Continuous
370
35
390
13
347
21
  0
LAYER
  5
37
330
6
100
AcDbSymbolTableRecord
100
AcDbLayerTableRecord
  2
CUT
 70
0
 62
6
  6
Continuous
370
50
390
13
347
21
  0
LAYER
  5
38
330
6
100
AcDbSymbolTableRecord
100
AcDbLayerTableRecord
  2
DRILL
 70
0
 62
2
  6
Continuous
370
35
390
13
347
21
  0
ENDTAB
  0
TABLE
  2
STYLE
  5
7
330
0
100
AcDbSymbolTable
 70
1
  0
STYLE
  5
29
330
7
100
AcDbSymbolTableRecord
100
AcDbTextStyleTableRecord
  2
Standard
 70
0
 40
0.0
 41
1.0
 50
0.0
 71
0
 42
2.5
  3
txt
  4

  0
ENDTAB
  0
TABLE
  2
VIEW
  5
9
330
0
100
AcDbSymbolTable
 70
0
  0
ENDTAB
  0
TABLE
  2
UCS
  5
5
330
0
100
AcDbSymbolTable
 70
0
  0
ENDTAB
  0
TABLE
  2
APPID
  5
8
330
0
100
AcDbSymbolTable
 70
1
  0
APPID
  5
2A
330
8
100
AcDbSymbolTableRecord
100
AcDbRegAppTableRecord
  2
ACAD
 70
0
  0
ENDTAB
  0
TABLE
  2
DIMSTYLE
  5
2
330
0
100
AcDbSymbolTable
 70
1
100
AcDbDimStyleTable
  0
DIMSTYLE
105
2B
330
2
100
AcDbSymbolTableRecord
100
AcDbDimStyleTableRecord
  2
Standard
 70
0
 40
1.0
 41
2.5
 42
0.625
 43
3.75
 44
1.25
 45
0.0
 46
0.0
 47
0.0
 48
0.0
 49
2.5
140
2.5
141
2.5
142
0.0
143
0.03937007874
144
1.0
145
0.0
146
1.0
147
0.625
148
0.0
 69
0
 70
0
 71
0
 72
0
 73
0
 74
0
 75
0
 76
0
 77
1
 78
8
 79
0
170
0
171
3
172
1
173
0
174
0
175
0
176
0
177
0
178
0
179
0
271
0
272
2
273
2
274
3
275
0
276
0
277
2
278
44
279
0
280
0
281
0
282
0
283
0
284
8
285
0
286
0
288
0
289
3
290
0
371
-2
372
-2
  0
ENDTAB
  0
TABLE
  2
BLOCK_RECORD
  5
1
330
0
100
AcDbSymbolTable
 70
2
  0
BLOCK_RECORD
  5
17
330
1
100
AcDbSymbolTableRecord
100
AcDbBlockTableRecord
  2
*Model_Space
340
1A
 70
0
280
1
281
1
  0
BLOCK_RECORD
  5
1B
330
1
100
AcDbSymbolTableRecord
100
AcDbBlockTableRecord
  2
*Paper_Space
340
1E
 70
0
280
1
281
1
  0
ENDTAB
  0
ENDSEC
  0
SECTION
  2
BLOCKS
  0
BLOCK
  5
18
330
17
100
AcDbEntity
  8
0
100
AcDbBlockBegin
  2
*Model_Space
 70
0
 10
0.0
 20
0.0
 30
0.0
  3
*Model_Space
  1

  0
ENDBLK
  5
19
330
17
100
AcDbEntity
  8
0
100
AcDbBlockEnd
  0
BLOCK
  5
1C
330
1B
100
AcDbEntity
  8
0
100
AcDbBlockBegin
  2
*Paper_Space
 70
0
 10
0.0
 20
0.0
 30
0.0
  3
*Paper_Space
  1

  0
ENDBLK
  5
1D
330
1B
100
AcDbEntity
  8
0
100
AcDbBlockEnd
  0
ENDSEC
  0
SECTION
  2
ENTITIES
  0
LINE
  5
3B
330
17
100
AcDbEntity
  8
PEN
100
AcDbLine
 10
-224.8856201171875
 20
926.4151611328125
 30
0.0
 11
-234.88560485839844
 21
926.4151611328125
 31
0.0
  0
LINE
  5
3C
330
17
100
AcDbEntity
  8
PEN
100
AcDbLine
 10
-229.88560485839844
 20
931.4151611328125
 30
0.0
 11
-229.88560485839844
 21
921.4151611328125
 31
0.0
  0
LINE
  5
3D
330
17
100
AcDbEntity
  8
PEN
100
AcDbLine
 10
-730.22509765625
 20
970.6530151367188
 30
0.0
 11
-740.22509765625
 21
970.6530151367188
 31
0.0
  0
LINE
  5
3E
330
17
100
AcDbEntity
  8
PEN
100
AcDbLine
 10
-735.22509765625
 20
975.6530151367188
 30
0.0
 11
-735.22509765625
 21
965.6530151367188
 31
0.0
  0
LWPOLYLINE
  5
3F
330
17
100
AcDbEntity
  8
CUT
100
AcDbPolyline
 90
93
 70
0
 43
0.0
 10
-195.62989807128906
 20
2519.78662109375
 10
-195.50067138671875
 20
2511.78271484375
 10
-194.10882568359375
 20
2425.53515625
 10
-192.7650909423828
 20
2342.884033203125
 10
-191.4720458984375
 20
2263.83203125
 10
-190.22764587402344
 20
2188.077392578125
 10
-189.0318145751953
 20
2115.437255859375
 10
-187.89193725585938
 20
2046.1761474609375
 10
-186.8032684326172
 20
1979.807373046875
 10
-185.7738494873047
 20
1916.6416015625
 10
-184.80238342285156
 20
1856.391845703125
 10
-183.8902130126953
 20
1798.9525146484375
 10
-183.0390167236328
 20
1744.2333984375
 10
-182.25149536132812
 20
1692.18408203125
 10
-181.52981567382812
 20
1642.73681640625
 10
-180.87545776367188
 20
1595.7681884765625
 10
-180.29010009765625
 20
1551.17041015625
 10
-179.7764129638672
 20
1508.894287109375
 10
-179.3361053466797
 20
1468.82373046875
 10
-178.9712371826172
 20
1430.871337890625
 10
-178.68414306640625
 20
1394.9442138671875
 10
-178.47705078125
 20
1360.9451904296875
 10
-178.35220336914062
 20
1328.794189453125
 10
-178.31190490722656
 20
1298.3834228515625
 10
-178.3587646484375
 20
1269.6019287109375
 10
-178.49514770507812
 20
1242.369140625
 10
-178.7239532470703
 20
1216.573486328125
 10
-179.04788208007812
 20
1192.103759765625
 10
-179.47007751464844
 20
1168.85986328125
 10
-179.9937286376953
 20
1146.71923828125
 10
-180.62208557128906
 20
1125.57421875
 10
-181.35877990722656
 20
1105.299560546875
 10
-182.20762634277344
 20
1085.7772216796875
 10
-183.17239379882812
 20
1066.87744140625
 10
-184.25701904296875
 20
1048.4798583984375
 10
-185.46571350097656
 20
1030.4527587890625
 10
-186.8022003173828
 20
1012.674560546875
 10
-188.27047729492188
 20
995.0186767578125
 10
-189.87420654296875
 20
977.365478515625
 10
-191.61624145507812
 20
959.6018676757812
 10
-193.50048828125
 20
941.609130859375
 10
-195.5272216796875
 20
923.3037109375
 10
-196.61660766601562
 20
913.4644775390625
 10
-196.61660766601562
 20
913.4644775390625
 10
-200.87197875976562
 20
913.8370361328125
 10
-768.6417846679688
 20
963.5401000976562
 10
-768.6417846679688
 20
963.5401000976562
 10
-769.5875854492188
 20
972.8126220703125
 10
-771.3469848632812
 20
990.0613403320312
 10
-772.9781494140625
 20
1007.0424194335938
 10
-774.4811401367188
 20
1023.8702392578125
 10
-775.8526000976562
 20
1040.623779296875
 10
-777.0922241210938
 20
1057.425048828125
 10
-778.1993408203125
 20
1074.4000244140625
 10
-779.170654296875
 20
1091.638916015625
 10
-780.0054931640625
 20
1109.2806396484375
 10
-780.7017211914062
 20
1127.4298095703125
 10
-781.2581176757812
 20
1146.21435546875
 10
-781.6731567382812
 20
1165.7501220703125
 10
-781.9451904296875
 20
1186.1307373046875
 10
-782.0733642578125
 20
1207.4901123046875
 10
-782.0568237304688
 20
1229.93896484375
 10
-781.8945922851562
 20
1253.55615234375
 10
-781.5859375
 20
1278.4615478515625
 10
-781.130126953125
 20
1304.77294921875
 10
-780.5274047851562
 20
1332.5523681640625
 10
-779.7766723632812
 20
1361.9197998046875
 10
-778.8782348632812
 20
1392.9615478515625
 10
-777.8309936523438
 20
1425.7879638671875
 10
-776.63623046875
 20
1460.4517822265625
 10
-775.2935180664062
 20
1497.0557861328125
 10
-773.7998657226562
 20
1535.7711181640625
 10
-772.1625366210938
 20
1576.50146484375
 10
-770.3713989257812
 20
1619.5802001953125
 10
-768.4364013671875
 20
1664.863037109375
 10
-766.3541870117188
 20
1712.5260009765625
 10
-764.1204223632812
 20
1762.75390625
 10
-761.74365234375
 20
1815.4501953125
 10
-759.2139892578125
 20
1870.92138671875
 10
-756.544189453125
 20
1928.990478515625
 10
-753.72998046875
 20
1989.839111328125
 10
-750.7483520507812
 20
2054.065673828125
 10
-747.6504516601562
 20
2120.667724609375
 10
-744.3868408203125
 20
2190.8037109375
 10
-740.989013671875
 20
2263.908935546875
 10
-737.4661254882812
 20
2339.87451171875
 10
-733.7797241210938
 20
2419.64453125
 10
-729.953125
 20
2502.82275390625
 10
-729.5977783203125
 20
2510.545166015625
 10
-729.5977783203125
 20
2510.545166015625
 10
-725.5963134765625
 20
2510.61474609375
 10
-200.13851928710938
 20
2519.708740234375
 10
-195.62989807128906
 20
2519.78662109375
  0
LINE
  5
40
330
17
100
AcDbEntity
  8
PEN
100
AcDbLine
 10
-195.00009155273438
 20
2511.7099609375
 30
0.0
 11
-205.00009155273438
 21
2511.7099609375
 31
0.0
  0
LINE
  5
41
330
17
100
AcDbEntity
  8
PEN
100
AcDbLine
 10
-200.00009155273438
 20
2516.7099609375
 30
0.0
 11
-200.00009155273438
 21
2506.709716796875
 31
0.0
  0
LINE
  5
42
330
17
100
AcDbEntity
  8
PEN
100
AcDbLine
 10
-194.99990844726562
 20
923.7988891601562
 30
0.0
 11
-204.99989318847656
 21
923.7988891601562
 31
0.0
  0
LINE
  5
43
330
17
100
AcDbEntity
  8
PEN
100
AcDbLine
 10
-199.99989318847656
 20
928.7988891601562
 30
0.0
 11
-199.99989318847656
 21
918.7989501953125
 31
0.0
  0
LINE
  5
44
330
17
100
AcDbEntity
  8
PEN
100
AcDbLine
 10
-720.4578247070312
 20
2502.615966796875
 30
0.0
 11
-730.4578247070312
 21
2502.615966796875
 31
0.0
  0
LINE
  5
45
330
17
100
AcDbEntity
  8
PEN
100
AcDbLine
 10
-725.4578247070312
 20
2507.615966796875
 30
0.0
 11
-725.4578247070312
 21
2497.61572265625
 31
0.0
  0
LINE
  5
46
330
17
100
AcDbEntity
  8
PEN
100
AcDbLine
 10
-760.1107788085938
 20
973.2692260742188
 30
0.0
 11
-770.1107788085938
 21
973.2692260742188
 31
0.0
  0
LINE
  5
47
330
17
100
AcDbEntity
  8
PEN
100
AcDbLine
 10
-765.1107788085938
 20
978.2692260742188
 30
0.0
 11
-765.1107788085938
 21
968.2692260742188
 31
0.0
  0
TEXT
  5
48
330
17
100
AcDbEntity
  8
TEXT
100
AcDbText
 10
-720.4578247070312
 20
2502.615966796875
 30
0.0
 40
3.0
  1
SAIL-1 R
 11
-720.4578247070312
 21
2502.615966796875
 31
0.0
100
AcDbText
  0
LINE
  5
49
330
17
100
AcDbEntity
  8
PEN
100
AcDbLine
 10
-181.70269775390625
 20
1085.9884033203125
 30
0.0
 11
-191.70269775390625
 21
1085.9884033203125
 31
0.0
  0
LINE
  5
4A
330
17
100
AcDbEntity
  8
PEN
100
AcDbLine
 10
-186.70269775390625
 20
1090.9884033203125
 30
0.0
 11
-186.70269775390625
 21
1080.9884033203125
 31
0.0
  0
TEXT
  5
4B
330
17
100
AcDbEntity
  8
text
100
AcDbText
 10
-235.70269775390625
 20
1083.9884033203125
 30
0.0
 40
3.0
  1
strut-seam
 11
-235.70269775390625
 21
1083.9884033203125
 31
0.0
100
AcDbText
  0
LINE
  5
4C
330
17
100
AcDbEntity
  8
PEN
100
AcDbLine
 10
-177.99505615234375
 20
1242.4007568359375
 30
0.0
 11
-187.9950408935547
 21
1242.4007568359375
 31
0.0
  0
LINE
  5
4D
330
17
100
AcDbEntity
  8
PEN
100
AcDbLine
 10
-182.99505615234375
 20
1247.4007568359375
 30
0.0
 11
-182.99505615234375
 21
1237.4007568359375
 31
0.0
  0
TEXT
  5
4E
330
17
100
AcDbEntity
  8
text
100
AcDbText
 10
-231.9950408935547
 20
1240.4007568359375
 30
0.0
 40
3.0
  1
strut-seam
 11
-231.9950408935547
 21
1240.4007568359375
 31
0.0
100
AcDbText
  0
LINE
  5
4F
330
17
100
AcDbEntity
  8
PEN
100
AcDbLine
 10
-179.27610778808594
 20
1508.84130859375
 30
0.0
 11
-189.27609252929688
 21
1508.84130859375
 31
0.0
  0
LINE
  5
50
330
17
100
AcDbEntity
  8
PEN
100
AcDbLine
 10
-184.27610778808594
 20
1513.84130859375
 30
0.0
 11
-184.27610778808594
 21
1503.84130859375
 31
0.0
  0
TEXT
  5
51
330
17
100
AcDbEntity
  8
text
100
AcDbText
 10
-233.27609252929688
 20
1506.84130859375
 30
0.0
 40
3.0
  1
strut-seam
 11
-233.27609252929688
 21
1506.84130859375
 31
0.0
100
AcDbText
  0
LINE
  5
52
330
17
100
AcDbEntity
  8
PEN
100
AcDbLine
 10
-185.27357482910156
 20
1916.587890625
 30
0.0
 11
-195.2735595703125
 21
1916.587890625
 31
0.0
  0
LINE
  5
53
330
17
100
AcDbEntity
  8
PEN
100
AcDbLine
 10
-190.27357482910156
 20
1921.5877685546875
 30
0.0
 11
-190.27357482910156
 21
1911.587890625
 31
0.0
  0
TEXT
  5
54
330
17
100
AcDbEntity
  8
text
100
AcDbText
 10
-239.2735595703125
 20
1914.587890625
 30
0.0
 40
3.0
  1
strut-seam
 11
-239.2735595703125
 21
1914.587890625
 31
0.0
100
AcDbText
  0
LINE
  5
56
330
17
100
AcDbEntity
  8
PEN
100
AcDbLine
 10
-968.3760375976562
 20
977.9744262695312
 30
0.0
 11
-978.3760375976562
 21
977.9744262695312
 31
0.0
  0
LINE
  5
57
330
17
100
AcDbEntity
  8
PEN
100
AcDbLine
 10
-973.3760375976562
 20
982.9744262695312
 30
0.0
 11
-973.3760375976562
 21
972.9744262695312
 31
0.0
  0
LINE
  5
58
330
17
100
AcDbEntity
  8
PEN
100
AcDbLine
 10
-1413.5489501953125
 20
1053.6171875
 30
0.0
 11
-1423.5489501953125
 21
1053.6171875
 31
0.0
  0
LINE
  5
59
330
17
100
AcDbEntity
  8
PEN
100
AcDbLine
 10
-1418.5489501953125
 20
1058.6171875
 30
0.0
 11
-1418.5489501953125
 21
1048.6171875
 31
0.0
  0
LWPOLYLINE
  5
5A
330
17
100
AcDbEntity
  8
CUT
100
AcDbPolyline
 90
93
 70
0
 43
0.0
 10
-939.444580078125
 20
2511.043212890625
 10
-939.3007202148438
 20
2503.016845703125
 10
-937.81103515625
 20
2419.939208984375
 10
-936.3704223632812
 20
2340.17041015625
 10
-934.982421875
 20
2263.73291015625
 10
-933.6500244140625
 20
2190.632568359375
 10
-932.3759765625
 20
2120.863037109375
 10
-931.1497192382812
 20
2053.66455078125
 10
-929.9874877929688
 20
1989.750732421875
 10
-928.8856201171875
 20
1928.7535400390625
 10
-927.8414916992188
 20
1870.345947265625
 10
-926.8690795898438
 20
1815.130615234375
 10
-925.9556274414062
 20
1762.203857421875
 10
-925.1121826171875
 20
1712.0081787109375
 10
-924.339111328125
 20
1664.36474609375
 10
-923.6338500976562
 20
1618.9462890625
 10
-923.0029296875
 20
1575.9102783203125
 10
-922.4459228515625
 20
1535.0484619140625
 10
-921.967041015625
 20
1496.4080810546875
 10
-921.5662231445312
 20
1459.7625732421875
 10
-921.2465209960938
 20
1425.0401611328125
 10
-921.0106201171875
 20
1392.2359619140625
 10
-920.8604125976562
 20
1361.1961669921875
 10
-920.798583984375
 20
1331.8089599609375
 10
-920.8279418945312
 20
1304.003662109375
 10
-920.951416015625
 20
1277.728759765625
 10
-921.1722412109375
 20
1252.81982421875
 10
-921.4942626953125
 20
1229.1812744140625
 10
-921.9208374023438
 20
1206.756103515625
 10
-922.4564208984375
 20
1185.4111328125
 10
-923.1058959960938
 20
1165.0279541015625
 10
-923.8739013671875
 20
1145.5123291015625
 10
-924.7662963867188
 20
1126.7384033203125
 10
-925.7880249023438
 20
1108.6026611328125
 10
-926.946044921875
 20
1090.9754638671875
 10
-928.245361328125
 20
1073.7513427734375
 10
-929.6926879882812
 20
1056.8065185546875
 10
-931.2944946289062
 20
1040.018798828125
 10
-933.05517578125
 20
1023.2906494140625
 10
-934.9802856445312
 20
1006.5025024414062
 10
-937.0739135742188
 20
989.5573120117188
 10
-939.3385009765625
 20
972.361328125
 10
-940.6670532226562
 20
962.2732543945312
 10
-940.6670532226562
 20
962.2732543945312
 10
-945.4751586914062
 20
963.0902709960938
 10
-1452.0157470703125
 20
1049.1605224609375
 10
-1452.0157470703125
 20
1049.1605224609375
 10
-1452.615478515625
 20
1058.3497314453125
 10
-1453.6513671875
 20
1074.22314453125
 10
-1454.6192626953125
 20
1089.847412109375
 10
-1455.5224609375
 20
1105.419677734375
 10
-1456.3504638671875
 20
1120.8875732421875
 10
-1457.107177734375
 20
1136.492431640625
 10
-1457.7841796875
 20
1152.240966796875
 10
-1458.3797607421875
 20
1168.2852783203125
 10
-1458.8895263671875
 20
1184.7098388671875
 10
-1459.3106689453125
 20
1201.6600341796875
 10
-1459.638671875
 20
1219.2220458984375
 10
-1459.8702392578125
 20
1237.48046875
 10
-1460.0030517578125
 20
1256.575439453125
 10
-1460.0340576171875
 20
1276.5880126953125
 10
-1459.9608154296875
 20
1297.591552734375
 10
-1459.7808837890625
 20
1319.7872314453125
 10
-1459.493896484375
 20
1343.1365966796875
 10
-1459.0975341796875
 20
1367.818603515625
 10
-1458.59130859375
 20
1393.85400390625
 10
-1457.972412109375
 20
1421.452880859375
 10
-1457.242431640625
 20
1450.5804443359375
 10
-1456.4013671875
 20
1481.307373046875
 10
-1455.4439697265625
 20
1513.890380859375
 10
-1454.3721923828125
 20
1548.3231201171875
 10
-1453.1917724609375
 20
1584.5006103515625
 10
-1451.8912353515625
 20
1622.8614501953125
 10
-1450.4837646484375
 20
1663.062255859375
 10
-1448.9532470703125
 20
1705.6834716796875
 10
-1447.3056640625
 20
1750.6068115234375
 10
-1445.5587158203125
 20
1797.447509765625
 10
-1443.6905517578125
 20
1846.8699951171875
 10
-1441.6939697265625
 20
1899.135009765625
 10
-1439.615478515625
 20
1953.1246337890625
 10
-1437.3792724609375
 20
2010.883056640625
 10
-1435.054443359375
 20
2070.713623046875
 10
-1432.593994140625
 20
2133.91259765625
 10
-1430.0531005859375
 20
2199.151611328125
 10
-1427.3858642578125
 20
2267.70458984375
 10
-1424.6453857421875
 20
2338.290283203125
 10
-1421.7425537109375
 20
2413.29833984375
 10
-1418.71630859375
 20
2491.825439453125
 10
-1418.4185791015625
 20
2499.5537109375
 10
-1418.4185791015625
 20
2499.5537109375
 10
-1414.411376953125
 20
2499.649658203125
 10
-943.9918212890625
 20
2510.93408203125
 10
-939.444580078125
 20
2511.043212890625
  0
LINE
  5
5B
330
17
100
AcDbEntity
  8
PEN
100
AcDbLine
 10
-938.7999877929688
 20
2502.936279296875
 30
0.0
 11
-948.7999877929688
 21
2502.936279296875
 31
0.0
  0
LINE
  5
5C
330
17
100
AcDbEntity
  8
PEN
100
AcDbLine
 10
-943.7999877929688
 20
2507.9365234375
 30
0.0
 11
-943.7999877929688
 21
2497.936279296875
 31
0.0
  0
LINE
  5
5D
330
17
100
AcDbEntity
  8
PEN
100
AcDbLine
 10
-938.7999877929688
 20
972.9489135742188
 30
0.0
 11
-948.7999877929688
 21
972.9489135742188
 31
0.0
  0
LINE
  5
5E
330
17
100
AcDbEntity
  8
PEN
100
AcDbLine
 10
-943.7999877929688
 20
977.9489135742188
 30
0.0
 11
-943.7999877929688
 21
967.9489135742188
 31
0.0
  0
LINE
  5
5F
330
17
100
AcDbEntity
  8
PEN
100
AcDbLine
 10
-1409.2196044921875
 20
2491.652099609375
 30
0.0
 11
-1419.2196044921875
 21
2491.652099609375
 31
0.0
  0
LINE
  5
60
330
17
100
AcDbEntity
  8
PEN
100
AcDbLine
 10
-1414.2196044921875
 20
2496.652099609375
 30
0.0
 11
-1414.2196044921875
 21
2486.65185546875
 31
0.0
  0
LINE
  5
61
330
17
100
AcDbEntity
  8
PEN
100
AcDbLine
 10
-1443.125
 20
1058.6427001953125
 30
0.0
 11
-1453.125
 21
1058.6427001953125
 31
0.0
  0
LINE
  5
62
330
17
100
AcDbEntity
  8
PEN
100
AcDbLine
 10
-1448.125
 20
1063.6427001953125
 30
0.0
 11
-1448.125
 21
1053.6427001953125
 31
0.0
  0
TEXT
  5
63
330
17
100
AcDbEntity
  8
TEXT
100
AcDbText
 10
-1409.2196044921875
 20
2491.652099609375
 30
0.0
 40
3.0
  1
SAIL-2 R
 11
-1409.2196044921875
 21
2491.652099609375
 31
0.0
100
AcDbText
  0
LINE
  5
65
330
17
100
AcDbEntity
  8
PEN
100
AcDbLine
 10
-1668.1142578125
 20
1066.0185546875
 30
0.0
 11
-1678.1142578125
 21
1066.0185546875
 31
0.0
  0
LINE
  5
66
330
17
100
AcDbEntity
  8
PEN
100
AcDbLine
 10
-1673.1142578125
 20
1071.0185546875
 30
0.0
 11
-1673.1142578125
 21
1061.0185546875
 31
0.0
  0
LINE
  5
67
330
17
100
AcDbEntity
  8
PEN
100
AcDbLine
 10
-2046.6788330078125
 20
1165.529052734375
 30
0.0
 11
-2056.678955078125
 21
1165.529052734375
 31
0.0
  0
LINE
  5
68
330
17
100
AcDbEntity
  8
PEN
100
AcDbLine
 10
-2051.678955078125
 20
1170.529052734375
 30
0.0
 11
-2051.678955078125
 21
1160.529052734375
 31
0.0
  0
LWPOLYLINE
  5
69
330
17
100
AcDbEntity
  8
CUT
100
AcDbPolyline
 90
93
 70
0
 43
0.0
 10
-1639.693603515625
 20
2500.052734375
 10
-1639.6002197265625
 20
2491.95458984375
 10
-1638.7021484375
 20
2414.02099609375
 10
-1637.8348388671875
 20
2339.1845703125
 10
-1636.9996337890625
 20
2267.461181640625
 10
-1636.1993408203125
 20
2198.964599609375
 10
-1635.429443359375
 20
2133.18994140625
 10
-1634.696533203125
 20
2070.53662109375
 10
-1633.9959716796875
 20
2010.527099609375
 10
-1633.33154296875
 20
1953.3070068359375
 10
-1632.7030029296875
 20
1898.7401123046875
 10
-1632.1109619140625
 20
1846.73974609375
 10
-1631.5562744140625
 20
1797.223876953125
 10
-1631.0352783203125
 20
1749.717529296875
 10
-1630.5618896484375
 20
1705.334228515625
 10
-1630.124267578125
 20
1662.79150390625
 10
-1629.72705078125
 20
1622.4150390625
 10
-1629.3717041015625
 20
1584.119140625
 10
-1629.0582275390625
 20
1547.67138671875
 10
-1628.7908935546875
 20
1513.4403076171875
 10
-1628.5679931640625
 20
1480.8897705078125
 10
-1628.3916015625
 20
1450.0860595703125
 10
-1628.263427734375
 20
1420.86962890625
 10
-1628.1859130859375
 20
1393.3798828125
 10
-1628.16064453125
 20
1367.300537109375
 10
-1628.189697265625
 20
1342.66650390625
 10
-1628.2764892578125
 20
1319.244873046875
 10
-1628.423095703125
 20
1297.1185302734375
 10
-1628.6336669921875
 20
1276.1005859375
 10
-1628.912353515625
 20
1256.095947265625
 10
-1629.263916015625
 20
1237.0052490234375
 10
-1629.6932373046875
 20
1218.7276611328125
 10
-1630.205322265625
 20
1201.199951171875
 10
-1630.8074951171875
 20
1184.2523193359375
 10
-1631.5054931640625
 20
1167.8201904296875
 10
-1632.306396484375
 20
1151.779541015625
 10
-1633.216796875
 20
1136.0240478515625
 10
-1634.2432861328125
 20
1120.453857421875
 10
-1635.3934326171875
 20
1104.940185546875
 10
-1636.669189453125
 20
1089.4307861328125
 10
-1638.0775146484375
 20
1073.7943115234375
 10
-1639.62109375
 20
1057.955322265625
 10
-1640.6739501953125
 20
1047.151611328125
 10
-1640.6739501953125
 20
1047.151611328125
 10
-1646.6422119140625
 20
1048.7203369140625
 10
-2084.802490234375
 20
1163.896240234375
 10
-2084.802490234375
 20
1163.896240234375
 10
-2085.189208984375
 20
1172.964111328125
 10
-2085.796142578125
 20
1187.20166015625
 10
-2086.376953125
 20
1201.1790771484375
 10
-2086.938720703125
 20
1215.2197265625
 10
-2087.467041015625
 20
1229.1260986328125
 10
-2087.96142578125
 20
1243.0772705078125
 10
-2088.425048828125
 20
1257.382568359375
 10
-2088.844970703125
 20
1271.904296875
 10
-2089.218994140625
 20
1286.8126220703125
 10
-2089.543212890625
 20
1302.198974609375
 10
-2089.810302734375
 20
1318.1092529296875
 10
-2090.019287109375
 20
1334.7435302734375
 10
-2090.164306640625
 20
1352.0782470703125
 10
-2090.244384765625
 20
1370.3187255859375
 10
-2090.25537109375
 20
1389.497802734375
 10
-2090.19482421875
 20
1409.7022705078125
 10
-2090.0615234375
 20
1431.016357421875
 10
-2089.85400390625
 20
1453.43505859375
 10
-2089.570556640625
 20
1477.2083740234375
 10
-2089.208251953125
 20
1502.4453125
 10
-2088.77294921875
 20
1528.88916015625
 10
-2088.25537109375
 20
1557.10400390625
 10
-2087.6650390625
 20
1586.6123046875
 10
-2086.98974609375
 20
1618.1231689453125
 10
-2086.24462890625
 20
1650.9859619140625
 10
-2085.41064453125
 20
1686.113037109375
 10
-2084.51123046875
 20
1722.6002197265625
 10
-2083.518310546875
 20
1761.6796875
 10
-2082.455078125
 20
1802.487548828125
 10
-2081.329345703125
 20
1844.8701171875
 10
-2080.0966796875
 20
1890.5313720703125
 10
-2078.802490234375
 20
1937.9091796875
 10
-2077.43115234375
 20
1987.6436767578125
 10
-2075.985107421875
 20
2039.7529296875
 10
-2074.46240234375
 20
2094.374267578125
 10
-2072.8681640625
 20
2151.443603515625
 10
-2071.196533203125
 20
2211.255859375
 10
-2069.446044921875
 20
2273.971435546875
 10
-2067.63037109375
 20
2339.1875
 10
-2065.74072265625
 20
2407.326904296875
 10
-2063.7822265625
 20
2478.308349609375
 10
-2063.568603515625
 20
2486.047119140625
 10
-2063.568603515625
 20
2486.047119140625
 10
-2059.548095703125
 20
2486.179931640625
 10
-1644.3641357421875
 20
2499.8984375
 10
-1639.693603515625
 20
2500.052734375
  0
LINE
  5
6A
330
17
100
AcDbEntity
  8
PEN
100
AcDbLine
 10
-1639.0999755859375
 20
2491.90283203125
 30
0.0
 11
-1649.0999755859375
 21
2491.90283203125
 31
0.0
  0
LINE
  5
6B
330
17
100
AcDbEntity
  8
PEN
100
AcDbLine
 10
-1644.0999755859375
 20
2496.90283203125
 30
0.0
 11
-1644.0999755859375
 21
2486.90283203125
 31
0.0
  0
LINE
  5
6C
330
17
100
AcDbEntity
  8
PEN
100
AcDbLine
 10
-1639.0999755859375
 20
1058.391845703125
 30
0.0
 11
-1649.0999755859375
 21
1058.391845703125
 31
0.0
  0
LINE
  5
6D
330
17
100
AcDbEntity
  8
PEN
100
AcDbLine
 10
-1644.0999755859375
 20
1063.391845703125
 30
0.0
 11
-1644.0999755859375
 21
1053.391845703125
 31
0.0
  0
LINE
  5
6E
330
17
100
AcDbEntity
  8
PEN
100
AcDbLine
 10
-2054.283935546875
 20
2478.184326171875
 30
0.0
 11
-2064.2841796875
 21
2478.184326171875
 31
0.0
  0
LINE
  5
6F
330
17
100
AcDbEntity
  8
PEN
100
AcDbLine
 10
-2059.283935546875
 20
2483.184326171875
 30
0.0
 11
-2059.283935546875
 21
2473.18408203125
 31
0.0
  0
LINE
  5
70
330
17
100
AcDbEntity
  8
PEN
100
AcDbLine
 10
-2075.693115234375
 20
1173.15576171875
 30
0.0
 11
-2085.693359375
 21
1173.15576171875
 31
0.0
  0
LINE
  5
71
330
17
100
AcDbEntity
  8
PEN
100
AcDbLine
 10
-2080.693359375
 20
1178.15576171875
 30
0.0
 11
-2080.693359375
 21
1168.15576171875
 31
0.0
  0
TEXT
  5
72
330
17
100
AcDbEntity
  8
TEXT
100
AcDbText
 10
-2054.283935546875
 20
2478.184326171875
 30
0.0
 40
3.0
  1
SAIL-3 R
 11
-2054.283935546875
 21
2478.184326171875
 31
0.0
100
AcDbText
  0
LINE
  5
74
330
17
100
AcDbEntity
  8
PEN
100
AcDbLine
 10
-2324.59619140625
 20
1181.81103515625
 30
0.0
 11
-2334.596435546875
 21
1181.81103515625
 31
0.0
  0
LINE
  5
75
330
17
100
AcDbEntity
  8
PEN
100
AcDbLine
 10
-2329.59619140625
 20
1186.81103515625
 30
0.0
 11
-2329.59619140625
 21
1176.8111572265625
 31
0.0
  0
LINE
  5
76
330
17
100
AcDbEntity
  8
PEN
100
AcDbLine
 10
-2648.908447265625
 20
1280.6705322265625
 30
0.0
 11
-2658.90869140625
 21
1280.6705322265625
 31
0.0
  0
LINE
  5
77
330
17
100
AcDbEntity
  8
PEN
100
AcDbLine
 10
-2653.908447265625
 20
1285.6705322265625
 30
0.0
 11
-2653.908447265625
 21
1275.6705322265625
 31
0.0
  0
LWPOLYLINE
  5
78
330
17
100
AcDbEntity
  8
CUT
100
AcDbPolyline
 90
93
 70
0
 43
0.0
 10
-2296.4716796875
 20
2486.4326171875
 10
-2296.400146484375
 20
2478.31591796875
 10
-2295.77392578125
 20
2407.259765625
 10
-2295.17041015625
 20
2339.09130859375
 10
-2294.589111328125
 20
2273.7099609375
 10
-2294.03173828125
 20
2211.168212890625
 10
-2293.5
 20
2151.5380859375
 10
-2292.98828125
 20
2094.23193359375
 10
-2292.501220703125
 20
2039.5638427734375
 10
-2292.038330078125
 20
1987.393798828125
 10
-2291.600341796875
 20
1937.650146484375
 10
-2291.1865234375
 20
1890.24609375
 10
-2290.79833984375
 20
1845.1243896484375
 10
-2290.435546875
 20
1802.18212890625
 10
-2290.0986328125
 20
1761.36865234375
 10
-2289.7880859375
 20
1722.5882568359375
 10
-2289.504638671875
 20
1685.7867431640625
 10
-2289.248291015625
 20
1650.8760986328125
 10
-2289.020751953125
 20
1617.7886962890625
 10
-2288.82177734375
 20
1586.445556640625
 10
-2288.652587890625
 20
1556.771484375
 10
-2288.51416015625
 20
1528.6890869140625
 10
-2288.40771484375
 20
1502.1220703125
 10
-2288.335205078125
 20
1476.9915771484375
 10
-2288.296875
 20
1453.216796875
 10
-2288.295654296875
 20
1430.718505859375
 10
-2288.333740234375
 20
1409.4140625
 10
-2288.4130859375
 20
1389.219482421875
 10
-2288.537841796875
 20
1370.0489501953125
 10
-2288.7099609375
 20
1351.883056640625
 10
-2288.935302734375
 20
1334.4866943359375
 10
-2289.216552734375
 20
1317.8966064453125
 10
-2289.5615234375
 20
1301.915771484375
 10
-2289.971923828125
 20
1286.5845947265625
 10
-2290.45849609375
 20
1271.6397705078125
 10
-2291.02392578125
 20
1257.1103515625
 10
-2291.673828125
 20
1242.8934326171875
 10
-2292.41748046875
 20
1228.8330078125
 10
-2293.2587890625
 20
1214.873291015625
 10
-2294.20458984375
 20
1200.8963623046875
 10
-2295.254638671875
 20
1186.8775634765625
 10
-2296.414794921875
 20
1172.6966552734375
 10
-2297.3291015625
 20
1161.5208740234375
 10
-2297.3291015625
 20
1161.5208740234375
 10
-2303.81591796875
 20
1163.4981689453125
 10
-2686.934814453125
 20
1280.2835693359375
 10
-2686.934814453125
 20
1280.2835693359375
 10
-2687.10400390625
 20
1289.3338623046875
 10
-2687.33837890625
 20
1301.864501953125
 10
-2687.579833984375
 20
1314.3404541015625
 10
-2687.826171875
 20
1326.85302734375
 10
-2688.0693359375
 20
1339.2086181640625
 10
-2688.310302734375
 20
1351.7685546875
 10
-2688.54638671875
 20
1364.689208984375
 10
-2688.763671875
 20
1377.5328369140625
 10
-2688.968505859375
 20
1391.031005859375
 10
-2689.14794921875
 20
1404.7412109375
 10
-2689.303955078125
 20
1419.1925048828125
 10
-2689.42724609375
 20
1434.065185546875
 10
-2689.518310546875
 20
1449.7269287109375
 10
-2689.57177734375
 20
1466.1622314453125
 10
-2689.586181640625
 20
1483.4498291015625
 10
-2689.55908203125
 20
1501.6678466796875
 10
-2689.488037109375
 20
1520.8905029296875
 10
-2689.371826171875
 20
1541.1925048828125
 10
-2689.209228515625
 20
1562.648193359375
 10
-2689.00048828125
 20
1585.1656494140625
 10
-2688.74169921875
 20
1609.30126953125
 10
-2688.435546875
 20
1634.641357421875
 10
-2688.083984375
 20
1661.185302734375
 10
-2687.677001953125
 20
1689.6959228515625
 10
-2687.224609375
 20
1719.547607421875
 10
-2686.723388671875
 20
1751.0401611328125
 10
-2686.173095703125
 20
1784.23779296875
 10
-2685.5830078125
 20
1818.6976318359375
 10
-2684.926513671875
 20
1856.0321044921875
 10
-2684.230712890625
 20
1894.7655029296875
 10
-2683.487060546875
 20
1935.456787109375
 10
-2682.69580078125
 20
1978.2215576171875
 10
-2681.857666015625
 20
2023.0543212890625
 10
-2680.971435546875
 20
2070.115966796875
 10
-2680.038818359375
 20
2119.403564453125
 10
-2679.06298828125
 20
2170.87646484375
 10
-2678.036376953125
 20
2225.00634765625
 10
-2676.97119140625
 20
2281.239013671875
 10
-2675.856201171875
 20
2340.26611328125
 10
-2674.69970703125
 20
2401.718505859375
 10
-2673.501708984375
 20
2465.761474609375
 10
-2673.356201171875
 20
2473.532958984375
 10
-2673.356201171875
 20
2473.532958984375
 10
-2669.276123046875
 20
2473.672607421875
 10
-2301.173583984375
 20
2486.271728515625
 10
-2296.4716796875
 20
2486.4326171875
  0
LINE
  5
79
330
17
100
AcDbEntity
  8
PEN
100
AcDbLine
 10
-2295.89990234375
 20
2478.2763671875
 30
0.0
 11
-2305.900146484375
 21
2478.2763671875
 31
0.0
  0
LINE
  5
7A
330
17
100
AcDbEntity
  8
PEN
100
AcDbLine
 10
-2300.89990234375
 20
2483.2763671875
 30
0.0
 11
-2300.89990234375
 21
2473.276123046875
 31
0.0
  0
LINE
  5
7B
330
17
100
AcDbEntity
  8
PEN
100
AcDbLine
 10
-2295.89990234375
 20
1173.0635986328125
 30
0.0
 11
-2305.900146484375
 21
1173.0635986328125
 31
0.0
  0
LINE
  5
7C
330
17
100
AcDbEntity
  8
PEN
100
AcDbLine
 10
-2300.89990234375
 20
1178.0635986328125
 30
0.0
 11
-2300.89990234375
 21
1168.0635986328125
 31
0.0
  0
LINE
  5
7D
330
17
100
AcDbEntity
  8
PEN
100
AcDbLine
 10
-2664.00244140625
 20
2465.67724609375
 30
0.0
 11
-2674.002685546875
 21
2465.67724609375
 31
0.0
  0
LINE
  5
7E
330
17
100
AcDbEntity
  8
PEN
100
AcDbLine
 10
-2669.00244140625
 20
2470.677490234375
 30
0.0
 11
-2669.00244140625
 21
2460.67724609375
 31
0.0
  0
LINE
  5
7F
330
17
100
AcDbEntity
  8
PEN
100
AcDbLine
 10
-2677.604736328125
 20
1289.41796875
 30
0.0
 11
-2687.60498046875
 21
1289.41796875
 31
0.0
  0
LINE
  5
80
330
17
100
AcDbEntity
  8
PEN
100
AcDbLine
 10
-2682.604736328125
 20
1294.41796875
 30
0.0
 11
-2682.604736328125
 21
1284.41796875
 31
0.0
  0
TEXT
  5
81
330
17
100
AcDbEntity
  8
TEXT
100
AcDbText
 10
-2664.00244140625
 20
2465.67724609375
 30
0.0
 40
3.0
  1
SAIL-4 R
 11
-2664.00244140625
 21
2465.67724609375
 31
0.0
100
AcDbText
  0
LINE
  5
83
330
17
100
AcDbEntity
  8
PEN
100
AcDbLine
 10
-2937.592529296875
 20
1299.218505859375
 30
0.0
 11
-2947.5927734375
 21
1299.218505859375
 31
0.0
  0
LINE
  5
84
330
17
100
AcDbEntity
  8
PEN
100
AcDbLine
 10
-2942.592529296875
 20
1304.218505859375
 30
0.0
 11
-2942.592529296875
 21
1294.218505859375
 31
0.0
  0
LINE
  5
85
330
17
100
AcDbEntity
  8
PEN
100
AcDbLine
 10
-3215.5
 20
1394.043212890625
 30
0.0
 11
-3225.5
 21
1394.043212890625
 31
0.0
  0
LINE
  5
86
330
17
100
AcDbEntity
  8
PEN
100
AcDbLine
 10
-3220.5
 20
1399.043212890625
 30
0.0
 11
-3220.5
 21
1389.043212890625
 31
0.0
  0
LWPOLYLINE
  5
87
330
17
100
AcDbEntity
  8
CUT
100
AcDbPolyline
 90
93
 70
0
 43
0.0
 10
-2909.777587890625
 20
2473.7060546875
 10
-2909.7001953125
 20
2465.607666015625
 10
-2909.048583984375
 20
2397.446533203125
 10
-2908.49609375
 20
2340.021728515625
 10
-2907.925537109375
 20
2281.063232421875
 10
-2907.378662109375
 20
2224.749267578125
 10
-2906.852294921875
 20
2170.687744140625
 10
-2906.349365234375
 20
2119.09765625
 10
-2905.870361328125
 20
2069.888916015625
 10
-2905.41357421875
 20
2022.808349609375
 10
-2904.956298828125
 20
1975.255615234375
 10
-2904.57470703125
 20
1935.2117919921875
 10
-2904.19287109375
 20
1894.5042724609375
 10
-2903.83642578125
 20
1855.7701416015625
 10
-2903.507568359375
 20
1818.953125
 10
-2903.205078125
 20
1783.973876953125
 10
-2902.931396484375
 20
1750.7705078125
 10
-2902.686279296875
 20
1719.27783203125
 10
-2902.470947265625
 20
1689.4254150390625
 10
-2902.285888671875
 20
1661.14501953125
 10
-2902.13232421875
 20
1634.371337890625
 10
-2902.010986328125
 20
1609.0299072265625
 10
-2901.923583984375
 20
1585.055908203125
 10
-2901.87109375
 20
1562.377685546875
 10
-2901.85546875
 20
1540.9224853515625
 10
-2901.87744140625
 20
1520.619873046875
 10
-2901.93896484375
 20
1501.3961181640625
 10
-2902.042724609375
 20
1483.17626953125
 10
-2902.189453125
 20
1465.95703125
 10
-2902.384033203125
 20
1449.506103515625
 10
-2902.62890625
 20
1433.82861328125
 10
-2902.926025390625
 20
1418.8916015625
 10
-2903.279541015625
 20
1404.5548095703125
 10
-2903.694580078125
 20
1390.7384033203125
 10
-2904.17626953125
 20
1377.3216552734375
 10
-2904.724853515625
 20
1364.338623046875
 10
-2905.349609375
 20
1351.591552734375
 10
-2906.052001953125
 20
1339.03955078125
 10
-2906.836669921875
 20
1326.6051025390625
 10
-2907.708984375
 20
1314.1722412109375
 10
-2908.666015625
 20
1301.7396240234375
 10
-2909.71533203125
 20
1289.1566162109375
 10
-2910.666015625
 20
1277.7586669921875
 10
-2910.666015625
 20
1277.7586669921875
 10
-2917.42919921875
 20
1280.06640625
 10
-3253.42822265625
 20
1394.71240234375
 10
-3253.42822265625
 20
1394.71240234375
 10
-3253.392578125
 20
1403.7489013671875
 10
-3253.35107421875
 20
1414.361083984375
 10
-3253.319091796875
 20
1424.91796875
 10
-3253.295166015625
 20
1435.508544921875
 10
-3253.2783203125
 20
1446.199951171875
 10
-3253.265625
 20
1457.0614013671875
 10
-3253.255615234375
 20
1468.16259765625
 10
-3253.245849609375
 20
1479.5704345703125
 10
-3253.23388671875
 20
1491.356689453125
 10
-3253.2177734375
 20
1503.5899658203125
 10
-3253.1953125
 20
1516.339111328125
 10
-3253.164794921875
 20
1529.6729736328125
 10
-3253.124755859375
 20
1543.6578369140625
 10
-3253.073486328125
 20
1558.359130859375
 10
-3253.00927734375
 20
1573.8460693359375
 10
-3252.93115234375
 20
1590.180908203125
 10
-3252.837890625
 20
1607.427978515625
 10
-3252.7294921875
 20
1625.65185546875
 10
-3252.604248046875
 20
1644.918212890625
 10
-3252.46142578125
 20
1665.2825927734375
 10
-3252.30126953125
 20
1686.8125
 10
-3252.12255859375
 20
1709.5709228515625
 10
-3251.92529296875
 20
1733.6138916015625
 10
-3251.708740234375
 20
1759.0048828125
 10
-3251.47265625
 20
1785.8101806640625
 10
-3251.216796875
 20
1814.0791015625
 10
-3250.94091796875
 20
1843.879638671875
 10
-3250.644775390625
 20
1875.2740478515625
 10
-3250.32763671875
 20
1908.3177490234375
 10
-3249.990234375
 20
1943.0841064453125
 10
-3249.6318359375
 20
1979.5936279296875
 10
-3249.25244140625
 20
2017.9578857421875
 10
-3248.85302734375
 20
2058.1669921875
 10
-3248.43017578125
 20
2100.52587890625
 10
-3247.990234375
 20
2144.58203125
 10
-3247.526123046875
 20
2190.977294921875
 10
-3247.04443359375
 20
2239.282958984375
 10
-3246.539794921875
 20
2289.943603515625
 10
-3246.015869140625
 20
2342.80517578125
 10
-3245.471435546875
 20
2397.956787109375
 10
-3244.90771484375
 20
2455.463623046875
 10
-3244.830810546875
 20
2463.285888671875
 10
-3244.830810546875
 20
2463.285888671875
 10
-3240.656494140625
 20
2463.41552734375
 10
-2914.44873046875
 20
2473.560791015625
 10
-2909.777587890625
 20
2473.7060546875
  0
LINE
  5
88
330
17
100
AcDbEntity
  8
PEN
100
AcDbLine
 10
-2909.199951171875
 20
2465.564697265625
 30
0.0
 11
-2919.2001953125
 21
2465.564697265625
 31
0.0
  0
LINE
  5
89
330
17
100
AcDbEntity
  8
PEN
100
AcDbLine
 10
-2914.199951171875
 20
2470.56494140625
 30
0.0
 11
-2914.199951171875
 21
2460.564697265625
 31
0.0
  0
LINE
  5
8A
330
17
100
AcDbEntity
  8
PEN
100
AcDbLine
 10
-2909.19970703125
 20
1289.5306396484375
 30
0.0
 11
-2919.199951171875
 21
1289.5306396484375
 31
0.0
  0
LINE
  5
8B
330
17
100
AcDbEntity
  8
PEN
100
AcDbLine
 10
-2914.19970703125
 20
1294.5306396484375
 30
0.0
 11
-2914.19970703125
 21
1284.5306396484375
 31
0.0
  0
LINE
  5
8C
330
17
100
AcDbEntity
  8
PEN
100
AcDbLine
 10
-3235.40771484375
 20
2455.41943359375
 30
0.0
 11
-3245.407958984375
 21
2455.41943359375
 31
0.0
  0
LINE
  5
8D
330
17
100
AcDbEntity
  8
PEN
100
AcDbLine
 10
-3240.407958984375
 20
2460.419677734375
 30
0.0
 11
-3240.407958984375
 21
2450.41943359375
 31
0.0
  0
LINE
  5
8E
330
17
100
AcDbEntity
  8
PEN
100
AcDbLine
 10
-3243.892578125
 20
1403.7310791015625
 30
0.0
 11
-3253.892822265625
 21
1403.7310791015625
 31
0.0
  0
LINE
  5
8F
330
17
100
AcDbEntity
  8
PEN
100
AcDbLine
 10
-3248.892822265625
 20
1408.7310791015625
 30
0.0
 11
-3248.892822265625
 21
1398.7310791015625
 31
0.0
  0
TEXT
  5
90
330
17
100
AcDbEntity
  8
TEXT
100
AcDbText
 10
-3235.40771484375
 20
2455.41943359375
 30
0.0
 40
3.0
  1
SAIL-5 R
 11
-3235.40771484375
 21
2455.41943359375
 31
0.0
100
AcDbText
  0
LINE
  5
91
330
17
100
AcDbEntity
  8
PEN
100
AcDbLine
 10
-2902.127685546875
 20
1433.9322509765625
 30
0.0
 11
-2912.1279296875
 21
1433.9322509765625
 31
0.0
  0
LINE
  5
92
330
17
100
AcDbEntity
  8
PEN
100
AcDbLine
 10
-2907.1279296875
 20
1438.9322509765625
 30
0.0
 11
-2907.1279296875
 21
1428.9322509765625
 31
0.0
  0
TEXT
  5
93
330
17
100
AcDbEntity
  8
text
100
AcDbText
 10
-2956.1279296875
 20
1431.932373046875
 30
0.0
 40
3.0
  1
strut-seam
 11
-2956.1279296875
 21
1431.932373046875
 31
0.0
100
AcDbText
  0
LINE
  5
94
330
17
100
AcDbEntity
  8
PEN
100
AcDbLine
 10
-2901.42333984375
 20
1585.029296875
 30
0.0
 11
-2911.423583984375
 21
1585.029296875
 31
0.0
  0
LINE
  5
95
330
17
100
AcDbEntity
  8
PEN
100
AcDbLine
 10
-2906.423583984375
 20
1590.029296875
 30
0.0
 11
-2906.423583984375
 21
1580.029296875
 31
0.0
  0
TEXT
  5
96
330
17
100
AcDbEntity
  8
text
100
AcDbText
 10
-2955.423583984375
 20
1583.029296875
 30
0.0
 40
3.0
  1
strut-seam
 11
-2955.423583984375
 21
1583.029296875
 31
0.0
100
AcDbText
  0
LINE
  5
98
330
17
100
AcDbEntity
  8
PEN
100
AcDbLine
 10
-3505.17724609375
 20
1418.39697265625
 30
0.0
 11
-3515.177490234375
 21
1418.39697265625
 31
0.0
  0
LINE
  5
99
330
17
100
AcDbEntity
  8
PEN
100
AcDbLine
 10
-3510.177490234375
 20
1423.39697265625
 30
0.0
 11
-3510.177490234375
 21
1413.39697265625
 31
0.0
  0
LINE
  5
9A
330
17
100
AcDbEntity
  8
PEN
100
AcDbLine
 10
-3743.019287109375
 20
1551.5343017578125
 30
0.0
 11
-3753.01953125
 21
1551.5343017578125
 31
0.0
  0
LINE
  5
9B
330
17
100
AcDbEntity
  8
PEN
100
AcDbLine
 10
-3748.01953125
 20
1556.5343017578125
 30
0.0
 11
-3748.01953125
 21
1546.5343017578125
 31
0.0
  0
LWPOLYLINE
  5
9C
330
17
100
AcDbEntity
  8
CUT
100
AcDbPolyline
 90
93
 70
0
 43
0.0
 10
-3479.53955078125
 20
2463.56494140625
 10
-3479.499755859375
 20
2455.42919921875
 10
-3479.218017578125
 20
2397.9140625
 10
-3478.942626953125
 20
2342.749755859375
 10
-3478.673583984375
 20
2289.89306640625
 10
-3478.411376953125
 20
2239.28955078125
 10
-3478.15576171875
 20
2190.865234375
 10
-3477.908447265625
 20
2144.59814453125
 10
-3477.667724609375
 20
2100.375
 10
-3477.435546875
 20
2058.1826171875
 10
-3477.211669921875
 20
2017.933837890625
 10
-3476.99609375
 20
1979.5875244140625
 10
-3476.790283203125
 20
1943.0655517578125
 10
-3476.593505859375
 20
1908.306884765625
 10
-3476.4072265625
 20
1875.2730712890625
 10
-3476.231689453125
 20
1843.870849609375
 10
-3476.0673828125
 20
1814.07080078125
 10
-3475.914794921875
 20
1785.8035888671875
 10
-3475.774658203125
 20
1759.0032958984375
 10
-3475.6484375
 20
1733.6123046875
 10
-3475.536376953125
 20
1709.5701904296875
 10
-3475.43896484375
 20
1686.8125
 10
-3475.357421875
 20
1665.2822265625
 10
-3475.293212890625
 20
1644.9141845703125
 10
-3475.246826171875
 20
1625.64697265625
 10
-3475.219970703125
 20
1607.41748046875
 10
-3475.214599609375
 20
1590.162841796875
 10
-3475.231201171875
 20
1573.818603515625
 10
-3475.2734375
 20
1558.3199462890625
 10
-3475.342529296875
 20
1543.6016845703125
 10
-3475.441162109375
 20
1529.6820068359375
 10
-3475.57373046875
 20
1516.2371826171875
 10
-3475.7412109375
 20
1503.51904296875
 10
-3475.9482421875
 20
1491.29541015625
 10
-3476.20068359375
 20
1479.4552001953125
 10
-3476.4990234375
 20
1468.0316162109375
 10
-3476.849609375
 20
1456.9075927734375
 10
-3477.257568359375
 20
1445.9781494140625
 10
-3477.721923828125
 20
1435.298095703125
 10
-3478.252685546875
 20
1424.6431884765625
 10
-3478.846435546875
 20
1414.0703125
 10
-3479.50830078125
 20
1403.463134765625
 10
-3480.333984375
 20
1390.2313232421875
 10
-3480.333984375
 20
1390.2313232421875
 10
-3488.88427734375
 20
1395.0174560546875
 10
-3778.871826171875
 20
1557.344482421875
 10
-3778.871826171875
 20
1557.344482421875
 10
-3778.6962890625
 20
1566.2762451171875
 10
-3778.52978515625
 20
1574.7501220703125
 10
-3778.381103515625
 20
1583.350830078125
 10
-3778.254150390625
 20
1591.8160400390625
 10
-3778.14111328125
 20
1600.627685546875
 10
-3778.0458984375
 20
1609.380859375
 10
-3777.9619140625
 20
1618.638916015625
 10
-3777.891357421875
 20
1628.055908203125
 10
-3777.830810546875
 20
1637.8189697265625
 10
-3777.779052734375
 20
1647.9825439453125
 10
-3777.73486328125
 20
1658.6007080078125
 10
-3777.695556640625
 20
1669.727294921875
 10
-3777.6611328125
 20
1681.4141845703125
 10
-3777.6298828125
 20
1693.7147216796875
 10
-3777.600341796875
 20
1706.6810302734375
 10
-3777.572509765625
 20
1720.3671875
 10
-3777.544677734375
 20
1734.8218994140625
 10
-3777.516845703125
 20
1750.1036376953125
 10
-3777.488037109375
 20
1766.2452392578125
 10
-3777.457763671875
 20
1783.32177734375
 10
-3777.42578125
 20
1801.37451171875
 10
-3777.391845703125
 20
1820.461181640625
 10
-3777.35546875
 20
1840.6268310546875
 10
-3777.316650390625
 20
1861.9073486328125
 10
-3777.27490234375
 20
1884.3834228515625
 10
-3777.23046875
 20
1908.073486328125
 10
-3777.18310546875
 20
1933.0599365234375
 10
-3777.133544921875
 20
1959.3675537109375
 10
-3777.080810546875
 20
1987.055908203125
 10
-3777.026123046875
 20
2016.172607421875
 10
-3776.96875
 20
2046.78125
 10
-3776.909912109375
 20
2078.93212890625
 10
-3776.849853515625
 20
2112.6640625
 10
-3776.7890625
 20
2148.01611328125
 10
-3776.728271484375
 20
2185.06298828125
 10
-3776.667236328125
 20
2223.8447265625
 10
-3776.60791015625
 20
2264.412841796875
 10
-3776.55029296875
 20
2306.817138671875
 10
-3776.495849609375
 20
2351.1064453125
 10
-3776.44580078125
 20
2397.330810546875
 10
-3776.400634765625
 20
2445.543212890625
 10
-3776.39306640625
 20
2453.389892578125
 10
-3776.39306640625
 20
2453.389892578125
 10
-3772.174560546875
 20
2453.534423828125
 10
-3484.273681640625
 20
2463.402587890625
 10
-3479.53955078125
 20
2463.56494140625
  0
LINE
  5
9D
330
17
100
AcDbEntity
  8
PEN
100
AcDbLine
 10
-3478.99951171875
 20
2455.4072265625
 30
0.0
 11
-3488.999755859375
 21
2455.4072265625
 31
0.0
  0
LINE
  5
9E
330
17
100
AcDbEntity
  8
PEN
100
AcDbLine
 10
-3483.999755859375
 20
2460.4072265625
 30
0.0
 11
-3483.999755859375
 21
2450.406982421875
 31
0.0
  0
LINE
  5
9F
330
17
100
AcDbEntity
  8
PEN
100
AcDbLine
 10
-3478.99951171875
 20
1403.743408203125
 30
0.0
 11
-3488.999755859375
 21
1403.743408203125
 31
0.0
  0
LINE
  5
A0
330
17
100
AcDbEntity
  8
PEN
100
AcDbLine
 10
-3483.999755859375
 20
1408.743408203125
 30
0.0
 11
-3483.999755859375
 21
1398.743408203125
 31
0.0
  0
LINE
  5
A1
330
17
100
AcDbEntity
  8
PEN
100
AcDbLine
 10
-3766.900634765625
 20
2445.5390625
 30
0.0
 11
-3776.90087890625
 21
2445.5390625
 31
0.0
  0
LINE
  5
A2
330
17
100
AcDbEntity
  8
PEN
100
AcDbLine
 10
-3771.900634765625
 20
2450.5390625
 30
0.0
 11
-3771.900634765625
 21
2440.538818359375
 31
0.0
  0
LINE
  5
A3
330
17
100
AcDbEntity
  8
PEN
100
AcDbLine
 10
-3769.197021484375
 20
1566.1878662109375
 30
0.0
 11
-3779.197265625
 21
1566.1878662109375
 31
0.0
  0
LINE
  5
A4
330
17
100
AcDbEntity
  8
PEN
100
AcDbLine
 10
-3774.197021484375
 20
1571.1878662109375
 30
0.0
 11
-3774.197021484375
 21
1561.1878662109375
 31
0.0
  0
TEXT
  5
A5
330
17
100
AcDbEntity
  8
TEXT
100
AcDbText
 10
-3766.900634765625
 20
2445.5390625
 30
0.0
 40
3.0
  1
SAIL-6 R
 11
-3766.900634765625
 21
2445.5390625
 31
0.0
100
AcDbText
  0
LWPOLYLINE
  5
A7
330
17
100
AcDbEntity
  8
CUT
100
AcDbPolyline
 90
55
 70
0
 43
0.0
 10
-4005.81884765625
 20
2453.687744140625
 10
-4005.80029296875
 20
2445.56640625
 10
-4005.689208984375
 20
2397.361083984375
 10
-4005.5791015625
 20
2351.12353515625
 10
-4005.47021484375
 20
2306.834716796875
 10
-4005.362548828125
 20
2264.423828125
 10
-4005.257080078125
 20
2223.85546875
 10
-4005.152587890625
 20
2185.066162109375
 10
-4005.05029296875
 20
2148.018798828125
 10
-4004.949951171875
 20
2112.661865234375
 10
-4004.851806640625
 20
2078.92529296875
 10
-4004.755859375
 20
2046.7869873046875
 10
-4004.662109375
 20
2016.1600341796875
 10
-4004.572021484375
 20
1987.0455322265625
 10
-4004.484619140625
 20
1959.3477783203125
 10
-4004.400634765625
 20
1933.0478515625
 10
-4004.320556640625
 20
1908.076171875
 10
-4004.244384765625
 20
1884.3468017578125
 10
-4004.171875
 20
1861.89501953125
 10
-4004.1044921875
 20
1840.6015625
 10
-4004.042236328125
 20
1820.4447021484375
 10
-4003.98486328125
 20
1801.3603515625
 10
-4003.934326171875
 20
1783.3070068359375
 10
-4003.8896484375
 20
1766.226806640625
 10
-4003.852783203125
 20
1750.070556640625
 10
-4003.82421875
 20
1734.787841796875
 10
-4003.80419921875
 20
1720.325439453125
 10
-4003.794189453125
 20
1706.631591796875
 10
-4003.796142578125
 20
1693.654052734375
 10
-4003.810302734375
 20
1681.3399658203125
 10
-4003.840087890625
 20
1669.635498046875
 10
-4003.8857421875
 20
1658.4874267578125
 10
-4003.9501953125
 20
1647.843505859375
 10
-4004.036376953125
 20
1637.6473388671875
 10
-4004.144287109375
 20
1627.9969482421875
 10
-4004.281982421875
 20
1618.38720703125
 10
-4004.445556640625
 20
1609.328125
 10
-4004.644287109375
 20
1600.380126953125
 10
-4004.877197265625
 20
1591.6123046875
 10
-4005.14453125
 20
1583.0721435546875
 10
-4005.4541015625
 20
1574.5111083984375
 10
-4005.804443359375
 20
1565.9857177734375
 10
-4006.54638671875
 20
1547.94287109375
 10
-4006.54638671875
 20
1547.94287109375
 10
-4017.47705078125
 20
1559.2061767578125
 10
-4222.0234375
 20
1769.9749755859375
 10
-4338.53759765625
 20
2038.7332763671875
 10
-4338.53759765625
 20
2038.7332763671875
 10
-4338.68359375
 20
2040.3292236328125
 10
-4374.69091796875
 20
2434.517822265625
 10
-4375.4775390625
 20
2443.123779296875
 10
-4375.4775390625
 20
2443.123779296875
 10
-4364.96044921875
 20
2443.42431640625
 10
-4010.528564453125
 20
2453.552978515625
 10
-4005.81884765625
 20
2453.687744140625
  0
LINE
  5
A8
330
17
100
AcDbEntity
  8
PEN
100
AcDbLine
 10
-4005.300048828125
 20
2445.55615234375
 30
0.0
 11
-4015.30029296875
 21
2445.55615234375
 31
0.0
  0
LINE
  5
A9
330
17
100
AcDbEntity
  8
PEN
100
AcDbLine
 10
-4010.300048828125
 20
2450.556396484375
 30
0.0
 11
-4010.300048828125
 21
2440.55615234375
 31
0.0
  0
LINE
  5
AA
330
17
100
AcDbEntity
  8
PEN
100
AcDbLine
 10
-4005.300537109375
 20
1566.17041015625
 30
0.0
 11
-4015.30078125
 21
1566.17041015625
 31
0.0
  0
LINE
  5
AB
330
17
100
AcDbEntity
  8
PEN
100
AcDbLine
 10
-4010.300537109375
 20
1571.17041015625
 30
0.0
 11
-4010.300537109375
 21
1561.17041015625
 31
0.0
  0
LINE
  5
AC
330
17
100
AcDbEntity
  8
PEN
100
AcDbLine
 10
-4359.73193359375
 20
2435.427490234375
 30
0.0
 11
-4369.732421875
 21
2435.427490234375
 31
0.0
  0
LINE
  5
AD
330
17
100
AcDbEntity
  8
PEN
100
AcDbLine
 10
-4364.732421875
 20
2440.427490234375
 30
0.0
 11
-4364.732421875
 21
2430.42724609375
 31
0.0
  0
LINE
  5
AE
330
17
100
AcDbEntity
  8
PEN
100
AcDbLine
 10
-4323.724609375
 20
2041.23876953125
 30
0.0
 11
-4333.72509765625
 21
2041.23876953125
 31
0.0
  0
LINE
  5
AF
330
17
100
AcDbEntity
  8
PEN
100
AcDbLine
 10
-4328.72509765625
 20
2046.2388916015625
 30
0.0
 11
-4328.72509765625
 21
2036.2386474609375
 31
0.0
  0
TEXT
  5
B0
330
17
100
AcDbEntity
  8
TEXT
100
AcDbText
 10
-4359.73193359375
 20
2435.427490234375
 30
0.0
 40
3.0
  1
SAIL-7 R
 11
-4359.73193359375
 21
2435.427490234375
 31
0.0
100
AcDbText
  0
LWPOLYLINE
  5
B1
330
17
100
AcDbEntity
  8
PEN
100
AcDbPolyline
 90
9
 70
0
 43
0.0
 10
-4214.82177734375
 20
2441.777587890625
 10
-4211.29541015625
 20
2442.503662109375
 10
-4197.19189453125
 20
2445.408447265625
 10
-4195.1748046875
 20
2435.61376953125
 10
-4371.474609375
 20
2399.306396484375
 10
-4193.38916015625
 20
2373.1259765625
 10
-4194.84326171875
 20
2363.232421875
 10
-4209.09033203125
 20
2365.326904296875
 10
-4212.65185546875
 20
2365.850341796875
  0
LWPOLYLINE
  5
B2
330
17
100
AcDbEntity
  8
PEN
100
AcDbPolyline
 90
9
 70
0
 43
0.0
 10
-4204.81591796875
 20
2317.117431640625
 10
-4201.32421875
 20
2317.996826171875
 10
-4187.36083984375
 20
2321.513916015625
 10
-4184.91845703125
 20
2311.816650390625
 10
-4359.466796875
 20
2267.853515625
 10
-4182.6923828125
 20
2233.93017578125
 10
-4184.5771484375
 20
2224.109375
 10
-4192.3828125
 20
2225.607421875
 10
-4202.25439453125
 20
2227.50146484375
  0
LINE
  5
B4
330
17
100
AcDbEntity
  8
PEN
100
AcDbLine
 10
-224.8856201171875
 20
926.4151611328125
 30
0.0
 11
-234.88560485839844
 21
926.4151611328125
 31
0.0
  0
LINE
  5
B5
330
17
100
AcDbEntity
  8
PEN
100
AcDbLine
 10
-229.88560485839844
 20
931.4151611328125
 30
0.0
 11
-229.88560485839844
 21
921.4151611328125
 31
0.0
  0
LINE
  5
B6
330
17
100
AcDbEntity
  8
PEN
100
AcDbLine
 10
-730.22509765625
 20
970.6530151367188
 30
0.0
 11
-740.22509765625
 21
970.6530151367188
 31
0.0
  0
LINE
  5
B7
330
17
100
AcDbEntity
  8
PEN
100
AcDbLine
 10
-735.22509765625
 20
975.6530151367188
 30
0.0
 11
-735.22509765625
 21
965.6530151367188
 31
0.0
  0
LWPOLYLINE
  5
B8
330
17
100
AcDbEntity
  8
CUT
100
AcDbPolyline
 90
93
 70
0
 43
0.0
 10
195.62989807128906
 20
2519.78662109375
 10
195.50067138671875
 20
2511.78271484375
 10
194.10882568359375
 20
2425.53515625
 10
192.7650909423828
 20
2342.884033203125
 10
191.4720458984375
 20
2263.83203125
 10
190.22764587402344
 20
2188.077392578125
 10
189.0318145751953
 20
2115.437255859375
 10
187.89193725585938
 20
2046.1761474609375
 10
186.8032684326172
 20
1979.807373046875
 10
185.7738494873047
 20
1916.6416015625
 10
184.80238342285156
 20
1856.391845703125
 10
183.8902130126953
 20
1798.9525146484375
 10
183.0390167236328
 20
1744.2333984375
 10
182.25149536132812
 20
1692.18408203125
 10
181.52981567382812
 20
1642.73681640625
 10
180.87545776367188
 20
1595.7681884765625
 10
180.29010009765625
 20
1551.17041015625
 10
179.7764129638672
 20
1508.894287109375
 10
179.3361053466797
 20
1468.82373046875
 10
178.9712371826172
 20
1430.871337890625
 10
178.68414306640625
 20
1394.9442138671875
 10
178.47705078125
 20
1360.9451904296875
 10
178.35220336914062
 20
1328.794189453125
 10
178.31190490722656
 20
1298.3834228515625
 10
178.3587646484375
 20
1269.6019287109375
 10
178.49514770507812
 20
1242.369140625
 10
178.7239532470703
 20
1216.573486328125
 10
179.04788208007812
 20
1192.103759765625
 10
179.47007751464844
 20
1168.85986328125
 10
179.9937286376953
 20
1146.71923828125
 10
180.62208557128906
 20
1125.57421875
 10
181.35877990722656
 20
1105.299560546875
 10
182.20762634277344
 20
1085.7772216796875
 10
183.17239379882812
 20
1066.87744140625
 10
184.25701904296875
 20
1048.4798583984375
 10
185.46571350097656
 20
1030.4527587890625
 10
186.8022003173828
 20
1012.674560546875
 10
188.27047729492188
 20
995.0186767578125
 10
189.87420654296875
 20
977.365478515625
 10
191.61624145507812
 20
959.6018676757812
 10
193.50048828125
 20
941.609130859375
 10
195.5272216796875
 20
923.3037109375
 10
196.61660766601562
 20
913.4644775390625
 10
196.61660766601562
 20
913.4644775390625
 10
200.87197875976562
 20
913.8370361328125
 10
768.6417846679688
 20
963.5401000976562
 10
768.6417846679688
 20
963.5401000976562
 10
769.5875854492188
 20
972.8126220703125
 10
771.3469848632812
 20
990.0613403320312
 10
772.9781494140625
 20
1007.0424194335938
 10
774.4811401367188
 20
1023.8702392578125
 10
775.8526000976562
 20
1040.623779296875
 10
777.0922241210938
 20
1057.425048828125
 10
778.1993408203125
 20
1074.4000244140625
 10
779.170654296875
 20
1091.638916015625
 10
780.0054931640625
 20
1109.2806396484375
 10
780.7017211914062
 20
1127.4298095703125
 10
781.2581176757812
 20
1146.21435546875
 10
781.6731567382812
 20
1165.7501220703125
 10
781.9451904296875
 20
1186.1307373046875
 10
782.0733642578125
 20
1207.4901123046875
 10
782.0568237304688
 20
1229.93896484375
 10
781.8945922851562
 20
1253.55615234375
 10
781.5859375
 20
1278.4615478515625
 10
781.130126953125
 20
1304.77294921875
 10
780.5274047851562
 20
1332.5523681640625
 10
779.7766723632812
 20
1361.9197998046875
 10
778.8782348632812
 20
1392.9615478515625
 10
777.8309936523438
 20
1425.7879638671875
 10
776.63623046875
 20
1460.4517822265625
 10
775.2935180664062
 20
1497.0557861328125
 10
773.7998657226562
 20
1535.7711181640625
 10
772.1625366210938
 20
1576.50146484375
 10
770.3713989257812
 20
1619.5802001953125
 10
768.4364013671875
 20
1664.863037109375
 10
766.3541870117188
 20
1712.5260009765625
 10
764.1204223632812
 20
1762.75390625
 10
761.74365234375
 20
1815.4501953125
 10
759.2139892578125
 20
1870.92138671875
 10
756.544189453125
 20
1928.990478515625
 10
753.72998046875
 20
1989.839111328125
 10
750.7483520507812
 20
2054.065673828125
 10
747.6504516601562
 20
2120.667724609375
 10
744.3868408203125
 20
2190.8037109375
 10
740.989013671875
 20
2263.908935546875
 10
737.4661254882812
 20
2339.87451171875
 10
733.7797241210938
 20
2419.64453125
 10
729.953125
 20
2502.82275390625
 10
729.5977783203125
 20
2510.545166015625
 10
729.5977783203125
 20
2510.545166015625
 10
725.5963134765625
 20
2510.61474609375
 10
200.13851928710938
 20
2519.708740234375
 10
195.62989807128906
 20
2519.78662109375
  0
LINE
  5
B9
330
17
100
AcDbEntity
  8
PEN
100
AcDbLine
 10
205.00009155273438
 20
2511.7099609375
 30
0.0
 11
195.00009155273438
 21
2511.7099609375
 31
0.0
  0
LINE
  5
BA
330
17
100
AcDbEntity
  8
PEN
100
AcDbLine
 10
200.00009155273438
 20
2516.7099609375
 30
0.0
 11
200.00009155273438
 21
2506.709716796875
 31
0.0
  0
LINE
  5
BB
330
17
100
AcDbEntity
  8
PEN
100
AcDbLine
 10
204.99989318847656
 20
923.7988891601562
 30
0.0
 11
194.99990844726562
 21
923.7988891601562
 31
0.0
  0
LINE
  5
BC
330
17
100
AcDbEntity
  8
PEN
100
AcDbLine
 10
199.99989318847656
 20
928.7988891601562
 30
0.0
 11
199.99989318847656
 21
918.7989501953125
 31
0.0
  0
LINE
  5
BD
330
17
100
AcDbEntity
  8
PEN
100
AcDbLine
 10
730.4578247070312
 20
2502.615966796875
 30
0.0
 11
720.4578247070312
 21
2502.615966796875
 31
0.0
  0
LINE
  5
BE
330
17
100
AcDbEntity
  8
PEN
100
AcDbLine
 10
725.4578247070312
 20
2507.615966796875
 30
0.0
 11
725.4578247070312
 21
2497.61572265625
 31
0.0
  0
LINE
  5
BF
330
17
100
AcDbEntity
  8
PEN
100
AcDbLine
 10
770.1107788085938
 20
973.2692260742188
 30
0.0
 11
760.1107788085938
 21
973.2692260742188
 31
0.0
  0
LINE
  5
C0
330
17
100
AcDbEntity
  8
PEN
100
AcDbLine
 10
765.1107788085938
 20
978.2692260742188
 30
0.0
 11
765.1107788085938
 21
968.2692260742188
 31
0.0
  0
TEXT
  5
C1
330
17
100
AcDbEntity
  8
TEXT
100
AcDbText
 10
205.00009155273438
 20
2511.7099609375
 30
0.0
 40
3.0
  1
SAIL-1 L
 11
205.00009155273438
 21
2511.7099609375
 31
0.0
100
AcDbText
  0
LINE
  5
C2
330
17
100
AcDbEntity
  8
PEN
100
AcDbLine
 10
191.70269775390625
 20
1085.9884033203125
 30
0.0
 11
181.70269775390625
 21
1085.9884033203125
 31
0.0
  0
LINE
  5
C3
330
17
100
AcDbEntity
  8
PEN
100
AcDbLine
 10
186.70269775390625
 20
1090.9884033203125
 30
0.0
 11
186.70269775390625
 21
1080.9884033203125
 31
0.0
  0
TEXT
  5
C4
330
17
100
AcDbEntity
  8
text
100
AcDbText
 10
197.7027130126953
 20
1083.9884033203125
 30
0.0
 40
3.0
  1
strut-seam
 11
197.7027130126953
 21
1083.9884033203125
 31
0.0
100
AcDbText
  0
LINE
  5
C5
330
17
100
AcDbEntity
  8
PEN
100
AcDbLine
 10
187.9950408935547
 20
1242.4007568359375
 30
0.0
 11
177.99505615234375
 21
1242.4007568359375
 31
0.0
  0
LINE
  5
C6
330
17
100
AcDbEntity
  8
PEN
100
AcDbLine
 10
182.99505615234375
 20
1247.4007568359375
 30
0.0
 11
182.99505615234375
 21
1237.4007568359375
 31
0.0
  0
TEXT
  5
C7
330
17
100
AcDbEntity
  8
text
100
AcDbText
 10
193.99505615234375
 20
1240.4007568359375
 30
0.0
 40
3.0
  1
strut-seam
 11
193.99505615234375
 21
1240.4007568359375
 31
0.0
100
AcDbText
  0
LINE
  5
C8
330
17
100
AcDbEntity
  8
PEN
100
AcDbLine
 10
189.27609252929688
 20
1508.84130859375
 30
0.0
 11
179.27610778808594
 21
1508.84130859375
 31
0.0
  0
LINE
  5
C9
330
17
100
AcDbEntity
  8
PEN
100
AcDbLine
 10
184.27610778808594
 20
1513.84130859375
 30
0.0
 11
184.27610778808594
 21
1503.84130859375
 31
0.0
  0
TEXT
  5
CA
330
17
100
AcDbEntity
  8
text
100
AcDbText
 10
195.27610778808594
 20
1506.84130859375
 30
0.0
 40
3.0
  1
strut-seam
 11
195.27610778808594
 21
1506.84130859375
 31
0.0
100
AcDbText
  0
LINE
  5
CB
330
17
100
AcDbEntity
  8
PEN
100
AcDbLine
 10
195.2735595703125
 20
1916.587890625
 30
0.0
 11
185.27357482910156
 21
1916.587890625
 31
0.0
  0
LINE
  5
CC
330
17
100
AcDbEntity
  8
PEN
100
AcDbLine
 10
190.27357482910156
 20
1921.5877685546875
 30
0.0
 11
190.27357482910156
 21
1911.587890625
 31
0.0
  0
TEXT
  5
CD
330
17
100
AcDbEntity
  8
text
100
AcDbText
 10
201.27357482910156
 20
1914.587890625
 30
0.0
 40
3.0
  1
strut-seam
 11
201.27357482910156
 21
1914.587890625
 31
0.0
100
AcDbText
  0
LWPOLYLINE
  5
CF
330
17
100
AcDbEntity
  8
CUT
100
AcDbPolyline
 90
7
 70
0
 43
0.0
 10
-195.62989807128906
 20
2679.78662109375
 10
-195.63919067382812
 20
2671.781494140625
 10
-195.7121124267578
 20
2609.386474609375
 10
-734.1295776367188
 20
2609.527587890625
 10
-730.1666870117188
 20
2672.0712890625
 10
-729.6777954101562
 20
2679.786376953125
 10
-195.62989807128906
 20
2679.78662109375
  0
LWPOLYLINE
  5
D1
330
17
100
AcDbEntity
  8
CUT
100
AcDbPolyline
 90
7
 70
0
 43
0.0
 10
195.62989807128906
 20
2679.78662109375
 10
195.63919067382812
 20
2671.781494140625
 10
195.7121124267578
 20
2609.386474609375
 10
734.1295776367188
 20
2609.527587890625
 10
730.1666870117188
 20
2672.0712890625
 10
729.6777954101562
 20
2679.786376953125
 10
195.62989807128906
 20
2679.78662109375
  0
LWPOLYLINE
  5
D3
330
17
100
AcDbEntity
  8
CUT
100
AcDbPolyline
 90
138
 70
0
 43
0.0
 10
-295.61492919921875
 20
4548.12890625
 10
-295.5393981933594
 20
4547.26806640625
 10
-295.31939697265625
 20
4544.751953125
 10
-294.9646911621094
 20
4540.6845703125
 10
-294.4850769042969
 20
4535.16748046875
 10
-293.8902893066406
 20
4528.30419921875
 10
-293.190185546875
 20
4520.1953125
 10
-292.3945007324219
 20
4510.94482421875
 10
-291.5130310058594
 20
4500.654296875
 10
-290.5555725097656
 20
4489.4267578125
 10
-289.53192138671875
 20
4477.36474609375
 10
-288.45184326171875
 20
4464.5693359375
 10
-287.32513427734375
 20
4451.14404296875
 10
-286.1615905761719
 20
4437.19189453125
 10
-284.97100830078125
 20
4422.814453125
 10
-283.76312255859375
 20
4408.1142578125
 10
-282.5477294921875
 20
4393.19384765625
 10
-281.33465576171875
 20
4378.15576171875
 10
-280.1336669921875
 20
4363.10205078125
 10
-278.95452880859375
 20
4348.134765625
 10
-277.8070983886719
 20
4333.35791015625
 10
-276.7010498046875
 20
4318.873046875
 10
-275.6462707519531
 20
4304.78173828125
 10
-274.6524963378906
 20
4291.1884765625
 10
-273.72955322265625
 20
4278.193359375
 10
-272.88720703125
 20
4265.89990234375
 10
-272.13519287109375
 20
4254.41064453125
 10
-271.4833679199219
 20
4243.828125
 10
-270.94146728515625
 20
4234.2548828125
 10
-270.5193176269531
 20
4225.79248046875
 10
-270.2266540527344
 20
4218.5439453125
 10
-269.3731994628906
 20
4196.923828125
 10
-268.21710205078125
 20
4172.6953125
 10
-266.79925537109375
 20
4146.04833984375
 10
-265.16064453125
 20
4117.17333984375
 10
-263.3422546386719
 20
4086.2587890625
 10
-261.3850402832031
 20
4053.494384765625
 10
-259.3299865722656
 20
4019.071044921875
 10
-257.2179870605469
 20
3983.17724609375
 10
-255.09005737304688
 20
3946.00244140625
 10
-252.98715209960938
 20
3907.737060546875
 10
-250.95021057128906
 20
3868.570068359375
 10
-249.02023315429688
 20
3828.69140625
 10
-247.2381591796875
 20
3788.290771484375
 10
-245.64495849609375
 20
3747.5576171875
 10
-244.28158569335938
 20
3706.68115234375
 10
-243.18902587890625
 20
3665.85205078125
 10
-242.408203125
 20
3625.259033203125
 10
-241.9801025390625
 20
3585.091552734375
 10
-241.9456787109375
 20
3545.5400390625
 10
-242.34591674804688
 20
3506.793701171875
 10
-243.22174072265625
 20
3469.042236328125
 10
-244.6141357421875
 20
3432.47509765625
 10
-246.56407165527344
 20
3397.281982421875
 10
-249.1125030517578
 20
3363.652587890625
 10
-252.30038452148438
 20
3331.776123046875
 10
-256.1686706542969
 20
3301.843017578125
 10
-260.7583312988281
 20
3274.042236328125
 10
-266.1103515625
 20
3248.563232421875
 10
-272.26568603515625
 20
3225.596435546875
 10
-279.2652282714844
 20
3205.33056640625
 10
-282.1627502441406
 20
3199.002685546875
 10
-286.1083068847656
 20
3191.962646484375
 10
-291.021484375
 20
3184.27490234375
 10
-296.82183837890625
 20
3176.0048828125
 10
-303.4288635253906
 20
3167.217529296875
 10
-310.7621765136719
 20
3157.977783203125
 10
-318.74127197265625
 20
3148.35107421875
 10
-327.2857360839844
 20
3138.402099609375
 10
-336.31512451171875
 20
3128.19580078125
 10
-345.74896240234375
 20
3117.7978515625
 10
-355.5068359375
 20
3107.272705078125
 10
-365.50830078125
 20
3096.685546875
 10
-375.6728515625
 20
3086.101806640625
 10
-385.9200744628906
 20
3075.586181640625
 10
-396.1695556640625
 20
3065.20361328125
 10
-406.3407897949219
 20
3055.01953125
 10
-416.35333251953125
 20
3045.098876953125
 10
-426.12677001953125
 20
3035.5068359375
 10
-435.5806579589844
 20
3026.30810546875
 10
-444.634521484375
 20
3017.56787109375
 10
-453.20794677734375
 20
3009.351318359375
 10
-461.2204284667969
 20
3001.723388671875
 10
-468.5915832519531
 20
2994.749267578125
 10
-475.2408752441406
 20
2988.493896484375
 10
-481.08795166015625
 20
2983.0224609375
 10
-486.05230712890625
 20
2978.39990234375
 10
-490.0534973144531
 20
2974.69140625
 10
-493.0111083984375
 20
2971.9619140625
 10
-494.84466552734375
 20
2970.2763671875
 10
-495.47369384765625
 20
2969.7001953125
 10
-495.47369384765625
 20
2969.7001953125
 10
-196.61660766601562
 20
2943.537841796875
 10
-196.61660766601562
 20
2943.537841796875
 10
-195.5272216796875
 20
2953.377197265625
 10
-193.50048828125
 20
2971.6826171875
 10
-191.61624145507812
 20
2989.67529296875
 10
-189.87420654296875
 20
3007.43896484375
 10
-188.27047729492188
 20
3025.092041015625
 10
-186.8022003173828
 20
3042.748046875
 10
-185.46571350097656
 20
3060.526123046875
 10
-184.25701904296875
 20
3078.55322265625
 10
-183.17239379882812
 20
3096.950927734375
 10
-182.20762634277344
 20
3115.850341796875
 10
-181.35877990722656
 20
3135.373046875
 10
-180.62208557128906
 20
3155.647705078125
 10
-179.9937286376953
 20
3176.792724609375
 10
-179.47007751464844
 20
3198.93310546875
 10
-179.04788208007812
 20
3222.177001953125
 10
-178.7239532470703
 20
3246.64697265625
 10
-178.49514770507812
 20
3272.442626953125
 10
-178.3587646484375
 20
3299.675537109375
 10
-178.31190490722656
 20
3328.456787109375
 10
-178.35220336914062
 20
3358.86767578125
 10
-178.47705078125
 20
3391.0185546875
 10
-178.68414306640625
 20
3425.017578125
 10
-178.9712371826172
 20
3460.944580078125
 10
-179.3361053466797
 20
3498.89697265625
 10
-179.7764129638672
 20
3538.967529296875
 10
-180.29010009765625
 20
3581.243896484375
 10
-180.87545776367188
 20
3625.841552734375
 10
-181.52981567382812
 20
3672.81005859375
 10
-182.25149536132812
 20
3722.257568359375
 10
-183.0390167236328
 20
3774.306884765625
 10
-183.8902130126953
 20
3829.025634765625
 10
-184.80238342285156
 20
3886.465087890625
 10
-185.7738494873047
 20
3946.71484375
 10
-186.8032684326172
 20
4009.881103515625
 10
-187.89193725585938
 20
4076.24951171875
 10
-189.0318145751953
 20
4145.5107421875
 10
-190.22764587402344
 20
4218.15087890625
 10
-191.4720458984375
 20
4293.9052734375
 10
-192.7650909423828
 20
4372.95703125
 10
-194.10882568359375
 20
4455.6083984375
 10
-195.50067138671875
 20
4541.85595703125
 10
-195.62989807128906
 20
4549.85986328125
 10
-295.61492919921875
 20
4548.12890625
 10
-195.62989807128906
 20
4549.85986328125
  0
LWPOLYLINE
  5
D5
330
17
100
AcDbEntity
  8
CUT
100
AcDbPolyline
 90
138
 70
0
 43
0.0
 10
295.61492919921875
 20
4548.12890625
 10
295.5393981933594
 20
4547.26806640625
 10
295.31939697265625
 20
4544.751953125
 10
294.9646911621094
 20
4540.6845703125
 10
294.4850769042969
 20
4535.16748046875
 10
293.8902893066406
 20
4528.30419921875
 10
293.190185546875
 20
4520.1953125
 10
292.3945007324219
 20
4510.94482421875
 10
291.5130310058594
 20
4500.654296875
 10
290.5555725097656
 20
4489.4267578125
 10
289.53192138671875
 20
4477.36474609375
 10
288.45184326171875
 20
4464.5693359375
 10
287.32513427734375
 20
4451.14404296875
 10
286.1615905761719
 20
4437.19189453125
 10
284.97100830078125
 20
4422.814453125
 10
283.76312255859375
 20
4408.1142578125
 10
282.5477294921875
 20
4393.19384765625
 10
281.33465576171875
 20
4378.15576171875
 10
280.1336669921875
 20
4363.10205078125
 10
278.95452880859375
 20
4348.134765625
 10
277.8070983886719
 20
4333.35791015625
 10
276.7010498046875
 20
4318.873046875
 10
275.6462707519531
 20
4304.78173828125
 10
274.6524963378906
 20
4291.1884765625
 10
273.72955322265625
 20
4278.193359375
 10
272.88720703125
 20
4265.89990234375
 10
272.13519287109375
 20
4254.41064453125
 10
271.4833679199219
 20
4243.828125
 10
270.94146728515625
 20
4234.2548828125
 10
270.5193176269531
 20
4225.79248046875
 10
270.2266540527344
 20
4218.5439453125
 10
269.3731994628906
 20
4196.923828125
 10
268.21710205078125
 20
4172.6953125
 10
266.79925537109375
 20
4146.04833984375
 10
265.16064453125
 20
4117.17333984375
 10
263.3422546386719
 20
4086.2587890625
 10
261.3850402832031
 20
4053.494384765625
 10
259.3299865722656
 20
4019.071044921875
 10
257.2179870605469
 20
3983.17724609375
 10
255.09005737304688
 20
3946.00244140625
 10
252.98715209960938
 20
3907.737060546875
 10
250.95021057128906
 20
3868.570068359375
 10
249.02023315429688
 20
3828.69140625
 10
247.2381591796875
 20
3788.290771484375
 10
245.64495849609375
 20
3747.5576171875
 10
244.28158569335938
 20
3706.68115234375
 10
243.18902587890625
 20
3665.85205078125
 10
242.408203125
 20
3625.259033203125
 10
241.9801025390625
 20
3585.091552734375
 10
241.9456787109375
 20
3545.5400390625
 10
242.34591674804688
 20
3506.793701171875
 10
243.22174072265625
 20
3469.042236328125
 10
244.6141357421875
 20
3432.47509765625
 10
246.56407165527344
 20
3397.281982421875
 10
249.1125030517578
 20
3363.652587890625
 10
252.30038452148438
 20
3331.776123046875
 10
256.1686706542969
 20
3301.843017578125
 10
260.7583312988281
 20
3274.042236328125
 10
266.1103515625
 20
3248.563232421875
 10
272.26568603515625
 20
3225.596435546875
 10
279.2652282714844
 20
3205.33056640625
 10
282.1627502441406
 20
3199.002685546875
 10
286.1083068847656
 20
3191.962646484375
 10
291.021484375
 20
3184.27490234375
 10
296.82183837890625
 20
3176.0048828125
 10
303.4288635253906
 20
3167.217529296875
 10
310.7621765136719
 20
3157.977783203125
 10
318.74127197265625
 20
3148.35107421875
 10
327.2857360839844
 20
3138.402099609375
 10
336.31512451171875
 20
3128.19580078125
 10
345.74896240234375
 20
3117.7978515625
 10
355.5068359375
 20
3107.272705078125
 10
365.50830078125
 20
3096.685546875
 10
375.6728515625
 20
3086.101806640625
 10
385.9200744628906
 20
3075.586181640625
 10
396.1695556640625
 20
3065.20361328125
 10
406.3407897949219
 20
3055.01953125
 10
416.35333251953125
 20
3045.098876953125
 10
426.12677001953125
 20
3035.5068359375
 10
435.5806579589844
 20
3026.30810546875
 10
444.634521484375
 20
3017.56787109375
 10
453.20794677734375
 20
3009.351318359375
 10
461.2204284667969
 20
3001.723388671875
 10
468.5915832519531
 20
2994.749267578125
 10
475.2408752441406
 20
2988.493896484375
 10
481.08795166015625
 20
2983.0224609375
 10
486.05230712890625
 20
2978.39990234375
 10
490.0534973144531
 20
2974.69140625
 10
493.0111083984375
 20
2971.9619140625
 10
494.84466552734375
 20
2970.2763671875
 10
495.47369384765625
 20
2969.7001953125
 10
495.47369384765625
 20
2969.7001953125
 10
196.61660766601562
 20
2943.537841796875
 10
196.61660766601562
 20
2943.537841796875
 10
195.5272216796875
 20
2953.377197265625
 10
193.50048828125
 20
2971.6826171875
 10
191.61624145507812
 20
2989.67529296875
 10
189.87420654296875
 20
3007.43896484375
 10
188.27047729492188
 20
3025.092041015625
 10
186.8022003173828
 20
3042.748046875
 10
185.46571350097656
 20
3060.526123046875
 10
184.25701904296875
 20
3078.55322265625
 10
183.17239379882812
 20
3096.950927734375
 10
182.20762634277344
 20
3115.850341796875
 10
181.35877990722656
 20
3135.373046875
 10
180.62208557128906
 20
3155.647705078125
 10
179.9937286376953
 20
3176.792724609375
 10
179.47007751464844
 20
3198.93310546875
 10
179.04788208007812
 20
3222.177001953125
 10
178.7239532470703
 20
3246.64697265625
 10
178.49514770507812
 20
3272.442626953125
 10
178.3587646484375
 20
3299.675537109375
 10
178.31190490722656
 20
3328.456787109375
 10
178.35220336914062
 20
3358.86767578125
 10
178.47705078125
 20
3391.0185546875
 10
178.68414306640625
 20
3425.017578125
 10
178.9712371826172
 20
3460.944580078125
 10
179.3361053466797
 20
3498.89697265625
 10
179.7764129638672
 20
3538.967529296875
 10
180.29010009765625
 20
3581.243896484375
 10
180.87545776367188
 20
3625.841552734375
 10
181.52981567382812
 20
3672.81005859375
 10
182.25149536132812
 20
3722.257568359375
 10
183.0390167236328
 20
3774.306884765625
 10
183.8902130126953
 20
3829.025634765625
 10
184.80238342285156
 20
3886.465087890625
 10
185.7738494873047
 20
3946.71484375
 10
186.8032684326172
 20
4009.881103515625
 10
187.89193725585938
 20
4076.24951171875
 10
189.0318145751953
 20
4145.5107421875
 10
190.22764587402344
 20
4218.15087890625
 10
191.4720458984375
 20
4293.9052734375
 10
192.7650909423828
 20
4372.95703125
 10
194.10882568359375
 20
4455.6083984375
 10
195.50067138671875
 20
4541.85595703125
 10
195.62989807128906
 20
4549.85986328125
 10
295.61492919921875
 20
4548.12890625
 10
195.62989807128906
 20
4549.85986328125
  0
LINE
  5
D7
330
17
100
AcDbEntity
  8
PEN
100
AcDbLine
 10
-968.3760375976562
 20
977.9744262695312
 30
0.0
 11
-978.3760375976562
 21
977.9744262695312
 31
0.0
  0
LINE
  5
D8
330
17
100
AcDbEntity
  8
PEN
100
AcDbLine
 10
-973.3760375976562
 20
982.9744262695312
 30
0.0
 11
-973.3760375976562
 21
972.9744262695312
 31
0.0
  0
LINE
  5
D9
330
17
100
AcDbEntity
  8
PEN
100
AcDbLine
 10
-1413.5489501953125
 20
1053.6171875
 30
0.0
 11
-1423.5489501953125
 21
1053.6171875
 31
0.0
  0
LINE
  5
DA
330
17
100
AcDbEntity
  8
PEN
100
AcDbLine
 10
-1418.5489501953125
 20
1058.6171875
 30
0.0
 11
-1418.5489501953125
 21
1048.6171875
 31
0.0
  0
LWPOLYLINE
  5
DB
330
17
100
AcDbEntity
  8
CUT
100
AcDbPolyline
 90
93
 70
0
 43
0.0
 10
939.444580078125
 20
2511.043212890625
 10
939.3007202148438
 20
2503.016845703125
 10
937.81103515625
 20
2419.939208984375
 10
936.3704223632812
 20
2340.17041015625
 10
934.982421875
 20
2263.73291015625
 10
933.6500244140625
 20
2190.632568359375
 10
932.3759765625
 20
2120.863037109375
 10
931.1497192382812
 20
2053.66455078125
 10
929.9874877929688
 20
1989.750732421875
 10
928.8856201171875
 20
1928.7535400390625
 10
927.8414916992188
 20
1870.345947265625
 10
926.8690795898438
 20
1815.130615234375
 10
925.9556274414062
 20
1762.203857421875
 10
925.1121826171875
 20
1712.0081787109375
 10
924.339111328125
 20
1664.36474609375
 10
923.6338500976562
 20
1618.9462890625
 10
923.0029296875
 20
1575.9102783203125
 10
922.4459228515625
 20
1535.0484619140625
 10
921.967041015625
 20
1496.4080810546875
 10
921.5662231445312
 20
1459.7625732421875
 10
921.2465209960938
 20
1425.0401611328125
 10
921.0106201171875
 20
1392.2359619140625
 10
920.8604125976562
 20
1361.1961669921875
 10
920.798583984375
 20
1331.8089599609375
 10
920.8279418945312
 20
1304.003662109375
 10
920.951416015625
 20
1277.728759765625
 10
921.1722412109375
 20
1252.81982421875
 10
921.4942626953125
 20
1229.1812744140625
 10
921.9208374023438
 20
1206.756103515625
 10
922.4564208984375
 20
1185.4111328125
 10
923.1058959960938
 20
1165.0279541015625
 10
923.8739013671875
 20
1145.5123291015625
 10
924.7662963867188
 20
1126.7384033203125
 10
925.7880249023438
 20
1108.6026611328125
 10
926.946044921875
 20
1090.9754638671875
 10
928.245361328125
 20
1073.7513427734375
 10
929.6926879882812
 20
1056.8065185546875
 10
931.2944946289062
 20
1040.018798828125
 10
933.05517578125
 20
1023.2906494140625
 10
934.9802856445312
 20
1006.5025024414062
 10
937.0739135742188
 20
989.5573120117188
 10
939.3385009765625
 20
972.361328125
 10
940.6670532226562
 20
962.2732543945312
 10
940.6670532226562
 20
962.2732543945312
 10
945.4751586914062
 20
963.0902709960938
 10
1452.0157470703125
 20
1049.1605224609375
 10
1452.0157470703125
 20
1049.1605224609375
 10
1452.615478515625
 20
1058.3497314453125
 10
1453.6513671875
 20
1074.22314453125
 10
1454.6192626953125
 20
1089.847412109375
 10
1455.5224609375
 20
1105.419677734375
 10
1456.3504638671875
 20
1120.8875732421875
 10
1457.107177734375
 20
1136.492431640625
 10
1457.7841796875
 20
1152.240966796875
 10
1458.3797607421875
 20
1168.2852783203125
 10
1458.8895263671875
 20
1184.7098388671875
 10
1459.3106689453125
 20
1201.6600341796875
 10
1459.638671875
 20
1219.2220458984375
 10
1459.8702392578125
 20
1237.48046875
 10
1460.0030517578125
 20
1256.575439453125
 10
1460.0340576171875
 20
1276.5880126953125
 10
1459.9608154296875
 20
1297.591552734375
 10
1459.7808837890625
 20
1319.7872314453125
 10
1459.493896484375
 20
1343.1365966796875
 10
1459.0975341796875
 20
1367.818603515625
 10
1458.59130859375
 20
1393.85400390625
 10
1457.972412109375
 20
1421.452880859375
 10
1457.242431640625
 20
1450.5804443359375
 10
1456.4013671875
 20
1481.307373046875
 10
1455.4439697265625
 20
1513.890380859375
 10
1454.3721923828125
 20
1548.3231201171875
 10
1453.1917724609375
 20
1584.5006103515625
 10
1451.8912353515625
 20
1622.8614501953125
 10
1450.4837646484375
 20
1663.062255859375
 10
1448.9532470703125
 20
1705.6834716796875
 10
1447.3056640625
 20
1750.6068115234375
 10
1445.5587158203125
 20
1797.447509765625
 10
1443.6905517578125
 20
1846.8699951171875
 10
1441.6939697265625
 20
1899.135009765625
 10
1439.615478515625
 20
1953.1246337890625
 10
1437.3792724609375
 20
2010.883056640625
 10
1435.054443359375
 20
2070.713623046875
 10
1432.593994140625
 20
2133.91259765625
 10
1430.0531005859375
 20
2199.151611328125
 10
1427.3858642578125
 20
2267.70458984375
 10
1424.6453857421875
 20
2338.290283203125
 10
1421.7425537109375
 20
2413.29833984375
 10
1418.71630859375
 20
2491.825439453125
 10
1418.4185791015625
 20
2499.5537109375
 10
1418.4185791015625
 20
2499.5537109375
 10
1414.411376953125
 20
2499.649658203125
 10
943.9918212890625
 20
2510.93408203125
 10
939.444580078125
 20
2511.043212890625
  0
LINE
  5
DC
330
17
100
AcDbEntity
  8
PEN
100
AcDbLine
 10
948.7999877929688
 20
2502.936279296875
 30
0.0
 11
938.7999877929688
 21
2502.936279296875
 31
0.0
  0
LINE
  5
DD
330
17
100
AcDbEntity
  8
PEN
100
AcDbLine
 10
943.7999877929688
 20
2507.9365234375
 30
0.0
 11
943.7999877929688
 21
2497.936279296875
 31
0.0
  0
LINE
  5
DE
330
17
100
AcDbEntity
  8
PEN
100
AcDbLine
 10
948.7999877929688
 20
972.9489135742188
 30
0.0
 11
938.7999877929688
 21
972.9489135742188
 31
0.0
  0
LINE
  5
DF
330
17
100
AcDbEntity
  8
PEN
100
AcDbLine
 10
943.7999877929688
 20
977.9489135742188
 30
0.0
 11
943.7999877929688
 21
967.9489135742188
 31
0.0
  0
LINE
  5
E0
330
17
100
AcDbEntity
  8
PEN
100
AcDbLine
 10
1419.2196044921875
 20
2491.652099609375
 30
0.0
 11
1409.2196044921875
 21
2491.652099609375
 31
0.0
  0
LINE
  5
E1
330
17
100
AcDbEntity
  8
PEN
100
AcDbLine
 10
1414.2196044921875
 20
2496.652099609375
 30
0.0
 11
1414.2196044921875
 21
2486.65185546875
 31
0.0
  0
LINE
  5
E2
330
17
100
AcDbEntity
  8
PEN
100
AcDbLine
 10
1453.125
 20
1058.6427001953125
 30
0.0
 11
1443.125
 21
1058.6427001953125
 31
0.0
  0
LINE
  5
E3
330
17
100
AcDbEntity
  8
PEN
100
AcDbLine
 10
1448.125
 20
1063.6427001953125
 30
0.0
 11
1448.125
 21
1053.6427001953125
 31
0.0
  0
TEXT
  5
E4
330
17
100
AcDbEntity
  8
TEXT
100
AcDbText
 10
948.7999877929688
 20
2502.936279296875
 30
0.0
 40
3.0
  1
SAIL-2 L
 11
948.7999877929688
 21
2502.936279296875
 31
0.0
100
AcDbText
  0
LWPOLYLINE
  5
E6
330
17
100
AcDbEntity
  8
CUT
100
AcDbPolyline
 90
7
 70
0
 43
0.0
 10
-939.444580078125
 20
2671.04345703125
 10
-939.4932861328125
 20
2663.01611328125
 10
-939.870849609375
 20
2600.64453125
 10
-1422.95361328125
 20
2600.781005859375
 10
-1419.0394287109375
 20
2663.32470703125
 10
-1418.5562744140625
 20
2671.043701171875
 10
-939.444580078125
 20
2671.04345703125
  0
LWPOLYLINE
  5
E8
330
17
100
AcDbEntity
  8
CUT
100
AcDbPolyline
 90
7
 70
0
 43
0.0
 10
939.444580078125
 20
2671.04345703125
 10
939.4932861328125
 20
2663.01611328125
 10
939.870849609375
 20
2600.64453125
 10
1422.95361328125
 20
2600.781005859375
 10
1419.0394287109375
 20
2663.32470703125
 10
1418.5562744140625
 20
2671.043701171875
 10
939.444580078125
 20
2671.04345703125
  0
LINE
  5
EA
330
17
100
AcDbEntity
  8
PEN
100
AcDbLine
 10
-1668.1142578125
 20
1066.0185546875
 30
0.0
 11
-1678.1142578125
 21
1066.0185546875
 31
0.0
  0
LINE
  5
EB
330
17
100
AcDbEntity
  8
PEN
100
AcDbLine
 10
-1673.1142578125
 20
1071.0185546875
 30
0.0
 11
-1673.1142578125
 21
1061.0185546875
 31
0.0
  0
LINE
  5
EC
330
17
100
AcDbEntity
  8
PEN
100
AcDbLine
 10
-2046.6788330078125
 20
1165.529052734375
 30
0.0
 11
-2056.678955078125
 21
1165.529052734375
 31
0.0
  0
LINE
  5
ED
330
17
100
AcDbEntity
  8
PEN
100
AcDbLine
 10
-2051.678955078125
 20
1170.529052734375
 30
0.0
 11
-2051.678955078125
 21
1160.529052734375
 31
0.0
  0
LWPOLYLINE
  5
EE
330
17
100
AcDbEntity
  8
CUT
100
AcDbPolyline
 90
93
 70
0
 43
0.0
 10
1639.693603515625
 20
2500.052734375
 10
1639.6002197265625
 20
2491.95458984375
 10
1638.7021484375
 20
2414.02099609375
 10
1637.8348388671875
 20
2339.1845703125
 10
1636.9996337890625
 20
2267.461181640625
 10
1636.1993408203125
 20
2198.964599609375
 10
1635.429443359375
 20
2133.18994140625
 10
1634.696533203125
 20
2070.53662109375
 10
1633.9959716796875
 20
2010.527099609375
 10
1633.33154296875
 20
1953.3070068359375
 10
1632.7030029296875
 20
1898.7401123046875
 10
1632.1109619140625
 20
1846.73974609375
 10
1631.5562744140625
 20
1797.223876953125
 10
1631.0352783203125
 20
1749.717529296875
 10
1630.5618896484375
 20
1705.334228515625
 10
1630.124267578125
 20
1662.79150390625
 10
1629.72705078125
 20
1622.4150390625
 10
1629.3717041015625
 20
1584.119140625
 10
1629.0582275390625
 20
1547.67138671875
 10
1628.7908935546875
 20
1513.4403076171875
 10
1628.5679931640625
 20
1480.8897705078125
 10
1628.3916015625
 20
1450.0860595703125
 10
1628.263427734375
 20
1420.86962890625
 10
1628.1859130859375
 20
1393.3798828125
 10
1628.16064453125
 20
1367.300537109375
 10
1628.189697265625
 20
1342.66650390625
 10
1628.2764892578125
 20
1319.244873046875
 10
1628.423095703125
 20
1297.1185302734375
 10
1628.6336669921875
 20
1276.1005859375
 10
1628.912353515625
 20
1256.095947265625
 10
1629.263916015625
 20
1237.0052490234375
 10
1629.6932373046875
 20
1218.7276611328125
 10
1630.205322265625
 20
1201.199951171875
 10
1630.8074951171875
 20
1184.2523193359375
 10
1631.5054931640625
 20
1167.8201904296875
 10
1632.306396484375
 20
1151.779541015625
 10
1633.216796875
 20
1136.0240478515625
 10
1634.2432861328125
 20
1120.453857421875
 10
1635.3934326171875
 20
1104.940185546875
 10
1636.669189453125
 20
1089.4307861328125
 10
1638.0775146484375
 20
1073.7943115234375
 10
1639.62109375
 20
1057.955322265625
 10
1640.6739501953125
 20
1047.151611328125
 10
1640.6739501953125
 20
1047.151611328125
 10
1646.6422119140625
 20
1048.7203369140625
 10
2084.802490234375
 20
1163.896240234375
 10
2084.802490234375
 20
1163.896240234375
 10
2085.189208984375
 20
1172.964111328125
 10
2085.796142578125
 20
1187.20166015625
 10
2086.376953125
 20
1201.1790771484375
 10
2086.938720703125
 20
1215.2197265625
 10
2087.467041015625
 20
1229.1260986328125
 10
2087.96142578125
 20
1243.0772705078125
 10
2088.425048828125
 20
1257.382568359375
 10
2088.844970703125
 20
1271.904296875
 10
2089.218994140625
 20
1286.8126220703125
 10
2089.543212890625
 20
1302.198974609375
 10
2089.810302734375
 20
1318.1092529296875
 10
2090.019287109375
 20
1334.7435302734375
 10
2090.164306640625
 20
1352.0782470703125
 10
2090.244384765625
 20
1370.3187255859375
 10
2090.25537109375
 20
1389.497802734375
 10
2090.19482421875
 20
1409.7022705078125
 10
2090.0615234375
 20
1431.016357421875
 10
2089.85400390625
 20
1453.43505859375
 10
2089.570556640625
 20
1477.2083740234375
 10
2089.208251953125
 20
1502.4453125
 10
2088.77294921875
 20
1528.88916015625
 10
2088.25537109375
 20
1557.10400390625
 10
2087.6650390625
 20
1586.6123046875
 10
2086.98974609375
 20
1618.1231689453125
 10
2086.24462890625
 20
1650.9859619140625
 10
2085.41064453125
 20
1686.113037109375
 10
2084.51123046875
 20
1722.6002197265625
 10
2083.518310546875
 20
1761.6796875
 10
2082.455078125
 20
1802.487548828125
 10
2081.329345703125
 20
1844.8701171875
 10
2080.0966796875
 20
1890.5313720703125
 10
2078.802490234375
 20
1937.9091796875
 10
2077.43115234375
 20
1987.6436767578125
 10
2075.985107421875
 20
2039.7529296875
 10
2074.46240234375
 20
2094.374267578125
 10
2072.8681640625
 20
2151.443603515625
 10
2071.196533203125
 20
2211.255859375
 10
2069.446044921875
 20
2273.971435546875
 10
2067.63037109375
 20
2339.1875
 10
2065.74072265625
 20
2407.326904296875
 10
2063.7822265625
 20
2478.308349609375
 10
2063.568603515625
 20
2486.047119140625
 10
2063.568603515625
 20
2486.047119140625
 10
2059.548095703125
 20
2486.179931640625
 10
1644.3641357421875
 20
2499.8984375
 10
1639.693603515625
 20
2500.052734375
  0
LINE
  5
EF
330
17
100
AcDbEntity
  8
PEN
100
AcDbLine
 10
1649.0999755859375
 20
2491.90283203125
 30
0.0
 11
1639.0999755859375
 21
2491.90283203125
 31
0.0
  0
LINE
  5
F0
330
17
100
AcDbEntity
  8
PEN
100
AcDbLine
 10
1644.0999755859375
 20
2496.90283203125
 30
0.0
 11
1644.0999755859375
 21
2486.90283203125
 31
0.0
  0
LINE
  5
F1
330
17
100
AcDbEntity
  8
PEN
100
AcDbLine
 10
1649.0999755859375
 20
1058.391845703125
 30
0.0
 11
1639.0999755859375
 21
1058.391845703125
 31
0.0
  0
LINE
  5
F2
330
17
100
AcDbEntity
  8
PEN
100
AcDbLine
 10
1644.0999755859375
 20
1063.391845703125
 30
0.0
 11
1644.0999755859375
 21
1053.391845703125
 31
0.0
  0
LINE
  5
F3
330
17
100
AcDbEntity
  8
PEN
100
AcDbLine
 10
2064.2841796875
 20
2478.184326171875
 30
0.0
 11
2054.283935546875
 21
2478.184326171875
 31
0.0
  0
LINE
  5
F4
330
17
100
AcDbEntity
  8
PEN
100
AcDbLine
 10
2059.283935546875
 20
2483.184326171875
 30
0.0
 11
2059.283935546875
 21
2473.18408203125
 31
0.0
  0
LINE
  5
F5
330
17
100
AcDbEntity
  8
PEN
100
AcDbLine
 10
2085.693359375
 20
1173.15576171875
 30
0.0
 11
2075.693115234375
 21
1173.15576171875
 31
0.0
  0
LINE
  5
F6
330
17
100
AcDbEntity
  8
PEN
100
AcDbLine
 10
2080.693359375
 20
1178.15576171875
 30
0.0
 11
2080.693359375
 21
1168.15576171875
 31
0.0
  0
TEXT
  5
F7
330
17
100
AcDbEntity
  8
TEXT
100
AcDbText
 10
1649.0999755859375
 20
2491.90283203125
 30
0.0
 40
3.0
  1
SAIL-3 L
 11
1649.0999755859375
 21
2491.90283203125
 31
0.0
100
AcDbText
  0
LWPOLYLINE
  5
F9
330
17
100
AcDbEntity
  8
CUT
100
AcDbPolyline
 90
7
 70
0
 43
0.0
 10
-1639.693603515625
 20
2660.052734375
 10
-1639.8677978515625
 20
2651.955810546875
 10
-1641.20751953125
 20
2589.6689453125
 10
-2068.064697265625
 20
2589.781982421875
 10
-2064.26904296875
 20
2652.3251953125
 10
-2063.7998046875
 20
2660.052734375
 10
-1639.693603515625
 20
2660.052734375
  0
LWPOLYLINE
  5
FB
330
17
100
AcDbEntity
  8
CUT
100
AcDbPolyline
 90
7
 70
0
 43
0.0
 10
1639.693603515625
 20
2660.052734375
 10
1639.8677978515625
 20
2651.955810546875
 10
1641.20751953125
 20
2589.6689453125
 10
2068.064697265625
 20
2589.781982421875
 10
2064.26904296875
 20
2652.3251953125
 10
2063.7998046875
 20
2660.052734375
 10
1639.693603515625
 20
2660.052734375
  0
LINE
  5
FD
330
17
100
AcDbEntity
  8
PEN
100
AcDbLine
 10
-2324.59619140625
 20
1181.81103515625
 30
0.0
 11
-2334.596435546875
 21
1181.81103515625
 31
0.0
  0
LINE
  5
FE
330
17
100
AcDbEntity
  8
PEN
100
AcDbLine
 10
-2329.59619140625
 20
1186.81103515625
 30
0.0
 11
-2329.59619140625
 21
1176.8111572265625
 31
0.0
  0
LINE
  5
FF
330
17
100
AcDbEntity
  8
PEN
100
AcDbLine
 10
-2648.908447265625
 20
1280.6705322265625
 30
0.0
 11
-2658.90869140625
 21
1280.6705322265625
 31
0.0
  0
LINE
  5
100
330
17
100
AcDbEntity
  8
PEN
100
AcDbLine
 10
-2653.908447265625
 20
1285.6705322265625
 30
0.0
 11
-2653.908447265625
 21
1275.6705322265625
 31
0.0
  0
LWPOLYLINE
  5
101
330
17
100
AcDbEntity
  8
CUT
100
AcDbPolyline
 90
93
 70
0
 43
0.0
 10
2296.4716796875
 20
2486.4326171875
 10
2296.400146484375
 20
2478.31591796875
 10
2295.77392578125
 20
2407.259765625
 10
2295.17041015625
 20
2339.09130859375
 10
2294.589111328125
 20
2273.7099609375
 10
2294.03173828125
 20
2211.168212890625
 10
2293.5
 20
2151.5380859375
 10
2292.98828125
 20
2094.23193359375
 10
2292.501220703125
 20
2039.5638427734375
 10
2292.038330078125
 20
1987.393798828125
 10
2291.600341796875
 20
1937.650146484375
 10
2291.1865234375
 20
1890.24609375
 10
2290.79833984375
 20
1845.1243896484375
 10
2290.435546875
 20
1802.18212890625
 10
2290.0986328125
 20
1761.36865234375
 10
2289.7880859375
 20
1722.5882568359375
 10
2289.504638671875
 20
1685.7867431640625
 10
2289.248291015625
 20
1650.8760986328125
 10
2289.020751953125
 20
1617.7886962890625
 10
2288.82177734375
 20
1586.445556640625
 10
2288.652587890625
 20
1556.771484375
 10
2288.51416015625
 20
1528.6890869140625
 10
2288.40771484375
 20
1502.1220703125
 10
2288.335205078125
 20
1476.9915771484375
 10
2288.296875
 20
1453.216796875
 10
2288.295654296875
 20
1430.718505859375
 10
2288.333740234375
 20
1409.4140625
 10
2288.4130859375
 20
1389.219482421875
 10
2288.537841796875
 20
1370.0489501953125
 10
2288.7099609375
 20
1351.883056640625
 10
2288.935302734375
 20
1334.4866943359375
 10
2289.216552734375
 20
1317.8966064453125
 10
2289.5615234375
 20
1301.915771484375
 10
2289.971923828125
 20
1286.5845947265625
 10
2290.45849609375
 20
1271.6397705078125
 10
2291.02392578125
 20
1257.1103515625
 10
2291.673828125
 20
1242.8934326171875
 10
2292.41748046875
 20
1228.8330078125
 10
2293.2587890625
 20
1214.873291015625
 10
2294.20458984375
 20
1200.8963623046875
 10
2295.254638671875
 20
1186.8775634765625
 10
2296.414794921875
 20
1172.6966552734375
 10
2297.3291015625
 20
1161.5208740234375
 10
2297.3291015625
 20
1161.5208740234375
 10
2303.81591796875
 20
1163.4981689453125
 10
2686.934814453125
 20
1280.2835693359375
 10
2686.934814453125
 20
1280.2835693359375
 10
2687.10400390625
 20
1289.3338623046875
 10
2687.33837890625
 20
1301.864501953125
 10
2687.579833984375
 20
1314.3404541015625
 10
2687.826171875
 20
1326.85302734375
 10
2688.0693359375
 20
1339.2086181640625
 10
2688.310302734375
 20
1351.7685546875
 10
2688.54638671875
 20
1364.689208984375
 10
2688.763671875
 20
1377.5328369140625
 10
2688.968505859375
 20
1391.031005859375
 10
2689.14794921875
 20
1404.7412109375
 10
2689.303955078125
 20
1419.1925048828125
 10
2689.42724609375
 20
1434.065185546875
 10
2689.518310546875
 20
1449.7269287109375
 10
2689.57177734375
 20
1466.1622314453125
 10
2689.586181640625
 20
1483.4498291015625
 10
2689.55908203125
 20
1501.6678466796875
 10
2689.488037109375
 20
1520.8905029296875
 10
2689.371826171875
 20
1541.1925048828125
 10
2689.209228515625
 20
1562.648193359375
 10
2689.00048828125
 20
1585.1656494140625
 10
2688.74169921875
 20
1609.30126953125
 10
2688.435546875
 20
1634.641357421875
 10
2688.083984375
 20
1661.185302734375
 10
2687.677001953125
 20
1689.6959228515625
 10
2687.224609375
 20
1719.547607421875
 10
2686.723388671875
 20
1751.0401611328125
 10
2686.173095703125
 20
1784.23779296875
 10
2685.5830078125
 20
1818.6976318359375
 10
2684.926513671875
 20
1856.0321044921875
 10
2684.230712890625
 20
1894.7655029296875
 10
2683.487060546875
 20
1935.456787109375
 10
2682.69580078125
 20
1978.2215576171875
 10
2681.857666015625
 20
2023.0543212890625
 10
2680.971435546875
 20
2070.115966796875
 10
2680.038818359375
 20
2119.403564453125
 10
2679.06298828125
 20
2170.87646484375
 10
2678.036376953125
 20
2225.00634765625
 10
2676.97119140625
 20
2281.239013671875
 10
2675.856201171875
 20
2340.26611328125
 10
2674.69970703125
 20
2401.718505859375
 10
2673.501708984375
 20
2465.761474609375
 10
2673.356201171875
 20
2473.532958984375
 10
2673.356201171875
 20
2473.532958984375
 10
2669.276123046875
 20
2473.672607421875
 10
2301.173583984375
 20
2486.271728515625
 10
2296.4716796875
 20
2486.4326171875
  0
LINE
  5
102
330
17
100
AcDbEntity
  8
PEN
100
AcDbLine
 10
2305.900146484375
 20
2478.2763671875
 30
0.0
 11
2295.89990234375
 21
2478.2763671875
 31
0.0
  0
LINE
  5
103
330
17
100
AcDbEntity
  8
PEN
100
AcDbLine
 10
2300.89990234375
 20
2483.2763671875
 30
0.0
 11
2300.89990234375
 21
2473.276123046875
 31
0.0
  0
LINE
  5
104
330
17
100
AcDbEntity
  8
PEN
100
AcDbLine
 10
2305.900146484375
 20
1173.0635986328125
 30
0.0
 11
2295.89990234375
 21
1173.0635986328125
 31
0.0
  0
LINE
  5
105
330
17
100
AcDbEntity
  8
PEN
100
AcDbLine
 10
2300.89990234375
 20
1178.0635986328125
 30
0.0
 11
2300.89990234375
 21
1168.0635986328125
 31
0.0
  0
LINE
  5
106
330
17
100
AcDbEntity
  8
PEN
100
AcDbLine
 10
2674.002685546875
 20
2465.67724609375
 30
0.0
 11
2664.00244140625
 21
2465.67724609375
 31
0.0
  0
LINE
  5
107
330
17
100
AcDbEntity
  8
PEN
100
AcDbLine
 10
2669.00244140625
 20
2470.677490234375
 30
0.0
 11
2669.00244140625
 21
2460.67724609375
 31
0.0
  0
LINE
  5
108
330
17
100
AcDbEntity
  8
PEN
100
AcDbLine
 10
2687.60498046875
 20
1289.41796875
 30
0.0
 11
2677.604736328125
 21
1289.41796875
 31
0.0
  0
LINE
  5
109
330
17
100
AcDbEntity
  8
PEN
100
AcDbLine
 10
2682.604736328125
 20
1294.41796875
 30
0.0
 11
2682.604736328125
 21
1284.41796875
 31
0.0
  0
TEXT
  5
10A
330
17
100
AcDbEntity
  8
TEXT
100
AcDbText
 10
2305.900146484375
 20
2478.2763671875
 30
0.0
 40
3.0
  1
SAIL-4 L
 11
2305.900146484375
 21
2478.2763671875
 31
0.0
100
AcDbText
  0
LWPOLYLINE
  5
10C
330
17
100
AcDbEntity
  8
CUT
100
AcDbPolyline
 90
7
 70
0
 43
0.0
 10
-2296.4716796875
 20
2646.4326171875
 10
-2296.677734375
 20
2638.318359375
 10
-2298.259521484375
 20
2576.05517578125
 10
-2677.30078125
 20
2576.131591796875
 10
-2673.988037109375
 20
2638.6708984375
 10
-2673.5771484375
 20
2646.432861328125
 10
-2296.4716796875
 20
2646.4326171875
  0
LWPOLYLINE
  5
10E
330
17
100
AcDbEntity
  8
CUT
100
AcDbPolyline
 90
7
 70
0
 43
0.0
 10
2296.4716796875
 20
2646.4326171875
 10
2296.677734375
 20
2638.318359375
 10
2298.259521484375
 20
2576.05517578125
 10
2677.30078125
 20
2576.131591796875
 10
2673.988037109375
 20
2638.6708984375
 10
2673.5771484375
 20
2646.432861328125
 10
2296.4716796875
 20
2646.4326171875
  0
LWPOLYLINE
  5
110
330
17
100
AcDbEntity
  8
CUT
100
AcDbPolyline
 90
138
 70
0
 43
0.0
 10
-2572.149169921875
 20
2758.718017578125
 10
-2572.32373046875
 20
2759.2548828125
 10
-2572.832275390625
 20
2760.82275390625
 10
-2573.65234375
 20
2763.35888671875
 10
-2574.76123046875
 20
2766.799072265625
 10
-2576.13623046875
 20
2771.080078125
 10
-2577.75537109375
 20
2776.13818359375
 10
-2579.595947265625
 20
2781.91015625
 10
-2581.635498046875
 20
2788.33251953125
 10
-2583.85107421875
 20
2795.341552734375
 10
-2586.220458984375
 20
2802.87353515625
 10
-2588.72119140625
 20
2810.865966796875
 10
-2591.330810546875
 20
2819.25390625
 10
-2594.026611328125
 20
2827.97509765625
 10
-2596.7861328125
 20
2836.965087890625
 10
-2599.586669921875
 20
2846.1611328125
 10
-2602.406005859375
 20
2855.499267578125
 10
-2605.221435546875
 20
2864.916015625
 10
-2608.010498046875
 20
2874.34814453125
 10
-2610.750732421875
 20
2883.73193359375
 10
-2613.41943359375
 20
2893.00390625
 10
-2615.994384765625
 20
2902.1005859375
 10
-2618.452880859375
 20
2910.958251953125
 10
-2620.772216796875
 20
2919.513916015625
 10
-2622.929931640625
 20
2927.70361328125
 10
-2624.90380859375
 20
2935.4638671875
 10
-2626.67138671875
 20
2942.7314453125
 10
-2628.20947265625
 20
2949.4423828125
 10
-2629.496337890625
 20
2955.53369140625
 10
-2630.5087890625
 20
2960.94189453125
 10
-2631.22412109375
 20
2965.602783203125
 10
-2633.103759765625
 20
2981.902587890625
 10
-2634.73583984375
 20
3000.140869140625
 10
-2636.12939453125
 20
3020.17919921875
 10
-2637.2939453125
 20
3041.879638671875
 10
-2638.2392578125
 20
3065.103515625
 10
-2638.97412109375
 20
3089.712890625
 10
-2639.508544921875
 20
3115.56884765625
 10
-2639.8515625
 20
3142.533447265625
 10
-2640.0126953125
 20
3170.46826171875
 10
-2640.00146484375
 20
3199.2353515625
 10
-2639.8271484375
 20
3228.69580078125
 10
-2639.49951171875
 20
3258.7119140625
 10
-2639.02734375
 20
3289.14453125
 10
-2638.420654296875
 20
3319.856201171875
 10
-2637.688720703125
 20
3350.7080078125
 10
-2636.8408203125
 20
3381.561767578125
 10
-2635.886474609375
 20
3412.279296875
 10
-2634.8349609375
 20
3442.722412109375
 10
-2633.69580078125
 20
3472.75244140625
 10
-2632.478515625
 20
3502.231201171875
 10
-2631.1923828125
 20
3531.0205078125
 10
-2629.84716796875
 20
3558.981689453125
 10
-2628.45166015625
 20
3585.976806640625
 10
-2627.015625
 20
3611.867431640625
 10
-2625.548583984375
 20
3636.51513671875
 10
-2624.059814453125
 20
3659.78173828125
 10
-2622.558837890625
 20
3681.52880859375
 10
-2621.054931640625
 20
3701.617919921875
 10
-2619.5576171875
 20
3719.9111328125
 10
-2618.075439453125
 20
3736.27001953125
 10
-2617.469970703125
 20
3741.89794921875
 10
-2616.649169921875
 20
3748.45654296875
 10
-2615.629150390625
 20
3755.86669921875
 10
-2614.4267578125
 20
3764.05029296875
 10
-2613.05859375
 20
3772.927978515625
 10
-2611.541015625
 20
3782.421630859375
 10
-2609.890625
 20
3792.4521484375
 10
-2608.124267578125
 20
3802.941162109375
 10
-2606.25830078125
 20
3813.8095703125
 10
-2604.3095703125
 20
3824.97900390625
 10
-2602.294189453125
 20
3836.37060546875
 10
-2600.22900390625
 20
3847.90576171875
 10
-2598.13037109375
 20
3859.505859375
 10
-2596.01513671875
 20
3871.092041015625
 10
-2593.899658203125
 20
3882.585693359375
 10
-2591.80078125
 20
3893.908203125
 10
-2589.734619140625
 20
3904.98095703125
 10
-2587.718017578125
 20
3915.72509765625
 10
-2585.767578125
 20
3926.0615234375
 10
-2583.899658203125
 20
3935.912353515625
 10
-2582.131103515625
 20
3945.198486328125
 10
-2580.478515625
 20
3953.84130859375
 10
-2578.9580078125
 20
3961.76171875
 10
-2577.586669921875
 20
3968.881591796875
 10
-2576.380615234375
 20
3975.1220703125
 10
-2575.35693359375
 20
3980.404052734375
 10
-2574.53173828125
 20
3984.6494140625
 10
-2573.921875
 20
3987.779296875
 10
-2573.543701171875
 20
3989.715087890625
 10
-2573.414794921875
 20
3990.3779296875
 10
-2573.414794921875
 20
3990.3779296875
 10
-2673.356201171875
 20
3986.957275390625
 10
-2673.356201171875
 20
3986.957275390625
 10
-2673.501708984375
 20
3979.185791015625
 10
-2674.69970703125
 20
3915.14306640625
 10
-2675.856201171875
 20
3853.690673828125
 10
-2676.97119140625
 20
3794.663330078125
 10
-2678.036376953125
 20
3738.4306640625
 10
-2679.06298828125
 20
3684.30078125
 10
-2680.038818359375
 20
3632.827880859375
 10
-2680.971435546875
 20
3583.54052734375
 10
-2681.857666015625
 20
3536.478759765625
 10
-2682.69580078125
 20
3491.645751953125
 10
-2683.487060546875
 20
3448.881103515625
 10
-2684.230712890625
 20
3408.189697265625
 10
-2684.926513671875
 20
3369.45654296875
 10
-2685.5830078125
 20
3332.1220703125
 10
-2686.173095703125
 20
3297.662353515625
 10
-2686.723388671875
 20
3264.464599609375
 10
-2687.224609375
 20
3232.97216796875
 10
-2687.677001953125
 20
3203.1201171875
 10
-2688.083984375
 20
3174.609619140625
 10
-2688.435546875
 20
3148.06591796875
 10
-2688.74169921875
 20
3122.725830078125
 10
-2689.00048828125
 20
3098.58984375
 10
-2689.209228515625
 20
3076.07275390625
 10
-2689.371826171875
 20
3054.616943359375
 10
-2689.488037109375
 20
3034.31494140625
 10
-2689.55908203125
 20
3015.09228515625
 10
-2689.586181640625
 20
2996.874267578125
 10
-2689.57177734375
 20
2979.586669921875
 10
-2689.518310546875
 20
2963.1513671875
 10
-2689.42724609375
 20
2947.48974609375
 10
-2689.303955078125
 20
2932.616943359375
 10
-2689.14794921875
 20
2918.165771484375
 10
-2688.968505859375
 20
2904.455322265625
 10
-2688.763671875
 20
2890.957275390625
 10
-2688.54638671875
 20
2878.11376953125
 10
-2688.310302734375
 20
2865.19287109375
 10
-2688.0693359375
 20
2852.633056640625
 10
-2687.826171875
 20
2840.27734375
 10
-2687.579833984375
 20
2827.764892578125
 10
-2687.33837890625
 20
2815.2890625
 10
-2687.10400390625
 20
2802.75830078125
 10
-2686.934814453125
 20
2793.707763671875
 10
-2686.934814453125
 20
2793.707763671875
 10
-2572.149169921875
 20
2758.718017578125
  0
LWPOLYLINE
  5
112
330
17
100
AcDbEntity
  8
CUT
100
AcDbPolyline
 90
138
 70
0
 43
0.0
 10
2572.149169921875
 20
2758.718017578125
 10
2572.32373046875
 20
2759.2548828125
 10
2572.832275390625
 20
2760.82275390625
 10
2573.65234375
 20
2763.35888671875
 10
2574.76123046875
 20
2766.799072265625
 10
2576.13623046875
 20
2771.080078125
 10
2577.75537109375
 20
2776.13818359375
 10
2579.595947265625
 20
2781.91015625
 10
2581.635498046875
 20
2788.33251953125
 10
2583.85107421875
 20
2795.341552734375
 10
2586.220458984375
 20
2802.87353515625
 10
2588.72119140625
 20
2810.865966796875
 10
2591.330810546875
 20
2819.25390625
 10
2594.026611328125
 20
2827.97509765625
 10
2596.7861328125
 20
2836.965087890625
 10
2599.586669921875
 20
2846.1611328125
 10
2602.406005859375
 20
2855.499267578125
 10
2605.221435546875
 20
2864.916015625
 10
2608.010498046875
 20
2874.34814453125
 10
2610.750732421875
 20
2883.73193359375
 10
2613.41943359375
 20
2893.00390625
 10
2615.994384765625
 20
2902.1005859375
 10
2618.452880859375
 20
2910.958251953125
 10
2620.772216796875
 20
2919.513916015625
 10
2622.929931640625
 20
2927.70361328125
 10
2624.90380859375
 20
2935.4638671875
 10
2626.67138671875
 20
2942.7314453125
 10
2628.20947265625
 20
2949.4423828125
 10
2629.496337890625
 20
2955.53369140625
 10
2630.5087890625
 20
2960.94189453125
 10
2631.22412109375
 20
2965.602783203125
 10
2633.103759765625
 20
2981.902587890625
 10
2634.73583984375
 20
3000.140869140625
 10
2636.12939453125
 20
3020.17919921875
 10
2637.2939453125
 20
3041.879638671875
 10
2638.2392578125
 20
3065.103515625
 10
2638.97412109375
 20
3089.712890625
 10
2639.508544921875
 20
3115.56884765625
 10
2639.8515625
 20
3142.533447265625
 10
2640.0126953125
 20
3170.46826171875
 10
2640.00146484375
 20
3199.2353515625
 10
2639.8271484375
 20
3228.69580078125
 10
2639.49951171875
 20
3258.7119140625
 10
2639.02734375
 20
3289.14453125
 10
2638.420654296875
 20
3319.856201171875
 10
2637.688720703125
 20
3350.7080078125
 10
2636.8408203125
 20
3381.561767578125
 10
2635.886474609375
 20
3412.279296875
 10
2634.8349609375
 20
3442.722412109375
 10
2633.69580078125
 20
3472.75244140625
 10
2632.478515625
 20
3502.231201171875
 10
2631.1923828125
 20
3531.0205078125
 10
2629.84716796875
 20
3558.981689453125
 10
2628.45166015625
 20
3585.976806640625
 10
2627.015625
 20
3611.867431640625
 10
2625.548583984375
 20
3636.51513671875
 10
2624.059814453125
 20
3659.78173828125
 10
2622.558837890625
 20
3681.52880859375
 10
2621.054931640625
 20
3701.617919921875
 10
2619.5576171875
 20
3719.9111328125
 10
2618.075439453125
 20
3736.27001953125
 10
2617.469970703125
 20
3741.89794921875
 10
2616.649169921875
 20
3748.45654296875
 10
2615.629150390625
 20
3755.86669921875
 10
2614.4267578125
 20
3764.05029296875
 10
2613.05859375
 20
3772.927978515625
 10
2611.541015625
 20
3782.421630859375
 10
2609.890625
 20
3792.4521484375
 10
2608.124267578125
 20
3802.941162109375
 10
2606.25830078125
 20
3813.8095703125
 10
2604.3095703125
 20
3824.97900390625
 10
2602.294189453125
 20
3836.37060546875
 10
2600.22900390625
 20
3847.90576171875
 10
2598.13037109375
 20
3859.505859375
 10
2596.01513671875
 20
3871.092041015625
 10
2593.899658203125
 20
3882.585693359375
 10
2591.80078125
 20
3893.908203125
 10
2589.734619140625
 20
3904.98095703125
 10
2587.718017578125
 20
3915.72509765625
 10
2585.767578125
 20
3926.0615234375
 10
2583.899658203125
 20
3935.912353515625
 10
2582.131103515625
 20
3945.198486328125
 10
2580.478515625
 20
3953.84130859375
 10
2578.9580078125
 20
3961.76171875
 10
2577.586669921875
 20
3968.881591796875
 10
2576.380615234375
 20
3975.1220703125
 10
2575.35693359375
 20
3980.404052734375
 10
2574.53173828125
 20
3984.6494140625
 10
2573.921875
 20
3987.779296875
 10
2573.543701171875
 20
3989.715087890625
 10
2573.414794921875
 20
3990.3779296875
 10
2573.414794921875
 20
3990.3779296875
 10
2673.356201171875
 20
3986.957275390625
 10
2673.356201171875
 20
3986.957275390625
 10
2673.501708984375
 20
3979.185791015625
 10
2674.69970703125
 20
3915.14306640625
 10
2675.856201171875
 20
3853.690673828125
 10
2676.97119140625
 20
3794.663330078125
 10
2678.036376953125
 20
3738.4306640625
 10
2679.06298828125
 20
3684.30078125
 10
2680.038818359375
 20
3632.827880859375
 10
2680.971435546875
 20
3583.54052734375
 10
2681.857666015625
 20
3536.478759765625
 10
2682.69580078125
 20
3491.645751953125
 10
2683.487060546875
 20
3448.881103515625
 10
2684.230712890625
 20
3408.189697265625
 10
2684.926513671875
 20
3369.45654296875
 10
2685.5830078125
 20
3332.1220703125
 10
2686.173095703125
 20
3297.662353515625
 10
2686.723388671875
 20
3264.464599609375
 10
2687.224609375
 20
3232.97216796875
 10
2687.677001953125
 20
3203.1201171875
 10
2688.083984375
 20
3174.609619140625
 10
2688.435546875
 20
3148.06591796875
 10
2688.74169921875
 20
3122.725830078125
 10
2689.00048828125
 20
3098.58984375
 10
2689.209228515625
 20
3076.07275390625
 10
2689.371826171875
 20
3054.616943359375
 10
2689.488037109375
 20
3034.31494140625
 10
2689.55908203125
 20
3015.09228515625
 10
2689.586181640625
 20
2996.874267578125
 10
2689.57177734375
 20
2979.586669921875
 10
2689.518310546875
 20
2963.1513671875
 10
2689.42724609375
 20
2947.48974609375
 10
2689.303955078125
 20
2932.616943359375
 10
2689.14794921875
 20
2918.165771484375
 10
2688.968505859375
 20
2904.455322265625
 10
2688.763671875
 20
2890.957275390625
 10
2688.54638671875
 20
2878.11376953125
 10
2688.310302734375
 20
2865.19287109375
 10
2688.0693359375
 20
2852.633056640625
 10
2687.826171875
 20
2840.27734375
 10
2687.579833984375
 20
2827.764892578125
 10
2687.33837890625
 20
2815.2890625
 10
2687.10400390625
 20
2802.75830078125
 10
2686.934814453125
 20
2793.707763671875
 10
2686.934814453125
 20
2793.707763671875
 10
2572.149169921875
 20
2758.718017578125
  0
LINE
  5
114
330
17
100
AcDbEntity
  8
PEN
100
AcDbLine
 10
-2937.592529296875
 20
1299.218505859375
 30
0.0
 11
-2947.5927734375
 21
1299.218505859375
 31
0.0
  0
LINE
  5
115
330
17
100
AcDbEntity
  8
PEN
100
AcDbLine
 10
-2942.592529296875
 20
1304.218505859375
 30
0.0
 11
-2942.592529296875
 21
1294.218505859375
 31
0.0
  0
LINE
  5
116
330
17
100
AcDbEntity
  8
PEN
100
AcDbLine
 10
-3215.5
 20
1394.043212890625
 30
0.0
 11
-3225.5
 21
1394.043212890625
 31
0.0
  0
LINE
  5
117
330
17
100
AcDbEntity
  8
PEN
100
AcDbLine
 10
-3220.5
 20
1399.043212890625
 30
0.0
 11
-3220.5
 21
1389.043212890625
 31
0.0
  0
LWPOLYLINE
  5
118
330
17
100
AcDbEntity
  8
CUT
100
AcDbPolyline
 90
93
 70
0
 43
0.0
 10
2909.777587890625
 20
2473.7060546875
 10
2909.7001953125
 20
2465.607666015625
 10
2909.048583984375
 20
2397.446533203125
 10
2908.49609375
 20
2340.021728515625
 10
2907.925537109375
 20
2281.063232421875
 10
2907.378662109375
 20
2224.749267578125
 10
2906.852294921875
 20
2170.687744140625
 10
2906.349365234375
 20
2119.09765625
 10
2905.870361328125
 20
2069.888916015625
 10
2905.41357421875
 20
2022.808349609375
 10
2904.956298828125
 20
1975.255615234375
 10
2904.57470703125
 20
1935.2117919921875
 10
2904.19287109375
 20
1894.5042724609375
 10
2903.83642578125
 20
1855.7701416015625
 10
2903.507568359375
 20
1818.953125
 10
2903.205078125
 20
1783.973876953125
 10
2902.931396484375
 20
1750.7705078125
 10
2902.686279296875
 20
1719.27783203125
 10
2902.470947265625
 20
1689.4254150390625
 10
2902.285888671875
 20
1661.14501953125
 10
2902.13232421875
 20
1634.371337890625
 10
2902.010986328125
 20
1609.0299072265625
 10
2901.923583984375
 20
1585.055908203125
 10
2901.87109375
 20
1562.377685546875
 10
2901.85546875
 20
1540.9224853515625
 10
2901.87744140625
 20
1520.619873046875
 10
2901.93896484375
 20
1501.3961181640625
 10
2902.042724609375
 20
1483.17626953125
 10
2902.189453125
 20
1465.95703125
 10
2902.384033203125
 20
1449.506103515625
 10
2902.62890625
 20
1433.82861328125
 10
2902.926025390625
 20
1418.8916015625
 10
2903.279541015625
 20
1404.5548095703125
 10
2903.694580078125
 20
1390.7384033203125
 10
2904.17626953125
 20
1377.3216552734375
 10
2904.724853515625
 20
1364.338623046875
 10
2905.349609375
 20
1351.591552734375
 10
2906.052001953125
 20
1339.03955078125
 10
2906.836669921875
 20
1326.6051025390625
 10
2907.708984375
 20
1314.1722412109375
 10
2908.666015625
 20
1301.7396240234375
 10
2909.71533203125
 20
1289.1566162109375
 10
2910.666015625
 20
1277.7586669921875
 10
2910.666015625
 20
1277.7586669921875
 10
2917.42919921875
 20
1280.06640625
 10
3253.42822265625
 20
1394.71240234375
 10
3253.42822265625
 20
1394.71240234375
 10
3253.392578125
 20
1403.7489013671875
 10
3253.35107421875
 20
1414.361083984375
 10
3253.319091796875
 20
1424.91796875
 10
3253.295166015625
 20
1435.508544921875
 10
3253.2783203125
 20
1446.199951171875
 10
3253.265625
 20
1457.0614013671875
 10
3253.255615234375
 20
1468.16259765625
 10
3253.245849609375
 20
1479.5704345703125
 10
3253.23388671875
 20
1491.356689453125
 10
3253.2177734375
 20
1503.5899658203125
 10
3253.1953125
 20
1516.339111328125
 10
3253.164794921875
 20
1529.6729736328125
 10
3253.124755859375
 20
1543.6578369140625
 10
3253.073486328125
 20
1558.359130859375
 10
3253.00927734375
 20
1573.8460693359375
 10
3252.93115234375
 20
1590.180908203125
 10
3252.837890625
 20
1607.427978515625
 10
3252.7294921875
 20
1625.65185546875
 10
3252.604248046875
 20
1644.918212890625
 10
3252.46142578125
 20
1665.2825927734375
 10
3252.30126953125
 20
1686.8125
 10
3252.12255859375
 20
1709.5709228515625
 10
3251.92529296875
 20
1733.6138916015625
 10
3251.708740234375
 20
1759.0048828125
 10
3251.47265625
 20
1785.8101806640625
 10
3251.216796875
 20
1814.0791015625
 10
3250.94091796875
 20
1843.879638671875
 10
3250.644775390625
 20
1875.2740478515625
 10
3250.32763671875
 20
1908.3177490234375
 10
3249.990234375
 20
1943.0841064453125
 10
3249.6318359375
 20
1979.5936279296875
 10
3249.25244140625
 20
2017.9578857421875
 10
3248.85302734375
 20
2058.1669921875
 10
3248.43017578125
 20
2100.52587890625
 10
3247.990234375
 20
2144.58203125
 10
3247.526123046875
 20
2190.977294921875
 10
3247.04443359375
 20
2239.282958984375
 10
3246.539794921875
 20
2289.943603515625
 10
3246.015869140625
 20
2342.80517578125
 10
3245.471435546875
 20
2397.956787109375
 10
3244.90771484375
 20
2455.463623046875
 10
3244.830810546875
 20
2463.285888671875
 10
3244.830810546875
 20
2463.285888671875
 10
3240.656494140625
 20
2463.41552734375
 10
2914.44873046875
 20
2473.560791015625
 10
2909.777587890625
 20
2473.7060546875
  0
LINE
  5
119
330
17
100
AcDbEntity
  8
PEN
100
AcDbLine
 10
2919.2001953125
 20
2465.564697265625
 30
0.0
 11
2909.199951171875
 21
2465.564697265625
 31
0.0
  0
LINE
  5
11A
330
17
100
AcDbEntity
  8
PEN
100
AcDbLine
 10
2914.199951171875
 20
2470.56494140625
 30
0.0
 11
2914.199951171875
 21
2460.564697265625
 31
0.0
  0
LINE
  5
11B
330
17
100
AcDbEntity
  8
PEN
100
AcDbLine
 10
2919.199951171875
 20
1289.5306396484375
 30
0.0
 11
2909.19970703125
 21
1289.5306396484375
 31
0.0
  0
LINE
  5
11C
330
17
100
AcDbEntity
  8
PEN
100
AcDbLine
 10
2914.19970703125
 20
1294.5306396484375
 30
0.0
 11
2914.19970703125
 21
1284.5306396484375
 31
0.0
  0
LINE
  5
11D
330
17
100
AcDbEntity
  8
PEN
100
AcDbLine
 10
3245.407958984375
 20
2455.41943359375
 30
0.0
 11
3235.40771484375
 21
2455.41943359375
 31
0.0
  0
LINE
  5
11E
330
17
100
AcDbEntity
  8
PEN
100
AcDbLine
 10
3240.407958984375
 20
2460.419677734375
 30
0.0
 11
3240.407958984375
 21
2450.41943359375
 31
0.0
  0
LINE
  5
11F
330
17
100
AcDbEntity
  8
PEN
100
AcDbLine
 10
3253.892822265625
 20
1403.7310791015625
 30
0.0
 11
3243.892578125
 21
1403.7310791015625
 31
0.0
  0
LINE
  5
120
330
17
100
AcDbEntity
  8
PEN
100
AcDbLine
 10
3248.892822265625
 20
1408.7310791015625
 30
0.0
 11
3248.892822265625
 21
1398.7310791015625
 31
0.0
  0
TEXT
  5
121
330
17
100
AcDbEntity
  8
TEXT
100
AcDbText
 10
2919.2001953125
 20
2465.564697265625
 30
0.0
 40
3.0
  1
SAIL-5 L
 11
2919.2001953125
 21
2465.564697265625
 31
0.0
100
AcDbText
  0
LINE
  5
122
330
17
100
AcDbEntity
  8
PEN
100
AcDbLine
 10
2912.1279296875
 20
1433.9322509765625
 30
0.0
 11
2902.127685546875
 21
1433.9322509765625
 31
0.0
  0
LINE
  5
123
330
17
100
AcDbEntity
  8
PEN
100
AcDbLine
 10
2907.1279296875
 20
1438.9322509765625
 30
0.0
 11
2907.1279296875
 21
1428.9322509765625
 31
0.0
  0
TEXT
  5
124
330
17
100
AcDbEntity
  8
text
100
AcDbText
 10
2918.127685546875
 20
1431.932373046875
 30
0.0
 40
3.0
  1
strut-seam
 11
2918.127685546875
 21
1431.932373046875
 31
0.0
100
AcDbText
  0
LINE
  5
125
330
17
100
AcDbEntity
  8
PEN
100
AcDbLine
 10
2911.423583984375
 20
1585.029296875
 30
0.0
 11
2901.42333984375
 21
1585.029296875
 31
0.0
  0
LINE
  5
126
330
17
100
AcDbEntity
  8
PEN
100
AcDbLine
 10
2906.423583984375
 20
1590.029296875
 30
0.0
 11
2906.423583984375
 21
1580.029296875
 31
0.0
  0
TEXT
  5
127
330
17
100
AcDbEntity
  8
text
100
AcDbText
 10
2917.423583984375
 20
1583.029296875
 30
0.0
 40
3.0
  1
strut-seam
 11
2917.423583984375
 21
1583.029296875
 31
0.0
100
AcDbText
  0
LWPOLYLINE
  5
129
330
17
100
AcDbEntity
  8
CUT
100
AcDbPolyline
 90
8
 70
0
 43
0.0
 10
-2909.777587890625
 20
2633.7060546875
 10
-2909.951904296875
 20
2625.609130859375
 10
-2911.29296875
 20
2563.322021484375
 10
-3247.87109375
 20
2563.364990234375
 10
-3247.663818359375
 20
2568.42822265625
 10
-3245.312744140625
 20
2625.89013671875
 10
-3244.99267578125
 20
2633.7060546875
 10
-2909.777587890625
 20
2633.7060546875
  0
LWPOLYLINE
  5
12B
330
17
100
AcDbEntity
  8
CUT
100
AcDbPolyline
 90
8
 70
0
 43
0.0
 10
2909.777587890625
 20
2633.7060546875
 10
2909.951904296875
 20
2625.609130859375
 10
2911.29296875
 20
2563.322021484375
 10
3247.87109375
 20
2563.364990234375
 10
3247.663818359375
 20
2568.42822265625
 10
3245.312744140625
 20
2625.89013671875
 10
3244.99267578125
 20
2633.7060546875
 10
2909.777587890625
 20
2633.7060546875
  0
LWPOLYLINE
  5
12D
330
17
100
AcDbEntity
  8
CUT
100
AcDbPolyline
 90
138
 70
0
 43
0.0
 10
-3009.7294921875
 20
3984.021728515625
 10
-3009.605712890625
 20
3983.38720703125
 10
-3009.244873046875
 20
3981.5341796875
 10
-3008.6630859375
 20
3978.537841796875
 10
-3007.876220703125
 20
3974.473388671875
 10
-3006.89990234375
 20
3969.416259765625
 10
-3005.750244140625
 20
3963.442138671875
 10
-3004.442626953125
 20
3956.625732421875
 10
-3002.99365234375
 20
3949.042724609375
 10
-3001.41845703125
 20
3940.7685546875
 10
-2999.733154296875
 20
3931.87841796875
 10
-2997.95361328125
 20
3922.447509765625
 10
-2996.095947265625
 20
3912.551513671875
 10
-2994.175537109375
 20
3902.265380859375
 10
-2992.20849609375
 20
3891.66455078125
 10
-2990.21044921875
 20
3880.824462890625
 10
-2988.197509765625
 20
3869.820556640625
 10
-2986.185546875
 20
3858.72802734375
 10
-2984.190185546875
 20
3847.6220703125
 10
-2982.2275390625
 20
3836.578369140625
 10
-2980.313232421875
 20
3825.671875
 10
-2978.46337890625
 20
3814.97802734375
 10
-2976.693603515625
 20
3804.572509765625
 10
-2975.02001953125
 20
3794.5302734375
 10
-2973.4580078125
 20
3784.927001953125
 10
-2972.02392578125
 20
3775.83740234375
 10
-2970.7333984375
 20
3767.33740234375
 10
-2969.60205078125
 20
3759.501953125
 10
-2968.64599609375
 20
3752.40673828125
 10
-2967.881103515625
 20
3746.127197265625
 10
-2967.32373046875
 20
3740.73828125
 10
-2965.946533203125
 20
3724.8935546875
 10
-2964.53564453125
 20
3707.16943359375
 10
-2963.103759765625
 20
3687.700927734375
 10
-2961.662841796875
 20
3666.62255859375
 10
-2960.224365234375
 20
3644.06884765625
 10
-2958.80078125
 20
3620.1748046875
 10
-2957.40380859375
 20
3595.074951171875
 10
-2956.045654296875
 20
3568.903564453125
 10
-2954.738037109375
 20
3541.7958984375
 10
-2953.493408203125
 20
3513.88623046875
 10
-2952.3232421875
 20
3485.30908203125
 10
-2951.239501953125
 20
3456.19970703125
 10
-2950.254638671875
 20
3426.69189453125
 10
-2949.38037109375
 20
3396.921142578125
 10
-2948.628662109375
 20
3367.021728515625
 10
-2948.011474609375
 20
3337.12841796875
 10
-2947.540771484375
 20
3307.375732421875
 10
-2947.228759765625
 20
3277.898193359375
 10
-2947.087158203125
 20
3248.830810546875
 10
-2947.128173828125
 20
3220.308349609375
 10
-2947.36328125
 20
3192.46484375
 10
-2947.80517578125
 20
3165.435302734375
 10
-2948.465576171875
 20
3139.354248046875
 10
-2949.356201171875
 20
3114.356689453125
 10
-2950.489501953125
 20
3090.5771484375
 10
-2951.877197265625
 20
3068.150146484375
 10
-2953.531005859375
 20
3047.21044921875
 10
-2955.46337890625
 20
3027.892578125
 10
-2957.68603515625
 20
3010.3310546875
 10
-2960.211181640625
 20
2994.660888671875
 10
-2961.01318359375
 20
2990.874755859375
 10
-2962.1328125
 20
2986.504150390625
 10
-2963.546630859375
 20
2981.59912109375
 10
-2965.229736328125
 20
2976.209716796875
 10
-2967.157958984375
 20
2970.385498046875
 10
-2969.3076171875
 20
2964.17724609375
 10
-2971.654052734375
 20
2957.634521484375
 10
-2974.1728515625
 20
2950.80712890625
 10
-2976.84033203125
 20
2943.74560546875
 10
-2979.6318359375
 20
2936.5
 10
-2982.5234375
 20
2929.1201171875
 10
-2985.49072265625
 20
2921.656005859375
 10
-2988.509765625
 20
2914.157470703125
 10
-2991.5556640625
 20
2906.6748046875
 10
-2994.604736328125
 20
2899.25830078125
 10
-2997.6328125
 20
2891.957763671875
 10
-3000.615478515625
 20
2884.82275390625
 10
-3003.5283203125
 20
2877.904052734375
 10
-3006.347412109375
 20
2871.251220703125
 10
-3009.04833984375
 20
2864.914306640625
 10
-3011.607177734375
 20
2858.943603515625
 10
-3013.99951171875
 20
2853.388916015625
 10
-3016.200927734375
 20
2848.300537109375
 10
-3018.1875
 20
2843.72802734375
 10
-3019.934814453125
 20
2839.7216796875
 10
-3021.4189453125
 20
2836.331787109375
 10
-3022.615478515625
 20
2833.608154296875
 10
-3023.5
 20
2831.6005859375
 10
-3024.048583984375
 20
2830.359375
 10
-3024.236572265625
 20
2829.9345703125
 10
-3024.236572265625
 20
2829.9345703125
 10
-2910.666015625
 20
2791.18310546875
 10
-2910.666015625
 20
2791.18310546875
 10
-2909.71533203125
 20
2802.580810546875
 10
-2908.666015625
 20
2815.1640625
 10
-2907.708984375
 20
2827.5966796875
 10
-2906.836669921875
 20
2840.029541015625
 10
-2906.052001953125
 20
2852.4638671875
 10
-2905.349609375
 20
2865.015869140625
 10
-2904.724853515625
 20
2877.762939453125
 10
-2904.17626953125
 20
2890.74609375
 10
-2903.694580078125
 20
2904.162841796875
 10
-2903.279541015625
 20
2917.979248046875
 10
-2902.926025390625
 20
2932.31591796875
 10
-2902.62890625
 20
2947.2529296875
 10
-2902.384033203125
 20
2962.9306640625
 10
-2902.189453125
 20
2979.381591796875
 10
-2902.042724609375
 20
2996.6005859375
 10
-2901.93896484375
 20
3014.820556640625
 10
-2901.87744140625
 20
3034.044189453125
 10
-2901.85546875
 20
3054.346923828125
 10
-2901.87109375
 20
3075.802001953125
 10
-2901.923583984375
 20
3098.480224609375
 10
-2902.010986328125
 20
3122.4541015625
 10
-2902.13232421875
 20
3147.795654296875
 10
-2902.285888671875
 20
3174.5693359375
 10
-2902.470947265625
 20
3202.849853515625
 10
-2902.686279296875
 20
3232.7021484375
 10
-2902.931396484375
 20
3264.195068359375
 10
-2903.205078125
 20
3297.3984375
 10
-2903.507568359375
 20
3332.37744140625
 10
-2903.83642578125
 20
3369.194580078125
 10
-2904.19287109375
 20
3407.9287109375
 10
-2904.57470703125
 20
3448.635986328125
 10
-2904.956298828125
 20
3488.679931640625
 10
-2905.41357421875
 20
3536.232666015625
 10
-2905.870361328125
 20
3583.313232421875
 10
-2906.349365234375
 20
3632.522216796875
 10
-2906.852294921875
 20
3684.112060546875
 10
-2907.378662109375
 20
3738.173828125
 10
-2907.925537109375
 20
3794.48779296875
 10
-2908.49609375
 20
3853.4462890625
 10
-2909.048583984375
 20
3910.87109375
 10
-2909.7001953125
 20
3979.031982421875
 10
-2909.777587890625
 20
3987.13037109375
 10
-3009.7294921875
 20
3984.021728515625
 10
-2909.777587890625
 20
3987.13037109375
  0
LWPOLYLINE
  5
12F
330
17
100
AcDbEntity
  8
CUT
100
AcDbPolyline
 90
138
 70
0
 43
0.0
 10
3009.7294921875
 20
3984.021728515625
 10
3009.605712890625
 20
3983.38720703125
 10
3009.244873046875
 20
3981.5341796875
 10
3008.6630859375
 20
3978.537841796875
 10
3007.876220703125
 20
3974.473388671875
 10
3006.89990234375
 20
3969.416259765625
 10
3005.750244140625
 20
3963.442138671875
 10
3004.442626953125
 20
3956.625732421875
 10
3002.99365234375
 20
3949.042724609375
 10
3001.41845703125
 20
3940.7685546875
 10
2999.733154296875
 20
3931.87841796875
 10
2997.95361328125
 20
3922.447509765625
 10
2996.095947265625
 20
3912.551513671875
 10
2994.175537109375
 20
3902.265380859375
 10
2992.20849609375
 20
3891.66455078125
 10
2990.21044921875
 20
3880.824462890625
 10
2988.197509765625
 20
3869.820556640625
 10
2986.185546875
 20
3858.72802734375
 10
2984.190185546875
 20
3847.6220703125
 10
2982.2275390625
 20
3836.578369140625
 10
2980.313232421875
 20
3825.671875
 10
2978.46337890625
 20
3814.97802734375
 10
2976.693603515625
 20
3804.572509765625
 10
2975.02001953125
 20
3794.5302734375
 10
2973.4580078125
 20
3784.927001953125
 10
2972.02392578125
 20
3775.83740234375
 10
2970.7333984375
 20
3767.33740234375
 10
2969.60205078125
 20
3759.501953125
 10
2968.64599609375
 20
3752.40673828125
 10
2967.881103515625
 20
3746.127197265625
 10
2967.32373046875
 20
3740.73828125
 10
2965.946533203125
 20
3724.8935546875
 10
2964.53564453125
 20
3707.16943359375
 10
2963.103759765625
 20
3687.700927734375
 10
2961.662841796875
 20
3666.62255859375
 10
2960.224365234375
 20
3644.06884765625
 10
2958.80078125
 20
3620.1748046875
 10
2957.40380859375
 20
3595.074951171875
 10
2956.045654296875
 20
3568.903564453125
 10
2954.738037109375
 20
3541.7958984375
 10
2953.493408203125
 20
3513.88623046875
 10
2952.3232421875
 20
3485.30908203125
 10
2951.239501953125
 20
3456.19970703125
 10
2950.254638671875
 20
3426.69189453125
 10
2949.38037109375
 20
3396.921142578125
 10
2948.628662109375
 20
3367.021728515625
 10
2948.011474609375
 20
3337.12841796875
 10
2947.540771484375
 20
3307.375732421875
 10
2947.228759765625
 20
3277.898193359375
 10
2947.087158203125
 20
3248.830810546875
 10
2947.128173828125
 20
3220.308349609375
 10
2947.36328125
 20
3192.46484375
 10
2947.80517578125
 20
3165.435302734375
 10
2948.465576171875
 20
3139.354248046875
 10
2949.356201171875
 20
3114.356689453125
 10
2950.489501953125
 20
3090.5771484375
 10
2951.877197265625
 20
3068.150146484375
 10
2953.531005859375
 20
3047.21044921875
 10
2955.46337890625
 20
3027.892578125
 10
2957.68603515625
 20
3010.3310546875
 10
2960.211181640625
 20
2994.660888671875
 10
2961.01318359375
 20
2990.874755859375
 10
2962.1328125
 20
2986.504150390625
 10
2963.546630859375
 20
2981.59912109375
 10
2965.229736328125
 20
2976.209716796875
 10
2967.157958984375
 20
2970.385498046875
 10
2969.3076171875
 20
2964.17724609375
 10
2971.654052734375
 20
2957.634521484375
 10
2974.1728515625
 20
2950.80712890625
 10
2976.84033203125
 20
2943.74560546875
 10
2979.6318359375
 20
2936.5
 10
2982.5234375
 20
2929.1201171875
 10
2985.49072265625
 20
2921.656005859375
 10
2988.509765625
 20
2914.157470703125
 10
2991.5556640625
 20
2906.6748046875
 10
2994.604736328125
 20
2899.25830078125
 10
2997.6328125
 20
2891.957763671875
 10
3000.615478515625
 20
2884.82275390625
 10
3003.5283203125
 20
2877.904052734375
 10
3006.347412109375
 20
2871.251220703125
 10
3009.04833984375
 20
2864.914306640625
 10
3011.607177734375
 20
2858.943603515625
 10
3013.99951171875
 20
2853.388916015625
 10
3016.200927734375
 20
2848.300537109375
 10
3018.1875
 20
2843.72802734375
 10
3019.934814453125
 20
2839.7216796875
 10
3021.4189453125
 20
2836.331787109375
 10
3022.615478515625
 20
2833.608154296875
 10
3023.5
 20
2831.6005859375
 10
3024.048583984375
 20
2830.359375
 10
3024.236572265625
 20
2829.9345703125
 10
3024.236572265625
 20
2829.9345703125
 10
2910.666015625
 20
2791.18310546875
 10
2910.666015625
 20
2791.18310546875
 10
2909.71533203125
 20
2802.580810546875
 10
2908.666015625
 20
2815.1640625
 10
2907.708984375
 20
2827.5966796875
 10
2906.836669921875
 20
2840.029541015625
 10
2906.052001953125
 20
2852.4638671875
 10
2905.349609375
 20
2865.015869140625
 10
2904.724853515625
 20
2877.762939453125
 10
2904.17626953125
 20
2890.74609375
 10
2903.694580078125
 20
2904.162841796875
 10
2903.279541015625
 20
2917.979248046875
 10
2902.926025390625
 20
2932.31591796875
 10
2902.62890625
 20
2947.2529296875
 10
2902.384033203125
 20
2962.9306640625
 10
2902.189453125
 20
2979.381591796875
 10
2902.042724609375
 20
2996.6005859375
 10
2901.93896484375
 20
3014.820556640625
 10
2901.87744140625
 20
3034.044189453125
 10
2901.85546875
 20
3054.346923828125
 10
2901.87109375
 20
3075.802001953125
 10
2901.923583984375
 20
3098.480224609375
 10
2902.010986328125
 20
3122.4541015625
 10
2902.13232421875
 20
3147.795654296875
 10
2902.285888671875
 20
3174.5693359375
 10
2902.470947265625
 20
3202.849853515625
 10
2902.686279296875
 20
3232.7021484375
 10
2902.931396484375
 20
3264.195068359375
 10
2903.205078125
 20
3297.3984375
 10
2903.507568359375
 20
3332.37744140625
 10
2903.83642578125
 20
3369.194580078125
 10
2904.19287109375
 20
3407.9287109375
 10
2904.57470703125
 20
3448.635986328125
 10
2904.956298828125
 20
3488.679931640625
 10
2905.41357421875
 20
3536.232666015625
 10
2905.870361328125
 20
3583.313232421875
 10
2906.349365234375
 20
3632.522216796875
 10
2906.852294921875
 20
3684.112060546875
 10
2907.378662109375
 20
3738.173828125
 10
2907.925537109375
 20
3794.48779296875
 10
2908.49609375
 20
3853.4462890625
 10
2909.048583984375
 20
3910.87109375
 10
2909.7001953125
 20
3979.031982421875
 10
2909.777587890625
 20
3987.13037109375
 10
3009.7294921875
 20
3984.021728515625
 10
2909.777587890625
 20
3987.13037109375
  0
LINE
  5
131
330
17
100
AcDbEntity
  8
PEN
100
AcDbLine
 10
-3505.17724609375
 20
1418.39697265625
 30
0.0
 11
-3515.177490234375
 21
1418.39697265625
 31
0.0
  0
LINE
  5
132
330
17
100
AcDbEntity
  8
PEN
100
AcDbLine
 10
-3510.177490234375
 20
1423.39697265625
 30
0.0
 11
-3510.177490234375
 21
1413.39697265625
 31
0.0
  0
LINE
  5
133
330
17
100
AcDbEntity
  8
PEN
100
AcDbLine
 10
-3743.019287109375
 20
1551.5343017578125
 30
0.0
 11
-3753.01953125
 21
1551.5343017578125
 31
0.0
  0
LINE
  5
134
330
17
100
AcDbEntity
  8
PEN
100
AcDbLine
 10
-3748.01953125
 20
1556.5343017578125
 30
0.0
 11
-3748.01953125
 21
1546.5343017578125
 31
0.0
  0
LWPOLYLINE
  5
135
330
17
100
AcDbEntity
  8
CUT
100
AcDbPolyline
 90
93
 70
0
 43
0.0
 10
3479.53955078125
 20
2463.56494140625
 10
3479.499755859375
 20
2455.42919921875
 10
3479.218017578125
 20
2397.9140625
 10
3478.942626953125
 20
2342.749755859375
 10
3478.673583984375
 20
2289.89306640625
 10
3478.411376953125
 20
2239.28955078125
 10
3478.15576171875
 20
2190.865234375
 10
3477.908447265625
 20
2144.59814453125
 10
3477.667724609375
 20
2100.375
 10
3477.435546875
 20
2058.1826171875
 10
3477.211669921875
 20
2017.933837890625
 10
3476.99609375
 20
1979.5875244140625
 10
3476.790283203125
 20
1943.0655517578125
 10
3476.593505859375
 20
1908.306884765625
 10
3476.4072265625
 20
1875.2730712890625
 10
3476.231689453125
 20
1843.870849609375
 10
3476.0673828125
 20
1814.07080078125
 10
3475.914794921875
 20
1785.8035888671875
 10
3475.774658203125
 20
1759.0032958984375
 10
3475.6484375
 20
1733.6123046875
 10
3475.536376953125
 20
1709.5701904296875
 10
3475.43896484375
 20
1686.8125
 10
3475.357421875
 20
1665.2822265625
 10
3475.293212890625
 20
1644.9141845703125
 10
3475.246826171875
 20
1625.64697265625
 10
3475.219970703125
 20
1607.41748046875
 10
3475.214599609375
 20
1590.162841796875
 10
3475.231201171875
 20
1573.818603515625
 10
3475.2734375
 20
1558.3199462890625
 10
3475.342529296875
 20
1543.6016845703125
 10
3475.441162109375
 20
1529.6820068359375
 10
3475.57373046875
 20
1516.2371826171875
 10
3475.7412109375
 20
1503.51904296875
 10
3475.9482421875
 20
1491.29541015625
 10
3476.20068359375
 20
1479.4552001953125
 10
3476.4990234375
 20
1468.0316162109375
 10
3476.849609375
 20
1456.9075927734375
 10
3477.257568359375
 20
1445.9781494140625
 10
3477.721923828125
 20
1435.298095703125
 10
3478.252685546875
 20
1424.6431884765625
 10
3478.846435546875
 20
1414.0703125
 10
3479.50830078125
 20
1403.463134765625
 10
3480.333984375
 20
1390.2313232421875
 10
3480.333984375
 20
1390.2313232421875
 10
3488.88427734375
 20
1395.0174560546875
 10
3778.871826171875
 20
1557.344482421875
 10
3778.871826171875
 20
1557.344482421875
 10
3778.6962890625
 20
1566.2762451171875
 10
3778.52978515625
 20
1574.7501220703125
 10
3778.381103515625
 20
1583.350830078125
 10
3778.254150390625
 20
1591.8160400390625
 10
3778.14111328125
 20
1600.627685546875
 10
3778.0458984375
 20
1609.380859375
 10
3777.9619140625
 20
1618.638916015625
 10
3777.891357421875
 20
1628.055908203125
 10
3777.830810546875
 20
1637.8189697265625
 10
3777.779052734375
 20
1647.9825439453125
 10
3777.73486328125
 20
1658.6007080078125
 10
3777.695556640625
 20
1669.727294921875
 10
3777.6611328125
 20
1681.4141845703125
 10
3777.6298828125
 20
1693.7147216796875
 10
3777.600341796875
 20
1706.6810302734375
 10
3777.572509765625
 20
1720.3671875
 10
3777.544677734375
 20
1734.8218994140625
 10
3777.516845703125
 20
1750.1036376953125
 10
3777.488037109375
 20
1766.2452392578125
 10
3777.457763671875
 20
1783.32177734375
 10
3777.42578125
 20
1801.37451171875
 10
3777.391845703125
 20
1820.461181640625
 10
3777.35546875
 20
1840.6268310546875
 10
3777.316650390625
 20
1861.9073486328125
 10
3777.27490234375
 20
1884.3834228515625
 10
3777.23046875
 20
1908.073486328125
 10
3777.18310546875
 20
1933.0599365234375
 10
3777.133544921875
 20
1959.3675537109375
 10
3777.080810546875
 20
1987.055908203125
 10
3777.026123046875
 20
2016.172607421875
 10
3776.96875
 20
2046.78125
 10
3776.909912109375
 20
2078.93212890625
 10
3776.849853515625
 20
2112.6640625
 10
3776.7890625
 20
2148.01611328125
 10
3776.728271484375
 20
2185.06298828125
 10
3776.667236328125
 20
2223.8447265625
 10
3776.60791015625
 20
2264.412841796875
 10
3776.55029296875
 20
2306.817138671875
 10
3776.495849609375
 20
2351.1064453125
 10
3776.44580078125
 20
2397.330810546875
 10
3776.400634765625
 20
2445.543212890625
 10
3776.39306640625
 20
2453.389892578125
 10
3776.39306640625
 20
2453.389892578125
 10
3772.174560546875
 20
2453.534423828125
 10
3484.273681640625
 20
2463.402587890625
 10
3479.53955078125
 20
2463.56494140625
  0
LINE
  5
136
330
17
100
AcDbEntity
  8
PEN
100
AcDbLine
 10
3488.999755859375
 20
2455.4072265625
 30
0.0
 11
3478.99951171875
 21
2455.4072265625
 31
0.0
  0
LINE
  5
137
330
17
100
AcDbEntity
  8
PEN
100
AcDbLine
 10
3483.999755859375
 20
2460.4072265625
 30
0.0
 11
3483.999755859375
 21
2450.406982421875
 31
0.0
  0
LINE
  5
138
330
17
100
AcDbEntity
  8
PEN
100
AcDbLine
 10
3488.999755859375
 20
1403.743408203125
 30
0.0
 11
3478.99951171875
 21
1403.743408203125
 31
0.0
  0
LINE
  5
139
330
17
100
AcDbEntity
  8
PEN
100
AcDbLine
 10
3483.999755859375
 20
1408.743408203125
 30
0.0
 11
3483.999755859375
 21
1398.743408203125
 31
0.0
  0
LINE
  5
13A
330
17
100
AcDbEntity
  8
PEN
100
AcDbLine
 10
3776.90087890625
 20
2445.5390625
 30
0.0
 11
3766.900634765625
 21
2445.5390625
 31
0.0
  0
LINE
  5
13B
330
17
100
AcDbEntity
  8
PEN
100
AcDbLine
 10
3771.900634765625
 20
2450.5390625
 30
0.0
 11
3771.900634765625
 21
2440.538818359375
 31
0.0
  0
LINE
  5
13C
330
17
100
AcDbEntity
  8
PEN
100
AcDbLine
 10
3779.197265625
 20
1566.1878662109375
 30
0.0
 11
3769.197021484375
 21
1566.1878662109375
 31
0.0
  0
LINE
  5
13D
330
17
100
AcDbEntity
  8
PEN
100
AcDbLine
 10
3774.197021484375
 20
1571.1878662109375
 30
0.0
 11
3774.197021484375
 21
1561.1878662109375
 31
0.0
  0
TEXT
  5
13E
330
17
100
AcDbEntity
  8
TEXT
100
AcDbText
 10
3488.999755859375
 20
2455.4072265625
 30
0.0
 40
3.0
  1
SAIL-6 L
 11
3488.999755859375
 21
2455.4072265625
 31
0.0
100
AcDbText
  0
LWPOLYLINE
  5
140
330
17
100
AcDbEntity
  8
CUT
100
AcDbPolyline
 90
55
 70
0
 43
0.0
 10
4005.81884765625
 20
2453.687744140625
 10
4005.80029296875
 20
2445.56640625
 10
4005.689208984375
 20
2397.361083984375
 10
4005.5791015625
 20
2351.12353515625
 10
4005.47021484375
 20
2306.834716796875
 10
4005.362548828125
 20
2264.423828125
 10
4005.257080078125
 20
2223.85546875
 10
4005.152587890625
 20
2185.066162109375
 10
4005.05029296875
 20
2148.018798828125
 10
4004.949951171875
 20
2112.661865234375
 10
4004.851806640625
 20
2078.92529296875
 10
4004.755859375
 20
2046.7869873046875
 10
4004.662109375
 20
2016.1600341796875
 10
4004.572021484375
 20
1987.0455322265625
 10
4004.484619140625
 20
1959.3477783203125
 10
4004.400634765625
 20
1933.0478515625
 10
4004.320556640625
 20
1908.076171875
 10
4004.244384765625
 20
1884.3468017578125
 10
4004.171875
 20
1861.89501953125
 10
4004.1044921875
 20
1840.6015625
 10
4004.042236328125
 20
1820.4447021484375
 10
4003.98486328125
 20
1801.3603515625
 10
4003.934326171875
 20
1783.3070068359375
 10
4003.8896484375
 20
1766.226806640625
 10
4003.852783203125
 20
1750.070556640625
 10
4003.82421875
 20
1734.787841796875
 10
4003.80419921875
 20
1720.325439453125
 10
4003.794189453125
 20
1706.631591796875
 10
4003.796142578125
 20
1693.654052734375
 10
4003.810302734375
 20
1681.3399658203125
 10
4003.840087890625
 20
1669.635498046875
 10
4003.8857421875
 20
1658.4874267578125
 10
4003.9501953125
 20
1647.843505859375
 10
4004.036376953125
 20
1637.6473388671875
 10
4004.144287109375
 20
1627.9969482421875
 10
4004.281982421875
 20
1618.38720703125
 10
4004.445556640625
 20
1609.328125
 10
4004.644287109375
 20
1600.380126953125
 10
4004.877197265625
 20
1591.6123046875
 10
4005.14453125
 20
1583.0721435546875
 10
4005.4541015625
 20
1574.5111083984375
 10
4005.804443359375
 20
1565.9857177734375
 10
4006.54638671875
 20
1547.94287109375
 10
4006.54638671875
 20
1547.94287109375
 10
4017.47705078125
 20
1559.2061767578125
 10
4222.0234375
 20
1769.9749755859375
 10
4338.53759765625
 20
2038.7332763671875
 10
4338.53759765625
 20
2038.7332763671875
 10
4338.68359375
 20
2040.3292236328125
 10
4374.69091796875
 20
2434.517822265625
 10
4375.4775390625
 20
2443.123779296875
 10
4375.4775390625
 20
2443.123779296875
 10
4364.96044921875
 20
2443.42431640625
 10
4010.528564453125
 20
2453.552978515625
 10
4005.81884765625
 20
2453.687744140625
  0
LINE
  5
141
330
17
100
AcDbEntity
  8
PEN
100
AcDbLine
 10
4015.30029296875
 20
2445.55615234375
 30
0.0
 11
4005.300048828125
 21
2445.55615234375
 31
0.0
  0
LINE
  5
142
330
17
100
AcDbEntity
  8
PEN
100
AcDbLine
 10
4010.300048828125
 20
2450.556396484375
 30
0.0
 11
4010.300048828125
 21
2440.55615234375
 31
0.0
  0
LINE
  5
143
330
17
100
AcDbEntity
  8
PEN
100
AcDbLine
 10
4015.30078125
 20
1566.17041015625
 30
0.0
 11
4005.300537109375
 21
1566.17041015625
 31
0.0
  0
LINE
  5
144
330
17
100
AcDbEntity
  8
PEN
100
AcDbLine
 10
4010.300537109375
 20
1571.17041015625
 30
0.0
 11
4010.300537109375
 21
1561.17041015625
 31
0.0
  0
LINE
  5
145
330
17
100
AcDbEntity
  8
PEN
100
AcDbLine
 10
4369.732421875
 20
2435.427490234375
 30
0.0
 11
4359.73193359375
 21
2435.427490234375
 31
0.0
  0
LINE
  5
146
330
17
100
AcDbEntity
  8
PEN
100
AcDbLine
 10
4364.732421875
 20
2440.427490234375
 30
0.0
 11
4364.732421875
 21
2430.42724609375
 31
0.0
  0
LINE
  5
147
330
17
100
AcDbEntity
  8
PEN
100
AcDbLine
 10
4333.72509765625
 20
2041.23876953125
 30
0.0
 11
4323.724609375
 21
2041.23876953125
 31
0.0
  0
LINE
  5
148
330
17
100
AcDbEntity
  8
PEN
100
AcDbLine
 10
4328.72509765625
 20
2046.2388916015625
 30
0.0
 11
4328.72509765625
 21
2036.2386474609375
 31
0.0
  0
TEXT
  5
149
330
17
100
AcDbEntity
  8
TEXT
100
AcDbText
 10
4015.30029296875
 20
2445.55615234375
 30
0.0
 40
3.0
  1
SAIL-7 L
 11
4015.30029296875
 21
2445.55615234375
 31
0.0
100
AcDbText
  0
LWPOLYLINE
  5
14A
330
17
100
AcDbEntity
  8
PEN
100
AcDbPolyline
 90
9
 70
0
 43
0.0
 10
4214.82177734375
 20
2441.777587890625
 10
4211.29541015625
 20
2442.503662109375
 10
4197.19189453125
 20
2445.408447265625
 10
4195.1748046875
 20
2435.61376953125
 10
4371.474609375
 20
2399.306396484375
 10
4193.38916015625
 20
2373.1259765625
 10
4194.84326171875
 20
2363.232421875
 10
4209.09033203125
 20
2365.326904296875
 10
4212.65185546875
 20
2365.850341796875
  0
LWPOLYLINE
  5
14B
330
17
100
AcDbEntity
  8
PEN
100
AcDbPolyline
 90
9
 70
0
 43
0.0
 10
4204.81591796875
 20
2317.117431640625
 10
4201.32421875
 20
2317.996826171875
 10
4187.36083984375
 20
2321.513916015625
 10
4184.91845703125
 20
2311.816650390625
 10
4359.466796875
 20
2267.853515625
 10
4182.6923828125
 20
2233.93017578125
 10
4184.5771484375
 20
2224.109375
 10
4192.3828125
 20
2225.607421875
 10
4202.25439453125
 20
2227.50146484375
  0
LWPOLYLINE
  5
14D
330
17
100
AcDbEntity
  8
CUT
100
AcDbPolyline
 90
25
 70
1
 43
0.0
 10
-5787.751953125
 20
108.99728393554688
 10
-5849.705078125
 20
124.54725646972656
 10
-5831.71240234375
 20
196.23243713378906
 10
-5713.2548828125
 20
166.5
 10
-5684.365234375
 20
166.5
 10
-5683.40966796875
 20
157.30125427246094
 10
-5683.0068359375
 20
152.5037384033203
 10
-5682.71826171875
 20
147.66885375976562
 10
-5682.5703125
 20
142.81031799316406
 10
-5682.58984375
 20
137.92355346679688
 10
-5682.8056640625
 20
133.0181427001953
 10
-5683.2451171875
 20
128.09178161621094
 10
-5683.93505859375
 20
123.16641235351562
 10
-5684.89599609375
 20
118.28303527832031
 10
-5686.150390625
 20
113.43833923339844
 10
-5687.7119140625
 20
108.6657485961914
 10
-5689.58544921875
 20
103.99604034423828
 10
-5691.7744140625
 20
99.4570083618164
 10
-5694.26953125
 20
95.08088684082031
 10
-5697.06494140625
 20
90.8828353881836
 10
-5700.14111328125
 20
86.88982391357422
 10
-5703.474609375
 20
83.12008666992188
 10
-5710.19873046875
 20
76.45243072509766
 10
-5731.7900390625
 20
94.95096588134766
 10
-5787.751953125
 20
108.99728393554688
  0
LWPOLYLINE
  5
14F
330
17
100
AcDbEntity
  8
CUT
100
AcDbPolyline
 90
25
 70
1
 43
0.0
 10
5787.751953125
 20
108.99728393554688
 10
5849.705078125
 20
124.54725646972656
 10
5831.71240234375
 20
196.23243713378906
 10
5713.2548828125
 20
166.5
 10
5684.365234375
 20
166.5
 10
5683.40966796875
 20
157.30125427246094
 10
5683.0068359375
 20
152.5037384033203
 10
5682.71826171875
 20
147.66885375976562
 10
5682.5703125
 20
142.81031799316406
 10
5682.58984375
 20
137.92355346679688
 10
5682.8056640625
 20
133.0181427001953
 10
5683.2451171875
 20
128.09178161621094
 10
5683.93505859375
 20
123.16639709472656
 10
5684.89599609375
 20
118.28303527832031
 10
5686.150390625
 20
113.43833923339844
 10
5687.7119140625
 20
108.6657485961914
 10
5689.58544921875
 20
103.99604034423828
 10
5691.7744140625
 20
99.4570083618164
 10
5694.26953125
 20
95.08088684082031
 10
5697.06494140625
 20
90.8828353881836
 10
5700.14111328125
 20
86.88982391357422
 10
5703.474609375
 20
83.12008666992188
 10
5710.19873046875
 20
76.45243072509766
 10
5731.7900390625
 20
94.95096588134766
 10
5787.751953125
 20
108.99728393554688
  0
MTEXT
  5
151
330
17
100
AcDbEntity
  8
TEXT
100
AcDbMText
 10
0.0
 20
-3500.0
 30
0.0
 40
200.0
 71
1
  3
This work is licensed under a Creative Commons \PAttribution-NonCommercial-ShareAlike 4.0 International License\Phttp://creativecommons.org/licenses/by-nc-sa/4.0/\PYou may not use this kite design for commercial purposes\PAuthor: Karsten Gaebert (inf
  1
o@wingworks.de)\PCreated: 2020-03-11
  0
ENDSEC
  0
SECTION
  2
OBJECTS
  0
DICTIONARY
  5
A
330
0
100
AcDbDictionary
281
1
  3
ACAD_MLINESTYLE
350
10
  3
ACAD_LAYOUT
350
D
  3
ACAD_TABLESTYLE
350
15
  3
ACAD_GROUP
350
C
  3
ACAD_MLEADERSTYLE
350
F
  3
ACAD_COLOR
350
B
  3
ACAD_PLOTSTYLENAME
350
12
  3
ACAD_VISUALSTYLE
350
16
  3
ACAD_SCALELIST
350
14
  3
ACAD_PLOTSETTINGS
350
11
  3
ACAD_MATERIAL
350
E
  0
DICTIONARY
  5
B
330
A
100
AcDbDictionary
281
1
  0
DICTIONARY
  5
C
330
A
100
AcDbDictionary
281
1
  3
ripstop UV-SAIL-1.patch.strut.center_(10)
350
D2
  3
ripstop UV-SAIL-2.te_patch_(13)
350
E5
  3
ripstop UV-LE-10.tab_inside_left_(31)
350
14E
  3
ripstop UV-SAIL-4.patch.strut.outside.left_(22)
350
111
  3
ripstop UV-SAIL-5.patch.strut.center.left_(27)
350
12E
  3
ripstop UV-SAIL-4_(3)
350
73
  3
ripstop UV-SAIL-3.te_patch_(16)
350
F8
  3
Copyright_(131)
350
150
  3
ripstop UV-SAIL-5.te_patch_(24)
350
128
  3
ripstop UV-SAIL-3.left_(15)
350
E9
  3
ripstop UV-SAIL-1.left_(7)
350
B3
  3
ripstop UV-SAIL-7.left_(29)
350
13F
  3
ripstop UV-SAIL-4.te_patch_(19)
350
10B
  3
ripstop UV-SAIL-3_(2)
350
64
  3
ripstop UV-SAIL-4.left_(18)
350
FC
  3
ripstop UV-SAIL-5.patch.strut.center_(26)
350
12C
  3
ripstop UV-SAIL-6_(5)
350
97
  3
ripstop UV-SAIL-5.left_(23)
350
113
  3
ripstop UV-SAIL-4.patch.strut.outside_(21)
350
10F
  3
ripstop UV-SAIL-3.te_patch.left_(17)
350
FA
  3
ripstop UV-SAIL-2.left_(12)
350
D6
  3
ripstop UV-SAIL-1.patch.strut.center.left_(11)
350
D4
  3
ripstop UV-SAIL-1_(0)
350
3A
  3
ripstop UV-SAIL-7_(6)
350
A6
  3
ripstop UV-SAIL-5_(4)
350
82
  3
ripstop UV-LE-10.tab_inside_(30)
350
14C
  3
ripstop UV-SAIL-1.te_patch.left_(9)
350
D0
  3
ripstop UV-SAIL-2.te_patch.left_(14)
350
E7
  3
ripstop UV-SAIL-2_(1)
350
55
  3
ripstop UV-SAIL-6.left_(28)
350
130
  3
ripstop UV-SAIL-5.te_patch.left_(25)
350
12A
  3
ripstop UV-SAIL-1.te_patch_(8)
350
CE
  3
ripstop UV-SAIL-4.te_patch.left_(20)
350
10D
  0
DICTIONARY
  5
D
330
A
100
AcDbDictionary
281
1
  3
Layout1
350
1E
  3
Model
350
1A
  0
DICTIONARY
  5
E
330
A
100
AcDbDictionary
281
1
  3
ByBlock
350
1F
  3
Global
350
21
  3
ByLayer
350
20
  0
DICTIONARY
  5
F
330
A
100
AcDbDictionary
281
1
  3
Standard
350
2C
  0
DICTIONARY
  5
10
330
A
100
AcDbDictionary
281
1
  3
Standard
350
22
  0
DICTIONARY
  5
11
330
A
100
AcDbDictionary
281
1
  0
ACDBDICTIONARYWDFLT
  5
12
330
A
100
AcDbDictionary
281
1
  3
Normal
350
13
100
AcDbDictionaryWithDefault
340
13
  0
ACDBPLACEHOLDER
  5
13
330
12
  0
DICTIONARY
  5
14
330
A
100
AcDbDictionary
281
1
  0
DICTIONARY
  5
15
330
A
100
AcDbDictionary
281
1
  0
DICTIONARY
  5
16
330
A
100
AcDbDictionary
281
1
  0
LAYOUT
  5
1A
330
D
100
AcDbPlotSettings
  1

  2
Adobe PDF
  4
A4
  6

 40
3.175
 41
3.175
 42
3.175
 43
3.175
 44
209.91
 45
297.03
 46
0.0
 47
0.0
 48
0.0
 49
0.0
140
0.0
141
0.0
142
1.0
143
1.0
 70
688
 72
0
 73
1
 74
5
  7

 75
16
 76
0
 77
2
 78
300
147
1.0
148
0.0
149
0.0
100
AcDbLayout
  1
Model
 70
1
 71
0
 10
-3.175
 20
-3.175
 11
293.857
 21
206.735
 12
0.0
 22
0.0
 32
0.0
 14
29.068
 24
20.356
 34
0.0
 15
261.614
 25
183.204
 35
0.0
146
0.0
 13
0.0
 23
0.0
 33
0.0
 16
1.0
 26
0.0
 36
0.0
 17
0.0
 27
1.0
 37
0.0
 76
1
330
17
  0
LAYOUT
  5
1E
330
D
100
AcDbPlotSettings
  1

  2
Adobe PDF
  4
A4
  6

 40
3.175
 41
3.175
 42
3.175
 43
3.175
 44
209.91
 45
297.03
 46
0.0
 47
0.0
 48
0.0
 49
0.0
140
0.0
141
0.0
142
1.0
143
1.0
 70
688
 72
0
 73
1
 74
5
  7

 75
16
 76
0
 77
2
 78
300
147
1.0
148
0.0
149
0.0
100
AcDbLayout
  1
Layout1
 70
1
 71
1
 10
-3.175
 20
-3.175
 11
293.857
 21
206.735
 12
0.0
 22
0.0
 32
0.0
 14
29.068
 24
20.356
 34
0.0
 15
261.614
 25
183.204
 35
0.0
146
0.0
 13
0.0
 23
0.0
 33
0.0
 16
1.0
 26
0.0
 36
0.0
 17
0.0
 27
1.0
 37
0.0
 76
1
330
1B
  0
MATERIAL
  5
1F
102
{ACAD_REACTORS
330
E
102
}
330
E
100
AcDbMaterial
  1
ByBlock
  2

 70
0
 40
1.0
 71
1
 41
1.0
 91
-1023410177
 42
1.0
 72
1
  3

 73
1
 74
1
 75
1
 44
0.5
 73
0
 45
1.0
 46
1.0
 77
1
  4

 78
1
 79
1
170
1
 48
1.0
171
1
  6

172
1
173
1
174
1
140
1.0
141
1.0
175
1
  7

176
1
177
1
178
1
143
1.0
179
1
  8

270
1
271
1
272
1
145
1.0
146
1.0
273
1
  9

274
1
275
1
276
1
 42
1.0
 72
1
  3

 73
1
 74
1
 75
1
 94
63
  0
MATERIAL
  5
20
102
{ACAD_REACTORS
330
E
102
}
330
E
100
AcDbMaterial
  1
ByLayer
  2

 70
0
 40
1.0
 71
1
 41
1.0
 91
-1023410177
 42
1.0
 72
1
  3

 73
1
 74
1
 75
1
 44
0.5
 73
0
 45
1.0
 46
1.0
 77
1
  4

 78
1
 79
1
170
1
 48
1.0
171
1
  6

172
1
173
1
174
1
140
1.0
141
1.0
175
1
  7

176
1
177
1
178
1
143
1.0
179
1
  8

270
1
271
1
272
1
145
1.0
146
1.0
273
1
  9

274
1
275
1
276
1
 42
1.0
 72
1
  3

 73
1
 74
1
 75
1
 94
63
  0
MATERIAL
  5
21
102
{ACAD_REACTORS
330
E
102
}
330
E
100
AcDbMaterial
  1
Global
  2

 70
0
 40
1.0
 71
1
 41
1.0
 91
-1023410177
 42
1.0
 72
1
  3

 73
1
 74
1
 75
1
 44
0.5
 73
0
 45
1.0
 46
1.0
 77
1
  4

 78
1
 79
1
170
1
 48
1.0
171
1
  6

172
1
173
1
174
1
140
1.0
141
1.0
175
1
  7

176
1
177
1
178
1
143
1.0
179
1
  8

270
1
271
1
272
1
145
1.0
146
1.0
273
1
  9

274
1
275
1
276
1
 42
1.0
 72
1
  3

 73
1
 74
1
 75
1
 94
63
  0
MLINESTYLE
  5
22
102
{ACAD_REACTORS
330
10
102
}
330
10
100
AcDbMlineStyle
 52
90.0
 51
90.0
  2
Standard
 70
0
 62
256
  3

 71
2
 49
0.5
 62
256
  6
BYLAYER
 49
-0.5
 62
256
  6
BYLAYER
  0
MLEADERSTYLE
  5
2C
102
{ACAD_REACTORS
330
F
102
}
330
F
100
AcDbMLeaderStyle
142
1.0
143
3.75
175
1
291
1
 47
1.0
 44
4.0
271
0
179
2
292
0
140
1.0
 92
-2
297
0
290
1
 46
4.0
 40
0.0
  3
Standard
300

141
0.0
178
1
177
0
 93
-1056964608
 91
-1056964608
 90
2
296
0
 45
4.0
176
0
170
2
342
29
172
0
 41
0.0
171
1
 42
2.0
272
9
173
1
294
1
295
0
174
1
 43
8.0
 94
-1056964608
 49
0.0
272
9
  0
GROUP
  5
3A
102
{ACAD_REACTORS
330
C
102
}
330
C
100
AcDbGroup
300

 70
0
 71
1
340
3B
340
3C
340
3D
340
3E
340
3F
340
40
340
41
340
42
340
43
340
44
340
45
340
46
340
47
340
48
340
49
340
4A
340
4B
340
4C
340
4D
340
4E
340
4F
340
50
340
51
340
52
340
53
340
54
  0
GROUP
  5
55
102
{ACAD_REACTORS
330
C
102
}
330
C
100
AcDbGroup
300

 70
0
 71
1
340
56
340
57
340
58
340
59
340
5A
340
5B
340
5C
340
5D
340
5E
340
5F
340
60
340
61
340
62
340
63
  0
GROUP
  5
64
102
{ACAD_REACTORS
330
C
102
}
330
C
100
AcDbGroup
300

 70
0
 71
1
340
65
340
66
340
67
340
68
340
69
340
6A
340
6B
340
6C
340
6D
340
6E
340
6F
340
70
340
71
340
72
  0
GROUP
  5
73
102
{ACAD_REACTORS
330
C
102
}
330
C
100
AcDbGroup
300

 70
0
 71
1
340
74
340
75
340
76
340
77
340
78
340
79
340
7A
340
7B
340
7C
340
7D
340
7E
340
7F
340
80
340
81
  0
GROUP
  5
82
102
{ACAD_REACTORS
330
C
102
}
330
C
100
AcDbGroup
300

 70
0
 71
1
340
83
340
84
340
85
340
86
340
87
340
88
340
89
340
8A
340
8B
340
8C
340
8D
340
8E
340
8F
340
90
340
91
340
92
340
93
340
94
340
95
340
96
  0
GROUP
  5
97
102
{ACAD_REACTORS
330
C
102
}
330
C
100
AcDbGroup
300

 70
0
 71
1
340
98
340
99
340
9A
340
9B
340
9C
340
9D
340
9E
340
9F
340
A0
340
A1
340
A2
340
A3
340
A4
340
A5
  0
GROUP
  5
A6
102
{ACAD_REACTORS
330
C
102
}
330
C
100
AcDbGroup
300

 70
0
 71
1
340
A7
340
A8
340
A9
340
AA
340
AB
340
AC
340
AD
340
AE
340
AF
340
B0
340
B1
340
B2
  0
GROUP
  5
B3
102
{ACAD_REACTORS
330
C
102
}
330
C
100
AcDbGroup
300

 70
0
 71
1
340
B4
340
B5
340
B6
340
B7
340
B8
340
B9
340
BA
340
BB
340
BC
340
BD
340
BE
340
BF
340
C0
340
C1
340
C2
340
C3
340
C4
340
C5
340
C6
340
C7
340
C8
340
C9
340
CA
340
CB
340
CC
340
CD
  0
GROUP
  5
CE
102
{ACAD_REACTORS
330
C
102
}
330
C
100
AcDbGroup
300

 70
0
 71
1
340
CF
  0
GROUP
  5
D0
102
{ACAD_REACTORS
330
C
102
}
330
C
100
AcDbGroup
300

 70
0
 71
1
340
D1
  0
GROUP
  5
D2
102
{ACAD_REACTORS
330
C
102
}
330
C
100
AcDbGroup
300

 70
0
 71
1
340
D3
  0
GROUP
  5
D4
102
{ACAD_REACTORS
330
C
102
}
330
C
100
AcDbGroup
300

 70
0
 71
1
340
D5
  0
GROUP
  5
D6
102
{ACAD_REACTORS
330
C
102
}
330
C
100
AcDbGroup
300

 70
0
 71
1
340
D7
340
D8
340
D9
340
DA
340
DB
340
DC
340
DD
340
DE
340
DF
340
E0
340
E1
340
E2
340
E3
340
E4
  0
GROUP
  5
E5
102
{ACAD_REACTORS
330
C
102
}
330
C
100
AcDbGroup
300

 70
0
 71
1
340
E6
  0
GROUP
  5
E7
102
{ACAD_REACTORS
330
C
102
}
330
C
100
AcDbGroup
300

 70
0
 71
1
340
E8
  0
GROUP
  5
E9
102
{ACAD_REACTORS
330
C
102
}
330
C
100
AcDbGroup
300

 70
0
 71
1
340
EA
340
EB
340
EC
340
ED
340
EE
340
EF
340
F0
340
F1
340
F2
340
F3
340
F4
340
F5
340
F6
340
F7
  0
GROUP
  5
F8
102
{ACAD_REACTORS
330
C
102
}
330
C
100
AcDbGroup
300

 70
0
 71
1
340
F9
  0
GROUP
  5
FA
102
{ACAD_REACTORS
330
C
102
}
330
C
100
AcDbGroup
300

 70
0
 71
1
340
FB
  0
GROUP
  5
FC
102
{ACAD_REACTORS
330
C
102
}
330
C
100
AcDbGroup
300

 70
0
 71
1
340
FD
340
FE
340
FF
340
100
340
101
340
102
340
103
340
104
340
105
340
106
340
107
340
108
340
109
340
10A
  0
GROUP
  5
10B
102
{ACAD_REACTORS
330
C
102
}
330
C
100
AcDbGroup
300

 70
0
 71
1
340
10C
  0
GROUP
  5
10D
102
{ACAD_REACTORS
330
C
102
}
330
C
100
AcDbGroup
300

 70
0
 71
1
340
10E
  0
GROUP
  5
10F
102
{ACAD_REACTORS
330
C
102
}
330
C
100
AcDbGroup
300

 70
0
 71
1
340
110
  0
GROUP
  5
111
102
{ACAD_REACTORS
330
C
102
}
330
C
100
AcDbGroup
300

 70
0
 71
1
340
112
  0
GROUP
  5
113
102
{ACAD_REACTORS
330
C
102
}
330
C
100
AcDbGroup
300

 70
0
 71
1
340
114
340
115
340
116
340
117
340
118
340
119
340
11A
340
11B
340
11C
340
11D
340
11E
340
11F
340
120
340
121
340
122
340
123
340
124
340
125
340
126
340
127
  0
GROUP
  5
128
102
{ACAD_REACTORS
330
C
102
}
330
C
100
AcDbGroup
300

 70
0
 71
1
340
129
  0
GROUP
  5
12A
102
{ACAD_REACTORS
330
C
102
}
330
C
100
AcDbGroup
300

 70
0
 71
1
340
12B
  0
GROUP
  5
12C
102
{ACAD_REACTORS
330
C
102
}
330
C
100
AcDbGroup
300

 70
0
 71
1
340
12D
  0
GROUP
  5
12E
102
{ACAD_REACTORS
330
C
102
}
330
C
100
AcDbGroup
300

 70
0
 71
1
340
12F
  0
GROUP
  5
130
102
{ACAD_REACTORS
330
C
102
}
330
C
100
AcDbGroup
300

 70
0
 71
1
340
131
340
132
340
133
340
134
340
135
340
136
340
137
340
138
340
139
340
13A
340
13B
340
13C
340
13D
340
13E
  0
GROUP
  5
13F
102
{ACAD_REACTORS
330
C
102
}
330
C
100
AcDbGroup
300

 70
0
 71
1
340
140
340
141
340
142
340
143
340
144
340
145
340
146
340
147
340
148
340
149
340
14A
340
14B
  0
GROUP
  5
14C
102
{ACAD_REACTORS
330
C
102
}
330
C
100
AcDbGroup
300

 70
0
 71
1
340
14D
  0
GROUP
  5
14E
102
{ACAD_REACTORS
330
C
102
}
330
C
100
AcDbGroup
300

 70
0
 71
1
340
14F
  0
GROUP
  5
150
102
{ACAD_REACTORS
330
C
102
}
330
C
100
AcDbGroup
300

 70
0
 71
1
340
151
  0
ENDSEC
  0
EOF
