  0
SECTION
  2
HEADER
  9
$ACADVER
  1
AC1024
  9
$ACADMAINTVER
 90
4
  9
$DWGCODEPAGE
  3
ANSI_1252
  9
$LASTSAVEDBY
  1
ezdxf
  9
$INSBASE
 10
0.0
 20
0.0
 30
0.0
  9
$EXTMIN
 10
-100
 20
-100
 30
-100
  9
$EXTMAX
 10
100
 20
100
 30
100
  9
$LIMMIN
 10
0.0
 20
0.0
  9
$LIMMAX
 10
420.0
 20
297.0
  9
$ORTHOMODE
 70
0
  9
$REGENMODE
 70
1
  9
$FILLMODE
 70
1
  9
$QTEXTMODE
 70
0
  9
$MIRRTEXT
 70
1
  9
$LTSCALE
 40
1.0
  9
$ATTMODE
 70
1
  9
$TEXTSIZE
 40
2.5
  9
$TRACEWID
 40
1.0
  9
$TEXTSTYLE
  7
Standard
  9
$CLAYER
  8
0
  9
$CELTYPE
  6
ByLayer
  9
$CECOLOR
 62
256
  9
$CELTSCALE
 40
1.0
  9
$DISPSILH
 70
0
  9
$DIMSCALE
 40
1.0
  9
$DIMASZ
 40
2.5
  9
$DIMEXO
 40
0.625
  9
$DIMDLI
 40
3.75
  9
$DIMRND
 40
0.0
  9
$DIMDLE
 40
0.0
  9
$DIMEXE
 40
1.25
  9
$DIMTP
 40
0.0
  9
$DIMTM
 40
0.0
  9
$DIMTXT
 40
2.5
  9
$DIMCEN
 40
2.5
  9
$DIMTSZ
 40
0.0
  9
$DIMTOL
 70
0
  9
$DIMLIM
 70
0
  9
$DIMTIH
 70
0
  9
$DIMTOH
 70
0
  9
$DIMSE1
 70
0
  9
$DIMSE2
 70
0
  9
$DIMTAD
 70
1
  9
$DIMZIN
 70
8
  9
$DIMBLK
  1

  9
$DIMASO
 70
1
  9
$DIMSHO
 70
1
  9
$DIMPOST
  1

  9
$DIMAPOST
  1

  9
$DIMALT
 70
0
  9
$DIMALTD
 70
3
  9
$DIMALTF
 40
0.03937007874
  9
$DIMLFAC
 40
1.0
  9
$DIMTOFL
 70
1
  9
$DIMTVP
 40
0.0
  9
$DIMTIX
 70
0
  9
$DIMSOXD
 70
0
  9
$DIMSAH
 70
0
  9
$DIMBLK1
  1

  9
$DIMBLK2
  1

  9
$DIMSTYLE
  2
ISO-25
  9
$DIMCLRD
 70
0
  9
$DIMCLRE
 70
0
  9
$DIMCLRT
 70
0
  9
$DIMTFAC
 40
1.0
  9
$DIMGAP
 40
0.625
  9
$DIMJUST
 70
0
  9
$DIMSD1
 70
0
  9
$DIMSD2
 70
0
  9
$DIMTOLJ
 70
0
  9
$DIMTZIN
 70
8
  9
$DIMALTZ
 70
0
  9
$DIMALTTZ
 70
0
  9
$DIMUPT
 70
0
  9
$DIMDEC
 70
2
  9
$DIMTDEC
 70
2
  9
$DIMALTU
 70
2
  9
$DIMALTTD
 70
3
  9
$DIMTXSTY
  7
Standard
  9
$DIMAUNIT
 70
0
  9
$DIMADEC
 70
0
  9
$DIMALTRND
 40
0.0
  9
$DIMAZIN
 70
0
  9
$DIMDSEP
 70
44
  9
$DIMATFIT
 70
3
  9
$DIMFRAC
 70
0
  9
$DIMLDRBLK
  1

  9
$DIMLUNIT
 70
2
  9
$DIMLWD
 70
-2
  9
$DIMLWE
 70
-2
  9
$DIMTMOVE
 70
0
  9
$DIMFXL
 40
1.0
  9
$DIMFXLON
 70
0
  9
$DIMJOGANG
 40
0.785398163397
  9
$DIMTFILL
 70
0
  9
$DIMTFILLCLR
 70
0
  9
$DIMARCSYM
 70
0
  9
$DIMLTYPE
  6

  9
$DIMLTEX1
  6

  9
$DIMLTEX2
  6

  9
$DIMTXTDIRECTION
 70
0
  9
$LUNITS
 70
2
  9
$LUPREC
 70
4
  9
$SKETCHINC
 40
1.0
  9
$FILLETRAD
 40
10.0
  9
$AUNITS
 70
0
  9
$AUPREC
 70
2
  9
$MENU
  1
.
  9
$ELEVATION
 40
0.0
  9
$PELEVATION
 40
0.0
  9
$THICKNESS
 40
0.0
  9
$LIMCHECK
 70
0
  9
$CHAMFERA
 40
0.0
  9
$CHAMFERB
 40
0.0
  9
$CHAMFERC
 40
0.0
  9
$CHAMFERD
 40
0.0
  9
$SKPOLY
 70
0
  9
$TDCREATE
 40
2458920.837314815
  9
$TDUCREATE
 40
2458532.153996898
  9
$TDUPDATE
 40
2458920.837314815
  9
$TDUUPDATE
 40
2458532.1544311
  9
$TDINDWG
 40
0.0
  9
$TDUSRTIMER
 40
0.0
  9
$USRTIMER
 70
1
  9
$ANGBASE
 50
0.0
  9
$ANGDIR
 70
0
  9
$PDMODE
 70
0
  9
$PDSIZE
 40
0.0
  9
$PLINEWID
 40
0.0
  9
$SPLFRAME
 70
0
  9
$SPLINETYPE
 70
6
  9
$SPLINESEGS
 70
8
  9
$HANDSEED
  5
7E
  9
$SURFTAB1
 70
6
  9
$SURFTAB2
 70
6
  9
$SURFTYPE
 70
6
  9
$SURFU
 70
6
  9
$SURFV
 70
6
  9
$UCSBASE
  2

  9
$UCSNAME
  2

  9
$UCSORG
 10
0.0
 20
0.0
 30
0.0
  9
$UCSXDIR
 10
1.0
 20
0.0
 30
0.0
  9
$UCSYDIR
 10
0.0
 20
1.0
 30
0.0
  9
$UCSORTHOREF
  2

  9
$UCSORTHOVIEW
 70
0
  9
$UCSORGTOP
 10
0.0
 20
0.0
 30
0.0
  9
$UCSORGBOTTOM
 10
0.0
 20
0.0
 30
0.0
  9
$UCSORGLEFT
 10
0.0
 20
0.0
 30
0.0
  9
$UCSORGRIGHT
 10
0.0
 20
0.0
 30
0.0
  9
$UCSORGFRONT
 10
0.0
 20
0.0
 30
0.0
  9
$UCSORGBACK
 10
0.0
 20
0.0
 30
0.0
  9
$PUCSBASE
  2

  9
$PUCSNAME
  2

  9
$PUCSORG
 10
0.0
 20
0.0
 30
0.0
  9
$PUCSXDIR
 10
1.0
 20
0.0
 30
0.0
  9
$PUCSYDIR
 10
0.0
 20
1.0
 30
0.0
  9
$PUCSORTHOREF
  2

  9
$PUCSORTHOVIEW
 70
0
  9
$PUCSORGTOP
 10
0.0
 20
0.0
 30
0.0
  9
$PUCSORGBOTTOM
 10
0.0
 20
0.0
 30
0.0
  9
$PUCSORGLEFT
 10
0.0
 20
0.0
 30
0.0
  9
$PUCSORGRIGHT
 10
0.0
 20
0.0
 30
0.0
  9
$PUCSORGFRONT
 10
0.0
 20
0.0
 30
0.0
  9
$PUCSORGBACK
 10
0.0
 20
0.0
 30
0.0
  9
$USERI1
 70
0
  9
$USERI2
 70
0
  9
$USERI3
 70
0
  9
$USERI4
 70
0
  9
$USERI5
 70
0
  9
$USERR1
 40
0.0
  9
$USERR2
 40
0.0
  9
$USERR3
 40
0.0
  9
$USERR4
 40
0.0
  9
$USERR5
 40
0.0
  9
$WORLDVIEW
 70
1
  9
$SHADEDGE
 70
3
  9
$SHADEDIF
 70
70
  9
$TILEMODE
 70
1
  9
$MAXACTVP
 70
64
  9
$PINSBASE
 10
0.0
 20
0.0
 30
0.0
  9
$PLIMCHECK
 70
0
  9
$PEXTMIN
 10
1e+20
 20
1e+20
 30
1e+20
  9
$PEXTMAX
 10
-1e+20
 20
-1e+20
 30
-1e+20
  9
$PLIMMIN
 10
0.0
 20
0.0
  9
$PLIMMAX
 10
420.0
 20
297.0
  9
$UNITMODE
 70
0
  9
$VISRETAIN
 70
1
  9
$PLINEGEN
 70
0
  9
$PSLTSCALE
 70
1
  9
$TREEDEPTH
 70
3020
  9
$CMLSTYLE
  2
Standard
  9
$CMLJUST
 70
0
  9
$CMLSCALE
 40
20.0
  9
$PROXYGRAPHICS
 70
1
  9
$MEASUREMENT
 70
1
  9
$CELWEIGHT
370
-1
  9
$ENDCAPS
280
0
  9
$JOINSTYLE
280
0
  9
$LWDISPLAY
290
0
  9
$INSUNITS
 70
4
  9
$HYPERLINKBASE
  1

  9
$STYLESHEET
  1

  9
$XEDIT
290
1
  9
$CEPSNTYPE
380
0
  9
$PSTYLEMODE
290
1
  9
$FINGERPRINTGUID
  2
4ED28F55-63CB-11EA-A70D-58946B7B6068
  9
$VERSIONGUID
  2
4ED28F57-63CB-11EA-A70D-58946B7B6068
  9
$EXTNAMES
290
1
  9
$PSVPSCALE
 40
0.0
  9
$OLESTARTUP
290
0
  9
$SORTENTS
280
127
  9
$INDEXCTL
280
0
  9
$HIDETEXT
280
1
  9
$XCLIPFRAME
280
2
  9
$HALOGAP
280
0
  9
$OBSCOLOR
 70
257
  9
$OBSLTYPE
280
0
  9
$INTERSECTIONDISPLAY
280
0
  9
$INTERSECTIONCOLOR
 70
257
  9
$DIMASSOC
280
2
  9
$PROJECTNAME
  1

  9
$CAMERADISPLAY
290
0
  9
$LENSLENGTH
 40
50.0
  9
$CAMERAHEIGHT
 40
0.0
  9
$STEPSPERSEC
 40
24.0
  9
$STEPSIZE
 40
100.0
  9
$3DDWFPREC
 40
2.0
  9
$PSOLWIDTH
 40
0.005
  9
$PSOLHEIGHT
 40
0.08
  9
$LOFTANG1
 40
1.570796326795
  9
$LOFTANG2
 40
1.570796326795
  9
$LOFTMAG1
 40
0.0
  9
$LOFTMAG2
 40
0.0
  9
$LOFTPARAM
 70
7
  9
$LOFTNORMALS
280
1
  9
$LATITUDE
 40
37.795
  9
$LONGITUDE
 40
-122.394
  9
$NORTHDIRECTION
 40
0.0
  9
$TIMEZONE
 70
-8000
  9
$LIGHTGLYPHDISPLAY
280
1
  9
$TILEMODELIGHTSYNCH
280
1
  9
$CMATERIAL
347
45
  9
$SOLIDHIST
280
0
  9
$SHOWHIST
280
1
  9
$DWFFRAME
280
2
  9
$DGNFRAME
280
2
  9
$REALWORLDSCALE
290
1
  9
$INTERFERECOLOR
 62
256
  9
$CSHADOW
280
0
  9
$SHADOWPLANELOCATION
 40
0.0
  0
ENDSEC
  0
SECTION
  2
CLASSES
  0
CLASS
  1
ACDBDICTIONARYWDFLT
  2
AcDbDictionaryWithDefault
  3
ObjectDBX Classes
 90
0
 91
0
280
0
281
0
  0
CLASS
  1
SUN
  2
AcDbSun
  3
SCENEOE
 90
1153
 91
0
280
0
281
0
  0
CLASS
  1
VISUALSTYLE
  2
AcDbVisualStyle
  3
ObjectDBX Classes
 90
4095
 91
0
280
0
281
0
  0
CLASS
  1
MATERIAL
  2
AcDbMaterial
  3
ObjectDBX Classes
 90
1153
 91
0
280
0
281
0
  0
CLASS
  1
SCALE
  2
AcDbScale
  3
ObjectDBX Classes
 90
1153
 91
0
280
0
281
0
  0
CLASS
  1
TABLESTYLE
  2
AcDbTableStyle
  3
ObjectDBX Classes
 90
4095
 91
0
280
0
281
0
  0
CLASS
  1
MLEADERSTYLE
  2
AcDbMLeaderStyle
  3
ACDB_MLEADERSTYLE_CLASS
 90
4095
 91
0
280
0
281
0
  0
CLASS
  1
DICTIONARYVAR
  2
AcDbDictionaryVar
  3
ObjectDBX Classes
 90
0
 91
0
280
0
281
0
  0
CLASS
  1
CELLSTYLEMAP
  2
AcDbCellStyleMap
  3
ObjectDBX Classes
 90
1152
 91
0
280
0
281
0
  0
CLASS
  1
MENTALRAYRENDERSETTINGS
  2
AcDbMentalRayRenderSettings
  3
SCENEOE
 90
1024
 91
0
280
0
281
0
  0
CLASS
  1
ACDBDETAILVIEWSTYLE
  2
AcDbDetailViewStyle
  3
ObjectDBX Classes
 90
1025
 91
0
280
0
281
0
  0
CLASS
  1
ACDBSECTIONVIEWSTYLE
  2
AcDbSectionViewStyle
  3
ObjectDBX Classes
 90
1025
 91
0
280
0
281
0
  0
CLASS
  1
RASTERVARIABLES
  2
AcDbRasterVariables
  3
ISM
 90
0
 91
0
280
0
281
0
  0
CLASS
  1
LAYOUT
  2
AcDbLayout
  3
ObjectDBX Classes
 90
0
 91
0
280
0
281
0
  0
CLASS
  1
ACDBPLACEHOLDER
  2
AcDbPlaceHolder
  3
ObjectDBX Classes
 90
0
 91
0
280
0
281
0
  0
ENDSEC
  0
SECTION
  2
TABLES
  0
TABLE
  2
VPORT
  5
4
330
0
100
AcDbSymbolTable
 70
1
  0
VPORT
  5
23
330
4
100
AcDbSymbolTableRecord
100
AcDbViewportTableRecord
  2
*Active
 70
0
 10
0.0
 20
0.0
 11
1.0
 21
1.0
 12
70.0
 22
50.0
 13
0.0
 23
0.0
 14
0.5
 24
0.5
 15
0.5
 25
0.5
 16
0.0
 26
0.0
 36
1.0
 17
0.0
 27
0.0
 37
0.0
 40
1.0
 41
1.34
 42
50.0
 43
0.0
 44
0.0
 50
0.0
 51
0.0
 71
0
 72
1000
 73
1
 74
3
 75
0
 76
0
 77
0
 78
0
281
0
 65
0
146
0.0
  0
ENDTAB
  0
TABLE
  2
LTYPE
  5
3
330
0
100
AcDbSymbolTable
 70
4
  0
LTYPE
  5
24
330
3
100
AcDbSymbolTableRecord
100
AcDbLinetypeTableRecord
  2
ByBlock
 70
0
  3

 72
65
 73
0
 40
0.0
  0
LTYPE
  5
25
330
3
100
AcDbSymbolTableRecord
100
AcDbLinetypeTableRecord
  2
ByLayer
 70
0
  3

 72
65
 73
0
 40
0.0
  0
LTYPE
  5
26
330
3
100
AcDbSymbolTableRecord
100
AcDbLinetypeTableRecord
  2
Continuous
 70
0
  3

 72
65
 73
0
 40
0.0
  0
LTYPE
  5
39
330
3
100
AcDbSymbolTableRecord
100
AcDbLinetypeTableRecord
  2
DASHED
 70
0
  3
Dashed - - - - - - - - - - - - - - - - - - - - - - -
 72
65
 73
2
 40
8.0
 49
-3.0
 74
0
 49
8.0
 74
0
  0
ENDTAB
  0
TABLE
  2
LAYER
  5
6
330
0
100
AcDbSymbolTable
 70
14
  0
LAYER
  5
27
330
6
100
AcDbSymbolTableRecord
100
AcDbLayerTableRecord
  2
0
 70
0
 62
7
  6
Continuous
370
-3
390
13
347
21
  0
LAYER
  5
28
330
6
100
AcDbSymbolTableRecord
100
AcDbLayerTableRecord
  2
Defpoints
 70
0
 62
7
  6
Continuous
290
0
370
-3
390
13
347
21
  0
LAYER
  5
2D
330
6
100
AcDbSymbolTableRecord
100
AcDbLayerTableRecord
  2
SAIL
 70
0
 62
0
  6
Continuous
370
50
390
13
347
21
  0
LAYER
  5
2E
330
6
100
AcDbSymbolTableRecord
100
AcDbLayerTableRecord
  2
TUBE
 70
0
 62
0
  6
Continuous
370
50
390
13
347
21
  0
LAYER
  5
2F
330
6
100
AcDbSymbolTableRecord
100
AcDbLayerTableRecord
  2
BLADDER
 70
0
 62
0
  6
Continuous
370
50
390
13
347
21
  0
LAYER
  5
30
330
6
100
AcDbSymbolTableRecord
100
AcDbLayerTableRecord
  2
PEN
 70
0
 62
5
  6
Continuous
370
-3
390
13
347
21
  0
LAYER
  5
31
330
6
100
AcDbSymbolTableRecord
100
AcDbLayerTableRecord
  2
SEAM
 70
0
 62
1
  6
DASHED
370
35
390
13
347
21
  0
LAYER
  5
32
330
6
100
AcDbSymbolTableRecord
100
AcDbLayerTableRecord
  2
MARKER
 70
0
 62
8
  6
Continuous
370
-3
390
13
347
21
  0
LAYER
  5
33
330
6
100
AcDbSymbolTableRecord
100
AcDbLayerTableRecord
  2
TEXT
 70
0
 62
3
  6
Continuous
370
-3
390
13
347
21
  0
LAYER
  5
34
330
6
100
AcDbSymbolTableRecord
100
AcDbLayerTableRecord
  2
REINFORCEMENT
 70
0
 62
4
  6
Continuous
370
50
390
13
347
21
  0
LAYER
  5
35
330
6
100
AcDbSymbolTableRecord
100
AcDbLayerTableRecord
  2
PROTECTION
 70
0
 62
6
  6
Continuous
370
50
390
13
347
21
  0
LAYER
  5
36
330
6
100
AcDbSymbolTableRecord
100
AcDbLayerTableRecord
  2
WEBBING
 70
0
 62
2
  6
Continuous
370
35
390
13
347
21
  0
LAYER
  5
37
330
6
100
AcDbSymbolTableRecord
100
AcDbLayerTableRecord
  2
CUT
 70
0
 62
6
  6
Continuous
370
50
390
13
347
21
  0
LAYER
  5
38
330
6
100
AcDbSymbolTableRecord
100
AcDbLayerTableRecord
  2
DRILL
 70
0
 62
2
  6
Continuous
370
35
390
13
347
21
  0
ENDTAB
  0
TABLE
  2
STYLE
  5
7
330
0
100
AcDbSymbolTable
 70
1
  0
STYLE
  5
29
330
7
100
AcDbSymbolTableRecord
100
AcDbTextStyleTableRecord
  2
Standard
 70
0
 40
0.0
 41
1.0
 50
0.0
 71
0
 42
2.5
  3
txt
  4

  0
ENDTAB
  0
TABLE
  2
VIEW
  5
9
330
0
100
AcDbSymbolTable
 70
0
  0
ENDTAB
  0
TABLE
  2
UCS
  5
5
330
0
100
AcDbSymbolTable
 70
0
  0
ENDTAB
  0
TABLE
  2
APPID
  5
8
330
0
100
AcDbSymbolTable
 70
1
  0
APPID
  5
2A
330
8
100
AcDbSymbolTableRecord
100
AcDbRegAppTableRecord
  2
ACAD
 70
0
  0
ENDTAB
  0
TABLE
  2
DIMSTYLE
  5
2
330
0
100
AcDbSymbolTable
 70
1
100
AcDbDimStyleTable
  0
DIMSTYLE
105
2B
330
2
100
AcDbSymbolTableRecord
100
AcDbDimStyleTableRecord
  2
Standard
 70
0
 40
1.0
 41
2.5
 42
0.625
 43
3.75
 44
1.25
 45
0.0
 46
0.0
 47
0.0
 48
0.0
 49
2.5
140
2.5
141
2.5
142
0.0
143
0.03937007874
144
1.0
145
0.0
146
1.0
147
0.625
148
0.0
 69
0
 70
0
 71
0
 72
0
 73
0
 74
0
 75
0
 76
0
 77
1
 78
8
 79
0
170
0
171
3
172
1
173
0
174
0
175
0
176
0
177
0
178
0
179
0
271
0
272
2
273
2
274
3
275
0
276
0
277
2
278
44
279
0
280
0
281
0
282
0
283
0
284
8
285
0
286
0
288
0
289
3
290
0
371
-2
372
-2
  0
ENDTAB
  0
TABLE
  2
BLOCK_RECORD
  5
1
330
0
100
AcDbSymbolTable
 70
2
  0
BLOCK_RECORD
  5
17
330
1
100
AcDbSymbolTableRecord
100
AcDbBlockTableRecord
  2
*Model_Space
340
1A
 70
0
280
1
281
1
  0
BLOCK_RECORD
  5
1B
330
1
100
AcDbSymbolTableRecord
100
AcDbBlockTableRecord
  2
*Paper_Space
340
1E
 70
0
280
1
281
1
  0
ENDTAB
  0
ENDSEC
  0
SECTION
  2
BLOCKS
  0
BLOCK
  5
18
330
17
100
AcDbEntity
  8
0
100
AcDbBlockBegin
  2
*Model_Space
 70
0
 10
0.0
 20
0.0
 30
0.0
  3
*Model_Space
  1

  0
ENDBLK
  5
19
330
17
100
AcDbEntity
  8
0
100
AcDbBlockEnd
  0
BLOCK
  5
1C
330
1B
100
AcDbEntity
  8
0
100
AcDbBlockBegin
  2
*Paper_Space
 70
0
 10
0.0
 20
0.0
 30
0.0
  3
*Paper_Space
  1

  0
ENDBLK
  5
1D
330
1B
100
AcDbEntity
  8
0
100
AcDbBlockEnd
  0
ENDSEC
  0
SECTION
  2
ENTITIES
  0
LWPOLYLINE
  5
3B
330
17
100
AcDbEntity
  8
CUT
100
AcDbPolyline
 90
63
 70
1
 43
0.0
 10
0.0
 20
923.7988891601562
 10
-29.992103576660156
 20
923.110595703125
 10
-29.99690055847168
 20
924.4035034179688
 10
-30.006032943725586
 20
928.1647338867188
 10
-30.011613845825195
 20
934.2178955078125
 10
-30.00575828552246
 20
942.3866577148438
 10
-29.98057746887207
 20
952.4949340820312
 10
-29.92818260192871
 20
964.3662109375
 10
-29.840688705444336
 20
977.82421875
 10
-29.710206985473633
 20
992.692626953125
 10
-29.528850555419922
 20
1008.7952880859375
 10
-29.288732528686523
 20
1025.9556884765625
 10
-28.981966018676758
 20
1043.9976806640625
 10
-28.600662231445312
 20
1062.744873046875
 10
-28.136934280395508
 20
1082.02099609375
 10
-27.582897186279297
 20
1101.649658203125
 10
-26.930660247802734
 20
1121.4547119140625
 10
-26.172338485717773
 20
1141.259765625
 10
-25.300045013427734
 20
1160.888427734375
 10
-24.305891036987305
 20
1180.16455078125
 10
-23.181989669799805
 20
1198.9117431640625
 10
-21.920454025268555
 20
1216.9537353515625
 10
-20.513397216796875
 20
1234.1141357421875
 10
-18.952930450439453
 20
1250.2166748046875
 10
-17.231168746948242
 20
1265.085205078125
 10
-15.340222358703613
 20
1278.543212890625
 10
-13.272205352783203
 20
1290.41455078125
 10
-11.019229888916016
 20
1300.522705078125
 10
-8.573409080505371
 20
1308.6915283203125
 10
-5.92685604095459
 20
1314.7447509765625
 10
-3.0716824531555176
 20
1318.505859375
 10
0.0
 20
1319.798828125
 10
3.0716805458068848
 20
1318.505859375
 10
5.926854133605957
 20
1314.7447509765625
 10
8.573407173156738
 20
1308.6915283203125
 10
11.019227981567383
 20
1300.522705078125
 10
13.27220344543457
 20
1290.4144287109375
 10
15.340221405029297
 20
1278.543212890625
 10
17.231168746948242
 20
1265.085205078125
 10
18.952932357788086
 20
1250.2166748046875
 10
20.51340103149414
 20
1234.1141357421875
 10
21.920459747314453
 20
1216.9537353515625
 10
23.181995391845703
 20
1198.91162109375
 10
24.305896759033203
 20
1180.16455078125
 10
25.300052642822266
 20
1160.888427734375
 10
26.172348022460938
 20
1141.2596435546875
 10
26.9306697845459
 20
1121.4547119140625
 10
27.58290672302246
 20
1101.649658203125
 10
28.136945724487305
 20
1082.02099609375
 10
28.60067367553711
 20
1062.744873046875
 10
28.981977462768555
 20
1043.9976806640625
 10
29.288745880126953
 20
1025.9556884765625
 10
29.528865814208984
 20
1008.7952880859375
 10
29.710224151611328
 20
992.692626953125
 10
29.840707778930664
 20
977.82421875
 10
29.928203582763672
 20
964.3662109375
 10
29.980600357055664
 20
952.4949340820312
 10
30.005783081054688
 20
942.38671875
 10
30.011640548706055
 20
934.2178955078125
 10
30.006059646606445
 20
928.1647338867188
 10
29.99692726135254
 20
924.403564453125
 10
29.992107391357422
 20
923.110595703125
 10
0.0
 20
923.7988891601562
  0
LWPOLYLINE
  5
3D
330
17
100
AcDbEntity
  8
CUT
100
AcDbPolyline
 90
63
 70
1
 43
0.0
 10
0.0
 20
2511.7099609375
 10
-29.999977111816406
 20
2511.674560546875
 10
-29.951478958129883
 20
2511.185791015625
 10
-29.808076858520508
 20
2509.763916015625
 10
-29.572906494140625
 20
2507.4755859375
 10
-29.24910545349121
 20
2504.387451171875
 10
-28.839813232421875
 20
2500.566162109375
 10
-28.348167419433594
 20
2496.078369140625
 10
-27.77730369567871
 20
2490.99072265625
 10
-27.130359649658203
 20
2485.36962890625
 10
-26.41047477722168
 20
2479.2822265625
 10
-25.620786666870117
 20
2472.794677734375
 10
-24.764429092407227
 20
2465.974365234375
 10
-23.84454345703125
 20
2458.88720703125
 10
-22.864267349243164
 20
2451.599853515625
 10
-21.826736450195312
 20
2444.17919921875
 10
-20.735090255737305
 20
2436.692138671875
 10
-19.592466354370117
 20
2429.205078125
 10
-18.40199851989746
 20
2421.78466796875
 10
-17.166828155517578
 20
2414.497314453125
 10
-15.890091896057129
 20
2407.41015625
 10
-14.57492733001709
 20
2400.589599609375
 10
-13.224472045898438
 20
2394.102294921875
 10
-11.841863632202148
 20
2388.014892578125
 10
-10.430238723754883
 20
2382.393798828125
 10
-8.99273681640625
 20
2377.30615234375
 10
-7.53249454498291
 20
2372.818115234375
 10
-6.052649021148682
 20
2368.9970703125
 10
-4.556338310241699
 20
2365.908935546875
 10
-3.0466997623443604
 20
2363.62060546875
 10
-1.5268712043762207
 20
2362.198486328125
 10
0.0
 20
2361.709716796875
 10
1.5268803834915161
 20
2362.198486328125
 10
3.046708106994629
 20
2363.62060546875
 10
4.5563459396362305
 20
2365.908935546875
 10
6.052656173706055
 20
2368.9970703125
 10
7.532500743865967
 20
2372.818115234375
 10
8.992742538452148
 20
2377.30615234375
 10
10.430244445800781
 20
2382.393798828125
 10
11.84186840057373
 20
2388.014892578125
 10
13.224475860595703
 20
2394.102294921875
 10
14.574931144714355
 20
2400.589599609375
 10
15.890095710754395
 20
2407.41015625
 10
17.16683006286621
 20
2414.497314453125
 10
18.402000427246094
 20
2421.78466796875
 10
19.59246826171875
 20
2429.205078125
 10
20.735092163085938
 20
2436.692138671875
 10
21.826738357543945
 20
2444.17919921875
 10
22.864269256591797
 20
2451.599853515625
 10
23.844545364379883
 20
2458.88720703125
 10
24.764429092407227
 20
2465.974365234375
 10
25.620784759521484
 20
2472.794677734375
 10
26.410472869873047
 20
2479.2822265625
 10
27.13035774230957
 20
2485.36962890625
 10
27.777301788330078
 20
2490.99072265625
 10
28.34816551208496
 20
2496.078369140625
 10
28.839811325073242
 20
2500.566162109375
 10
29.249103546142578
 20
2504.387451171875
 10
29.572904586791992
 20
2507.4755859375
 10
29.808074951171875
 20
2509.763916015625
 10
29.95147705078125
 20
2511.185791015625
 10
29.999977111816406
 20
2511.674560546875
 10
0.0
 20
2511.7099609375
  0
LWPOLYLINE
  5
3F
330
17
100
AcDbEntity
  8
CUT
100
AcDbPolyline
 90
41
 70
1
 43
0.0
 10
-5261.0302734375
 20
-1502.13671875
 10
-5173.65185546875
 20
-1502.1368408203125
 10
-5145.79931640625
 20
-1503.489013671875
 10
-5145.37109375
 20
-1494.4288330078125
 10
-5145.1884765625
 20
-1490.326171875
 10
-5145.01806640625
 20
-1486.25439453125
 10
-5144.8583984375
 20
-1482.16552734375
 10
-5144.7099609375
 20
-1478.091796875
 10
-5144.57275390625
 20
-1474.0059814453125
 10
-5144.4462890625
 20
-1469.9417724609375
 10
-5144.32958984375
 20
-1465.8228759765625
 10
-5144.22607421875
 20
-1461.76953125
 10
-5144.13232421875
 20
-1457.6697998046875
 10
-5144.0498046875
 20
-1453.595458984375
 10
-5143.9775390625
 20
-1449.497802734375
 10
-5143.9169921875
 20
-1445.427978515625
 10
-5143.86767578125
 20
-1441.3455810546875
 10
-5143.8291015625
 20
-1437.251220703125
 10
-5143.8017578125
 20
-1433.173095703125
 10
-5143.78515625
 20
-1429.07666015625
 10
-5143.779296875
 20
-1424.99951171875
 10
-5143.78515625
 20
-1420.9237060546875
 10
-5143.8017578125
 20
-1416.82568359375
 10
-5143.8291015625
 20
-1412.7515869140625
 10
-5143.86767578125
 20
-1408.650146484375
 10
-5143.9169921875
 20
-1404.5753173828125
 10
-5143.9775390625
 20
-1400.50244140625
 10
-5144.0498046875
 20
-1396.40283203125
 10
-5144.1318359375
 20
-1392.327392578125
 10
-5144.2255859375
 20
-1388.232177734375
 10
-5144.330078125
 20
-1384.1566162109375
 10
-5144.4453125
 20
-1380.082275390625
 10
-5144.572265625
 20
-1375.987060546875
 10
-5144.70947265625
 20
-1371.91357421875
 10
-5144.85791015625
 20
-1367.8348388671875
 10
-5145.017578125
 20
-1363.74853515625
 10
-5145.1884765625
 20
-1359.6669921875
 10
-5145.3701171875
 20
-1355.5810546875
 10
-5145.7978515625
 20
-1346.510986328125
 10
-5173.65087890625
 20
-1347.86328125
 10
-5261.029296875
 20
-1347.86328125
  0
LWPOLYLINE
  5
40
330
17
100
AcDbEntity
  8
PEN
100
AcDbPolyline
 90
8
 70
1
 43
0.0
 10
-5259.0302734375
 20
-1376.431640625
 10
-5261.0302734375
 20
-1378.431640625
 10
-5261.0302734375
 20
-1399.431640625
 10
-5259.0302734375
 20
-1401.431640625
 10
-5199.22998046875
 20
-1401.431640625
 10
-5197.23046875
 20
-1399.431640625
 10
-5197.23046875
 20
-1378.431640625
 10
-5199.22998046875
 20
-1376.431640625
  0
LWPOLYLINE
  5
41
330
17
100
AcDbEntity
  8
PEN
100
AcDbPolyline
 90
22
 70
0
 43
0.0
 10
-5145.7802734375
 20
-1419.9268798828125
 10
-5151.7783203125
 20
-1420.0723876953125
 10
-5145.85302734375
 20
-1416.9278564453125
 10
-5151.92431640625
 20
-1414.07421875
 10
-5145.99853515625
 20
-1410.9295654296875
 10
-5152.0693359375
 20
-1408.075927734375
 10
-5146.14404296875
 20
-1404.9312744140625
 10
-5152.21484375
 20
-1402.07763671875
 10
-5146.28955078125
 20
-1398.93310546875
 10
-5152.3603515625
 20
-1396.07958984375
 10
-5146.4345703125
 20
-1392.934814453125
 10
-5152.505859375
 20
-1390.081298828125
 10
-5146.58056640625
 20
-1386.9366455078125
 10
-5152.65185546875
 20
-1384.0830078125
 10
-5146.72607421875
 20
-1380.9383544921875
 10
-5152.79736328125
 20
-1378.0848388671875
 10
-5146.87158203125
 20
-1374.940185546875
 10
-5152.94287109375
 20
-1372.0865478515625
 10
-5147.01708984375
 20
-1368.94189453125
 10
-5153.087890625
 20
-1366.0882568359375
 10
-5147.16259765625
 20
-1362.943603515625
 10
-5153.1611328125
 20
-1363.0892333984375
  0
LWPOLYLINE
  5
43
330
17
100
AcDbEntity
  8
CUT
100
AcDbPolyline
 90
63
 70
1
 43
0.0
 10
-2854.199951171875
 20
1289.5306396484375
 10
-2883.3017578125
 20
1296.816650390625
 10
-2883.26220703125
 20
1297.5103759765625
 10
-2883.14453125
 20
1299.528076171875
 10
-2882.950439453125
 20
1302.7755126953125
 10
-2882.681396484375
 20
1307.1578369140625
 10
-2882.3388671875
 20
1312.58056640625
 10
-2881.923828125
 20
1318.948974609375
 10
-2881.4384765625
 20
1326.1685791015625
 10
-2880.884033203125
 20
1334.1446533203125
 10
-2880.261962890625
 20
1342.78271484375
 10
-2879.573486328125
 20
1351.988037109375
 10
-2878.8203125
 20
1361.6661376953125
 10
-2878.00439453125
 20
1371.7220458984375
 10
-2877.12646484375
 20
1382.061767578125
 10
-2876.188232421875
 20
1392.5902099609375
 10
-2875.19140625
 20
1403.212890625
 10
-2874.137451171875
 20
1413.8353271484375
 10
-2873.027587890625
 20
1424.3626708984375
 10
-2871.86328125
 20
1434.700439453125
 10
-2870.646484375
 20
1444.7542724609375
 10
-2869.37841796875
 20
1454.42919921875
 10
-2868.06005859375
 20
1463.630615234375
 10
-2866.69384765625
 20
1472.2640380859375
 10
-2865.2802734375
 20
1480.2349853515625
 10
-2863.82177734375
 20
1487.4486083984375
 10
-2862.3193359375
 20
1493.8104248046875
 10
-2860.774169921875
 20
1499.225830078125
 10
-2859.188232421875
 20
1503.60009765625
 10
-2857.56298828125
 20
1506.8387451171875
 10
-2855.899658203125
 20
1508.8472900390625
 10
-2854.199951171875
 20
1509.5306396484375
 10
-2852.3798828125
 20
1508.7728271484375
 10
-2850.6162109375
 20
1506.5897216796875
 10
-2848.90966796875
 20
1503.0833740234375
 10
-2847.26025390625
 20
1498.3553466796875
 10
-2845.668701171875
 20
1492.5076904296875
 10
-2844.13525390625
 20
1485.64208984375
 10
-2842.66015625
 20
1477.8603515625
 10
-2841.24365234375
 20
1469.264404296875
 10
-2839.88671875
 20
1459.9559326171875
 10
-2838.588623046875
 20
1450.0369873046875
 10
-2837.350830078125
 20
1439.6092529296875
 10
-2836.173095703125
 20
1428.7745361328125
 10
-2835.055908203125
 20
1417.6348876953125
 10
-2833.99951171875
 20
1406.291748046875
 10
-2833.00439453125
 20
1394.8472900390625
 10
-2832.071044921875
 20
1383.403076171875
 10
-2831.19970703125
 20
1372.0611572265625
 10
-2830.390380859375
 20
1360.92333984375
 10
-2829.64404296875
 20
1350.0911865234375
 10
-2828.960693359375
 20
1339.6668701171875
 10
-2828.340576171875
 20
1329.751953125
 10
-2827.7841796875
 20
1320.448486328125
 10
-2827.292236328125
 20
1311.858154296875
 10
-2826.864501953125
 20
1304.0828857421875
 10
-2826.501708984375
 20
1297.2242431640625
 10
-2826.203857421875
 20
1291.3843994140625
 10
-2825.971923828125
 20
1286.6651611328125
 10
-2825.805419921875
 20
1283.1680908203125
 10
-2825.70556640625
 20
1280.9952392578125
 10
-2825.671875
 20
1280.248291015625
 10
-2854.199951171875
 20
1289.5306396484375
  0
LWPOLYLINE
  5
45
330
17
100
AcDbEntity
  8
CUT
100
AcDbPolyline
 90
63
 70
1
 43
0.0
 10
2854.199951171875
 20
1289.5306396484375
 10
2883.3017578125
 20
1296.816650390625
 10
2883.26220703125
 20
1297.5103759765625
 10
2883.14453125
 20
1299.528076171875
 10
2882.950439453125
 20
1302.7755126953125
 10
2882.681396484375
 20
1307.1578369140625
 10
2882.3388671875
 20
1312.58056640625
 10
2881.923828125
 20
1318.948974609375
 10
2881.4384765625
 20
1326.1685791015625
 10
2880.884033203125
 20
1334.1446533203125
 10
2880.261962890625
 20
1342.78271484375
 10
2879.573486328125
 20
1351.988037109375
 10
2878.8203125
 20
1361.6661376953125
 10
2878.00439453125
 20
1371.7220458984375
 10
2877.12646484375
 20
1382.061767578125
 10
2876.188232421875
 20
1392.5902099609375
 10
2875.19140625
 20
1403.212890625
 10
2874.137451171875
 20
1413.8353271484375
 10
2873.027587890625
 20
1424.3626708984375
 10
2871.86328125
 20
1434.700439453125
 10
2870.646484375
 20
1444.7542724609375
 10
2869.37841796875
 20
1454.42919921875
 10
2868.06005859375
 20
1463.630615234375
 10
2866.69384765625
 20
1472.2640380859375
 10
2865.2802734375
 20
1480.2349853515625
 10
2863.82177734375
 20
1487.4486083984375
 10
2862.3193359375
 20
1493.8104248046875
 10
2860.774169921875
 20
1499.225830078125
 10
2859.188232421875
 20
1503.60009765625
 10
2857.56298828125
 20
1506.8387451171875
 10
2855.899658203125
 20
1508.8472900390625
 10
2854.199951171875
 20
1509.5306396484375
 10
2852.3798828125
 20
1508.7728271484375
 10
2850.6162109375
 20
1506.5897216796875
 10
2848.90966796875
 20
1503.0833740234375
 10
2847.26025390625
 20
1498.3553466796875
 10
2845.668701171875
 20
1492.5076904296875
 10
2844.13525390625
 20
1485.64208984375
 10
2842.66015625
 20
1477.8603515625
 10
2841.24365234375
 20
1469.264404296875
 10
2839.88671875
 20
1459.9559326171875
 10
2838.588623046875
 20
1450.0369873046875
 10
2837.350830078125
 20
1439.6092529296875
 10
2836.173095703125
 20
1428.7745361328125
 10
2835.055908203125
 20
1417.6348876953125
 10
2833.99951171875
 20
1406.291748046875
 10
2833.00439453125
 20
1394.8472900390625
 10
2832.071044921875
 20
1383.403076171875
 10
2831.19970703125
 20
1372.0611572265625
 10
2830.390380859375
 20
1360.92333984375
 10
2829.64404296875
 20
1350.0911865234375
 10
2828.960693359375
 20
1339.6668701171875
 10
2828.340576171875
 20
1329.751953125
 10
2827.7841796875
 20
1320.448486328125
 10
2827.292236328125
 20
1311.858154296875
 10
2826.864501953125
 20
1304.0828857421875
 10
2826.501708984375
 20
1297.2242431640625
 10
2826.203857421875
 20
1291.3843994140625
 10
2825.971923828125
 20
1286.6651611328125
 10
2825.805419921875
 20
1283.1680908203125
 10
2825.70556640625
 20
1280.9952392578125
 10
2825.671875
 20
1280.248291015625
 10
2854.199951171875
 20
1289.5306396484375
  0
LWPOLYLINE
  5
47
330
17
100
AcDbEntity
  8
CUT
100
AcDbPolyline
 90
63
 70
1
 43
0.0
 10
-2854.2001953125
 20
2465.564697265625
 10
-2884.193115234375
 20
2464.918701171875
 10
-2884.14453125
 20
2464.431640625
 10
-2884.00048828125
 20
2463.015625
 10
-2883.7646484375
 20
2460.736083984375
 10
-2883.439697265625
 20
2457.659912109375
 10
-2883.029541015625
 20
2453.853759765625
 10
-2882.536376953125
 20
2449.383544921875
 10
-2881.9638671875
 20
2444.31591796875
 10
-2881.3154296875
 20
2438.717041015625
 10
-2880.59375
 20
2432.653564453125
 10
-2879.802490234375
 20
2426.192138671875
 10
-2878.9443359375
 20
2419.398193359375
 10
-2878.02294921875
 20
2412.339111328125
 10
-2877.041015625
 20
2405.0810546875
 10
-2876.001953125
 20
2397.68994140625
 10
-2874.9091796875
 20
2390.23291015625
 10
-2873.765380859375
 20
2382.77587890625
 10
-2872.57421875
 20
2375.385009765625
 10
-2871.338623046875
 20
2368.127197265625
 10
-2870.0615234375
 20
2361.068603515625
 10
-2868.74658203125
 20
2354.275634765625
 10
-2867.396484375
 20
2347.814697265625
 10
-2866.014892578125
 20
2341.752197265625
 10
-2864.604736328125
 20
2336.155029296875
 10
-2863.169189453125
 20
2331.088623046875
 10
-2861.711181640625
 20
2326.619873046875
 10
-2860.234619140625
 20
2322.815185546875
 10
-2858.74169921875
 20
2319.74072265625
 10
-2857.236328125
 20
2317.46337890625
 10
-2855.721435546875
 20
2316.04931640625
 10
-2854.2001953125
 20
2315.564697265625
 10
-2852.658447265625
 20
2316.06103515625
 10
-2851.12646484375
 20
2317.5
 10
-2849.6064453125
 20
2319.81494140625
 10
-2848.101806640625
 20
2322.937744140625
 10
-2846.61572265625
 20
2326.801513671875
 10
-2845.15087890625
 20
2331.3388671875
 10
-2843.710693359375
 20
2336.48193359375
 10
-2842.297607421875
 20
2342.164306640625
 10
-2840.9150390625
 20
2348.31787109375
 10
-2839.565673828125
 20
2354.87548828125
 10
-2838.2529296875
 20
2361.769775390625
 10
-2836.979736328125
 20
2368.933349609375
 10
-2835.7490234375
 20
2376.299072265625
 10
-2834.5634765625
 20
2383.79931640625
 10
-2833.4267578125
 20
2391.366943359375
 10
-2832.341552734375
 20
2398.934326171875
 10
-2831.310546875
 20
2406.4345703125
 10
-2830.33740234375
 20
2413.7998046875
 10
-2829.42431640625
 20
2420.962890625
 10
-2828.575439453125
 20
2427.8564453125
 10
-2827.792724609375
 20
2434.4130859375
 10
-2827.07958984375
 20
2440.56591796875
 10
-2826.439208984375
 20
2446.246826171875
 10
-2825.874267578125
 20
2451.388916015625
 10
-2825.38818359375
 20
2455.924560546875
 10
-2824.983642578125
 20
2459.78662109375
 10
-2824.66357421875
 20
2462.90771484375
 10
-2824.431396484375
 20
2465.220458984375
 10
-2824.2900390625
 20
2466.65771484375
 10
-2824.2421875
 20
2467.151611328125
 10
-2854.2001953125
 20
2465.564697265625
  0
LWPOLYLINE
  5
49
330
17
100
AcDbEntity
  8
CUT
100
AcDbPolyline
 90
63
 70
1
 43
0.0
 10
2854.2001953125
 20
2465.564697265625
 10
2884.193115234375
 20
2464.918701171875
 10
2884.14453125
 20
2464.431640625
 10
2884.00048828125
 20
2463.015625
 10
2883.7646484375
 20
2460.736083984375
 10
2883.439697265625
 20
2457.659912109375
 10
2883.029541015625
 20
2453.853759765625
 10
2882.536376953125
 20
2449.383544921875
 10
2881.9638671875
 20
2444.31591796875
 10
2881.3154296875
 20
2438.717041015625
 10
2880.59375
 20
2432.653564453125
 10
2879.802490234375
 20
2426.192138671875
 10
2878.9443359375
 20
2419.398193359375
 10
2878.02294921875
 20
2412.339111328125
 10
2877.041015625
 20
2405.0810546875
 10
2876.001953125
 20
2397.68994140625
 10
2874.9091796875
 20
2390.23291015625
 10
2873.765380859375
 20
2382.77587890625
 10
2872.57421875
 20
2375.385009765625
 10
2871.338623046875
 20
2368.127197265625
 10
2870.0615234375
 20
2361.068603515625
 10
2868.74658203125
 20
2354.275634765625
 10
2867.396484375
 20
2347.814697265625
 10
2866.014892578125
 20
2341.752197265625
 10
2864.604736328125
 20
2336.155029296875
 10
2863.169189453125
 20
2331.088623046875
 10
2861.711181640625
 20
2326.619873046875
 10
2860.234619140625
 20
2322.815185546875
 10
2858.74169921875
 20
2319.74072265625
 10
2857.236328125
 20
2317.46337890625
 10
2855.721435546875
 20
2316.04931640625
 10
2854.2001953125
 20
2315.564697265625
 10
2852.658447265625
 20
2316.06103515625
 10
2851.12646484375
 20
2317.5
 10
2849.6064453125
 20
2319.81494140625
 10
2848.101806640625
 20
2322.937744140625
 10
2846.61572265625
 20
2326.801513671875
 10
2845.15087890625
 20
2331.3388671875
 10
2843.710693359375
 20
2336.48193359375
 10
2842.297607421875
 20
2342.164306640625
 10
2840.9150390625
 20
2348.31787109375
 10
2839.565673828125
 20
2354.87548828125
 10
2838.2529296875
 20
2361.769775390625
 10
2836.979736328125
 20
2368.933349609375
 10
2835.7490234375
 20
2376.299072265625
 10
2834.5634765625
 20
2383.79931640625
 10
2833.4267578125
 20
2391.366943359375
 10
2832.341552734375
 20
2398.934326171875
 10
2831.310546875
 20
2406.4345703125
 10
2830.33740234375
 20
2413.7998046875
 10
2829.42431640625
 20
2420.962890625
 10
2828.575439453125
 20
2427.8564453125
 10
2827.792724609375
 20
2434.4130859375
 10
2827.07958984375
 20
2440.56591796875
 10
2826.439208984375
 20
2446.246826171875
 10
2825.874267578125
 20
2451.388916015625
 10
2825.38818359375
 20
2455.924560546875
 10
2824.983642578125
 20
2459.78662109375
 10
2824.66357421875
 20
2462.90771484375
 10
2824.431396484375
 20
2465.220458984375
 10
2824.2900390625
 20
2466.65771484375
 10
2824.2421875
 20
2467.151611328125
 10
2854.2001953125
 20
2465.564697265625
  0
LWPOLYLINE
  5
4B
330
17
100
AcDbEntity
  8
CUT
100
AcDbPolyline
 90
41
 70
1
 43
0.0
 10
-4556.52880859375
 20
-3291.9560546875
 10
-4469.0947265625
 20
-3291.956298828125
 10
-4441.16650390625
 20
-3292.690185546875
 10
-4440.935546875
 20
-3283.640869140625
 10
-4440.837890625
 20
-3279.58544921875
 10
-4440.74658203125
 20
-3275.57421875
 10
-4440.66015625
 20
-3271.476806640625
 10
-4440.58056640625
 20
-3267.457275390625
 10
-4440.505859375
 20
-3263.408203125
 10
-4440.43798828125
 20
-3259.34375
 10
-4440.37548828125
 20
-3255.292724609375
 10
-4440.318359375
 20
-3251.234130859375
 10
-4440.2685546875
 20
-3247.2177734375
 10
-4440.2236328125
 20
-3243.161376953125
 10
-4440.18505859375
 20
-3239.102294921875
 10
-4440.15234375
 20
-3235.04833984375
 10
-4440.12548828125
 20
-3230.98828125
 10
-4440.1044921875
 20
-3226.931396484375
 10
-4440.08984375
 20
-3222.914794921875
 10
-4440.08056640625
 20
-3218.857177734375
 10
-4440.07763671875
 20
-3214.799560546875
 10
-4440.08056640625
 20
-3210.7421875
 10
-4440.08984375
 20
-3206.684814453125
 10
-4440.1044921875
 20
-3202.6689453125
 10
-4440.12548828125
 20
-3198.611572265625
 10
-4440.15185546875
 20
-3194.5498046875
 10
-4440.18505859375
 20
-3190.49658203125
 10
-4440.2236328125
 20
-3186.4404296875
 10
-4440.2685546875
 20
-3182.3798828125
 10
-4440.318359375
 20
-3178.36328125
 10
-4440.37548828125
 20
-3174.309814453125
 10
-4440.43798828125
 20
-3170.25390625
 10
-4440.505859375
 20
-3166.19384765625
 10
-4440.580078125
 20
-3162.140869140625
 10
-4440.65966796875
 20
-3158.115478515625
 10
-4440.74609375
 20
-3154.029296875
 10
-4440.83740234375
 20
-3150.01171875
 10
-4440.93505859375
 20
-3145.95556640625
 10
-4441.16650390625
 20
-3136.908935546875
 10
-4469.09423828125
 20
-3137.64306640625
 10
-4556.52880859375
 20
-3137.64306640625
  0
LWPOLYLINE
  5
4C
330
17
100
AcDbEntity
  8
PEN
100
AcDbPolyline
 90
8
 70
1
 43
0.0
 10
-4554.529296875
 20
-3166.221435546875
 10
-4556.52880859375
 20
-3168.22119140625
 10
-4556.52880859375
 20
-3189.221435546875
 10
-4554.529296875
 20
-3191.22119140625
 10
-4494.72900390625
 20
-3191.22119140625
 10
-4492.72900390625
 20
-3189.221435546875
 10
-4492.72900390625
 20
-3168.22119140625
 10
-4494.72900390625
 20
-3166.221435546875
  0
LWPOLYLINE
  5
4D
330
17
100
AcDbEntity
  8
PEN
100
AcDbPolyline
 90
22
 70
0
 43
0.0
 10
-4442.078125
 20
-3209.76025390625
 10
-4448.0771484375
 20
-3209.83935546875
 10
-4442.11767578125
 20
-3206.760498046875
 10
-4448.15625
 20
-3203.83984375
 10
-4442.19677734375
 20
-3200.760986328125
 10
-4448.2353515625
 20
-3197.84033203125
 10
-4442.275390625
 20
-3194.761474609375
 10
-4448.314453125
 20
-3191.8408203125
 10
-4442.3544921875
 20
-3188.761962890625
 10
-4448.39404296875
 20
-3185.84130859375
 10
-4442.43359375
 20
-3182.7626953125
 10
-4448.47314453125
 20
-3179.842041015625
 10
-4442.51318359375
 20
-3176.762939453125
 10
-4448.55224609375
 20
-3173.842529296875
 10
-4442.59228515625
 20
-3170.763427734375
 10
-4448.63134765625
 20
-3167.8427734375
 10
-4442.67138671875
 20
-3164.76416015625
 10
-4448.7099609375
 20
-3161.843505859375
 10
-4442.75
 20
-3158.7646484375
 10
-4448.7890625
 20
-3155.843994140625
 10
-4442.8291015625
 20
-3152.765380859375
 10
-4448.82861328125
 20
-3152.84423828125
  0
LWPOLYLINE
  5
4F
330
17
100
AcDbEntity
  8
CUT
100
AcDbPolyline
 90
41
 70
1
 43
0.0
 10
4556.52880859375
 20
-3291.9560546875
 10
4469.0947265625
 20
-3291.956298828125
 10
4441.16650390625
 20
-3292.690185546875
 10
4440.935546875
 20
-3283.640869140625
 10
4440.837890625
 20
-3279.58544921875
 10
4440.74658203125
 20
-3275.57421875
 10
4440.66015625
 20
-3271.476806640625
 10
4440.58056640625
 20
-3267.457275390625
 10
4440.505859375
 20
-3263.408203125
 10
4440.43798828125
 20
-3259.34375
 10
4440.37548828125
 20
-3255.292724609375
 10
4440.318359375
 20
-3251.234130859375
 10
4440.2685546875
 20
-3247.2177734375
 10
4440.2236328125
 20
-3243.161376953125
 10
4440.18505859375
 20
-3239.102294921875
 10
4440.15234375
 20
-3235.04833984375
 10
4440.12548828125
 20
-3230.98828125
 10
4440.1044921875
 20
-3226.931396484375
 10
4440.08984375
 20
-3222.914794921875
 10
4440.08056640625
 20
-3218.857177734375
 10
4440.07763671875
 20
-3214.799560546875
 10
4440.08056640625
 20
-3210.7421875
 10
4440.08984375
 20
-3206.684814453125
 10
4440.1044921875
 20
-3202.6689453125
 10
4440.12548828125
 20
-3198.611572265625
 10
4440.15185546875
 20
-3194.5498046875
 10
4440.18505859375
 20
-3190.49658203125
 10
4440.2236328125
 20
-3186.4404296875
 10
4440.2685546875
 20
-3182.3798828125
 10
4440.318359375
 20
-3178.36328125
 10
4440.37548828125
 20
-3174.309814453125
 10
4440.43798828125
 20
-3170.25390625
 10
4440.505859375
 20
-3166.19384765625
 10
4440.580078125
 20
-3162.140869140625
 10
4440.65966796875
 20
-3158.115478515625
 10
4440.74609375
 20
-3154.029296875
 10
4440.83740234375
 20
-3150.01171875
 10
4440.93505859375
 20
-3145.95556640625
 10
4441.16650390625
 20
-3136.908935546875
 10
4469.09423828125
 20
-3137.64306640625
 10
4556.52880859375
 20
-3137.64306640625
  0
LWPOLYLINE
  5
50
330
17
100
AcDbEntity
  8
PEN
100
AcDbPolyline
 90
8
 70
1
 43
0.0
 10
4554.529296875
 20
-3166.221435546875
 10
4556.52880859375
 20
-3168.22119140625
 10
4556.52880859375
 20
-3189.221435546875
 10
4554.529296875
 20
-3191.22119140625
 10
4494.72900390625
 20
-3191.22119140625
 10
4492.72900390625
 20
-3189.221435546875
 10
4492.72900390625
 20
-3168.22119140625
 10
4494.72900390625
 20
-3166.221435546875
  0
LWPOLYLINE
  5
51
330
17
100
AcDbEntity
  8
PEN
100
AcDbPolyline
 90
22
 70
0
 43
0.0
 10
4448.0771484375
 20
-3209.83935546875
 10
4442.078125
 20
-3209.76025390625
 10
4448.1171875
 20
-3206.839599609375
 10
4442.15673828125
 20
-3203.7607421875
 10
4448.19580078125
 20
-3200.840087890625
 10
4442.23583984375
 20
-3197.76123046875
 10
4448.27490234375
 20
-3194.840576171875
 10
4442.31494140625
 20
-3191.76171875
 10
4448.35400390625
 20
-3188.841064453125
 10
4442.39404296875
 20
-3185.762451171875
 10
4448.43359375
 20
-3182.841552734375
 10
4442.4736328125
 20
-3179.762939453125
 10
4448.5126953125
 20
-3176.84228515625
 10
4442.552734375
 20
-3173.76318359375
 10
4448.59130859375
 20
-3170.842529296875
 10
4442.6318359375
 20
-3167.763916015625
 10
4448.67041015625
 20
-3164.84326171875
 10
4442.7109375
 20
-3161.764404296875
 10
4448.74951171875
 20
-3158.84375
 10
4442.78955078125
 20
-3155.764892578125
 10
4448.82861328125
 20
-3152.84423828125
 10
4442.8291015625
 20
-3152.765380859375
  0
LWPOLYLINE
  5
53
330
17
100
AcDbEntity
  8
CUT
100
AcDbPolyline
 90
17
 70
1
 43
0.0
 10
-220.958251953125
 20
-323.4119873046875
 10
-200.958251953125
 20
-323.4119873046875
 10
-200.958251953125
 20
-520.9002685546875
 10
-201.29898071289062
 20
-523.4884643554688
 10
-202.29798889160156
 20
-525.9002685546875
 10
-203.88717651367188
 20
-527.9713134765625
 10
-205.958251953125
 20
-529.5604858398438
 10
-208.37005615234375
 20
-530.5595703125
 10
-210.95823669433594
 20
-530.9003295898438
 10
-230.958251953125
 20
-530.9003295898438
 10
-233.5464324951172
 20
-530.5595703125
 10
-235.958251953125
 20
-529.5604858398438
 10
-238.02931213378906
 20
-527.9713134765625
 10
-239.61851501464844
 20
-525.9002685546875
 10
-240.6175079345703
 20
-523.4884643554688
 10
-240.95823669433594
 20
-520.9002685546875
 10
-240.95823669433594
 20
-323.4119873046875
  0
LWPOLYLINE
  5
55
330
17
100
AcDbEntity
  8
CUT
100
AcDbPolyline
 90
17
 70
1
 43
0.0
 10
-2939.108642578125
 20
-269.5723571777344
 10
-2924.1083984375
 20
-269.5723571777344
 10
-2924.1083984375
 20
-411.4984436035156
 10
-2924.364013671875
 20
-413.4396057128906
 10
-2925.113525390625
 20
-415.2484436035156
 10
-2926.30517578125
 20
-416.8017578125
 10
-2927.858642578125
 20
-417.9936218261719
 10
-2929.66748046875
 20
-418.7428894042969
 10
-2931.608642578125
 20
-418.9984436035156
 10
-2946.608642578125
 20
-418.9984436035156
 10
-2948.5498046875
 20
-418.7428894042969
 10
-2950.358642578125
 20
-417.9936218261719
 10
-2951.911865234375
 20
-416.8017578125
 10
-2953.103759765625
 20
-415.2484436035156
 10
-2953.85302734375
 20
-413.4396057128906
 10
-2954.108642578125
 20
-411.4984436035156
 10
-2954.108642578125
 20
-269.5723571777344
  0
LWPOLYLINE
  5
57
330
17
100
AcDbEntity
  8
CUT
100
AcDbPolyline
 90
17
 70
1
 43
0.0
 10
2939.108642578125
 20
-269.5723571777344
 10
2954.108642578125
 20
-269.5723571777344
 10
2954.108642578125
 20
-411.4984436035156
 10
2953.85302734375
 20
-413.4396057128906
 10
2953.103759765625
 20
-415.2484436035156
 10
2951.911865234375
 20
-416.8017578125
 10
2950.358642578125
 20
-417.9936218261719
 10
2948.5498046875
 20
-418.7428894042969
 10
2946.608642578125
 20
-418.9984436035156
 10
2931.608642578125
 20
-418.9984436035156
 10
2929.66748046875
 20
-418.7428894042969
 10
2927.858642578125
 20
-417.9936218261719
 10
2926.30517578125
 20
-416.8017578125
 10
2925.113525390625
 20
-415.2484436035156
 10
2924.364013671875
 20
-413.4396057128906
 10
2924.1083984375
 20
-411.4984436035156
 10
2924.1083984375
 20
-269.5723571777344
  0
LWPOLYLINE
  5
59
330
17
100
AcDbEntity
  8
CUT
100
AcDbPolyline
 90
17
 70
1
 43
0.0
 10
-3498.4970703125
 20
-258.5195007324219
 10
-3483.496826171875
 20
-258.5195007324219
 10
-3483.496826171875
 20
-389.2759094238281
 10
-3483.75244140625
 20
-391.217041015625
 10
-3484.501953125
 20
-393.02587890625
 10
-3485.693603515625
 20
-394.57916259765625
 10
-3487.2470703125
 20
-395.7710876464844
 10
-3489.055908203125
 20
-396.52032470703125
 10
-3490.9970703125
 20
-396.7759094238281
 10
-3505.996826171875
 20
-396.7759094238281
 10
-3507.938232421875
 20
-396.52032470703125
 10
-3509.7470703125
 20
-395.7710876464844
 10
-3511.30029296875
 20
-394.57916259765625
 10
-3512.4921875
 20
-393.02587890625
 10
-3513.241455078125
 20
-391.217041015625
 10
-3513.4970703125
 20
-389.2759094238281
 10
-3513.4970703125
 20
-258.5195007324219
  0
LWPOLYLINE
  5
5B
330
17
100
AcDbEntity
  8
CUT
100
AcDbPolyline
 90
17
 70
1
 43
0.0
 10
3498.4970703125
 20
-258.5195007324219
 10
3513.4970703125
 20
-258.5195007324219
 10
3513.4970703125
 20
-389.2759094238281
 10
3513.241455078125
 20
-391.217041015625
 10
3512.4921875
 20
-393.02587890625
 10
3511.30029296875
 20
-394.57916259765625
 10
3509.7470703125
 20
-395.7710876464844
 10
3507.938232421875
 20
-396.52032470703125
 10
3505.996826171875
 20
-396.7759094238281
 10
3490.9970703125
 20
-396.7759094238281
 10
3489.055908203125
 20
-396.52032470703125
 10
3487.2470703125
 20
-395.7710876464844
 10
3485.693603515625
 20
-394.57916259765625
 10
3484.501953125
 20
-393.02587890625
 10
3483.75244140625
 20
-391.217041015625
 10
3483.496826171875
 20
-389.2759094238281
 10
3483.496826171875
 20
-258.5195007324219
  0
LWPOLYLINE
  5
5D
330
17
100
AcDbEntity
  8
CUT
100
AcDbPolyline
 90
17
 70
1
 43
0.0
 10
-4027.16357421875
 20
-248.86593627929688
 10
-4012.16357421875
 20
-248.86593627929688
 10
-4012.16357421875
 20
-377.9079895019531
 10
-4012.419189453125
 20
-379.84912109375
 10
-4013.16845703125
 20
-381.6579895019531
 10
-4014.3603515625
 20
-383.2112731933594
 10
-4015.91357421875
 20
-384.4031677246094
 10
-4017.72216796875
 20
-385.1524353027344
 10
-4019.663330078125
 20
-385.4079895019531
 10
-4034.66357421875
 20
-385.4079895019531
 10
-4036.60498046875
 20
-385.1524353027344
 10
-4038.41357421875
 20
-384.4031677246094
 10
-4039.966552734375
 20
-383.2112731933594
 10
-4041.15869140625
 20
-381.6579895019531
 10
-4041.90771484375
 20
-379.84912109375
 10
-4042.163330078125
 20
-377.9079895019531
 10
-4042.163330078125
 20
-248.86593627929688
  0
LWPOLYLINE
  5
5F
330
17
100
AcDbEntity
  8
CUT
100
AcDbPolyline
 90
17
 70
1
 43
0.0
 10
4027.16357421875
 20
-248.86593627929688
 10
4042.163330078125
 20
-248.86593627929688
 10
4042.163330078125
 20
-377.9079895019531
 10
4041.90771484375
 20
-379.84912109375
 10
4041.15869140625
 20
-381.6579895019531
 10
4039.966552734375
 20
-383.2112731933594
 10
4038.41357421875
 20
-384.4031677246094
 10
4036.60498046875
 20
-385.1524353027344
 10
4034.66357421875
 20
-385.4079895019531
 10
4019.663330078125
 20
-385.4079895019531
 10
4017.72216796875
 20
-385.1524353027344
 10
4015.91357421875
 20
-384.4031677246094
 10
4014.3603515625
 20
-383.2112731933594
 10
4013.16845703125
 20
-381.6579895019531
 10
4012.419189453125
 20
-379.84912109375
 10
4012.16357421875
 20
-377.9079895019531
 10
4012.16357421875
 20
-248.86593627929688
  0
LWPOLYLINE
  5
61
330
17
100
AcDbEntity
  8
CUT
100
AcDbPolyline
 90
17
 70
1
 43
0.0
 10
-4519.33837890625
 20
-241.57962036132812
 10
-4504.3388671875
 20
-241.57962036132812
 10
-4504.3388671875
 20
-362.9562683105469
 10
-4504.59423828125
 20
-364.8974304199219
 10
-4505.34326171875
 20
-366.70623779296875
 10
-4506.53564453125
 20
-368.25958251953125
 10
-4508.08837890625
 20
-369.45147705078125
 10
-4509.8974609375
 20
-370.20068359375
 10
-4511.83837890625
 20
-370.4562683105469
 10
-4526.8388671875
 20
-370.4562683105469
 10
-4528.77978515625
 20
-370.20068359375
 10
-4530.5888671875
 20
-369.45147705078125
 10
-4532.1416015625
 20
-368.25958251953125
 10
-4533.333984375
 20
-366.70623779296875
 10
-4534.0830078125
 20
-364.8974304199219
 10
-4534.33837890625
 20
-362.9562683105469
 10
-4534.33837890625
 20
-241.57962036132812
  0
LWPOLYLINE
  5
63
330
17
100
AcDbEntity
  8
CUT
100
AcDbPolyline
 90
17
 70
1
 43
0.0
 10
4519.33837890625
 20
-241.57962036132812
 10
4534.33837890625
 20
-241.57962036132812
 10
4534.33837890625
 20
-362.9562683105469
 10
4534.0830078125
 20
-364.8974304199219
 10
4533.333984375
 20
-366.70623779296875
 10
4532.1416015625
 20
-368.25958251953125
 10
4530.5888671875
 20
-369.45147705078125
 10
4528.77978515625
 20
-370.20068359375
 10
4526.8388671875
 20
-370.4562683105469
 10
4511.83837890625
 20
-370.4562683105469
 10
4509.8974609375
 20
-370.20068359375
 10
4508.08837890625
 20
-369.45147705078125
 10
4506.53564453125
 20
-368.25958251953125
 10
4505.34326171875
 20
-366.70623779296875
 10
4504.59423828125
 20
-364.8974304199219
 10
4504.3388671875
 20
-362.9562683105469
 10
4504.3388671875
 20
-241.57962036132812
  0
LWPOLYLINE
  5
65
330
17
100
AcDbEntity
  8
CUT
100
AcDbPolyline
 90
17
 70
1
 43
0.0
 10
-5008.25732421875
 20
-234.35983276367188
 10
-4993.25732421875
 20
-234.35983276367188
 10
-4993.25732421875
 20
-355.2308349609375
 10
-4993.51318359375
 20
-357.1719970703125
 10
-4994.26220703125
 20
-358.9808349609375
 10
-4995.4541015625
 20
-360.5341491699219
 10
-4997.00732421875
 20
-361.7260437011719
 10
-4998.81591796875
 20
-362.47528076171875
 10
-5000.75732421875
 20
-362.7308654785156
 10
-5015.75732421875
 20
-362.7308654785156
 10
-5017.69873046875
 20
-362.47528076171875
 10
-5019.50732421875
 20
-361.7260437011719
 10
-5021.060546875
 20
-360.5341491699219
 10
-5022.25244140625
 20
-358.9808349609375
 10
-5023.00146484375
 20
-357.1719970703125
 10
-5023.25732421875
 20
-355.2308349609375
 10
-5023.25732421875
 20
-234.35983276367188
  0
LWPOLYLINE
  5
67
330
17
100
AcDbEntity
  8
CUT
100
AcDbPolyline
 90
17
 70
1
 43
0.0
 10
5008.25732421875
 20
-234.35983276367188
 10
5023.25732421875
 20
-234.35983276367188
 10
5023.25732421875
 20
-355.2308349609375
 10
5023.00146484375
 20
-357.1719970703125
 10
5022.25244140625
 20
-358.9808349609375
 10
5021.060546875
 20
-360.5341491699219
 10
5019.50732421875
 20
-361.7260437011719
 10
5017.69873046875
 20
-362.47528076171875
 10
5015.75732421875
 20
-362.7308654785156
 10
5000.75732421875
 20
-362.7308654785156
 10
4998.81591796875
 20
-362.47528076171875
 10
4997.00732421875
 20
-361.7260437011719
 10
4995.4541015625
 20
-360.5341491699219
 10
4994.26220703125
 20
-358.9808349609375
 10
4993.51318359375
 20
-357.1719970703125
 10
4993.25732421875
 20
-355.2308349609375
 10
4993.25732421875
 20
-234.35983276367188
  0
LWPOLYLINE
  5
69
330
17
100
AcDbEntity
  8
CUT
100
AcDbPolyline
 90
74
 70
1
 43
0.0
 10
-5570.3359375
 20
209.90306091308594
 10
-5566.376953125
 20
213.96731567382812
 10
-5562.67529296875
 20
218.26307678222656
 10
-5559.25146484375
 20
222.78053283691406
 10
-5556.12255859375
 20
227.505859375
 10
-5553.30322265625
 20
232.42181396484375
 10
-5550.80224609375
 20
237.50831604003906
 10
-5548.62353515625
 20
242.74349975585938
 10
-5546.767578125
 20
248.10487365722656
 10
-5545.22705078125
 20
253.5693359375
 10
-5543.99267578125
 20
259.11480712890625
 10
-5543.04833984375
 20
264.7203674316406
 10
-5542.3759765625
 20
270.3677062988281
 10
-5541.9541015625
 20
276.0408020019531
 10
-5541.75830078125
 20
281.7262268066406
 10
-5541.76416015625
 20
287.4130859375
 10
-5541.9462890625
 20
293.0942077636719
 10
-5542.28125
 20
298.7642822265625
 10
-5542.74755859375
 20
304.4203186035156
 10
-5543.32470703125
 20
310.0605773925781
 10
-5543.99951171875
 20
315.6858825683594
 10
-5544.7587890625
 20
321.2969055175781
 10
-5545.595703125
 20
326.89495849609375
 10
-5546.5078125
 20
332.4815673828125
 10
-5547.49853515625
 20
338.0565185546875
 10
-5548.57421875
 20
343.6189270019531
 10
-5549.74658203125
 20
349.1665344238281
 10
-5551.02978515625
 20
354.6946716308594
 10
-5552.4423828125
 20
360.1959533691406
 10
-5554.00390625
 20
365.66143798828125
 10
-5555.7353515625
 20
371.0789489746094
 10
-5557.658203125
 20
376.43243408203125
 10
-5559.79248046875
 20
381.7059326171875
 10
-5562.15673828125
 20
386.8782958984375
 10
-5564.7685546875
 20
391.9278259277344
 10
-5567.63720703125
 20
396.83123779296875
 10
-5570.7724609375
 20
401.56451416015625
 10
-5616.37060546875
 20
362.56671142578125
 10
-5614.73486328125
 20
359.6581115722656
 10
-5613.298828125
 20
356.646240234375
 10
-5612.05029296875
 20
353.55145263671875
 10
-5610.97314453125
 20
350.3927917480469
 10
-5610.04736328125
 20
347.1863098144531
 10
-5609.24951171875
 20
343.9460144042969
 10
-5608.5556640625
 20
340.6807556152344
 10
-5607.94287109375
 20
337.3996276855469
 10
-5607.38818359375
 20
334.1087646484375
 10
-5606.86962890625
 20
330.81072998046875
 10
-5606.3720703125
 20
327.50970458984375
 10
-5605.87841796875
 20
324.2076110839844
 10
-5605.380859375
 20
320.9060363769531
 10
-5604.8720703125
 20
317.6053771972656
 10
-5604.3505859375
 20
314.3072814941406
 10
-5603.8173828125
 20
311.0111999511719
 10
-5603.279296875
 20
307.7159729003906
 10
-5602.748046875
 20
304.4203186035156
 10
-5602.23486328125
 20
301.12152099609375
 10
-5601.759765625
 20
297.8175354003906
 10
-5601.34326171875
 20
294.5059814453125
 10
-5601.0078125
 20
291.18560791015625
 10
-5600.779296875
 20
287.8560791015625
 10
-5600.68310546875
 20
284.52032470703125
 10
-5600.74560546875
 20
281.18402099609375
 10
-5600.990234375
 20
277.85595703125
 10
-5601.439453125
 20
274.54962158203125
 10
-5602.11083984375
 20
271.2806091308594
 10
-5603.01708984375
 20
268.069091796875
 10
-5604.166015625
 20
264.9361877441406
 10
-5605.560546875
 20
261.9037170410156
 10
-5607.19580078125
 20
258.99444580078125
 10
-5609.0634765625
 20
256.22821044921875
 10
-5611.1494140625
 20
253.6223602294922
 10
-5613.43505859375
 20
251.190185546875
 10
-5615.89990234375
 20
248.94061279296875
  0
LWPOLYLINE
  5
6B
330
17
100
AcDbEntity
  8
CUT
100
AcDbPolyline
 90
74
 70
1
 43
0.0
 10
5570.3359375
 20
209.90306091308594
 10
5566.376953125
 20
213.96731567382812
 10
5562.67529296875
 20
218.26307678222656
 10
5559.25146484375
 20
222.78053283691406
 10
5556.12255859375
 20
227.505859375
 10
5553.30322265625
 20
232.42181396484375
 10
5550.80224609375
 20
237.50831604003906
 10
5548.62353515625
 20
242.74349975585938
 10
5546.767578125
 20
248.10487365722656
 10
5545.22705078125
 20
253.5693359375
 10
5543.99267578125
 20
259.11480712890625
 10
5543.04833984375
 20
264.7203674316406
 10
5542.3759765625
 20
270.3677062988281
 10
5541.9541015625
 20
276.0408020019531
 10
5541.75830078125
 20
281.7262268066406
 10
5541.76416015625
 20
287.4130859375
 10
5541.9462890625
 20
293.0942077636719
 10
5542.28125
 20
298.7642822265625
 10
5542.74755859375
 20
304.4203186035156
 10
5543.32470703125
 20
310.0605773925781
 10
5543.99951171875
 20
315.6858825683594
 10
5544.7587890625
 20
321.2969055175781
 10
5545.595703125
 20
326.89495849609375
 10
5546.5078125
 20
332.4815673828125
 10
5547.49853515625
 20
338.0565185546875
 10
5548.57421875
 20
343.6189270019531
 10
5549.74658203125
 20
349.1665344238281
 10
5551.02978515625
 20
354.6946716308594
 10
5552.4423828125
 20
360.1959533691406
 10
5554.00390625
 20
365.66143798828125
 10
5555.7353515625
 20
371.0789489746094
 10
5557.658203125
 20
376.43243408203125
 10
5559.79248046875
 20
381.7059326171875
 10
5562.15673828125
 20
386.8782958984375
 10
5564.7685546875
 20
391.9278259277344
 10
5567.63720703125
 20
396.83123779296875
 10
5570.7724609375
 20
401.56451416015625
 10
5616.37060546875
 20
362.56671142578125
 10
5614.73486328125
 20
359.6581115722656
 10
5613.298828125
 20
356.646240234375
 10
5612.05029296875
 20
353.55145263671875
 10
5610.97314453125
 20
350.3927917480469
 10
5610.04736328125
 20
347.1863098144531
 10
5609.24951171875
 20
343.9460144042969
 10
5608.5556640625
 20
340.6807556152344
 10
5607.94287109375
 20
337.3996276855469
 10
5607.38818359375
 20
334.1087646484375
 10
5606.86962890625
 20
330.81072998046875
 10
5606.3720703125
 20
327.50970458984375
 10
5605.87841796875
 20
324.2076110839844
 10
5605.380859375
 20
320.9060363769531
 10
5604.8720703125
 20
317.6053771972656
 10
5604.3505859375
 20
314.3072814941406
 10
5603.8173828125
 20
311.0111999511719
 10
5603.279296875
 20
307.7159729003906
 10
5602.748046875
 20
304.4203186035156
 10
5602.23486328125
 20
301.12152099609375
 10
5601.759765625
 20
297.8175354003906
 10
5601.34326171875
 20
294.5059814453125
 10
5601.0078125
 20
291.18560791015625
 10
5600.779296875
 20
287.8560791015625
 10
5600.68310546875
 20
284.52032470703125
 10
5600.74560546875
 20
281.18402099609375
 10
5600.990234375
 20
277.85595703125
 10
5601.439453125
 20
274.54962158203125
 10
5602.11083984375
 20
271.2806091308594
 10
5603.01708984375
 20
268.069091796875
 10
5604.166015625
 20
264.9361877441406
 10
5605.560546875
 20
261.9037170410156
 10
5607.19580078125
 20
258.99444580078125
 10
5609.0634765625
 20
256.22821044921875
 10
5611.1494140625
 20
253.6223602294922
 10
5613.43505859375
 20
251.190185546875
 10
5615.89990234375
 20
248.94061279296875
  0
LWPOLYLINE
  5
6D
330
17
100
AcDbEntity
  8
CUT
100
AcDbPolyline
 90
23
 70
1
 43
0.0
 10
-4442.32421875
 20
2437.0859375
 10
-4442.32421875
 20
2207.0859375
 10
-4507.19287109375
 20
2218.592529296875
 10
-4512.2900390625
 20
2220.178466796875
 10
-4517.0390625
 20
2223.018798828125
 10
-4521.11767578125
 20
2226.920654296875
 10
-4524.2470703125
 20
2231.617919921875
 10
-4526.21484375
 20
2236.79052734375
 10
-4526.8857421875
 20
2242.0859375
 10
-4526.8857421875
 20
2336.0859375
 10
-4526.74267578125
 20
2341.928466796875
 10
-4526.322265625
 20
2348.70556640625
 10
-4525.654296875
 20
2355.954833984375
 10
-4524.7841796875
 20
2363.18310546875
 10
-4523.7705078125
 20
2369.89697265625
 10
-4522.6826171875
 20
2375.639404296875
 10
-4513.6787109375
 20
2417.53271484375
 10
-4511.91015625
 20
2422.59375
 10
-4508.8984375
 20
2427.3095703125
 10
-4504.849609375
 20
2431.359375
 10
-4500.0390625
 20
2434.466552734375
 10
-4494.7958984375
 20
2436.419921875
 10
-4489.4755859375
 20
2437.086181640625
  0
LWPOLYLINE
  5
6F
330
17
100
AcDbEntity
  8
CUT
100
AcDbPolyline
 90
23
 70
1
 43
0.0
 10
4442.32421875
 20
2437.0859375
 10
4442.32421875
 20
2207.0859375
 10
4507.19287109375
 20
2218.592529296875
 10
4512.2900390625
 20
2220.178466796875
 10
4517.0390625
 20
2223.018798828125
 10
4521.11767578125
 20
2226.920654296875
 10
4524.2470703125
 20
2231.617919921875
 10
4526.21484375
 20
2236.79052734375
 10
4526.8857421875
 20
2242.0859375
 10
4526.8857421875
 20
2336.0859375
 10
4526.74267578125
 20
2341.928466796875
 10
4526.322265625
 20
2348.70556640625
 10
4525.654296875
 20
2355.954833984375
 10
4524.7841796875
 20
2363.18310546875
 10
4523.7705078125
 20
2369.89697265625
 10
4522.6826171875
 20
2375.639404296875
 10
4513.6787109375
 20
2417.53271484375
 10
4511.91015625
 20
2422.59375
 10
4508.8984375
 20
2427.3095703125
 10
4504.849609375
 20
2431.359375
 10
4500.0390625
 20
2434.466552734375
 10
4494.7958984375
 20
2436.419921875
 10
4489.4755859375
 20
2437.086181640625
  0
LWPOLYLINE
  5
71
330
17
100
AcDbEntity
  8
CUT
100
AcDbPolyline
 90
25
 70
1
 43
0.0
 10
-5787.751953125
 20
-52.502723693847656
 10
-5849.705078125
 20
-36.9527473449707
 10
-5831.71240234375
 20
34.73242950439453
 10
-5713.2548828125
 20
4.999997138977051
 10
-5684.365234375
 20
5.0
 10
-5683.40966796875
 20
-4.198754787445068
 10
-5683.0068359375
 20
-8.996259689331055
 10
-5682.71826171875
 20
-13.831153869628906
 10
-5682.5703125
 20
-18.689699172973633
 10
-5682.58984375
 20
-23.576457977294922
 10
-5682.8056640625
 20
-28.481876373291016
 10
-5683.2451171875
 20
-33.408233642578125
 10
-5683.93505859375
 20
-38.333595275878906
 10
-5684.89599609375
 20
-43.21696853637695
 10
-5686.150390625
 20
-48.061668395996094
 10
-5687.7119140625
 20
-52.834259033203125
 10
-5689.58544921875
 20
-57.50396728515625
 10
-5691.7744140625
 20
-62.042991638183594
 10
-5694.26953125
 20
-66.41912078857422
 10
-5697.06494140625
 20
-70.61717224121094
 10
-5700.14111328125
 20
-74.61018371582031
 10
-5703.474609375
 20
-78.37992095947266
 10
-5710.19873046875
 20
-85.04756927490234
 10
-5731.7900390625
 20
-66.54904174804688
 10
-5787.751953125
 20
-52.502723693847656
  0
LWPOLYLINE
  5
72
330
17
100
AcDbEntity
  8
PEN
100
AcDbPolyline
 90
20
 70
0
 43
0.0
 10
-5690.8466796875
 20
-8.428481101989746
 10
-5685.1416015625
 20
-10.287635803222656
 10
-5691.77587890625
 20
-11.280829429626465
 10
-5687.0009765625
 20
-15.992332458496094
 10
-5693.634765625
 20
-16.985525131225586
 10
-5688.85986328125
 20
-21.697025299072266
 10
-5695.494140625
 20
-22.690217971801758
 10
-5690.71923828125
 20
-27.40172004699707
 10
-5697.353515625
 20
-28.394914627075195
 10
-5692.578125
 20
-33.106414794921875
 10
-5699.21240234375
 20
-34.099613189697266
 10
-5694.4375
 20
-38.81111145019531
 10
-5701.07177734375
 20
-39.80430603027344
 10
-5696.296875
 20
-44.515804290771484
 10
-5702.93115234375
 20
-45.509002685546875
 10
-5698.15576171875
 20
-50.22050094604492
 10
-5704.7900390625
 20
-51.21369934082031
 10
-5700.01513671875
 20
-55.92519760131836
 10
-5706.6494140625
 20
-56.918392181396484
 10
-5700.9443359375
 20
-58.77754592895508
  0
LWPOLYLINE
  5
73
330
17
100
AcDbEntity
  8
PEN
100
AcDbPolyline
 90
8
 70
1
 43
0.0
 10
-5771.61474609375
 20
-31.34027099609375
 10
-5769.1875
 20
-29.887331008911133
 10
-5764.0751953125
 20
-9.519122123718262
 10
-5765.5283203125
 20
-7.092403411865234
 10
-5810.14453125
 20
4.106065273284912
 10
-5812.5712890625
 20
2.653125762939453
 10
-5817.68310546875
 20
-17.715084075927734
 10
-5816.23046875
 20
-20.141801834106445
  0
LWPOLYLINE
  5
75
330
17
100
AcDbEntity
  8
CUT
100
AcDbPolyline
 90
25
 70
1
 43
0.0
 10
5787.751953125
 20
-52.502723693847656
 10
5849.705078125
 20
-36.9527473449707
 10
5831.71240234375
 20
34.73242950439453
 10
5713.2548828125
 20
4.999997138977051
 10
5684.365234375
 20
5.0
 10
5683.40966796875
 20
-4.19875431060791
 10
5683.0068359375
 20
-8.996262550354004
 10
5682.71826171875
 20
-13.831151962280273
 10
5682.5703125
 20
-18.689699172973633
 10
5682.58984375
 20
-23.576457977294922
 10
5682.8056640625
 20
-28.481876373291016
 10
5683.2451171875
 20
-33.40822219848633
 10
5683.93505859375
 20
-38.3336067199707
 10
5684.89599609375
 20
-43.21696853637695
 10
5686.150390625
 20
-48.061668395996094
 10
5687.7119140625
 20
-52.834259033203125
 10
5689.58544921875
 20
-57.50396728515625
 10
5691.7744140625
 20
-62.042991638183594
 10
5694.26953125
 20
-66.41912078857422
 10
5697.06494140625
 20
-70.61717224121094
 10
5700.14111328125
 20
-74.61018371582031
 10
5703.474609375
 20
-78.37992095947266
 10
5710.19873046875
 20
-85.04756927490234
 10
5731.7900390625
 20
-66.54904174804688
 10
5787.751953125
 20
-52.502723693847656
  0
LWPOLYLINE
  5
76
330
17
100
AcDbEntity
  8
PEN
100
AcDbPolyline
 90
20
 70
0
 43
0.0
 10
5685.1416015625
 20
-10.287635803222656
 10
5690.8466796875
 20
-8.428481101989746
 10
5686.0712890625
 20
-13.139983177185059
 10
5692.70556640625
 20
-14.133176803588867
 10
5687.9306640625
 20
-18.84467887878418
 10
5694.56494140625
 20
-19.837871551513672
 10
5689.78955078125
 20
-24.54937171936035
 10
5696.423828125
 20
-25.542564392089844
 10
5691.6484375
 20
-30.254070281982422
 10
5698.283203125
 20
-31.24726104736328
 10
5693.5078125
 20
-35.95876693725586
 10
5700.14208984375
 20
-36.95195388793945
 10
5695.36669921875
 20
-41.66345977783203
 10
5702.0009765625
 20
-42.656654357910156
 10
5697.22607421875
 20
-47.3681526184082
 10
5703.8603515625
 20
-48.361351013183594
 10
5699.08544921875
 20
-53.07284927368164
 10
5705.71923828125
 20
-54.06604766845703
 10
5700.9443359375
 20
-58.77754592895508
 10
5706.6494140625
 20
-56.918392181396484
  0
LWPOLYLINE
  5
77
330
17
100
AcDbEntity
  8
PEN
100
AcDbPolyline
 90
8
 70
1
 43
0.0
 10
5771.61474609375
 20
-31.34027099609375
 10
5769.1875
 20
-29.887331008911133
 10
5764.0751953125
 20
-9.519122123718262
 10
5765.5283203125
 20
-7.092403411865234
 10
5810.14453125
 20
4.106062412261963
 10
5812.5712890625
 20
2.653122901916504
 10
5817.68310546875
 20
-17.715085983276367
 10
5816.23046875
 20
-20.14180564880371
  0
LWPOLYLINE
  5
79
330
17
100
AcDbEntity
  8
CUT
100
AcDbPolyline
 90
17
 70
1
 43
0.0
 10
-5543.53076171875
 20
-217.48289489746094
 10
-5528.53125
 20
-217.48289489746094
 10
-5528.53125
 20
-335.24664306640625
 10
-5528.78662109375
 20
-337.1878356933594
 10
-5529.53564453125
 20
-338.99664306640625
 10
-5530.72802734375
 20
-340.54998779296875
 10
-5532.28076171875
 20
-341.7418518066406
 10
-5534.08935546875
 20
-342.4910888671875
 10
-5536.03076171875
 20
-342.7466735839844
 10
-5551.03125
 20
-342.7466735839844
 10
-5552.97216796875
 20
-342.4910888671875
 10
-5554.78076171875
 20
-341.7418518066406
 10
-5556.333984375
 20
-340.54998779296875
 10
-5557.52587890625
 20
-338.99664306640625
 10
-5558.275390625
 20
-337.1878356933594
 10
-5558.53076171875
 20
-335.24664306640625
 10
-5558.53076171875
 20
-217.48289489746094
  0
LWPOLYLINE
  5
7B
330
17
100
AcDbEntity
  8
CUT
100
AcDbPolyline
 90
17
 70
1
 43
0.0
 10
5543.53076171875
 20
-217.48289489746094
 10
5558.53076171875
 20
-217.48289489746094
 10
5558.53076171875
 20
-335.24664306640625
 10
5558.275390625
 20
-337.1878356933594
 10
5557.52587890625
 20
-338.99664306640625
 10
5556.333984375
 20
-340.54998779296875
 10
5554.78076171875
 20
-341.7418518066406
 10
5552.97216796875
 20
-342.4910888671875
 10
5551.03125
 20
-342.7466735839844
 10
5536.03076171875
 20
-342.7466735839844
 10
5534.08935546875
 20
-342.4910888671875
 10
5532.28076171875
 20
-341.7418518066406
 10
5530.72802734375
 20
-340.54998779296875
 10
5529.53564453125
 20
-338.99664306640625
 10
5528.78662109375
 20
-337.1878356933594
 10
5528.53125
 20
-335.24664306640625
 10
5528.53125
 20
-217.48289489746094
  0
MTEXT
  5
7D
330
17
100
AcDbEntity
  8
TEXT
100
AcDbMText
 10
0.0
 20
-3500.0
 30
0.0
 40
200.0
 71
1
  3
This work is licensed under a Creative Commons \PAttribution-NonCommercial-ShareAlike 4.0 International License\Phttp://creativecommons.org/licenses/by-nc-sa/4.0/\PYou may not use this kite design for commercial purposes\PAuthor: Karsten Gaebert (inf
  1
o@wingworks.de)\PCreated: 2020-03-11
  0
ENDSEC
  0
SECTION
  2
OBJECTS
  0
DICTIONARY
  5
A
330
0
100
AcDbDictionary
281
1
  3
ACAD_MLINESTYLE
350
10
  3
ACAD_LAYOUT
350
D
  3
ACAD_TABLESTYLE
350
15
  3
ACAD_GROUP
350
C
  3
ACAD_MLEADERSTYLE
350
F
  3
ACAD_COLOR
350
B
  3
ACAD_PLOTSTYLENAME
350
12
  3
ACAD_VISUALSTYLE
350
16
  3
ACAD_SCALELIST
350
14
  3
ACAD_PLOTSETTINGS
350
11
  3
ACAD_MATERIAL
350
E
  0
DICTIONARY
  5
B
330
A
100
AcDbDictionary
281
1
  0
DICTIONARY
  5
C
330
A
100
AcDbDictionary
281
1
  3
cordura UV-SAIL-5.le_seam_patch.left_(4)
350
44
  3
cordura UV-LE-10.seg_seam_patch.left_(27)
350
7A
  3
cordura UV-STRUT-1-SEGMENT-4-tab_(2)
350
3E
  3
Copyright_(131)
350
7C
  3
cordura UV-LE-10.tip_line_patch_(22)
350
6C
  3
cordura UV-LE-5.seg_seam_patch.left_(11)
350
56
  3
cordura UV-LE-6.seg_seam_patch.left_(13)
350
5A
  3
cordura UV-LE-10.tip_line_patch.left_(23)
350
6E
  3
cordura UV-SAIL-5.le_seam_patch_(3)
350
42
  3
cordura UV-STRUT-5-SEGMENT-2-tab_(7)
350
4A
  3
cordura UV-LE-10-Tip-Patch_(20)
350
68
  3
cordura UV-STRUT-5-SEGMENT-2.left-tab.left_(8)
350
4E
  3
cordura UV-LE-9.seg_seam_patch_(18)
350
64
  3
cordura UV-LE-1.seg_seam_patch_(9)
350
52
  3
cordura UV-SAIL-5.te_seam_patch_(5)
350
46
  3
cordura UV-LE-10.left-Tip-Patch.left_(21)
350
6A
  3
cordura UV-LE-10.seg_seam_patch_(26)
350
78
  3
cordura UV-LE-9.seg_seam_patch.left_(19)
350
66
  3
cordura UV-LE-7.seg_seam_patch_(14)
350
5C
  3
cordura UV-LE-10.tab_left_(25)
350
74
  3
cordura UV-SAIL-1.le_seam_patch_(0)
350
3A
  3
cordura UV-LE-10.tab_(24)
350
70
  3
cordura UV-LE-8.seg_seam_patch.left_(17)
350
62
  3
cordura UV-SAIL-1.te_seam_patch_(1)
350
3C
  3
cordura UV-LE-6.seg_seam_patch_(12)
350
58
  3
cordura UV-LE-5.seg_seam_patch_(10)
350
54
  3
cordura UV-LE-8.seg_seam_patch_(16)
350
60
  3
cordura UV-SAIL-5.te_seam_patch.left_(6)
350
48
  3
cordura UV-LE-7.seg_seam_patch.left_(15)
350
5E
  0
DICTIONARY
  5
D
330
A
100
AcDbDictionary
281
1
  3
Layout1
350
1E
  3
Model
350
1A
  0
DICTIONARY
  5
E
330
A
100
AcDbDictionary
281
1
  3
ByBlock
350
1F
  3
Global
350
21
  3
ByLayer
350
20
  0
DICTIONARY
  5
F
330
A
100
AcDbDictionary
281
1
  3
Standard
350
2C
  0
DICTIONARY
  5
10
330
A
100
AcDbDictionary
281
1
  3
Standard
350
22
  0
DICTIONARY
  5
11
330
A
100
AcDbDictionary
281
1
  0
ACDBDICTIONARYWDFLT
  5
12
330
A
100
AcDbDictionary
281
1
  3
Normal
350
13
100
AcDbDictionaryWithDefault
340
13
  0
ACDBPLACEHOLDER
  5
13
330
12
  0
DICTIONARY
  5
14
330
A
100
AcDbDictionary
281
1
  0
DICTIONARY
  5
15
330
A
100
AcDbDictionary
281
1
  0
DICTIONARY
  5
16
330
A
100
AcDbDictionary
281
1
  0
LAYOUT
  5
1A
330
D
100
AcDbPlotSettings
  1

  2
Adobe PDF
  4
A4
  6

 40
3.175
 41
3.175
 42
3.175
 43
3.175
 44
209.91
 45
297.03
 46
0.0
 47
0.0
 48
0.0
 49
0.0
140
0.0
141
0.0
142
1.0
143
1.0
 70
688
 72
0
 73
1
 74
5
  7

 75
16
 76
0
 77
2
 78
300
147
1.0
148
0.0
149
0.0
100
AcDbLayout
  1
Model
 70
1
 71
0
 10
-3.175
 20
-3.175
 11
293.857
 21
206.735
 12
0.0
 22
0.0
 32
0.0
 14
29.068
 24
20.356
 34
0.0
 15
261.614
 25
183.204
 35
0.0
146
0.0
 13
0.0
 23
0.0
 33
0.0
 16
1.0
 26
0.0
 36
0.0
 17
0.0
 27
1.0
 37
0.0
 76
1
330
17
  0
LAYOUT
  5
1E
330
D
100
AcDbPlotSettings
  1

  2
Adobe PDF
  4
A4
  6

 40
3.175
 41
3.175
 42
3.175
 43
3.175
 44
209.91
 45
297.03
 46
0.0
 47
0.0
 48
0.0
 49
0.0
140
0.0
141
0.0
142
1.0
143
1.0
 70
688
 72
0
 73
1
 74
5
  7

 75
16
 76
0
 77
2
 78
300
147
1.0
148
0.0
149
0.0
100
AcDbLayout
  1
Layout1
 70
1
 71
1
 10
-3.175
 20
-3.175
 11
293.857
 21
206.735
 12
0.0
 22
0.0
 32
0.0
 14
29.068
 24
20.356
 34
0.0
 15
261.614
 25
183.204
 35
0.0
146
0.0
 13
0.0
 23
0.0
 33
0.0
 16
1.0
 26
0.0
 36
0.0
 17
0.0
 27
1.0
 37
0.0
 76
1
330
1B
  0
MATERIAL
  5
1F
102
{ACAD_REACTORS
330
E
102
}
330
E
100
AcDbMaterial
  1
ByBlock
  2

 70
0
 40
1.0
 71
1
 41
1.0
 91
-1023410177
 42
1.0
 72
1
  3

 73
1
 74
1
 75
1
 44
0.5
 73
0
 45
1.0
 46
1.0
 77
1
  4

 78
1
 79
1
170
1
 48
1.0
171
1
  6

172
1
173
1
174
1
140
1.0
141
1.0
175
1
  7

176
1
177
1
178
1
143
1.0
179
1
  8

270
1
271
1
272
1
145
1.0
146
1.0
273
1
  9

274
1
275
1
276
1
 42
1.0
 72
1
  3

 73
1
 74
1
 75
1
 94
63
  0
MATERIAL
  5
20
102
{ACAD_REACTORS
330
E
102
}
330
E
100
AcDbMaterial
  1
ByLayer
  2

 70
0
 40
1.0
 71
1
 41
1.0
 91
-1023410177
 42
1.0
 72
1
  3

 73
1
 74
1
 75
1
 44
0.5
 73
0
 45
1.0
 46
1.0
 77
1
  4

 78
1
 79
1
170
1
 48
1.0
171
1
  6

172
1
173
1
174
1
140
1.0
141
1.0
175
1
  7

176
1
177
1
178
1
143
1.0
179
1
  8

270
1
271
1
272
1
145
1.0
146
1.0
273
1
  9

274
1
275
1
276
1
 42
1.0
 72
1
  3

 73
1
 74
1
 75
1
 94
63
  0
MATERIAL
  5
21
102
{ACAD_REACTORS
330
E
102
}
330
E
100
AcDbMaterial
  1
Global
  2

 70
0
 40
1.0
 71
1
 41
1.0
 91
-1023410177
 42
1.0
 72
1
  3

 73
1
 74
1
 75
1
 44
0.5
 73
0
 45
1.0
 46
1.0
 77
1
  4

 78
1
 79
1
170
1
 48
1.0
171
1
  6

172
1
173
1
174
1
140
1.0
141
1.0
175
1
  7

176
1
177
1
178
1
143
1.0
179
1
  8

270
1
271
1
272
1
145
1.0
146
1.0
273
1
  9

274
1
275
1
276
1
 42
1.0
 72
1
  3

 73
1
 74
1
 75
1
 94
63
  0
MLINESTYLE
  5
22
102
{ACAD_REACTORS
330
10
102
}
330
10
100
AcDbMlineStyle
 52
90.0
 51
90.0
  2
Standard
 70
0
 62
256
  3

 71
2
 49
0.5
 62
256
  6
BYLAYER
 49
-0.5
 62
256
  6
BYLAYER
  0
MLEADERSTYLE
  5
2C
102
{ACAD_REACTORS
330
F
102
}
330
F
100
AcDbMLeaderStyle
142
1.0
143
3.75
175
1
291
1
 47
1.0
 44
4.0
271
0
179
2
292
0
140
1.0
 92
-2
297
0
290
1
 46
4.0
 40
0.0
  3
Standard
300

141
0.0
178
1
177
0
 93
-1056964608
 91
-1056964608
 90
2
296
0
 45
4.0
176
0
170
2
342
29
172
0
 41
0.0
171
1
 42
2.0
272
9
173
1
294
1
295
0
174
1
 43
8.0
 94
-1056964608
 49
0.0
272
9
  0
GROUP
  5
3A
102
{ACAD_REACTORS
330
C
102
}
330
C
100
AcDbGroup
300

 70
0
 71
1
340
3B
  0
GROUP
  5
3C
102
{ACAD_REACTORS
330
C
102
}
330
C
100
AcDbGroup
300

 70
0
 71
1
340
3D
  0
GROUP
  5
3E
102
{ACAD_REACTORS
330
C
102
}
330
C
100
AcDbGroup
300

 70
0
 71
1
340
3F
340
40
340
41
  0
GROUP
  5
42
102
{ACAD_REACTORS
330
C
102
}
330
C
100
AcDbGroup
300

 70
0
 71
1
340
43
  0
GROUP
  5
44
102
{ACAD_REACTORS
330
C
102
}
330
C
100
AcDbGroup
300

 70
0
 71
1
340
45
  0
GROUP
  5
46
102
{ACAD_REACTORS
330
C
102
}
330
C
100
AcDbGroup
300

 70
0
 71
1
340
47
  0
GROUP
  5
48
102
{ACAD_REACTORS
330
C
102
}
330
C
100
AcDbGroup
300

 70
0
 71
1
340
49
  0
GROUP
  5
4A
102
{ACAD_REACTORS
330
C
102
}
330
C
100
AcDbGroup
300

 70
0
 71
1
340
4B
340
4C
340
4D
  0
GROUP
  5
4E
102
{ACAD_REACTORS
330
C
102
}
330
C
100
AcDbGroup
300

 70
0
 71
1
340
4F
340
50
340
51
  0
GROUP
  5
52
102
{ACAD_REACTORS
330
C
102
}
330
C
100
AcDbGroup
300

 70
0
 71
1
340
53
  0
GROUP
  5
54
102
{ACAD_REACTORS
330
C
102
}
330
C
100
AcDbGroup
300

 70
0
 71
1
340
55
  0
GROUP
  5
56
102
{ACAD_REACTORS
330
C
102
}
330
C
100
AcDbGroup
300

 70
0
 71
1
340
57
  0
GROUP
  5
58
102
{ACAD_REACTORS
330
C
102
}
330
C
100
AcDbGroup
300

 70
0
 71
1
340
59
  0
GROUP
  5
5A
102
{ACAD_REACTORS
330
C
102
}
330
C
100
AcDbGroup
300

 70
0
 71
1
340
5B
  0
GROUP
  5
5C
102
{ACAD_REACTORS
330
C
102
}
330
C
100
AcDbGroup
300

 70
0
 71
1
340
5D
  0
GROUP
  5
5E
102
{ACAD_REACTORS
330
C
102
}
330
C
100
AcDbGroup
300

 70
0
 71
1
340
5F
  0
GROUP
  5
60
102
{ACAD_REACTORS
330
C
102
}
330
C
100
AcDbGroup
300

 70
0
 71
1
340
61
  0
GROUP
  5
62
102
{ACAD_REACTORS
330
C
102
}
330
C
100
AcDbGroup
300

 70
0
 71
1
340
63
  0
GROUP
  5
64
102
{ACAD_REACTORS
330
C
102
}
330
C
100
AcDbGroup
300

 70
0
 71
1
340
65
  0
GROUP
  5
66
102
{ACAD_REACTORS
330
C
102
}
330
C
100
AcDbGroup
300

 70
0
 71
1
340
67
  0
GROUP
  5
68
102
{ACAD_REACTORS
330
C
102
}
330
C
100
AcDbGroup
300

 70
0
 71
1
340
69
  0
GROUP
  5
6A
102
{ACAD_REACTORS
330
C
102
}
330
C
100
AcDbGroup
300

 70
0
 71
1
340
6B
  0
GROUP
  5
6C
102
{ACAD_REACTORS
330
C
102
}
330
C
100
AcDbGroup
300

 70
0
 71
1
340
6D
  0
GROUP
  5
6E
102
{ACAD_REACTORS
330
C
102
}
330
C
100
AcDbGroup
300

 70
0
 71
1
340
6F
  0
GROUP
  5
70
102
{ACAD_REACTORS
330
C
102
}
330
C
100
AcDbGroup
300

 70
0
 71
1
340
71
340
72
340
73
  0
GROUP
  5
74
102
{ACAD_REACTORS
330
C
102
}
330
C
100
AcDbGroup
300

 70
0
 71
1
340
75
340
76
340
77
  0
GROUP
  5
78
102
{ACAD_REACTORS
330
C
102
}
330
C
100
AcDbGroup
300

 70
0
 71
1
340
79
  0
GROUP
  5
7A
102
{ACAD_REACTORS
330
C
102
}
330
C
100
AcDbGroup
300

 70
0
 71
1
340
7B
  0
GROUP
  5
7C
102
{ACAD_REACTORS
330
C
102
}
330
C
100
AcDbGroup
300

 70
0
 71
1
340
7D
  0
ENDSEC
  0
EOF
